<svg width="112" height="42" viewBox="0 0 112 42" fill="none" xmlns="http://www.w3.org/2000/svg">
<path d="M23.2928 24.086H18.3458L17.4958 26.5H15.4728L19.7058 14.668H21.9498L26.1828 26.5H24.1428L23.2928 24.086ZM22.7488 22.505L20.8278 17.014L18.8898 22.505H22.7488ZM29.9613 18.527C30.2899 18.0737 30.7376 17.7053 31.3043 17.422C31.8823 17.1273 32.5226 16.98 33.2253 16.98C34.0526 16.98 34.8006 17.1783 35.4693 17.575C36.1379 17.9717 36.6649 18.5383 37.0503 19.275C37.4356 20.0003 37.6283 20.8333 37.6283 21.774C37.6283 22.7147 37.4356 23.559 37.0503 24.307C36.6649 25.0437 36.1323 25.6217 35.4523 26.041C34.7836 26.449 34.0413 26.653 33.2253 26.653C32.4999 26.653 31.8539 26.5113 31.2873 26.228C30.7319 25.9447 30.2899 25.582 29.9613 25.14V26.5H28.0233V13.92H29.9613V18.527ZM35.6563 21.774C35.6563 21.128 35.5203 20.5727 35.2483 20.108C34.9876 19.632 34.6363 19.275 34.1943 19.037C33.7636 18.7877 33.2989 18.663 32.8003 18.663C32.3129 18.663 31.8483 18.7877 31.4063 19.037C30.9756 19.2863 30.6243 19.649 30.3523 20.125C30.0916 20.601 29.9613 21.162 29.9613 21.808C29.9613 22.454 30.0916 23.0207 30.3523 23.508C30.6243 23.984 30.9756 24.3467 31.4063 24.596C31.8483 24.8453 32.3129 24.97 32.8003 24.97C33.2989 24.97 33.7636 24.8453 34.1943 24.596C34.6363 24.3353 34.9876 23.9613 35.2483 23.474C35.5203 22.9867 35.6563 22.42 35.6563 21.774ZM43.6078 26.653C42.7238 26.653 41.9248 26.4547 41.2108 26.058C40.4968 25.65 39.9358 25.0833 39.5278 24.358C39.1198 23.6213 38.9158 22.7713 38.9158 21.808C38.9158 20.856 39.1254 20.0117 39.5448 19.275C39.9641 18.5383 40.5364 17.9717 41.2618 17.575C41.9871 17.1783 42.7974 16.98 43.6928 16.98C44.5881 16.98 45.3984 17.1783 46.1238 17.575C46.8491 17.9717 47.4214 18.5383 47.8408 19.275C48.2601 20.0117 48.4698 20.856 48.4698 21.808C48.4698 22.76 48.2544 23.6043 47.8238 24.341C47.3931 25.0777 46.8038 25.65 46.0558 26.058C45.3191 26.4547 44.5031 26.653 43.6078 26.653ZM43.6078 24.97C44.1064 24.97 44.5711 24.851 45.0018 24.613C45.4438 24.375 45.8008 24.018 46.0728 23.542C46.3448 23.066 46.4808 22.488 46.4808 21.808C46.4808 21.128 46.3504 20.5557 46.0898 20.091C45.8291 19.615 45.4834 19.258 45.0528 19.02C44.6221 18.782 44.1574 18.663 43.6588 18.663C43.1601 18.663 42.6954 18.782 42.2648 19.02C41.8454 19.258 41.5111 19.615 41.2618 20.091C41.0124 20.5557 40.8878 21.128 40.8878 21.808C40.8878 22.8167 41.1428 23.5987 41.6528 24.154C42.1741 24.698 42.8258 24.97 43.6078 24.97ZM58.8686 17.133V26.5H56.9306V25.395C56.6246 25.7803 56.2222 26.0863 55.7236 26.313C55.2362 26.5283 54.7149 26.636 54.1596 26.636C53.4229 26.636 52.7599 26.483 52.1706 26.177C51.5926 25.871 51.1336 25.4177 50.7936 24.817C50.4649 24.2163 50.3006 23.491 50.3006 22.641V17.133H52.2216V22.352C52.2216 23.1907 52.4312 23.8367 52.8506 24.29C53.2699 24.732 53.8422 24.953 54.5676 24.953C55.2929 24.953 55.8652 24.732 56.2846 24.29C56.7152 23.8367 56.9306 23.1907 56.9306 22.352V17.133H58.8686ZM63.6866 18.714V23.899C63.6866 24.2503 63.7659 24.5053 63.9246 24.664C64.0946 24.8113 64.3779 24.885 64.7746 24.885H65.9646V26.5H64.4346C63.5619 26.5 62.8933 26.296 62.4286 25.888C61.9639 25.48 61.7316 24.817 61.7316 23.899V18.714H60.6266V17.133H61.7316V14.804H63.6866V17.133H65.9646V18.714H63.6866ZM84.6108 14.685V26.5H82.6728V18.408L79.0688 26.5H77.7258L74.1048 18.408V26.5H72.1668V14.685H74.2578L78.4058 23.95L82.5368 14.685H84.6108ZM95.743 21.587C95.743 21.9383 95.7204 22.2557 95.675 22.539H88.518C88.5747 23.287 88.8524 23.8877 89.351 24.341C89.8497 24.7943 90.4617 25.021 91.187 25.021C92.2297 25.021 92.9664 24.5847 93.397 23.712H95.488C95.2047 24.5733 94.689 25.2817 93.941 25.837C93.2044 26.381 92.2864 26.653 91.187 26.653C90.2917 26.653 89.487 26.4547 88.773 26.058C88.0704 25.65 87.515 25.0833 87.107 24.358C86.7104 23.6213 86.512 22.7713 86.512 21.808C86.512 20.8447 86.7047 20.0003 87.09 19.275C87.4867 18.5383 88.0364 17.9717 88.739 17.575C89.453 17.1783 90.269 16.98 91.187 16.98C92.071 16.98 92.8587 17.1727 93.55 17.558C94.2414 17.9433 94.7797 18.4873 95.165 19.19C95.5504 19.8813 95.743 20.6803 95.743 21.587ZM93.72 20.975C93.7087 20.261 93.4537 19.6887 92.955 19.258C92.4564 18.8273 91.8387 18.612 91.102 18.612C90.4334 18.612 89.861 18.8273 89.385 19.258C88.909 19.6773 88.6257 20.2497 88.535 20.975H93.72Z" fill="#FF4883"/>
<path d="M110.77 21C110.77 23.6326 109.323 26.2031 106.569 28.6025C103.816 31.0009 99.8035 33.1835 94.8017 35.0265C84.8022 38.7111 70.9547 41 55.6348 41C40.3149 41 26.4674 38.7111 16.4679 35.0265C11.4662 33.1835 7.45355 31.0009 4.7005 28.6025C1.94629 26.2031 0.5 23.6326 0.5 21C0.5 18.3674 1.94629 15.7969 4.7005 13.3975C7.45355 10.9991 11.4662 8.81648 16.4679 6.97347C26.4674 3.28892 40.3149 1 55.6348 1C70.9547 1 84.8022 3.28892 94.8017 6.97347C99.8035 8.81648 103.816 10.9991 106.569 13.3975C109.323 15.7969 110.77 18.3674 110.77 21Z" stroke="#FF4883"/>
</svg>
