<svg width="1040" height="101" viewBox="0 0 1040 101" fill="none" xmlns="http://www.w3.org/2000/svg">
<rect width="510" height="100" transform="translate(0 0.701477)" fill="white"/>
<path d="M208.794 64.2015V60.3375L208.426 59.4911V52.5727C208.426 51.346 208.045 50.3892 207.285 49.7023C206.549 49.0153 205.408 48.6719 203.862 48.6719C202.807 48.6719 201.765 48.8436 200.734 49.1871C199.729 49.506 198.87 49.9476 198.158 50.5119L196.098 46.5007C197.177 45.7401 198.477 45.1513 199.998 44.7343C201.519 44.3172 203.065 44.1087 204.635 44.1087C207.653 44.1087 209.996 44.8201 211.664 46.2431C213.332 47.666 214.166 49.8863 214.166 52.9039V64.2015H208.794ZM202.758 64.4959C201.213 64.4959 199.888 64.2383 198.784 63.7231C197.68 63.1833 196.834 62.4596 196.245 61.5519C195.656 60.6441 195.362 59.626 195.362 58.4975C195.362 57.3199 195.644 56.2895 196.208 55.4063C196.797 54.5231 197.717 53.8361 198.968 53.3455C200.219 52.8303 201.851 52.5727 203.862 52.5727H209.125V55.9215H204.488C203.139 55.9215 202.206 56.1423 201.691 56.5839C201.201 57.0255 200.955 57.5775 200.955 58.2399C200.955 58.9759 201.237 59.5647 201.802 60.0063C202.39 60.4233 203.188 60.6319 204.194 60.6319C205.15 60.6319 206.009 60.4111 206.77 59.9695C207.53 59.5033 208.082 58.8287 208.426 57.9455L209.309 60.5951C208.892 61.8708 208.131 62.8399 207.027 63.5023C205.923 64.1647 204.5 64.4959 202.758 64.4959ZM220.061 64.2015V43.9615C220.061 41.7289 220.724 39.9503 222.048 38.6255C223.373 37.2761 225.262 36.6015 227.716 36.6015C228.55 36.6015 229.347 36.6873 230.108 36.8591C230.893 37.0308 231.555 37.3007 232.095 37.6687L230.586 41.8271C230.267 41.6063 229.911 41.4345 229.519 41.3119C229.126 41.1892 228.709 41.1279 228.268 41.1279C227.434 41.1279 226.783 41.3732 226.317 41.8639C225.876 42.33 225.655 43.0415 225.655 43.9983V45.8383L225.802 48.3039V64.2015H220.061ZM217.007 49.2607V44.8447H230.733V49.2607H217.007ZM234.293 64.2015V43.9615C234.293 41.7289 234.955 39.9503 236.28 38.6255C237.605 37.2761 239.494 36.6015 241.947 36.6015C242.781 36.6015 243.578 36.6873 244.339 36.8591C245.124 37.0308 245.786 37.3007 246.326 37.6687L244.817 41.8271C244.498 41.6063 244.143 41.4345 243.75 41.3119C243.358 41.1892 242.941 41.1279 242.499 41.1279C241.665 41.1279 241.015 41.3732 240.549 41.8639C240.107 42.33 239.886 43.0415 239.886 43.9983V45.8383L240.033 48.3039V64.2015H234.293ZM231.238 49.2607V44.8447H244.965V49.2607H231.238ZM248.203 64.2015V36.8959H253.944V64.2015H248.203ZM261.755 71.6351C260.725 71.6351 259.707 71.4756 258.701 71.1567C257.695 70.8377 256.873 70.3961 256.235 69.8319L258.333 65.7471C258.774 66.1396 259.277 66.4463 259.842 66.6671C260.43 66.8879 261.007 66.9983 261.571 66.9983C262.381 66.9983 263.019 66.802 263.485 66.4095C263.975 66.0415 264.417 65.4159 264.81 64.5327L265.84 62.1039L266.282 61.4783L273.384 44.4031H278.904L269.962 65.4159C269.324 67.0105 268.588 68.2617 267.754 69.1695C266.944 70.0772 266.036 70.7151 265.03 71.0831C264.049 71.4511 262.957 71.6351 261.755 71.6351ZM265.141 64.9743L256.309 44.4031H262.234L269.078 60.9631L265.141 64.9743ZM281.946 64.2015V43.9615C281.946 41.7289 282.608 39.9503 283.933 38.6255C285.258 37.2761 287.147 36.6015 289.6 36.6015C290.434 36.6015 291.232 36.6873 291.992 36.8591C292.777 37.0308 293.44 37.3007 293.979 37.6687L292.47 41.8271C292.152 41.6063 291.796 41.4345 291.403 41.3119C291.011 41.1892 290.594 41.1279 290.152 41.1279C289.318 41.1279 288.668 41.3732 288.202 41.8639C287.76 42.33 287.539 43.0415 287.539 43.9983V45.8383L287.686 48.3039V64.2015H281.946ZM278.891 49.2607V44.8447H292.618V49.2607H278.891ZM305.052 64.4959C302.795 64.4959 300.807 64.0543 299.09 63.1711C297.397 62.2879 296.085 61.0857 295.153 59.5647C294.22 58.0191 293.754 56.2649 293.754 54.3023C293.754 52.3151 294.208 50.5609 295.116 49.0399C296.048 47.4943 297.311 46.2921 298.906 45.4335C300.501 44.5503 302.304 44.1087 304.316 44.1087C306.254 44.1087 307.996 44.5257 309.541 45.3599C311.111 46.1695 312.35 47.3471 313.258 48.8927C314.166 50.4137 314.62 52.2415 314.62 54.3759C314.62 54.5967 314.607 54.8543 314.583 55.1487C314.558 55.4185 314.534 55.6761 314.509 55.9215H298.428V52.5727H311.492L309.284 53.5663C309.284 52.5359 309.075 51.6404 308.658 50.8799C308.241 50.1193 307.665 49.5305 306.929 49.1135C306.193 48.6719 305.334 48.4511 304.353 48.4511C303.371 48.4511 302.5 48.6719 301.74 49.1135C301.004 49.5305 300.427 50.1316 300.01 50.9167C299.593 51.6772 299.385 52.5849 299.385 53.6399V54.5231C299.385 55.6025 299.618 56.5593 300.084 57.3935C300.574 58.2031 301.249 58.8287 302.108 59.2703C302.991 59.6873 304.021 59.8959 305.199 59.8959C306.254 59.8959 307.174 59.7364 307.959 59.4175C308.769 59.0985 309.505 58.6201 310.167 57.9823L313.221 61.2943C312.314 62.3247 311.173 63.122 309.799 63.6863C308.425 64.226 306.843 64.4959 305.052 64.4959Z" fill="black"/>
<rect x="264.533" y="37.4017" width="6.13333" height="6.13333" fill="#BC659A"/>
<rect width="510" height="100" transform="translate(530 0.701477)" fill="#101010"/>
<path d="M738.794 64.2015V60.3375L738.426 59.4911V52.5727C738.426 51.346 738.045 50.3892 737.285 49.7023C736.549 49.0153 735.408 48.6719 733.862 48.6719C732.807 48.6719 731.765 48.8436 730.734 49.1871C729.729 49.506 728.87 49.9476 728.158 50.5119L726.098 46.5007C727.177 45.7401 728.477 45.1513 729.998 44.7343C731.519 44.3172 733.065 44.1087 734.635 44.1087C737.653 44.1087 739.996 44.8201 741.664 46.2431C743.332 47.666 744.166 49.8863 744.166 52.9039V64.2015H738.794ZM732.758 64.4959C731.213 64.4959 729.888 64.2383 728.784 63.7231C727.68 63.1833 726.834 62.4596 726.245 61.5519C725.656 60.6441 725.362 59.626 725.362 58.4975C725.362 57.3199 725.644 56.2895 726.208 55.4063C726.797 54.5231 727.717 53.8361 728.968 53.3455C730.219 52.8303 731.851 52.5727 733.862 52.5727H739.125V55.9215H734.488C733.139 55.9215 732.206 56.1423 731.691 56.5839C731.201 57.0255 730.955 57.5775 730.955 58.2399C730.955 58.9759 731.237 59.5647 731.802 60.0063C732.39 60.4233 733.188 60.6319 734.194 60.6319C735.15 60.6319 736.009 60.4111 736.77 59.9695C737.53 59.5033 738.082 58.8287 738.426 57.9455L739.309 60.5951C738.892 61.8708 738.131 62.8399 737.027 63.5023C735.923 64.1647 734.5 64.4959 732.758 64.4959ZM750.061 64.2015V43.9615C750.061 41.7289 750.724 39.9503 752.048 38.6255C753.373 37.2761 755.262 36.6015 757.716 36.6015C758.55 36.6015 759.347 36.6873 760.108 36.8591C760.893 37.0308 761.555 37.3007 762.095 37.6687L760.586 41.8271C760.267 41.6063 759.911 41.4345 759.519 41.3119C759.126 41.1892 758.709 41.1279 758.268 41.1279C757.434 41.1279 756.783 41.3732 756.317 41.8639C755.876 42.33 755.655 43.0415 755.655 43.9983V45.8383L755.802 48.3039V64.2015H750.061ZM747.007 49.2607V44.8447H760.733V49.2607H747.007ZM764.293 64.2015V43.9615C764.293 41.7289 764.955 39.9503 766.28 38.6255C767.605 37.2761 769.494 36.6015 771.947 36.6015C772.781 36.6015 773.578 36.6873 774.339 36.8591C775.124 37.0308 775.786 37.3007 776.326 37.6687L774.817 41.8271C774.498 41.6063 774.143 41.4345 773.75 41.3119C773.358 41.1892 772.941 41.1279 772.499 41.1279C771.665 41.1279 771.015 41.3732 770.549 41.8639C770.107 42.33 769.886 43.0415 769.886 43.9983V45.8383L770.033 48.3039V64.2015H764.293ZM761.238 49.2607V44.8447H774.965V49.2607H761.238ZM778.203 64.2015V36.8959H783.944V64.2015H778.203ZM791.755 71.6351C790.725 71.6351 789.707 71.4756 788.701 71.1567C787.695 70.8377 786.873 70.3961 786.235 69.8319L788.333 65.7471C788.774 66.1396 789.277 66.4463 789.842 66.6671C790.43 66.8879 791.007 66.9983 791.571 66.9983C792.381 66.9983 793.019 66.802 793.485 66.4095C793.975 66.0415 794.417 65.4159 794.81 64.5327L795.84 62.1039L796.282 61.4783L803.384 44.4031H808.904L799.962 65.4159C799.324 67.0105 798.588 68.2617 797.754 69.1695C796.944 70.0772 796.036 70.7151 795.03 71.0831C794.049 71.4511 792.957 71.6351 791.755 71.6351ZM795.141 64.9743L786.309 44.4031H792.234L799.078 60.9631L795.141 64.9743ZM811.946 64.2015V43.9615C811.946 41.7289 812.608 39.9503 813.933 38.6255C815.258 37.2761 817.147 36.6015 819.6 36.6015C820.434 36.6015 821.232 36.6873 821.992 36.8591C822.777 37.0308 823.44 37.3007 823.979 37.6687L822.47 41.8271C822.152 41.6063 821.796 41.4345 821.403 41.3119C821.011 41.1892 820.594 41.1279 820.152 41.1279C819.318 41.1279 818.668 41.3732 818.202 41.8639C817.76 42.33 817.539 43.0415 817.539 43.9983V45.8383L817.686 48.3039V64.2015H811.946ZM808.891 49.2607V44.8447H822.618V49.2607H808.891ZM835.052 64.4959C832.795 64.4959 830.807 64.0543 829.09 63.1711C827.397 62.2879 826.085 61.0857 825.153 59.5647C824.22 58.0191 823.754 56.2649 823.754 54.3023C823.754 52.3151 824.208 50.5609 825.116 49.0399C826.048 47.4943 827.311 46.2921 828.906 45.4335C830.501 44.5503 832.304 44.1087 834.316 44.1087C836.254 44.1087 837.996 44.5257 839.541 45.3599C841.111 46.1695 842.35 47.3471 843.258 48.8927C844.166 50.4137 844.62 52.2415 844.62 54.3759C844.62 54.5967 844.607 54.8543 844.583 55.1487C844.558 55.4185 844.534 55.6761 844.509 55.9215H828.428V52.5727H841.492L839.284 53.5663C839.284 52.5359 839.075 51.6404 838.658 50.8799C838.241 50.1193 837.665 49.5305 836.929 49.1135C836.193 48.6719 835.334 48.4511 834.353 48.4511C833.371 48.4511 832.5 48.6719 831.74 49.1135C831.004 49.5305 830.427 50.1316 830.01 50.9167C829.593 51.6772 829.385 52.5849 829.385 53.6399V54.5231C829.385 55.6025 829.618 56.5593 830.084 57.3935C830.574 58.2031 831.249 58.8287 832.108 59.2703C832.991 59.6873 834.021 59.8959 835.199 59.8959C836.254 59.8959 837.174 59.7364 837.959 59.4175C838.769 59.0985 839.505 58.6201 840.167 57.9823L843.221 61.2943C842.314 62.3247 841.173 63.122 839.799 63.6863C838.425 64.226 836.843 64.4959 835.052 64.4959Z" fill="white"/>
<rect x="794.533" y="37.4017" width="6.13333" height="6.13333" fill="#BC659A"/>
</svg>
