<svg width="80" height="80" viewBox="0 0 100 100" fill="none" xmlns="http://www.w3.org/2000/svg">
<path d="M6.25 37.9166C6.25 26.8323 6.25 21.2901 8.40716 17.0564C10.3047 13.3324 13.3324 10.3047 17.0564 8.40716C21.2901 6.25 26.8323 6.25 37.9166 6.25H62.0834C73.1678 6.25 78.71 6.25 82.9434 8.40716C86.6675 10.3047 89.6953 13.3324 91.5928 17.0564C93.75 21.2901 93.75 26.8323 93.75 37.9166V62.0834C93.75 73.1678 93.75 78.71 91.5928 82.9434C89.6953 86.6675 86.6675 89.6953 82.9434 91.5928C78.71 93.75 73.1678 93.75 62.0834 93.75H37.9166C26.8323 93.75 21.2901 93.75 17.0564 91.5928C13.3324 89.6953 10.3047 86.6675 8.40716 82.9434C6.25 78.71 6.25 73.1678 6.25 62.0834V37.9166Z" fill="#330000"/>
<path d="M48.6521 61.238H35.093L32.3343 70.0277C32.2577 70.3542 31.9571 70.5855 31.6299 70.5692H24.7622C24.3706 70.5692 24.2336 70.3486 24.3514 69.9071L36.0909 35.2302C36.2084 34.8689 36.3259 34.4577 36.443 33.9961C36.5968 33.1927 36.6752 32.3764 36.678 31.558C36.6443 31.3161 36.8568 31.1025 37.0887 31.1364H46.4218C46.6952 31.1364 46.8515 31.2367 46.8912 31.4374L60.2159 69.9674C60.333 70.3689 60.2159 70.5696 59.8637 70.5692H52.2327C51.9652 70.5999 51.7096 70.4164 51.6459 70.148L48.6521 61.238ZM37.2062 53.6524H46.4805C44.9568 48.4455 43.2371 43.3071 41.8434 38.0599C40.3396 43.3161 38.699 48.5511 37.2062 53.6524Z" fill="#FF9A00"/>
<path d="M68.139 37.5181C67.5402 37.5428 66.9433 37.4375 66.3868 37.2094C65.8305 36.9813 65.3274 36.635 64.9105 36.1938C64.4949 35.7331 64.1718 35.1931 63.9602 34.6041C63.7486 34.0153 63.6527 33.3894 63.6777 32.7622C63.6565 32.1413 63.763 31.5228 63.9905 30.947C64.2183 30.3713 64.5618 29.8513 64.9987 29.4209C65.4312 28.995 65.9418 28.6613 66.5011 28.4391C67.0602 28.2169 67.6568 28.1107 68.2561 28.1265C69.6652 28.1265 70.7705 28.558 71.5727 29.4209C71.9777 29.8693 72.2924 30.3953 72.499 30.9686C72.7052 31.5419 72.7996 32.1516 72.7758 32.7622C72.8005 33.3916 72.7015 34.02 72.4846 34.6094C72.268 35.1988 71.9377 35.7375 71.514 36.1938C71.0711 36.6416 70.5424 36.9903 69.9618 37.2184C69.3808 37.4463 68.7602 37.5484 68.139 37.5181ZM64.0886 69.9675V41.1906C64.0886 40.8294 64.2446 40.6488 64.5583 40.6488H71.7783C72.0908 40.6488 72.2474 40.8294 72.2477 41.1906V69.9675C72.2477 70.3694 72.0912 70.57 71.7783 70.5697H64.6171C64.2649 70.5697 64.0886 70.3691 64.0886 69.9675Z" fill="#FF9A00"/>
</svg>
