<svg width="40" height="40" viewBox="0 0 100 100" fill="none" xmlns="http://www.w3.org/2000/svg">
<g clip-path="url(#clip0_815_17092)">
<path d="M0 87.1059C0 94.2279 5.77286 100 12.8941 100H87.1059C94.2279 100 100 94.2271 100 87.1059V12.8941C100 5.77208 94.2271 0 87.1059 0H12.8941C5.77208 0 0 5.77286 0 12.8941V87.1059Z" fill="#563D7C"/>
<path d="M41.4678 44.2336V30.0721H53.9334C55.1206 30.0721 56.2653 30.171 57.3677 30.3689C58.4701 30.5668 59.4453 30.9201 60.2933 31.4289C61.1413 31.9377 61.8197 32.6444 62.3285 33.5489C62.8373 34.4534 63.0917 35.6123 63.0917 37.0257C63.0917 39.5697 62.3285 41.407 60.8021 42.5376C59.2757 43.6683 57.3254 44.2336 54.951 44.2336H41.4678ZM28.1543 19.7266V80.2734H57.4949C60.2085 80.2734 62.8514 79.9342 65.4237 79.2558C67.996 78.5774 70.2855 77.5316 72.2925 76.1183C74.2994 74.7049 75.8964 72.8818 77.0836 70.6487C78.2708 68.4156 78.8644 65.7727 78.8644 62.7199C78.8644 58.9322 77.9458 55.6957 76.1084 53.0104C74.2711 50.3251 71.4869 48.4453 67.7557 47.3712C70.4693 46.0709 72.5186 44.4032 73.9037 42.368C75.2887 40.3328 75.9812 37.7889 75.9812 34.7361C75.9812 31.9094 75.5149 29.5351 74.5821 27.6129C73.6493 25.6908 72.3349 24.1503 70.6389 22.9913C68.9429 21.8324 66.9077 20.9986 64.5333 20.4898C62.1589 19.981 59.5301 19.7266 56.6469 19.7266H28.1543ZM41.4678 69.9279V53.3072H55.9686C58.8517 53.3072 61.1696 53.9714 62.9221 55.3C64.6746 56.6285 65.5509 58.8474 65.5509 61.9567C65.5509 63.5397 65.2824 64.8399 64.7453 65.8575C64.2082 66.8751 63.4874 67.6807 62.5829 68.2743C61.6784 68.8679 60.6325 69.2919 59.4453 69.5463C58.2581 69.8007 57.0144 69.9279 55.7142 69.9279H41.4678Z" fill="white"/>
</g>
<defs>
<clipPath id="clip0_815_17092">
<rect width="100" height="100" fill="white"/>
</clipPath>
</defs>
</svg>
