<svg width="1040" height="143" viewBox="0 0 1040 143" fill="none" xmlns="http://www.w3.org/2000/svg">
<rect width="510" height="142.148" transform="translate(0 0.701477)" fill="white"/>
<path d="M209.579 110.375C208.794 110.375 208.194 110.662 207.76 111.248C207.336 111.833 207.119 112.644 207.119 113.681C207.119 115.847 207.936 116.936 209.579 116.936C210.262 116.936 211.099 116.761 212.081 116.422V118.147C211.275 118.476 210.375 118.65 209.393 118.65C207.967 118.65 206.881 118.219 206.127 117.367C205.372 116.504 205 115.283 205 113.671C205 112.665 205.186 111.771 205.558 111.012C205.93 110.252 206.458 109.667 207.15 109.266C207.843 108.855 208.659 108.66 209.59 108.66C210.541 108.66 211.492 108.886 212.453 109.348L211.781 111.022C211.419 110.847 211.047 110.693 210.675 110.57C210.303 110.437 209.931 110.375 209.579 110.375Z" fill="#25263E"/>
<path d="M229.034 118.517H226.966V114.317H223.09V118.517H221.012V108.794H223.09V112.603H226.966V108.794H229.034V118.517Z" fill="#25263E"/>
<path d="M244.001 118.517H238.367V108.794H244.001V110.488H240.434V112.623H243.753V114.317H240.434V116.823H244.001V118.517Z" fill="#25263E"/>
<path d="M260.778 118.517H258.421L255.858 114.42L254.979 115.046V118.517H252.901V108.794H254.979V113.239L255.796 112.1L258.452 108.794H260.758L257.346 113.096L260.778 118.517Z" fill="#25263E"/>
<path d="M276.738 118.517H274.381L271.817 114.42L270.939 115.046V118.517H268.861V108.794H270.939V113.239L271.755 112.1L274.412 108.794H276.707L273.296 113.096L276.738 118.517Z" fill="#25263E"/>
<path d="M290.466 118.517H284.832V108.794H290.466V110.488H286.899V112.623H290.218V114.317H286.899V116.823H290.466V118.517Z" fill="#25263E"/>
<path d="M305 118.517H299.366V108.794H305V110.488H301.434V112.623H304.752V114.317H301.434V116.823H305V118.517Z" fill="#25263E"/>
<path d="M294.963 91.5451H267.094L253.47 75.9903L252.922 75.364L243.991 65.1789C244.002 65.1686 244.022 65.1584 244.033 65.1481C245.49 64.1727 247.185 63.0536 249.036 61.8523C249.604 61.4827 250.183 61.1131 250.783 60.7332H267.622L267.983 61.1439L294.963 91.5451Z" fill="#F68C20"/>
<path d="M239.928 24.9003V90.518L239.897 90.4769L214.768 59.1106V24.9003H239.928Z" fill="#F68C20"/>
<path d="M291.293 40.26C291.003 40.4962 280.449 49.1103 267.993 61.1435C267.745 61.3796 267.497 61.6158 267.259 61.8519C262.773 66.2052 258.059 70.9795 253.511 75.9488C253.501 75.9591 253.49 75.9796 253.48 75.9899C248.901 80.99 244.487 86.1955 240.621 91.3599L239.908 90.4666L214.768 59.1106L238.047 69.2546C238.088 69.2238 238.75 68.7515 239.928 67.9404C240.941 67.2422 242.316 66.2976 243.991 65.1785C244.001 65.1682 244.022 65.158 244.032 65.1477C245.49 64.1723 247.185 63.0532 249.035 61.8519C249.604 61.4823 250.183 61.1127 250.782 60.7328C262.484 53.248 279.705 43.1246 291.293 40.26Z" fill="#383C79"/>
<rect width="510" height="142.148" transform="translate(530 0.701477)" fill="#101010"/>
<path d="M739.579 110.375C738.794 110.375 738.194 110.662 737.76 111.248C737.336 111.833 737.119 112.644 737.119 113.681C737.119 115.847 737.936 116.936 739.579 116.936C740.262 116.936 741.099 116.761 742.081 116.422V118.147C741.275 118.476 740.375 118.65 739.393 118.65C737.967 118.65 736.881 118.219 736.127 117.367C735.372 116.504 735 115.283 735 113.671C735 112.665 735.186 111.771 735.558 111.012C735.93 110.252 736.458 109.667 737.15 109.266C737.843 108.855 738.659 108.66 739.59 108.66C740.541 108.66 741.492 108.886 742.453 109.348L741.781 111.022C741.419 110.847 741.047 110.693 740.675 110.57C740.303 110.437 739.931 110.375 739.579 110.375Z" fill="white"/>
<path d="M759.034 118.517H756.966V114.317H753.09V118.517H751.012V108.794H753.09V112.603H756.966V108.794H759.034V118.517Z" fill="white"/>
<path d="M774.001 118.517H768.367V108.794H774.001V110.488H770.434V112.623H773.753V114.317H770.434V116.823H774.001V118.517Z" fill="white"/>
<path d="M790.778 118.517H788.421L785.858 114.42L784.979 115.046V118.517H782.901V108.794H784.979V113.239L785.796 112.1L788.452 108.794H790.758L787.346 113.096L790.778 118.517Z" fill="white"/>
<path d="M806.738 118.517H804.381L801.817 114.42L800.939 115.046V118.517H798.861V108.794H800.939V113.239L801.755 112.1L804.412 108.794H806.707L803.296 113.096L806.738 118.517Z" fill="white"/>
<path d="M820.466 118.517H814.832V108.794H820.466V110.488H816.899V112.623H820.217V114.317H816.899V116.823H820.466V118.517Z" fill="white"/>
<path d="M835 118.517H829.366V108.794H835V110.488H831.434V112.623H834.752V114.317H831.434V116.823H835V118.517Z" fill="white"/>
<path d="M824.963 91.5451H797.094L783.47 75.9903L782.922 75.364L773.991 65.1789C774.002 65.1686 774.022 65.1584 774.033 65.1481C775.49 64.1727 777.185 63.0536 779.036 61.8523C779.604 61.4827 780.183 61.1131 780.783 60.7332H797.622L797.983 61.1439L824.963 91.5451Z" fill="#F68C20"/>
<path d="M769.928 24.9003V90.518L769.897 90.4769L744.768 59.1106V24.9003H769.928Z" fill="#F68C20"/>
<path d="M821.293 40.26C821.003 40.4962 810.449 49.1103 797.993 61.1435C797.745 61.3796 797.497 61.6158 797.259 61.8519C792.773 66.2052 788.059 70.9795 783.511 75.9488C783.501 75.9591 783.49 75.9796 783.48 75.9899C778.901 80.99 774.487 86.1955 770.621 91.3599L769.908 90.4666L744.768 59.1106L768.047 69.2546C768.088 69.2238 768.75 68.7515 769.928 67.9404C770.941 67.2422 772.316 66.2976 773.991 65.1785C774.001 65.1682 774.022 65.158 774.032 65.1477C775.49 64.1723 777.185 63.0532 779.035 61.8519C779.604 61.4823 780.183 61.1127 780.782 60.7328C792.484 53.248 809.705 43.1246 821.293 40.26Z" fill="#383C79"/>
</svg>
