<svg width="124" height="38" viewBox="0 0 124 38" fill="none" xmlns="http://www.w3.org/2000/svg">
<path d="M27.2289 19.067C27.2289 17.911 27.4952 16.874 28.0279 15.956C28.5719 15.038 29.3029 14.324 30.2209 13.814C31.1502 13.2927 32.1645 13.032 33.2639 13.032C34.5219 13.032 35.6382 13.3437 36.6129 13.967C37.5989 14.579 38.3129 15.4517 38.7549 16.585H36.4259C36.1199 15.9617 35.6949 15.497 35.1509 15.191C34.6069 14.885 33.9779 14.732 33.2639 14.732C32.4819 14.732 31.7849 14.9077 31.1729 15.259C30.5609 15.6103 30.0792 16.1147 29.7279 16.772C29.3879 17.4293 29.2179 18.1943 29.2179 19.067C29.2179 19.9397 29.3879 20.7047 29.7279 21.362C30.0792 22.0193 30.5609 22.5293 31.1729 22.892C31.7849 23.2433 32.4819 23.419 33.2639 23.419C33.9779 23.419 34.6069 23.266 35.1509 22.96C35.6949 22.654 36.1199 22.1893 36.4259 21.566H38.7549C38.3129 22.6993 37.5989 23.572 36.6129 24.184C35.6382 24.796 34.5219 25.102 33.2639 25.102C32.1532 25.102 31.1389 24.847 30.2209 24.337C29.3029 23.8157 28.5719 23.096 28.0279 22.178C27.4952 21.26 27.2289 20.223 27.2289 19.067ZM45.0863 25.153C44.2023 25.153 43.4033 24.9547 42.6893 24.558C41.9753 24.15 41.4143 23.5833 41.0063 22.858C40.5983 22.1213 40.3943 21.2713 40.3943 20.308C40.3943 19.356 40.604 18.5117 41.0233 17.775C41.4426 17.0383 42.015 16.4717 42.7403 16.075C43.4656 15.6783 44.276 15.48 45.1713 15.48C46.0666 15.48 46.877 15.6783 47.6023 16.075C48.3276 16.4717 48.9 17.0383 49.3193 17.775C49.7386 18.5117 49.9483 19.356 49.9483 20.308C49.9483 21.26 49.733 22.1043 49.3023 22.841C48.8716 23.5777 48.2823 24.15 47.5343 24.558C46.7976 24.9547 45.9816 25.153 45.0863 25.153ZM45.0863 23.47C45.585 23.47 46.0496 23.351 46.4803 23.113C46.9223 22.875 47.2793 22.518 47.5513 22.042C47.8233 21.566 47.9593 20.988 47.9593 20.308C47.9593 19.628 47.829 19.0557 47.5683 18.591C47.3076 18.115 46.962 17.758 46.5313 17.52C46.1006 17.282 45.636 17.163 45.1373 17.163C44.6386 17.163 44.174 17.282 43.7433 17.52C43.324 17.758 42.9896 18.115 42.7403 18.591C42.491 19.0557 42.3663 19.628 42.3663 20.308C42.3663 21.3167 42.6213 22.0987 43.1313 22.654C43.6526 23.198 44.3043 23.47 45.0863 23.47ZM56.5901 15.48C57.3268 15.48 57.9841 15.633 58.5621 15.939C59.1514 16.245 59.6104 16.6983 59.9391 17.299C60.2678 17.8997 60.4321 18.625 60.4321 19.475V25H58.5111V19.764C58.5111 18.9253 58.3014 18.285 57.8821 17.843C57.4628 17.3897 56.8904 17.163 56.1651 17.163C55.4398 17.163 54.8618 17.3897 54.4311 17.843C54.0118 18.285 53.8021 18.9253 53.8021 19.764V25L51.8641 25V15.633H53.8021V16.704C54.1194 16.3187 54.5218 16.0183 55.0091 15.803C55.5078 15.5877 56.0348 15.48 56.5901 15.48ZM65.1652 17.214V22.399C65.1652 22.7503 65.2445 23.0053 65.4032 23.164C65.5732 23.3113 65.8565 23.385 66.2532 23.385H67.4432V25H65.9132C65.0405 25 64.3718 24.796 63.9072 24.388C63.4425 23.98 63.2102 23.317 63.2102 22.399V17.214H62.1052V15.633H63.2102V13.304L65.1652 13.304V15.633H67.4432V17.214H65.1652ZM68.5833 20.274C68.5833 19.3333 68.776 18.5003 69.1613 17.775C69.558 17.0497 70.0907 16.4887 70.7593 16.092C71.4393 15.684 72.1873 15.48 73.0033 15.48C73.74 15.48 74.3803 15.6273 74.9243 15.922C75.4797 16.2053 75.9217 16.5623 76.2503 16.993V15.633H78.2053V25H76.2503V23.606C75.9217 24.048 75.474 24.4163 74.9073 24.711C74.3407 25.0057 73.6947 25.153 72.9693 25.153C72.1647 25.153 71.428 24.949 70.7593 24.541C70.0907 24.1217 69.558 23.5437 69.1613 22.807C68.776 22.059 68.5833 21.2147 68.5833 20.274ZM76.2503 20.308C76.2503 19.662 76.1143 19.101 75.8423 18.625C75.5817 18.149 75.236 17.7863 74.8053 17.537C74.3747 17.2877 73.91 17.163 73.4113 17.163C72.9127 17.163 72.448 17.2877 72.0173 17.537C71.5867 17.775 71.2353 18.132 70.9633 18.608C70.7027 19.0727 70.5723 19.628 70.5723 20.274C70.5723 20.92 70.7027 21.4867 70.9633 21.974C71.2353 22.4613 71.5867 22.8353 72.0173 23.096C72.4593 23.3453 72.924 23.47 73.4113 23.47C73.91 23.47 74.3747 23.3453 74.8053 23.096C75.236 22.8467 75.5817 22.484 75.8423 22.008C76.1143 21.5207 76.2503 20.954 76.2503 20.308ZM80.1048 20.308C80.1048 19.3447 80.2975 18.5003 80.6828 17.775C81.0795 17.0383 81.6235 16.4717 82.3148 16.075C83.0062 15.6783 83.7995 15.48 84.6948 15.48C85.8282 15.48 86.7632 15.752 87.4998 16.296C88.2478 16.8287 88.7522 17.5937 89.0128 18.591H86.9218C86.7518 18.1263 86.4798 17.7637 86.1058 17.503C85.7318 17.2423 85.2615 17.112 84.6948 17.112C83.9015 17.112 83.2668 17.3953 82.7908 17.962C82.3262 18.5173 82.0938 19.2993 82.0938 20.308C82.0938 21.3167 82.3262 22.1043 82.7908 22.671C83.2668 23.2377 83.9015 23.521 84.6948 23.521C85.8168 23.521 86.5592 23.028 86.9218 22.042H89.0128C88.7408 22.994 88.2308 23.7533 87.4828 24.32C86.7348 24.8753 85.8055 25.153 84.6948 25.153C83.7995 25.153 83.0062 24.9547 82.3148 24.558C81.6235 24.15 81.0795 23.5833 80.6828 22.858C80.2975 22.1213 80.1048 21.2713 80.1048 20.308ZM93.2052 17.214V22.399C93.2052 22.7503 93.2845 23.0053 93.4432 23.164C93.6132 23.3113 93.8965 23.385 94.2932 23.385H95.4832V25H93.9532C93.0805 25 92.4119 24.796 91.9472 24.388C91.4825 23.98 91.2502 23.317 91.2502 22.399V17.214H90.1452V15.633H91.2502V13.304H93.2052V15.633H95.4832V17.214H93.2052Z" fill="#FF4883"/>
<path d="M122.648 19C122.648 21.3889 121.088 23.7579 118.046 25.9927C115.015 28.22 110.595 30.2468 105.09 31.9575C94.084 35.3772 78.8494 37.5 61.9999 37.5C45.1503 37.5 29.9157 35.3772 18.9102 31.9575C13.4044 30.2468 8.98523 28.22 5.95337 25.9927C2.91131 23.7579 1.35205 21.3889 1.35205 19C1.35205 16.6111 2.91131 14.2421 5.95337 12.0073C8.98523 9.78 13.4044 7.75322 18.9102 6.04245C29.9157 2.62279 45.1503 0.5 61.9999 0.5C78.8494 0.5 94.084 2.62279 105.09 6.04245C110.595 7.75322 115.015 9.78 118.046 12.0073C121.088 14.2421 122.648 16.6111 122.648 19Z" stroke="#FF4883"/>
</svg>
