<svg width="57" height="57" viewBox="0 0 57 57" fill="none" xmlns="http://www.w3.org/2000/svg">
<rect x="1.21076" y="1.21076" width="54.0807" height="54.0807" rx="27.0404" fill="#FFE68C"/>
<rect x="1.21076" y="1.21076" width="54.0807" height="54.0807" rx="27.0404" stroke="black" stroke-width="2.42152"/>
<path fill-rule="evenodd" clip-rule="evenodd" d="M41.5312 20.2864L29.6944 30.0889C29.358 30.3676 28.9349 30.5201 28.4981 30.5201C28.0613 30.5201 27.6382 30.3676 27.3019 30.0889L15.4706 20.2864C15.4071 20.4775 15.3748 20.6776 15.375 20.8789V35.8789C15.375 36.3762 15.5725 36.8531 15.9242 37.2047C16.2758 37.5564 16.7527 37.7539 17.25 37.7539H39.75C40.2473 37.7539 40.7242 37.5564 41.0758 37.2047C41.4275 36.8531 41.625 36.3762 41.625 35.8789V20.8789C41.6258 20.6777 41.5941 20.4776 41.5312 20.2864ZM17.25 17.1289H39.75C40.7446 17.1289 41.6984 17.524 42.4016 18.2273C43.1049 18.9305 43.5 19.8843 43.5 20.8789V35.8789C43.5 36.8735 43.1049 37.8273 42.4016 38.5306C41.6984 39.2338 40.7446 39.6289 39.75 39.6289H17.25C16.2554 39.6289 15.3016 39.2338 14.5983 38.5306C13.8951 37.8273 13.5 36.8735 13.5 35.8789V20.8789C13.5 19.8843 13.8951 18.9305 14.5983 18.2273C15.3016 17.524 16.2554 17.1289 17.25 17.1289ZM16.8562 19.0039L27.3113 27.6345C27.6461 27.9111 28.0666 28.0629 28.5009 28.0639C28.9352 28.0649 29.3563 27.9151 29.6925 27.6402L40.2525 19.0039H16.8562Z" fill="black" stroke="black"/>
</svg>
