<svg width="45" height="45" viewBox="0 0 45 45" fill="none" xmlns="http://www.w3.org/2000/svg">
<rect width="45" height="45" rx="10" fill="#FF4883" fill-opacity="0.1"/>
<g clip-path="url(#clip0_4_3993)">
<path fill-rule="evenodd" clip-rule="evenodd" d="M35.5312 14.4075L23.6944 24.21C23.358 24.4887 22.9349 24.6412 22.4981 24.6412C22.0613 24.6412 21.6382 24.4887 21.3019 24.21L9.47063 14.4075C9.40711 14.5986 9.37482 14.7986 9.375 15V30C9.375 30.4973 9.57254 30.9742 9.92417 31.3258C10.2758 31.6775 10.7527 31.875 11.25 31.875H33.75C34.2473 31.875 34.7242 31.6775 35.0758 31.3258C35.4275 30.9742 35.625 30.4973 35.625 30V15C35.6258 14.7987 35.5941 14.5987 35.5312 14.4075ZM11.25 11.25H33.75C34.7446 11.25 35.6984 11.6451 36.4016 12.3483C37.1049 13.0516 37.5 14.0054 37.5 15V30C37.5 30.9946 37.1049 31.9484 36.4016 32.6516C35.6984 33.3549 34.7446 33.75 33.75 33.75H11.25C10.2554 33.75 9.30161 33.3549 8.59835 32.6516C7.89509 31.9484 7.5 30.9946 7.5 30V15C7.5 14.0054 7.89509 13.0516 8.59835 12.3483C9.30161 11.6451 10.2554 11.25 11.25 11.25ZM10.8562 13.125L21.3113 21.7556C21.6461 22.0322 22.0666 22.184 22.5009 22.185C22.9352 22.186 23.3563 22.0362 23.6925 21.7612L34.2525 13.125H10.8562Z" fill="#FF4883"/>
</g>
<defs>
<clipPath id="clip0_4_3993">
<rect width="30" height="30" fill="white" transform="translate(7.5 7.5)"/>
</clipPath>
</defs>
</svg>
