<svg width="40" height="40" viewBox="0 0 100 100" fill="none" xmlns="http://www.w3.org/2000/svg">
<g clip-path="url(#clip0_815_17117)">
<path d="M66.6667 66.6673C75.8714 66.6673 83.3333 59.2054 83.3333 50.0007C83.3333 40.7959 75.8714 33.334 66.6667 33.334C57.4619 33.334 50 40.7959 50 50.0007C50 59.2054 57.4619 66.6673 66.6667 66.6673Z" fill="#19BCFE"/>
<path fill-rule="evenodd" clip-rule="evenodd" d="M33.3327 99.9993C42.5374 99.9993 49.9993 92.5374 49.9993 83.3327C49.9993 80.82 49.9993 75.2644 49.9993 66.666C42.512 66.666 36.9565 66.666 33.3327 66.666C24.1279 66.666 16.666 74.1279 16.666 83.3327C16.666 92.5374 24.1279 99.9993 33.3327 99.9993Z" fill="#09CF83"/>
<path fill-rule="evenodd" clip-rule="evenodd" d="M33.3327 66.6673C36.4009 66.6673 41.9565 66.6673 49.9993 66.6673V33.334C41.9565 33.334 36.4009 33.334 33.3327 33.334C24.1279 33.334 16.666 40.7959 16.666 50.0007C16.666 59.2054 24.1279 66.6673 33.3327 66.6673Z" fill="#A259FF"/>
<path fill-rule="evenodd" clip-rule="evenodd" d="M33.3327 33.3333C36.4009 33.3333 41.9565 33.3333 49.9993 33.3333V0C41.9565 0 36.4009 0 33.3327 0C24.1279 0 16.666 7.46192 16.666 16.6667C16.666 25.8714 24.1279 33.3333 33.3327 33.3333Z" fill="#F24E1E"/>
<path fill-rule="evenodd" clip-rule="evenodd" d="M66.6667 33.3333H50V0H66.6667C75.8714 0 83.3333 7.46192 83.3333 16.6667C83.3333 25.8714 75.8714 33.3333 66.6667 33.3333Z" fill="#FF7262"/>
</g>
<defs>
<clipPath id="clip0_815_17117">
<rect width="100" height="100" fill="white"/>
</clipPath>
</defs>
</svg>
