<svg width="40" height="41" viewBox="0 0 40 41" fill="none" xmlns="http://www.w3.org/2000/svg">
<rect x="1" y="1.91309" width="38" height="38" rx="19" fill="#F3ABCB"/>
<rect x="1" y="1.91309" width="38" height="38" rx="19" stroke="black" stroke-width="2"/>
<path fill-rule="evenodd" clip-rule="evenodd" d="M20.4962 9.39648C17.7661 9.3979 15.1254 10.3649 13.0465 12.1245C10.9676 13.8841 9.58593 16.3216 9.14857 19.0011C8.71122 21.6807 9.24669 24.4275 10.6593 26.7506C12.0718 29.0736 14.2694 30.8213 16.8589 31.6811C17.4302 31.7871 17.6454 31.4331 17.6454 31.132C17.6454 30.8309 17.634 29.958 17.6302 29.0037C14.4309 29.6948 13.7549 27.6536 13.7549 27.6536C13.2331 26.3282 12.4789 25.9798 12.4789 25.9798C11.4354 25.2716 12.557 25.2849 12.557 25.2849C13.713 25.3663 14.3204 26.4645 14.3204 26.4645C15.345 28.2122 17.0113 27.7066 17.6663 27.4113C17.7692 26.6709 18.0682 26.1672 18.3976 25.8813C15.842 25.5935 13.1569 24.6127 13.1569 20.2311C13.141 19.0948 13.5651 17.9959 14.3414 17.1617C14.2233 16.8739 13.8291 15.7113 14.4537 14.1321C14.4537 14.1321 15.4192 13.8254 17.6168 15.3042C19.5018 14.7917 21.4906 14.7917 23.3755 15.3042C25.5712 13.8254 26.5348 14.1321 26.5348 14.1321C27.1614 15.7075 26.7672 16.8701 26.6491 17.1617C27.4278 17.996 27.8528 19.0968 27.8355 20.2349C27.8355 24.6259 25.1447 25.5935 22.5852 25.8756C22.9966 26.2316 23.3641 26.9265 23.3641 27.9945C23.3641 29.5244 23.3508 30.7552 23.3508 31.132C23.3508 31.4368 23.5584 31.7928 24.1411 31.6811C26.731 30.8212 28.9287 29.0732 30.3412 26.7498C31.7538 24.4263 32.289 21.6791 31.8511 18.9993C31.4133 16.3195 30.0309 13.8819 27.9513 12.1226C25.8717 10.3633 23.2305 9.397 20.5 9.39648H20.4962Z" fill="#101010"/>
<path d="M13.3509 25.8156C13.3261 25.8724 13.2347 25.8894 13.1604 25.8497C13.0862 25.8099 13.0309 25.736 13.0576 25.6773C13.0843 25.6186 13.1738 25.6035 13.248 25.6433C13.3223 25.683 13.3794 25.7588 13.3509 25.8156Z" fill="#101010"/>
<path d="M13.8188 26.3322C13.7794 26.3519 13.7343 26.3574 13.6912 26.3478C13.6481 26.3381 13.6098 26.3138 13.5827 26.2791C13.5084 26.1996 13.4932 26.0898 13.5503 26.0406C13.6074 25.9913 13.7103 26.014 13.7846 26.0936C13.8588 26.1731 13.876 26.2829 13.8188 26.3322Z" fill="#101010"/>
<path d="M14.2685 26.9893C14.198 27.0385 14.0781 26.9893 14.0114 26.8908C13.993 26.8731 13.9783 26.852 13.9683 26.8285C13.9583 26.8051 13.9531 26.7799 13.9531 26.7545C13.9531 26.729 13.9583 26.7038 13.9683 26.6804C13.9783 26.657 13.993 26.6358 14.0114 26.6181C14.0819 26.5708 14.2018 26.6181 14.2685 26.7147C14.3351 26.8113 14.3371 26.94 14.2685 26.9893Z" fill="#101010"/>
<path d="M14.8843 27.626C14.8214 27.6961 14.6938 27.6771 14.5891 27.5824C14.4844 27.4878 14.4596 27.359 14.5225 27.2908C14.5853 27.2227 14.7129 27.2416 14.8214 27.3344C14.93 27.4272 14.9509 27.5578 14.8843 27.626Z" fill="#101010"/>
<path d="M15.7479 27.9961C15.7193 28.0851 15.5898 28.1249 15.4603 28.087C15.3308 28.0491 15.2451 27.9431 15.2699 27.8522C15.2946 27.7613 15.426 27.7197 15.5574 27.7613C15.6888 27.803 15.7726 27.9033 15.7479 27.9961Z" fill="#101010"/>
<path d="M16.6885 28.0612C16.6885 28.154 16.5819 28.2335 16.4448 28.2354C16.3077 28.2373 16.1953 28.1616 16.1953 28.0688C16.1953 27.976 16.3019 27.8965 16.4391 27.8946C16.5762 27.8927 16.6885 27.9665 16.6885 28.0612Z" fill="#101010"/>
<path d="M17.5656 27.9149C17.5827 28.0077 17.4875 28.1042 17.3504 28.127C17.2133 28.1497 17.0933 28.0948 17.0761 28.0039C17.059 27.913 17.158 27.8145 17.2913 27.7899C17.4246 27.7653 17.5484 27.8221 17.5656 27.9149Z" fill="#101010"/>
</svg>
