<svg width="46" height="45" viewBox="0 0 46 45" fill="none" xmlns="http://www.w3.org/2000/svg">
<rect x="0.5" width="45" height="45" rx="10" fill="#FF4883" fill-opacity="0.1"/>
<path d="M12.1196 33.2544L20.0746 25.2994M30.0921 21.7619L27.7109 28.9056C27.6729 29.0201 27.6078 29.1238 27.5212 29.2078C27.4346 29.2918 27.329 29.3536 27.2134 29.3881L12.6159 33.7269C12.4844 33.7659 12.3447 33.7682 12.212 33.7333C12.0793 33.6985 11.9587 33.628 11.8633 33.5294C11.7679 33.4308 11.7014 33.3079 11.671 33.1741C11.6406 33.0403 11.6475 32.9008 11.6909 32.7706L16.4309 18.5531C16.4648 18.451 16.5204 18.3575 16.5937 18.2787C16.667 18.2 16.7565 18.138 16.8559 18.0969L23.5896 15.3244C23.7265 15.2678 23.8771 15.2531 24.0224 15.282C24.1676 15.3109 24.3011 15.3822 24.4059 15.4869L29.9109 20.9944C30.0094 21.0929 30.0785 21.2168 30.1105 21.3524C30.1425 21.4879 30.1362 21.6297 30.0921 21.7619Z" stroke="#FF4883" stroke-width="1.875" stroke-linecap="round" stroke-linejoin="round"/>
<path d="M30.2389 21.3216L33.7739 17.7853C34.2426 17.3165 34.5059 16.6807 34.5059 16.0178C34.5059 15.3549 34.2426 14.7191 33.7739 14.2503L31.1239 11.5978C30.8918 11.3656 30.6161 11.1813 30.3128 11.0556C30.0094 10.9299 29.6842 10.8652 29.3558 10.8652C29.0274 10.8652 28.7023 10.9299 28.3989 11.0556C28.0955 11.1813 27.8199 11.3656 27.5877 11.5978L24.0527 15.1341M22.7252 22.6466C22.551 22.4725 22.3443 22.3344 22.1168 22.2402C21.8892 22.1461 21.6454 22.0976 21.3991 22.0977C21.1529 22.0977 20.9091 22.1463 20.6816 22.2406C20.4541 22.3349 20.2474 22.473 20.0733 22.6472C19.8992 22.8214 19.7612 23.0281 19.667 23.2556C19.5728 23.4832 19.5244 23.727 19.5244 23.9733C19.5245 24.2195 19.573 24.4633 19.6673 24.6908C19.7616 24.9183 19.8998 25.125 20.0739 25.2991C20.4257 25.6507 20.9027 25.8481 21.4 25.848C21.8973 25.8479 22.3742 25.6502 22.7258 25.2985C23.0774 24.9467 23.2748 24.4697 23.2747 23.9724C23.2746 23.4751 23.0769 22.9982 22.7252 22.6466Z" stroke="#FF4883" stroke-width="1.875" stroke-linecap="round" stroke-linejoin="round"/>
</svg>
