<svg width="57" height="58" viewBox="0 0 57 58" fill="none" xmlns="http://www.w3.org/2000/svg">
<rect x="1.39045" y="2.0633" width="54.0807" height="54.0807" rx="27.0404" fill="#9DDCFF"/>
<rect x="1.39045" y="2.0633" width="54.0807" height="54.0807" rx="27.0404" stroke="black" stroke-width="2.42152"/>
<path d="M25.65 19.2888V24.8107L22.769 23.3702C21.1844 22.6019 19.6959 21.9297 19.4078 21.9297C18.3035 21.9297 19.0717 23.4182 21.1364 25.2428C22.6249 26.5393 23.1531 27.2595 22.721 27.4036C22.3368 27.5476 19.5039 28.3159 16.3348 29.0841C10.4288 30.5246 9.22837 31.1488 10.1407 32.0611C10.4768 32.3973 12.7816 32.2532 17.9193 31.4849C21.9527 30.9087 25.3619 30.5726 25.5059 30.7167C25.65 30.9087 24.8337 32.5893 23.7293 34.51C22.5769 36.4306 21.6166 38.1592 21.5206 38.3033C21.4245 38.4953 21.6646 38.8795 22.0007 39.1676C22.5769 39.6477 23.0571 39.4076 24.5936 38.0632C25.65 37.1029 26.7063 36.3346 26.9464 36.3346C27.1865 36.3346 27.6667 37.7751 28.0508 39.5517C28.8671 43.6811 29.4433 44.9775 30.4996 44.9775C31.7961 44.9775 32.0361 43.489 31.652 37.9672C31.4599 35.1822 31.4599 32.9735 31.7 32.9735C31.9401 32.9735 33.8608 33.7417 35.9735 34.654C40.1509 36.4786 41.4954 36.7187 41.4954 35.6624C41.4954 34.702 40.7271 34.0298 37.0298 31.4849C35.2532 30.3326 33.8127 29.2282 33.8127 29.0841C33.8127 28.9401 36.2616 28.1238 39.2386 27.2595C44.5684 25.723 46.7772 24.7146 46.7772 23.8503C46.7772 23.1301 43.7521 23.2741 38.9505 24.1384C36.6457 24.5706 34.581 24.8107 34.437 24.6186C34.2929 24.4746 34.629 23.2261 35.2052 21.8817C37.366 16.6479 36.0215 16.1677 32.6604 21.0174C31.4119 22.89 30.1635 24.2345 29.9714 23.9944C29.7794 23.8023 29.2512 21.8817 28.771 19.769C27.8107 15.2554 27.1865 13.7669 26.2742 13.7669C25.794 13.7669 25.65 15.0153 25.65 19.2888Z" fill="black"/>
</svg>
