<svg width="109" height="42" viewBox="0 0 109 42" fill="none" xmlns="http://www.w3.org/2000/svg">
<path d="M43.6103 14.185V26H41.6723V20.832H36.1133V26H34.1753V14.185H36.1133V19.251H41.6723V14.185H43.6103ZM54.7466 21.087C54.7466 21.4383 54.724 21.7557 54.6786 22.039H47.5216C47.5783 22.787 47.856 23.3877 48.3546 23.841C48.8533 24.2943 49.4653 24.521 50.1906 24.521C51.2333 24.521 51.97 24.0847 52.4006 23.212H54.4916C54.2083 24.0733 53.6926 24.7817 52.9446 25.337C52.208 25.881 51.29 26.153 50.1906 26.153C49.2953 26.153 48.4906 25.9547 47.7766 25.558C47.074 25.15 46.5186 24.5833 46.1106 23.858C45.714 23.1213 45.5156 22.2713 45.5156 21.308C45.5156 20.3447 45.7083 19.5003 46.0936 18.775C46.4903 18.0383 47.04 17.4717 47.7426 17.075C48.4566 16.6783 49.2726 16.48 50.1906 16.48C51.0746 16.48 51.8623 16.6727 52.5536 17.058C53.245 17.4433 53.7833 17.9873 54.1686 18.69C54.554 19.3813 54.7466 20.1803 54.7466 21.087ZM52.7236 20.475C52.7123 19.761 52.4573 19.1887 51.9586 18.758C51.46 18.3273 50.8423 18.112 50.1056 18.112C49.437 18.112 48.8646 18.3273 48.3886 18.758C47.9126 19.1773 47.6293 19.7497 47.5386 20.475H52.7236ZM58.5918 13.42V26H56.6538V13.42H58.5918ZM63.0743 13.42V26H61.1363V13.42H63.0743ZM69.6817 26.153C68.7977 26.153 67.9987 25.9547 67.2847 25.558C66.5707 25.15 66.0097 24.5833 65.6017 23.858C65.1937 23.1213 64.9897 22.2713 64.9897 21.308C64.9897 20.356 65.1993 19.5117 65.6187 18.775C66.038 18.0383 66.6103 17.4717 67.3357 17.075C68.061 16.6783 68.8713 16.48 69.7667 16.48C70.662 16.48 71.4723 16.6783 72.1977 17.075C72.923 17.4717 73.4953 18.0383 73.9147 18.775C74.334 19.5117 74.5437 20.356 74.5437 21.308C74.5437 22.26 74.3283 23.1043 73.8977 23.841C73.467 24.5777 72.8777 25.15 72.1297 25.558C71.393 25.9547 70.577 26.153 69.6817 26.153ZM69.6817 24.47C70.1803 24.47 70.645 24.351 71.0757 24.113C71.5177 23.875 71.8747 23.518 72.1467 23.042C72.4187 22.566 72.5547 21.988 72.5547 21.308C72.5547 20.628 72.4243 20.0557 72.1637 19.591C71.903 19.115 71.5573 18.758 71.1267 18.52C70.696 18.282 70.2313 18.163 69.7327 18.163C69.234 18.163 68.7693 18.282 68.3387 18.52C67.9193 18.758 67.585 19.115 67.3357 19.591C67.0863 20.0557 66.9617 20.628 66.9617 21.308C66.9617 22.3167 67.2167 23.0987 67.7267 23.654C68.248 24.198 68.8997 24.47 69.6817 24.47Z" fill="#FF4883"/>
<path d="M107.582 21C107.582 23.7122 106.17 26.3506 103.497 28.806C100.824 31.2617 96.9287 33.4963 92.0729 35.3832C82.3644 39.1558 68.9184 41.5 54.0411 41.5C39.1639 41.5 25.7178 39.1558 16.0094 35.3832C11.1536 33.4963 7.25808 31.2617 4.5851 28.806C1.91252 26.3506 0.5 23.7122 0.5 21C0.5 18.2878 1.91252 15.6494 4.5851 13.194C7.25808 10.7383 11.1536 8.50375 16.0094 6.61681C25.7178 2.84417 39.1639 0.5 54.0411 0.5C68.9184 0.5 82.3644 2.84417 92.0729 6.61681C96.9287 8.50375 100.824 10.7383 103.497 13.194C106.17 15.6494 107.582 18.2878 107.582 21Z" stroke="#FF4883"/>
</svg>
