<svg width="40" height="41" viewBox="0 0 40 41" fill="none" xmlns="http://www.w3.org/2000/svg">
<rect x="1" y="1.91309" width="38" height="38" rx="19" fill="#F3ABCB"/>
<rect x="1" y="1.91309" width="38" height="38" rx="19" stroke="black" stroke-width="2"/>
<path d="M28.5236 11.3965H11.4764C11.0848 11.3965 10.7093 11.552 10.4324 11.8289C10.1555 12.1058 10 12.4813 10 12.8729V29.9201C10 30.3117 10.1555 30.6872 10.4324 30.9641C10.7093 31.2409 11.0848 31.3965 11.4764 31.3965H28.5236C28.9152 31.3965 29.2907 31.2409 29.5676 30.9641C29.8445 30.6872 30 30.3117 30 29.9201V12.8729C30 12.4813 29.8445 12.1058 29.5676 11.8289C29.2907 11.552 28.9152 11.3965 28.5236 11.3965ZM15.9611 28.434H12.9542V18.8826H15.9611V28.434ZM14.4556 17.559C14.1145 17.5571 13.7816 17.4541 13.4989 17.2632C13.2163 17.0723 12.9965 16.8019 12.8674 16.4862C12.7383 16.1705 12.7055 15.8236 12.7734 15.4894C12.8412 15.1551 13.0065 14.8484 13.2485 14.608C13.4904 14.3676 13.7982 14.2042 14.1329 14.1385C14.4676 14.0729 14.8143 14.1078 15.1291 14.239C15.444 14.3701 15.7129 14.5916 15.9021 14.8755C16.0912 15.1594 16.1919 15.4929 16.1917 15.834C16.1949 16.0623 16.1521 16.289 16.0658 16.5005C15.9796 16.712 15.8517 16.9039 15.6896 17.0649C15.5276 17.2258 15.3349 17.3526 15.1229 17.4374C14.9108 17.5223 14.6839 17.5637 14.4556 17.559ZM27.0444 28.4423H24.0389V23.2243C24.0389 21.6854 23.3847 21.2104 22.5403 21.2104C21.6486 21.2104 20.7736 21.8826 20.7736 23.2632V28.4423H17.7667V18.8895H20.6583V20.2132H20.6972C20.9875 19.6257 22.0042 18.6215 23.5556 18.6215C25.2333 18.6215 27.0458 19.6173 27.0458 22.534L27.0444 28.4423Z" fill="#101010"/>
</svg>
