<svg width="57" height="57" viewBox="0 0 57 57" fill="none" xmlns="http://www.w3.org/2000/svg">
<rect x="1.21076" y="1.21076" width="54.0807" height="54.0807" rx="27.0404" fill="#FFC9F0"/>
<rect x="1.21076" y="1.21076" width="54.0807" height="54.0807" rx="27.0404" stroke="black" stroke-width="2.42152"/>
<path d="M27.8751 27.8878C28.4713 27.8878 28.9801 27.6758 29.4013 27.2518C29.8226 26.8279 30.0332 26.3178 30.0332 25.7216C30.0332 25.1254 29.8213 24.6167 29.3973 24.1954C28.9725 23.7741 28.4624 23.5635 27.8671 23.5635C27.2718 23.5635 26.763 23.7759 26.3409 24.2008C25.9196 24.6247 25.709 25.1348 25.709 25.731C25.709 26.3272 25.9209 26.8359 26.3449 27.2572C26.7697 27.6785 27.2798 27.8891 27.8751 27.8891M27.8711 38.5271C30.388 36.3368 32.3774 34.1095 33.8394 31.8452C35.3013 29.58 36.0323 27.6209 36.0323 25.9679C36.0323 23.5189 35.2572 21.4973 33.7068 19.9033C32.1565 18.3092 30.2113 17.5126 27.8711 17.5135C25.5318 17.5135 23.5865 18.3101 22.0353 19.9033C20.4841 21.4964 19.709 23.518 19.7099 25.9679C19.7099 27.6209 20.4409 29.58 21.9028 31.8452C23.3656 34.1095 25.3551 36.3377 27.8711 38.5271ZM27.8711 40.3237C24.725 37.5417 22.3553 34.9472 20.7622 32.54C19.1681 30.1329 18.3711 27.9422 18.3711 25.9679C18.3711 23.136 19.2931 20.8003 21.137 18.9608C22.9819 17.1204 25.2266 16.2002 27.8711 16.2002C30.5156 16.2002 32.7603 17.1204 34.6052 18.9608C36.4491 20.8003 37.3711 23.136 37.3711 25.9679C37.3711 27.9422 36.5745 30.1329 34.9814 32.54C33.3873 34.9472 31.0172 37.5417 27.8711 40.3237Z" fill="black"/>
<path d="M27.8751 27.8878C28.4713 27.8878 28.9801 27.6758 29.4013 27.2518C29.8226 26.8279 30.0332 26.3178 30.0332 25.7216C30.0332 25.1254 29.8213 24.6167 29.3973 24.1954C28.9725 23.7741 28.4624 23.5635 27.8671 23.5635C27.2718 23.5635 26.763 23.7759 26.3409 24.2008C25.9196 24.6247 25.709 25.1348 25.709 25.731C25.709 26.3272 25.9209 26.8359 26.3449 27.2572C26.7697 27.6785 27.2798 27.8891 27.8751 27.8891M27.8711 38.5271C30.388 36.3368 32.3774 34.1095 33.8394 31.8452C35.3013 29.58 36.0323 27.6209 36.0323 25.9679C36.0323 23.5189 35.2572 21.4973 33.7068 19.9033C32.1565 18.3092 30.2113 17.5126 27.8711 17.5135C25.5318 17.5135 23.5865 18.3101 22.0353 19.9033C20.4841 21.4964 19.709 23.518 19.7099 25.9679C19.7099 27.6209 20.4409 29.58 21.9028 31.8452C23.3656 34.1095 25.3551 36.3377 27.8711 38.5271ZM27.8711 40.3237C24.725 37.5417 22.3553 34.9472 20.7622 32.54C19.1681 30.1329 18.3711 27.9422 18.3711 25.9679C18.3711 23.136 19.2931 20.8003 21.137 18.9608C22.9819 17.1204 25.2266 16.2002 27.8711 16.2002C30.5156 16.2002 32.7603 17.1204 34.6052 18.9608C36.4491 20.8003 37.3711 23.136 37.3711 25.9679C37.3711 27.9422 36.5745 30.1329 34.9814 32.54C33.3873 34.9472 31.0172 37.5417 27.8711 40.3237Z" stroke="black" stroke-width="2.14205"/>
</svg>
