<svg width="45" height="46" viewBox="0 0 45 46" fill="none" xmlns="http://www.w3.org/2000/svg">
<rect y="0.5" width="45" height="45" rx="10" fill="#FF4883" fill-opacity="0.1"/>
<path d="M22.5046 22.6625C23.0613 22.6625 23.5363 22.4646 23.9296 22.0688C24.3229 21.6729 24.5196 21.1967 24.5196 20.64C24.5196 20.0833 24.3217 19.6083 23.9259 19.215C23.5292 18.8217 23.0529 18.625 22.4971 18.625C21.9413 18.625 21.4663 18.8233 21.0721 19.22C20.6788 19.6158 20.4821 20.0921 20.4821 20.6488C20.4821 21.2054 20.68 21.6804 21.0759 22.0737C21.4725 22.4671 21.9488 22.6637 22.5046 22.6637M22.5009 32.5963C24.8509 30.5513 26.7084 28.4717 28.0734 26.3575C29.4384 24.2425 30.1209 22.4133 30.1209 20.87C30.1209 18.5833 29.3971 16.6958 27.9496 15.2075C26.5021 13.7192 24.6859 12.9754 22.5009 12.9762C20.3167 12.9762 18.5004 13.72 17.0521 15.2075C15.6038 16.695 14.88 18.5825 14.8809 20.87C14.8809 22.4133 15.5634 24.2425 16.9284 26.3575C18.2942 28.4717 20.1517 30.5521 22.5009 32.5963ZM22.5009 34.2737C19.5634 31.6762 17.3509 29.2537 15.8634 27.0063C14.375 24.7587 13.6309 22.7133 13.6309 20.87C13.6309 18.2258 14.4917 16.045 16.2134 14.3275C17.9359 12.6092 20.0317 11.75 22.5009 11.75C24.97 11.75 27.0659 12.6092 28.7884 14.3275C30.51 16.045 31.3709 18.2258 31.3709 20.87C31.3709 22.7133 30.6271 24.7587 29.1396 27.0063C27.6513 29.2537 25.4384 31.6762 22.5009 34.2737Z" fill="#FF4883"/>
<path d="M22.5046 22.6625C23.0613 22.6625 23.5363 22.4646 23.9296 22.0688C24.3229 21.6729 24.5196 21.1967 24.5196 20.64C24.5196 20.0833 24.3217 19.6083 23.9259 19.215C23.5292 18.8217 23.0529 18.625 22.4971 18.625C21.9413 18.625 21.4663 18.8233 21.0721 19.22C20.6788 19.6158 20.4821 20.0921 20.4821 20.6488C20.4821 21.2054 20.68 21.6804 21.0759 22.0737C21.4725 22.4671 21.9488 22.6637 22.5046 22.6637M22.5009 32.5963C24.8509 30.5513 26.7084 28.4717 28.0734 26.3575C29.4384 24.2425 30.1209 22.4133 30.1209 20.87C30.1209 18.5833 29.3971 16.6958 27.9496 15.2075C26.5021 13.7192 24.6859 12.9754 22.5009 12.9762C20.3167 12.9762 18.5004 13.72 17.0521 15.2075C15.6038 16.695 14.88 18.5825 14.8809 20.87C14.8809 22.4133 15.5634 24.2425 16.9284 26.3575C18.2942 28.4717 20.1517 30.5521 22.5009 32.5963ZM22.5009 34.2737C19.5634 31.6762 17.3509 29.2537 15.8634 27.0062C14.375 24.7587 13.6309 22.7133 13.6309 20.87C13.6309 18.2258 14.4917 16.045 16.2134 14.3275C17.9359 12.6092 20.0317 11.75 22.5009 11.75C24.97 11.75 27.0659 12.6092 28.7884 14.3275C30.51 16.045 31.3709 18.2258 31.3709 20.87C31.3709 22.7133 30.6271 24.7587 29.1396 27.0062C27.6513 29.2537 25.4384 31.6762 22.5009 34.2737Z" stroke="#FF4883" stroke-width="0.5"/>
</svg>
