<svg width="1040" height="101" viewBox="0 0 1040 101" fill="none" xmlns="http://www.w3.org/2000/svg">
<rect y="0.701477" width="510" height="100" fill="white"/>
<g clip-path="url(#clip0_1_25039)">
<rect x="199.825" y="21.8242" width="11.2634" height="11.2671" rx="5.63168" transform="rotate(135 199.825 21.8242)" fill="#246BE5"/>
<rect x="199.825" y="79.5815" width="11.2634" height="11.2671" rx="5.63168" transform="rotate(135 199.825 79.5815)" fill="#246BE5"/>
<rect x="177.412" y="28.2839" width="11.2634" height="31.6945" rx="5.63168" transform="rotate(45 177.412 28.2839)" fill="#246BE5"/>
<rect x="199.823" y="50.6953" width="11.2634" height="31.6945" rx="5.63168" transform="rotate(135 199.823 50.6953)" fill="#246BE5"/>
<rect x="191.858" y="58.6599" width="11.2634" height="31.6945" rx="5.63168" transform="rotate(-135 191.858 58.6599)" fill="#246BE5"/>
<rect x="198.341" y="36.2484" width="11.2634" height="31.6945" rx="5.63168" transform="rotate(-45 198.341 36.2484)" fill="#246BE5"/>
<rect x="220.753" y="42.7308" width="11.2634" height="31.6945" rx="5.63168" transform="rotate(45 220.753 42.7308)" fill="#246BE5"/>
<rect x="213.983" y="64.8756" width="11.2634" height="16.2529" rx="5.63168" transform="rotate(135 213.983 64.8756)" fill="#246BE5"/>
<rect width="11.2634" height="16.2529" rx="5.63168" transform="matrix(0.707107 0.707107 0.707107 -0.707107 169.447 65.1423)" fill="#246BE5"/>
<rect x="185.376" y="65.1423" width="11.2634" height="31.6945" rx="5.63168" transform="rotate(135 185.376 65.1423)" fill="#246BE5"/>
</g>
<g clip-path="url(#clip1_1_25039)">
<path d="M243.495 52.5243V37.5298C243.495 36.3218 243.721 35.1742 244.174 34.087C244.627 32.9998 245.246 32.0635 246.031 31.2783C246.847 30.4931 247.783 29.874 248.84 29.421C249.897 28.9378 251.045 28.6962 252.283 28.6962C253.551 28.6962 254.714 28.9378 255.771 29.421C256.858 29.9042 257.795 30.5535 258.58 31.3689C259.365 30.5535 260.286 29.9042 261.343 29.421C262.43 28.9378 263.608 28.6962 264.876 28.6962C266.085 28.6962 267.217 28.9378 268.274 29.421C269.361 29.874 270.297 30.4931 271.083 31.2783C271.898 32.0635 272.532 32.9998 272.985 34.087C273.438 35.1742 273.665 36.3218 273.665 37.5298V52.5243H268.682V37.5298C268.682 36.4728 268.304 35.5668 267.549 34.8118C266.824 34.0568 265.934 33.6793 264.876 33.6793C263.819 33.6793 262.913 34.0568 262.158 34.8118C261.434 35.5668 261.071 36.4728 261.071 37.5298V52.5243H256.088V37.3939C256.088 36.3369 255.711 35.4611 254.956 34.7665C254.231 34.0417 253.34 33.6793 252.283 33.6793C251.226 33.6793 250.32 34.0568 249.565 34.8118C248.84 35.5668 248.478 36.4728 248.478 37.5298V52.5243H243.495Z" fill="#246BE5"/>
<path d="M295.006 51.2559C293.043 52.4639 290.898 53.0679 288.573 53.0679C286.882 53.0679 285.296 52.7508 283.816 52.1166C282.367 51.4824 281.083 50.6217 279.966 49.5345C278.848 48.417 277.973 47.1184 277.338 45.6386C276.704 44.1588 276.387 42.5733 276.387 40.8821C276.387 39.221 276.704 37.6506 277.338 36.1708C277.973 34.691 278.848 33.3924 279.966 32.2749C281.083 31.1575 282.367 30.2817 283.816 29.6475C285.296 29.0133 286.882 28.6962 288.573 28.6962C290.234 28.6962 291.804 29.0133 293.284 29.6475C294.764 30.2817 296.063 31.1575 297.18 32.2749C298.297 33.3924 299.173 34.691 299.807 36.1708C300.442 37.6506 300.759 39.221 300.759 40.8821V52.5243H295.776V40.8821C295.776 39.8854 295.579 38.9643 295.187 38.1187C294.824 37.2429 294.311 36.4728 293.647 35.8084C292.982 35.144 292.212 34.6306 291.336 34.2682C290.491 33.8756 289.57 33.6793 288.573 33.6793C287.576 33.6793 286.64 33.8756 285.764 34.2682C284.919 34.6306 284.164 35.144 283.499 35.8084C282.835 36.4728 282.306 37.2429 281.914 38.1187C281.551 38.9643 281.37 39.8854 281.37 40.8821C281.37 41.8787 281.551 42.8149 281.914 43.6907C282.306 44.5665 282.835 45.3366 283.499 46.001C284.164 46.6352 284.919 47.1486 285.764 47.5412C286.64 47.9036 287.576 48.0848 288.573 48.0848C289.237 48.0848 289.872 48.0093 290.476 47.8583C291.08 47.6771 291.653 47.4355 292.197 47.1335L295.006 51.2559Z" fill="#246BE5"/>
<path d="M309.803 20.8139V30.8253C310.74 30.1307 311.766 29.6022 312.884 29.2398C314.001 28.8774 315.194 28.6962 316.462 28.6962C318.063 28.6962 319.573 29.0133 320.993 29.6475C322.412 30.2515 323.65 31.082 324.707 32.139C325.764 33.1961 326.595 34.4343 327.199 35.8537C327.833 37.2731 328.15 38.7831 328.15 40.3837V52.5243H323.167V40.3837C323.167 39.4777 322.986 38.617 322.623 37.8016C322.291 36.9862 321.808 36.2765 321.174 35.6725C320.57 35.0383 319.86 34.5551 319.045 34.2229C318.229 33.8605 317.368 33.6793 316.462 33.6793C315.556 33.6793 314.696 33.8454 313.88 34.1776C313.095 34.5098 312.401 34.9779 311.797 35.5819C311.193 36.1557 310.709 36.8352 310.347 37.6204C309.985 38.4056 309.803 39.2361 309.803 40.1119V52.5243H304.82V20.8139H309.803Z" fill="#246BE5"/>
<path d="M349.287 51.2559C347.324 52.4639 345.179 53.0679 342.854 53.0679C341.163 53.0679 339.577 52.7508 338.097 52.1166C336.648 51.4824 335.364 50.6217 334.247 49.5345C333.129 48.417 332.254 47.1184 331.619 45.6386C330.985 44.1588 330.668 42.5733 330.668 40.8821C330.668 39.221 330.985 37.6506 331.619 36.1708C332.254 34.691 333.129 33.3924 334.247 32.2749C335.364 31.1575 336.648 30.2817 338.097 29.6475C339.577 29.0133 341.163 28.6962 342.854 28.6962C344.515 28.6962 346.085 29.0133 347.565 29.6475C349.045 30.2817 350.344 31.1575 351.461 32.2749C352.578 33.3924 353.454 34.691 354.088 36.1708C354.723 37.6506 355.04 39.221 355.04 40.8821V52.5243H350.057V40.8821C350.057 39.8854 349.86 38.9643 349.468 38.1187C349.105 37.2429 348.592 36.4728 347.928 35.8084C347.263 35.144 346.493 34.6306 345.617 34.2682C344.772 33.8756 343.851 33.6793 342.854 33.6793C341.857 33.6793 340.921 33.8756 340.045 34.2682C339.2 34.6306 338.445 35.144 337.78 35.8084C337.116 36.4728 336.587 37.2429 336.195 38.1187C335.832 38.9643 335.651 39.8854 335.651 40.8821C335.651 41.8787 335.832 42.8149 336.195 43.6907C336.587 44.5665 337.116 45.3366 337.78 46.001C338.445 46.6352 339.2 47.1486 340.045 47.5412C340.921 47.9036 341.857 48.0848 342.854 48.0848C343.518 48.0848 344.153 48.0093 344.757 47.8583C345.361 47.6771 345.934 47.4355 346.478 47.1335L349.287 51.2559Z" fill="#246BE5"/>
<path d="M243.844 64.4236V61.1101C243.844 60.8432 243.894 60.5896 243.994 60.3493C244.094 60.1091 244.231 59.9022 244.404 59.7287C244.585 59.5552 244.791 59.4183 245.025 59.3182C245.259 59.2115 245.512 59.1581 245.786 59.1581C246.066 59.1581 246.323 59.2115 246.557 59.3182C246.797 59.425 247.004 59.5685 247.177 59.7487C247.351 59.5685 247.554 59.425 247.788 59.3182C248.028 59.2115 248.288 59.1581 248.569 59.1581C248.836 59.1581 249.086 59.2115 249.319 59.3182C249.56 59.4183 249.767 59.5552 249.94 59.7287C250.12 59.9022 250.26 60.1091 250.361 60.3493C250.461 60.5896 250.511 60.8432 250.511 61.1101V64.4236H249.41V61.1101C249.41 60.8765 249.326 60.6763 249.159 60.5095C248.999 60.3426 248.802 60.2592 248.569 60.2592C248.335 60.2592 248.135 60.3426 247.968 60.5095C247.808 60.6763 247.728 60.8765 247.728 61.1101V64.4236H246.627V61.0801C246.627 60.8465 246.543 60.653 246.376 60.4995C246.216 60.3393 246.019 60.2592 245.786 60.2592C245.552 60.2592 245.352 60.3426 245.185 60.5095C245.025 60.6763 244.945 60.8765 244.945 61.1101V64.4236H243.844Z" fill="#5E6572"/>
<path d="M255.367 66.4056V64.0632C255.153 64.21 254.923 64.3235 254.676 64.4035C254.429 64.4836 254.169 64.5237 253.895 64.5237C253.541 64.5237 253.208 64.4569 252.894 64.3235C252.58 64.1833 252.307 63.9964 252.073 63.7629C251.84 63.5293 251.653 63.2557 251.513 62.942C251.379 62.6284 251.312 62.2947 251.312 61.941V59.2582H252.414V61.941C252.414 62.1412 252.45 62.3314 252.524 62.5116C252.604 62.6918 252.711 62.8519 252.844 62.9921C252.984 63.1255 253.144 63.2323 253.325 63.3124C253.505 63.3858 253.695 63.4225 253.895 63.4225C254.095 63.4225 254.282 63.3858 254.456 63.3124C254.636 63.239 254.793 63.1389 254.926 63.0121C255.06 62.8786 255.166 62.7285 255.247 62.5616C255.327 62.3881 255.367 62.2012 255.367 62.001V59.2582H256.468V66.4056H255.367Z" fill="#5E6572"/>
<path d="M263.184 64.1433C262.75 64.4102 262.276 64.5437 261.763 64.5437C261.389 64.5437 261.038 64.4736 260.711 64.3335C260.391 64.1933 260.108 64.0031 259.861 63.7629C259.614 63.5159 259.42 63.229 259.28 62.902C259.14 62.575 259.07 62.2246 259.07 61.8509C259.07 61.4838 259.14 61.1368 259.28 60.8098C259.42 60.4828 259.614 60.1958 259.861 59.9489C260.108 59.702 260.391 59.5084 260.711 59.3683C261.038 59.2281 261.389 59.1581 261.763 59.1581C262.13 59.1581 262.477 59.2281 262.804 59.3683C263.131 59.5084 263.418 59.702 263.665 59.9489C263.911 60.1958 264.105 60.4828 264.245 60.8098C264.385 61.1368 264.455 61.4838 264.455 61.8509V64.4236H263.354V61.8509C263.354 61.6306 263.311 61.4271 263.224 61.2402C263.144 61.0467 263.031 60.8765 262.884 60.7297C262.737 60.5829 262.567 60.4694 262.373 60.3894C262.186 60.3026 261.983 60.2592 261.763 60.2592C261.542 60.2592 261.335 60.3026 261.142 60.3894C260.955 60.4694 260.788 60.5829 260.641 60.7297C260.495 60.8765 260.378 61.0467 260.291 61.2402C260.211 61.4271 260.171 61.6306 260.171 61.8509C260.171 62.0711 260.211 62.278 260.291 62.4715C260.378 62.6651 260.495 62.8352 260.641 62.9821C260.788 63.1222 260.955 63.2357 261.142 63.3224C261.335 63.4025 261.542 63.4425 261.763 63.4425C261.909 63.4425 262.05 63.4259 262.183 63.3925C262.316 63.3524 262.443 63.2991 262.563 63.2323L263.184 64.1433Z" fill="#5E6572"/>
<path d="M265.353 57.4163H266.454V64.4236H265.353V57.4163Z" fill="#5E6572"/>
<path d="M267.455 57.4163H268.556V64.4236H267.455V57.4163Z" fill="#5E6572"/>
<path d="M269.556 59.2582H270.658V64.4236H269.556V59.2582ZM269.486 58.2671C269.486 58.1137 269.546 57.9802 269.667 57.8667C269.787 57.7533 269.924 57.6966 270.077 57.6966C270.231 57.6966 270.364 57.7533 270.477 57.8667C270.591 57.9802 270.648 58.1137 270.648 58.2671C270.648 58.4206 270.591 58.5574 270.477 58.6776C270.364 58.7977 270.231 58.8578 270.077 58.8578C269.924 58.8578 269.787 58.7977 269.667 58.6776C269.546 58.5574 269.486 58.4206 269.486 58.2671Z" fill="#5E6572"/>
<path d="M273.982 60.2592C273.762 60.2592 273.555 60.3026 273.362 60.3894C273.175 60.4694 273.008 60.5829 272.861 60.7297C272.714 60.8765 272.598 61.0467 272.511 61.2402C272.431 61.4271 272.391 61.6306 272.391 61.8509C272.391 62.0711 272.431 62.278 272.511 62.4715C272.598 62.6651 272.714 62.8352 272.861 62.9821C273.008 63.1222 273.175 63.2357 273.362 63.3224C273.555 63.4025 273.762 63.4425 273.982 63.4425C274.209 63.4425 274.419 63.3992 274.613 63.3124C274.813 63.2256 274.987 63.1055 275.134 62.952L275.934 63.7028C275.687 63.9631 275.394 64.17 275.053 64.3235C274.72 64.4703 274.363 64.5437 273.982 64.5437C273.609 64.5437 273.258 64.4736 272.931 64.3335C272.611 64.1933 272.327 64.0031 272.08 63.7629C271.833 63.5159 271.64 63.229 271.5 62.902C271.36 62.575 271.29 62.2246 271.29 61.8509C271.29 61.4838 271.36 61.1368 271.5 60.8098C271.64 60.4828 271.833 60.1958 272.08 59.9489C272.327 59.702 272.611 59.5084 272.931 59.3683C273.258 59.2281 273.609 59.1581 273.982 59.1581C274.189 59.1581 274.399 59.1814 274.613 59.2281C274.827 59.2749 275.033 59.3483 275.234 59.4484C275.434 59.5485 275.624 59.682 275.804 59.8488C275.984 60.009 276.145 60.2092 276.285 60.4494L273.812 62.952L273.001 62.1912L274.733 60.4494C274.466 60.3226 274.216 60.2592 273.982 60.2592Z" fill="#5E6572"/>
<path d="M280.135 60.4694C280.015 60.4027 279.888 60.3527 279.755 60.3193C279.621 60.2792 279.481 60.2592 279.334 60.2592C279.114 60.2592 278.907 60.3026 278.714 60.3894C278.527 60.4694 278.36 60.5829 278.213 60.7297C278.066 60.8699 277.95 61.0367 277.863 61.2302C277.783 61.4238 277.743 61.6306 277.743 61.8509C277.743 62.0711 277.783 62.278 277.863 62.4715C277.95 62.6584 278.066 62.8252 278.213 62.972C278.36 63.1189 278.527 63.2357 278.714 63.3224C278.907 63.4025 279.114 63.4425 279.334 63.4425C279.555 63.4425 279.758 63.4025 279.945 63.3224C280.139 63.2357 280.309 63.1189 280.456 62.972C280.602 62.8252 280.716 62.6584 280.796 62.4715C280.883 62.278 280.926 62.0711 280.926 61.8509V57.4163H282.027V61.8509C282.027 62.2246 281.957 62.575 281.817 62.902C281.677 63.2223 281.483 63.5059 281.236 63.7529C280.989 63.9998 280.702 64.1933 280.375 64.3335C280.048 64.4736 279.701 64.5437 279.334 64.5437C278.961 64.5437 278.61 64.4736 278.283 64.3335C277.963 64.1933 277.679 63.9998 277.432 63.7529C277.185 63.5059 276.992 63.2223 276.852 62.902C276.712 62.575 276.642 62.2246 276.642 61.8509C276.642 61.4772 276.712 61.1268 276.852 60.7998C276.992 60.4728 277.185 60.1891 277.432 59.9489C277.679 59.702 277.963 59.5084 278.283 59.3683C278.61 59.2281 278.961 59.1581 279.334 59.1581C279.848 59.1581 280.322 59.2915 280.756 59.5585L280.135 60.4694Z" fill="#5E6572"/>
<path d="M286.035 57.4163V59.6286C286.242 59.4751 286.469 59.3583 286.716 59.2782C286.963 59.1981 287.226 59.1581 287.506 59.1581C287.86 59.1581 288.194 59.2281 288.508 59.3683C288.821 59.5018 289.095 59.6853 289.328 59.9189C289.562 60.1524 289.745 60.4261 289.879 60.7397C290.019 61.0534 290.089 61.3871 290.089 61.7408V64.4236H288.988V61.7408C288.988 61.5406 288.948 61.3504 288.868 61.1702C288.794 60.99 288.688 60.8332 288.548 60.6997C288.414 60.5595 288.257 60.4528 288.077 60.3793C287.897 60.2993 287.707 60.2592 287.506 60.2592C287.306 60.2592 287.116 60.2959 286.936 60.3693C286.762 60.4427 286.609 60.5462 286.475 60.6797C286.342 60.8065 286.235 60.9566 286.155 61.1301C286.075 61.3036 286.035 61.4872 286.035 61.6807V64.4236H284.934V57.4163H286.035Z" fill="#5E6572"/>
<path d="M293.338 60.2592C293.118 60.2592 292.911 60.3026 292.718 60.3894C292.531 60.4694 292.364 60.5829 292.217 60.7297C292.07 60.8765 291.954 61.0467 291.867 61.2402C291.787 61.4271 291.747 61.6306 291.747 61.8509C291.747 62.0711 291.787 62.278 291.867 62.4715C291.954 62.6651 292.07 62.8352 292.217 62.9821C292.364 63.1222 292.531 63.2357 292.718 63.3224C292.911 63.4025 293.118 63.4425 293.338 63.4425C293.565 63.4425 293.776 63.3992 293.969 63.3124C294.169 63.2256 294.343 63.1055 294.49 62.952L295.29 63.7028C295.044 63.9631 294.75 64.17 294.41 64.3235C294.076 64.4703 293.719 64.5437 293.338 64.5437C292.965 64.5437 292.614 64.4736 292.287 64.3335C291.967 64.1933 291.683 64.0031 291.436 63.7629C291.19 63.5159 290.996 63.229 290.856 62.902C290.716 62.575 290.646 62.2246 290.646 61.8509C290.646 61.4838 290.716 61.1368 290.856 60.8098C290.996 60.4828 291.19 60.1958 291.436 59.9489C291.683 59.702 291.967 59.5084 292.287 59.3683C292.614 59.2281 292.965 59.1581 293.338 59.1581C293.545 59.1581 293.756 59.1814 293.969 59.2281C294.183 59.2749 294.39 59.3483 294.59 59.4484C294.79 59.5485 294.98 59.682 295.16 59.8488C295.341 60.009 295.501 60.2092 295.641 60.4494L293.168 62.952L292.357 62.1912L294.089 60.4494C293.822 60.3226 293.572 60.2592 293.338 60.2592Z" fill="#5E6572"/>
<path d="M299.912 64.1433C299.478 64.4102 299.004 64.5437 298.49 64.5437C298.117 64.5437 297.766 64.4736 297.439 64.3335C297.119 64.1933 296.835 64.0031 296.588 63.7629C296.341 63.5159 296.148 63.229 296.008 62.902C295.868 62.575 295.797 62.2246 295.797 61.8509C295.797 61.4838 295.868 61.1368 296.008 60.8098C296.148 60.4828 296.341 60.1958 296.588 59.9489C296.835 59.702 297.119 59.5084 297.439 59.3683C297.766 59.2281 298.117 59.1581 298.49 59.1581C298.857 59.1581 299.204 59.2281 299.531 59.3683C299.858 59.5084 300.145 59.702 300.392 59.9489C300.639 60.1958 300.833 60.4828 300.973 60.8098C301.113 61.1368 301.183 61.4838 301.183 61.8509V64.4236H300.082V61.8509C300.082 61.6306 300.039 61.4271 299.952 61.2402C299.872 61.0467 299.758 60.8765 299.611 60.7297C299.465 60.5829 299.294 60.4694 299.101 60.3894C298.914 60.3026 298.711 60.2592 298.49 60.2592C298.27 60.2592 298.063 60.3026 297.87 60.3894C297.683 60.4694 297.516 60.5829 297.369 60.7297C297.222 60.8765 297.105 61.0467 297.019 61.2402C296.939 61.4271 296.899 61.6306 296.899 61.8509C296.899 62.0711 296.939 62.278 297.019 62.4715C297.105 62.6651 297.222 62.8352 297.369 62.9821C297.516 63.1222 297.683 63.2357 297.87 63.3224C298.063 63.4025 298.27 63.4425 298.49 63.4425C298.637 63.4425 298.777 63.4259 298.911 63.3925C299.044 63.3524 299.171 63.2991 299.291 63.2323L299.912 64.1433Z" fill="#5E6572"/>
<path d="M302.081 57.4163H303.182V64.4236H302.081V57.4163Z" fill="#5E6572"/>
<path d="M304.082 57.4163H305.183V59.2582H306.775V60.3593H305.183V61.8409C305.183 62.0611 305.223 62.268 305.304 62.4615C305.39 62.655 305.507 62.8252 305.654 62.972C305.801 63.1122 305.968 63.2256 306.154 63.3124C306.348 63.3925 306.555 63.4325 306.775 63.4325V64.5337C306.401 64.5337 306.051 64.4636 305.724 64.3235C305.404 64.1833 305.12 63.9931 304.873 63.7529C304.626 63.5059 304.433 63.219 304.292 62.892C304.152 62.565 304.082 62.2146 304.082 61.8409V57.4163Z" fill="#5E6572"/>
<path d="M308.48 57.4163V59.6286C308.687 59.4751 308.914 59.3583 309.161 59.2782C309.408 59.1981 309.671 59.1581 309.952 59.1581C310.305 59.1581 310.639 59.2281 310.953 59.3683C311.266 59.5018 311.54 59.6853 311.774 59.9189C312.007 60.1524 312.191 60.4261 312.324 60.7397C312.464 61.0534 312.534 61.3871 312.534 61.7408V64.4236H311.433V61.7408C311.433 61.5406 311.393 61.3504 311.313 61.1702C311.24 60.99 311.133 60.8332 310.993 60.6997C310.859 60.5595 310.703 60.4528 310.522 60.3793C310.342 60.2993 310.152 60.2592 309.952 60.2592C309.752 60.2592 309.561 60.2959 309.381 60.3693C309.208 60.4427 309.054 60.5462 308.921 60.6797C308.787 60.8065 308.68 60.9566 308.6 61.1301C308.52 61.3036 308.48 61.4872 308.48 61.6807V64.4236H307.379V57.4163H308.48Z" fill="#5E6572"/>
<path d="M319.258 64.1433C318.824 64.4102 318.35 64.5437 317.837 64.5437C317.463 64.5437 317.113 64.4736 316.786 64.3335C316.465 64.1933 316.182 64.0031 315.935 63.7629C315.688 63.5159 315.494 63.229 315.354 62.902C315.214 62.575 315.144 62.2246 315.144 61.8509C315.144 61.4838 315.214 61.1368 315.354 60.8098C315.494 60.4828 315.688 60.1958 315.935 59.9489C316.182 59.702 316.465 59.5084 316.786 59.3683C317.113 59.2281 317.463 59.1581 317.837 59.1581C318.204 59.1581 318.551 59.2281 318.878 59.3683C319.205 59.5084 319.492 59.702 319.739 59.9489C319.986 60.1958 320.179 60.4828 320.319 60.8098C320.459 61.1368 320.529 61.4838 320.529 61.8509V64.4236H319.428V61.8509C319.428 61.6306 319.385 61.4271 319.298 61.2402C319.218 61.0467 319.105 60.8765 318.958 60.7297C318.811 60.5829 318.641 60.4694 318.447 60.3894C318.26 60.3026 318.057 60.2592 317.837 60.2592C317.616 60.2592 317.409 60.3026 317.216 60.3894C317.029 60.4694 316.862 60.5829 316.715 60.7297C316.569 60.8765 316.452 61.0467 316.365 61.2402C316.285 61.4271 316.245 61.6306 316.245 61.8509C316.245 62.0711 316.285 62.278 316.365 62.4715C316.452 62.6651 316.569 62.8352 316.715 62.9821C316.862 63.1222 317.029 63.2357 317.216 63.3224C317.409 63.4025 317.616 63.4425 317.837 63.4425C317.983 63.4425 318.124 63.4259 318.257 63.3925C318.391 63.3524 318.517 63.2991 318.637 63.2323L319.258 64.1433Z" fill="#5E6572"/>
<path d="M323.771 60.2592C323.55 60.2592 323.343 60.3026 323.15 60.3894C322.963 60.4694 322.796 60.5829 322.649 60.7297C322.503 60.8699 322.386 61.0367 322.299 61.2302C322.219 61.4238 322.179 61.6306 322.179 61.8509C322.179 62.0711 322.219 62.278 322.299 62.4715C322.386 62.6651 322.503 62.8352 322.649 62.9821C322.796 63.1222 322.963 63.2357 323.15 63.3224C323.343 63.4025 323.55 63.4425 323.771 63.4425V64.5437C323.397 64.5437 323.046 64.4736 322.719 64.3335C322.399 64.1933 322.115 64.0031 321.869 63.7629C321.622 63.5159 321.428 63.229 321.288 62.902C321.148 62.575 321.078 62.2246 321.078 61.8509C321.078 61.4772 321.148 61.1268 321.288 60.7998C321.428 60.4728 321.622 60.1891 321.869 59.9489C322.115 59.702 322.399 59.5084 322.719 59.3683C323.046 59.2281 323.397 59.1581 323.771 59.1581V60.2592Z" fill="#5E6572"/>
<path d="M328.086 64.1433C327.652 64.4102 327.178 64.5437 326.664 64.5437C326.29 64.5437 325.94 64.4736 325.613 64.3335C325.293 64.1933 325.009 64.0031 324.762 63.7629C324.515 63.5159 324.322 63.229 324.182 62.902C324.041 62.575 323.971 62.2246 323.971 61.8509C323.971 61.4838 324.041 61.1368 324.182 60.8098C324.322 60.4828 324.515 60.1958 324.762 59.9489C325.009 59.702 325.293 59.5084 325.613 59.3683C325.94 59.2281 326.29 59.1581 326.664 59.1581C327.031 59.1581 327.378 59.2281 327.705 59.3683C328.032 59.5084 328.319 59.702 328.566 59.9489C328.813 60.1958 329.007 60.4828 329.147 60.8098C329.287 61.1368 329.357 61.4838 329.357 61.8509V64.4236H328.256V61.8509C328.256 61.6306 328.212 61.4271 328.126 61.2402C328.046 61.0467 327.932 60.8765 327.785 60.7297C327.639 60.5829 327.468 60.4694 327.275 60.3894C327.088 60.3026 326.884 60.2592 326.664 60.2592C326.444 60.2592 326.237 60.3026 326.044 60.3894C325.857 60.4694 325.69 60.5829 325.543 60.7297C325.396 60.8765 325.279 61.0467 325.193 61.2402C325.113 61.4271 325.072 61.6306 325.072 61.8509C325.072 62.0711 325.113 62.278 325.193 62.4715C325.279 62.6651 325.396 62.8352 325.543 62.9821C325.69 63.1222 325.857 63.2357 326.044 63.3224C326.237 63.4025 326.444 63.4425 326.664 63.4425C326.811 63.4425 326.951 63.4259 327.085 63.3925C327.218 63.3524 327.345 63.2991 327.465 63.2323L328.086 64.1433Z" fill="#5E6572"/>
<path d="M333.599 60.4694C333.479 60.4027 333.352 60.3527 333.219 60.3193C333.085 60.2792 332.945 60.2592 332.798 60.2592C332.578 60.2592 332.371 60.3026 332.178 60.3894C331.991 60.4694 331.824 60.5829 331.677 60.7297C331.53 60.8699 331.414 61.0367 331.327 61.2302C331.247 61.4238 331.207 61.6306 331.207 61.8509C331.207 62.0711 331.247 62.278 331.327 62.4715C331.414 62.6584 331.53 62.8252 331.677 62.972C331.824 63.1189 331.991 63.2357 332.178 63.3224C332.371 63.4025 332.578 63.4425 332.798 63.4425C333.019 63.4425 333.222 63.4025 333.409 63.3224C333.602 63.2357 333.773 63.1189 333.919 62.972C334.066 62.8252 334.18 62.6584 334.26 62.4715C334.347 62.278 334.39 62.0711 334.39 61.8509V57.4163H335.491V61.8509C335.491 62.2246 335.421 62.575 335.281 62.902C335.141 63.2223 334.947 63.5059 334.7 63.7529C334.453 63.9998 334.166 64.1933 333.839 64.3335C333.512 64.4736 333.165 64.5437 332.798 64.5437C332.425 64.5437 332.074 64.4736 331.747 64.3335C331.427 64.1933 331.143 63.9998 330.896 63.7529C330.649 63.5059 330.456 63.2223 330.316 62.902C330.176 62.575 330.105 62.2246 330.105 61.8509C330.105 61.4772 330.176 61.1268 330.316 60.7998C330.456 60.4728 330.649 60.1891 330.896 59.9489C331.143 59.702 331.427 59.5084 331.747 59.3683C332.074 59.2281 332.425 59.1581 332.798 59.1581C333.312 59.1581 333.786 59.2915 334.22 59.5585L333.599 60.4694Z" fill="#5E6572"/>
<path d="M338.786 60.2592C338.566 60.2592 338.359 60.3026 338.166 60.3894C337.979 60.4694 337.812 60.5829 337.665 60.7297C337.518 60.8765 337.401 61.0467 337.315 61.2402C337.235 61.4271 337.194 61.6306 337.194 61.8509C337.194 62.0711 337.235 62.278 337.315 62.4715C337.401 62.6651 337.518 62.8352 337.665 62.9821C337.812 63.1222 337.979 63.2357 338.166 63.3224C338.359 63.4025 338.566 63.4425 338.786 63.4425C339.013 63.4425 339.223 63.3992 339.417 63.3124C339.617 63.2256 339.791 63.1055 339.937 62.952L340.738 63.7028C340.491 63.9631 340.198 64.17 339.857 64.3235C339.524 64.4703 339.167 64.5437 338.786 64.5437C338.412 64.5437 338.062 64.4736 337.735 64.3335C337.415 64.1933 337.131 64.0031 336.884 63.7629C336.637 63.5159 336.444 63.229 336.304 62.902C336.163 62.575 336.093 62.2246 336.093 61.8509C336.093 61.4838 336.163 61.1368 336.304 60.8098C336.444 60.4828 336.637 60.1958 336.884 59.9489C337.131 59.702 337.415 59.5084 337.735 59.3683C338.062 59.2281 338.412 59.1581 338.786 59.1581C338.993 59.1581 339.203 59.1814 339.417 59.2281C339.63 59.2749 339.837 59.3483 340.037 59.4484C340.238 59.5485 340.428 59.682 340.608 59.8488C340.788 60.009 340.948 60.2092 341.089 60.4494L338.616 62.952L337.805 62.1912L339.537 60.4494C339.27 60.3226 339.02 60.2592 338.786 60.2592Z" fill="#5E6572"/>
<path d="M341.592 64.4236V61.1101C341.592 60.8432 341.642 60.5896 341.742 60.3493C341.842 60.1091 341.979 59.9022 342.153 59.7287C342.333 59.5552 342.54 59.4183 342.773 59.3182C343.007 59.2115 343.26 59.1581 343.534 59.1581C343.814 59.1581 344.071 59.2115 344.305 59.3182C344.545 59.425 344.752 59.5685 344.926 59.7487C345.099 59.5685 345.303 59.425 345.536 59.3182C345.776 59.2115 346.037 59.1581 346.317 59.1581C346.584 59.1581 346.834 59.2115 347.068 59.3182C347.308 59.4183 347.515 59.5552 347.688 59.7287C347.869 59.9022 348.009 60.1091 348.109 60.3493C348.209 60.5896 348.259 60.8432 348.259 61.1101V64.4236H347.158V61.1101C347.158 60.8765 347.074 60.6763 346.908 60.5095C346.747 60.3426 346.551 60.2592 346.317 60.2592C346.083 60.2592 345.883 60.3426 345.716 60.5095C345.556 60.6763 345.476 60.8765 345.476 61.1101V64.4236H344.375V61.0801C344.375 60.8465 344.292 60.653 344.125 60.4995C343.965 60.3393 343.768 60.2592 343.534 60.2592C343.3 60.2592 343.1 60.3426 342.933 60.5095C342.773 60.6763 342.693 60.8765 342.693 61.1101V64.4236H341.592Z" fill="#5E6572"/>
<path d="M353.115 66.4056V64.0632C352.901 64.21 352.671 64.3235 352.424 64.4035C352.177 64.4836 351.917 64.5237 351.643 64.5237C351.29 64.5237 350.956 64.4569 350.642 64.3235C350.329 64.1833 350.055 63.9964 349.822 63.7629C349.588 63.5293 349.401 63.2557 349.261 62.942C349.127 62.6284 349.061 62.2947 349.061 61.941V59.2582H350.162V61.941C350.162 62.1412 350.199 62.3314 350.272 62.5116C350.352 62.6918 350.459 62.8519 350.592 62.9921C350.732 63.1255 350.893 63.2323 351.073 63.3124C351.253 63.3858 351.443 63.4225 351.643 63.4225C351.844 63.4225 352.031 63.3858 352.204 63.3124C352.384 63.239 352.541 63.1389 352.675 63.0121C352.808 62.8786 352.915 62.7285 352.995 62.5616C353.075 62.3881 353.115 62.2012 353.115 62.001V59.2582H354.216V66.4056H353.115Z" fill="#5E6572"/>
</g>
<rect x="530" y="0.701477" width="510" height="100" fill="#101010"/>
<g clip-path="url(#clip2_1_25039)">
<rect x="729.825" y="21.8242" width="11.2634" height="11.2671" rx="5.63168" transform="rotate(135 729.825 21.8242)" fill="#246BE5"/>
<rect x="729.825" y="79.5815" width="11.2634" height="11.2671" rx="5.63168" transform="rotate(135 729.825 79.5815)" fill="#246BE5"/>
<rect x="707.412" y="28.2839" width="11.2634" height="31.6945" rx="5.63168" transform="rotate(45 707.412 28.2839)" fill="#246BE5"/>
<rect x="729.823" y="50.6953" width="11.2634" height="31.6945" rx="5.63168" transform="rotate(135 729.823 50.6953)" fill="#246BE5"/>
<rect x="721.858" y="58.6599" width="11.2634" height="31.6945" rx="5.63168" transform="rotate(-135 721.858 58.6599)" fill="#246BE5"/>
<rect x="728.341" y="36.2484" width="11.2634" height="31.6945" rx="5.63168" transform="rotate(-45 728.341 36.2484)" fill="#246BE5"/>
<rect x="750.753" y="42.7308" width="11.2634" height="31.6945" rx="5.63168" transform="rotate(45 750.753 42.7308)" fill="#246BE5"/>
<rect x="743.983" y="64.8756" width="11.2634" height="16.2529" rx="5.63168" transform="rotate(135 743.983 64.8756)" fill="#246BE5"/>
<rect width="11.2634" height="16.2529" rx="5.63168" transform="matrix(0.707107 0.707107 0.707107 -0.707107 699.447 65.1423)" fill="#246BE5"/>
<rect x="715.376" y="65.1423" width="11.2634" height="31.6945" rx="5.63168" transform="rotate(135 715.376 65.1423)" fill="#246BE5"/>
</g>
<g clip-path="url(#clip3_1_25039)">
<path d="M773.495 52.5243V37.5298C773.495 36.3218 773.721 35.1742 774.174 34.087C774.627 32.9998 775.246 32.0635 776.031 31.2783C776.847 30.4931 777.783 29.874 778.84 29.421C779.897 28.9378 781.045 28.6962 782.283 28.6962C783.551 28.6962 784.714 28.9378 785.771 29.421C786.858 29.9042 787.795 30.5535 788.58 31.3689C789.365 30.5535 790.286 29.9042 791.343 29.421C792.43 28.9378 793.608 28.6962 794.876 28.6962C796.085 28.6962 797.217 28.9378 798.274 29.421C799.361 29.874 800.297 30.4931 801.083 31.2783C801.898 32.0635 802.532 32.9998 802.985 34.087C803.438 35.1742 803.665 36.3218 803.665 37.5298V52.5243H798.682V37.5298C798.682 36.4728 798.304 35.5668 797.549 34.8118C796.824 34.0568 795.934 33.6793 794.876 33.6793C793.819 33.6793 792.913 34.0568 792.158 34.8118C791.434 35.5668 791.071 36.4728 791.071 37.5298V52.5243H786.088V37.3939C786.088 36.3369 785.711 35.4611 784.956 34.7665C784.231 34.0417 783.34 33.6793 782.283 33.6793C781.226 33.6793 780.32 34.0568 779.565 34.8118C778.84 35.5668 778.478 36.4728 778.478 37.5298V52.5243H773.495Z" fill="#246BE5"/>
<path d="M825.006 51.2559C823.043 52.4639 820.898 53.0679 818.573 53.0679C816.882 53.0679 815.296 52.7508 813.816 52.1166C812.367 51.4824 811.083 50.6217 809.966 49.5345C808.848 48.417 807.973 47.1184 807.338 45.6386C806.704 44.1588 806.387 42.5733 806.387 40.8821C806.387 39.221 806.704 37.6506 807.338 36.1708C807.973 34.691 808.848 33.3924 809.966 32.2749C811.083 31.1575 812.367 30.2817 813.816 29.6475C815.296 29.0133 816.882 28.6962 818.573 28.6962C820.234 28.6962 821.804 29.0133 823.284 29.6475C824.764 30.2817 826.063 31.1575 827.18 32.2749C828.297 33.3924 829.173 34.691 829.807 36.1708C830.442 37.6506 830.759 39.221 830.759 40.8821V52.5243H825.776V40.8821C825.776 39.8854 825.579 38.9643 825.187 38.1187C824.824 37.2429 824.311 36.4728 823.647 35.8084C822.982 35.144 822.212 34.6306 821.336 34.2682C820.491 33.8756 819.57 33.6793 818.573 33.6793C817.576 33.6793 816.64 33.8756 815.764 34.2682C814.919 34.6306 814.164 35.144 813.499 35.8084C812.835 36.4728 812.306 37.2429 811.914 38.1187C811.551 38.9643 811.37 39.8854 811.37 40.8821C811.37 41.8787 811.551 42.8149 811.914 43.6907C812.306 44.5665 812.835 45.3366 813.499 46.001C814.164 46.6352 814.919 47.1486 815.764 47.5412C816.64 47.9036 817.576 48.0848 818.573 48.0848C819.237 48.0848 819.872 48.0093 820.476 47.8583C821.08 47.6771 821.653 47.4355 822.197 47.1335L825.006 51.2559Z" fill="#246BE5"/>
<path d="M839.803 20.8139V30.8253C840.74 30.1307 841.766 29.6022 842.884 29.2398C844.001 28.8774 845.194 28.6962 846.462 28.6962C848.063 28.6962 849.573 29.0133 850.993 29.6475C852.412 30.2515 853.65 31.082 854.707 32.139C855.764 33.1961 856.595 34.4343 857.199 35.8537C857.833 37.2731 858.15 38.7831 858.15 40.3837V52.5243H853.167V40.3837C853.167 39.4777 852.986 38.617 852.623 37.8016C852.291 36.9862 851.808 36.2765 851.174 35.6725C850.57 35.0383 849.86 34.5551 849.045 34.2229C848.229 33.8605 847.368 33.6793 846.462 33.6793C845.556 33.6793 844.696 33.8454 843.88 34.1776C843.095 34.5098 842.401 34.9779 841.797 35.5819C841.193 36.1557 840.709 36.8352 840.347 37.6204C839.985 38.4056 839.803 39.2361 839.803 40.1119V52.5243H834.82V20.8139H839.803Z" fill="#246BE5"/>
<path d="M879.287 51.2559C877.324 52.4639 875.179 53.0679 872.854 53.0679C871.163 53.0679 869.577 52.7508 868.097 52.1166C866.648 51.4824 865.364 50.6217 864.247 49.5345C863.129 48.417 862.254 47.1184 861.619 45.6386C860.985 44.1588 860.668 42.5733 860.668 40.8821C860.668 39.221 860.985 37.6506 861.619 36.1708C862.254 34.691 863.129 33.3924 864.247 32.2749C865.364 31.1575 866.648 30.2817 868.097 29.6475C869.577 29.0133 871.163 28.6962 872.854 28.6962C874.515 28.6962 876.085 29.0133 877.565 29.6475C879.045 30.2817 880.344 31.1575 881.461 32.2749C882.578 33.3924 883.454 34.691 884.088 36.1708C884.723 37.6506 885.04 39.221 885.04 40.8821V52.5243H880.057V40.8821C880.057 39.8854 879.86 38.9643 879.468 38.1187C879.105 37.2429 878.592 36.4728 877.928 35.8084C877.263 35.144 876.493 34.6306 875.617 34.2682C874.772 33.8756 873.851 33.6793 872.854 33.6793C871.857 33.6793 870.921 33.8756 870.045 34.2682C869.2 34.6306 868.445 35.144 867.78 35.8084C867.116 36.4728 866.587 37.2429 866.195 38.1187C865.832 38.9643 865.651 39.8854 865.651 40.8821C865.651 41.8787 865.832 42.8149 866.195 43.6907C866.587 44.5665 867.116 45.3366 867.78 46.001C868.445 46.6352 869.2 47.1486 870.045 47.5412C870.921 47.9036 871.857 48.0848 872.854 48.0848C873.518 48.0848 874.153 48.0093 874.757 47.8583C875.361 47.6771 875.934 47.4355 876.478 47.1335L879.287 51.2559Z" fill="#246BE5"/>
<path d="M773.844 64.4236V61.1101C773.844 60.8432 773.894 60.5896 773.994 60.3493C774.094 60.1091 774.231 59.9022 774.404 59.7287C774.585 59.5552 774.791 59.4183 775.025 59.3182C775.259 59.2115 775.512 59.1581 775.786 59.1581C776.066 59.1581 776.323 59.2115 776.557 59.3182C776.797 59.425 777.004 59.5685 777.177 59.7487C777.351 59.5685 777.554 59.425 777.788 59.3182C778.028 59.2115 778.288 59.1581 778.569 59.1581C778.836 59.1581 779.086 59.2115 779.319 59.3182C779.56 59.4183 779.767 59.5552 779.94 59.7287C780.12 59.9022 780.26 60.1091 780.361 60.3493C780.461 60.5896 780.511 60.8432 780.511 61.1101V64.4236H779.41V61.1101C779.41 60.8765 779.326 60.6763 779.159 60.5095C778.999 60.3426 778.802 60.2592 778.569 60.2592C778.335 60.2592 778.135 60.3426 777.968 60.5095C777.808 60.6763 777.728 60.8765 777.728 61.1101V64.4236H776.627V61.0801C776.627 60.8465 776.543 60.653 776.376 60.4995C776.216 60.3393 776.019 60.2592 775.786 60.2592C775.552 60.2592 775.352 60.3426 775.185 60.5095C775.025 60.6763 774.945 60.8765 774.945 61.1101V64.4236H773.844Z" fill="white"/>
<path d="M785.367 66.4056V64.0632C785.153 64.21 784.923 64.3235 784.676 64.4035C784.429 64.4836 784.169 64.5237 783.895 64.5237C783.541 64.5237 783.208 64.4569 782.894 64.3235C782.58 64.1833 782.307 63.9964 782.073 63.7629C781.84 63.5293 781.653 63.2557 781.513 62.942C781.379 62.6284 781.312 62.2947 781.312 61.941V59.2582H782.414V61.941C782.414 62.1412 782.45 62.3314 782.524 62.5116C782.604 62.6918 782.711 62.8519 782.844 62.9921C782.984 63.1255 783.144 63.2323 783.325 63.3124C783.505 63.3858 783.695 63.4225 783.895 63.4225C784.095 63.4225 784.282 63.3858 784.456 63.3124C784.636 63.239 784.793 63.1389 784.926 63.0121C785.06 62.8786 785.166 62.7285 785.247 62.5616C785.327 62.3881 785.367 62.2012 785.367 62.001V59.2582H786.468V66.4056H785.367Z" fill="white"/>
<path d="M793.184 64.1433C792.75 64.4102 792.276 64.5437 791.763 64.5437C791.389 64.5437 791.038 64.4736 790.711 64.3335C790.391 64.1933 790.108 64.0031 789.861 63.7629C789.614 63.5159 789.42 63.229 789.28 62.902C789.14 62.575 789.07 62.2246 789.07 61.8509C789.07 61.4838 789.14 61.1368 789.28 60.8098C789.42 60.4828 789.614 60.1958 789.861 59.9489C790.108 59.702 790.391 59.5084 790.711 59.3683C791.038 59.2281 791.389 59.1581 791.763 59.1581C792.13 59.1581 792.477 59.2281 792.804 59.3683C793.131 59.5084 793.418 59.702 793.665 59.9489C793.911 60.1958 794.105 60.4828 794.245 60.8098C794.385 61.1368 794.455 61.4838 794.455 61.8509V64.4236H793.354V61.8509C793.354 61.6306 793.311 61.4271 793.224 61.2402C793.144 61.0467 793.031 60.8765 792.884 60.7297C792.737 60.5829 792.567 60.4694 792.373 60.3894C792.186 60.3026 791.983 60.2592 791.763 60.2592C791.542 60.2592 791.335 60.3026 791.142 60.3894C790.955 60.4694 790.788 60.5829 790.641 60.7297C790.495 60.8765 790.378 61.0467 790.291 61.2402C790.211 61.4271 790.171 61.6306 790.171 61.8509C790.171 62.0711 790.211 62.278 790.291 62.4715C790.378 62.6651 790.495 62.8352 790.641 62.9821C790.788 63.1222 790.955 63.2357 791.142 63.3224C791.335 63.4025 791.542 63.4425 791.763 63.4425C791.909 63.4425 792.05 63.4259 792.183 63.3925C792.316 63.3524 792.443 63.2991 792.563 63.2323L793.184 64.1433Z" fill="white"/>
<path d="M795.353 57.4163H796.454V64.4236H795.353V57.4163Z" fill="white"/>
<path d="M797.455 57.4163H798.556V64.4236H797.455V57.4163Z" fill="white"/>
<path d="M799.556 59.2582H800.658V64.4236H799.556V59.2582ZM799.486 58.2671C799.486 58.1137 799.546 57.9802 799.667 57.8667C799.787 57.7533 799.924 57.6966 800.077 57.6966C800.231 57.6966 800.364 57.7533 800.477 57.8667C800.591 57.9802 800.648 58.1137 800.648 58.2671C800.648 58.4206 800.591 58.5574 800.477 58.6776C800.364 58.7977 800.231 58.8578 800.077 58.8578C799.924 58.8578 799.787 58.7977 799.667 58.6776C799.546 58.5574 799.486 58.4206 799.486 58.2671Z" fill="white"/>
<path d="M803.982 60.2592C803.762 60.2592 803.555 60.3026 803.362 60.3894C803.175 60.4694 803.008 60.5829 802.861 60.7297C802.714 60.8765 802.598 61.0467 802.511 61.2402C802.431 61.4271 802.391 61.6306 802.391 61.8509C802.391 62.0711 802.431 62.278 802.511 62.4715C802.598 62.6651 802.714 62.8352 802.861 62.9821C803.008 63.1222 803.175 63.2357 803.362 63.3224C803.555 63.4025 803.762 63.4425 803.982 63.4425C804.209 63.4425 804.419 63.3992 804.613 63.3124C804.813 63.2256 804.987 63.1055 805.134 62.952L805.934 63.7028C805.687 63.9631 805.394 64.17 805.053 64.3235C804.72 64.4703 804.363 64.5437 803.982 64.5437C803.609 64.5437 803.258 64.4736 802.931 64.3335C802.611 64.1933 802.327 64.0031 802.08 63.7629C801.833 63.5159 801.64 63.229 801.5 62.902C801.36 62.575 801.29 62.2246 801.29 61.8509C801.29 61.4838 801.36 61.1368 801.5 60.8098C801.64 60.4828 801.833 60.1958 802.08 59.9489C802.327 59.702 802.611 59.5084 802.931 59.3683C803.258 59.2281 803.609 59.1581 803.982 59.1581C804.189 59.1581 804.399 59.1814 804.613 59.2281C804.827 59.2749 805.033 59.3483 805.234 59.4484C805.434 59.5485 805.624 59.682 805.804 59.8488C805.984 60.009 806.145 60.2092 806.285 60.4494L803.812 62.952L803.001 62.1912L804.733 60.4494C804.466 60.3226 804.216 60.2592 803.982 60.2592Z" fill="white"/>
<path d="M810.135 60.4694C810.015 60.4027 809.888 60.3527 809.755 60.3193C809.621 60.2792 809.481 60.2592 809.334 60.2592C809.114 60.2592 808.907 60.3026 808.714 60.3894C808.527 60.4694 808.36 60.5829 808.213 60.7297C808.066 60.8699 807.95 61.0367 807.863 61.2302C807.783 61.4238 807.743 61.6306 807.743 61.8509C807.743 62.0711 807.783 62.278 807.863 62.4715C807.95 62.6584 808.066 62.8252 808.213 62.972C808.36 63.1189 808.527 63.2357 808.714 63.3224C808.907 63.4025 809.114 63.4425 809.334 63.4425C809.555 63.4425 809.758 63.4025 809.945 63.3224C810.139 63.2357 810.309 63.1189 810.456 62.972C810.602 62.8252 810.716 62.6584 810.796 62.4715C810.883 62.278 810.926 62.0711 810.926 61.8509V57.4163H812.027V61.8509C812.027 62.2246 811.957 62.575 811.817 62.902C811.677 63.2223 811.483 63.5059 811.236 63.7529C810.989 63.9998 810.702 64.1933 810.375 64.3335C810.048 64.4736 809.701 64.5437 809.334 64.5437C808.961 64.5437 808.61 64.4736 808.283 64.3335C807.963 64.1933 807.679 63.9998 807.432 63.7529C807.185 63.5059 806.992 63.2223 806.852 62.902C806.712 62.575 806.642 62.2246 806.642 61.8509C806.642 61.4772 806.712 61.1268 806.852 60.7998C806.992 60.4728 807.185 60.1891 807.432 59.9489C807.679 59.702 807.963 59.5084 808.283 59.3683C808.61 59.2281 808.961 59.1581 809.334 59.1581C809.848 59.1581 810.322 59.2915 810.756 59.5585L810.135 60.4694Z" fill="white"/>
<path d="M816.035 57.4163V59.6286C816.242 59.4751 816.469 59.3583 816.716 59.2782C816.963 59.1981 817.226 59.1581 817.506 59.1581C817.86 59.1581 818.194 59.2281 818.508 59.3683C818.821 59.5018 819.095 59.6853 819.328 59.9189C819.562 60.1524 819.745 60.4261 819.879 60.7397C820.019 61.0534 820.089 61.3871 820.089 61.7408V64.4236H818.988V61.7408C818.988 61.5406 818.948 61.3504 818.868 61.1702C818.794 60.99 818.688 60.8332 818.548 60.6997C818.414 60.5595 818.257 60.4528 818.077 60.3793C817.897 60.2993 817.707 60.2592 817.506 60.2592C817.306 60.2592 817.116 60.2959 816.936 60.3693C816.762 60.4427 816.609 60.5462 816.475 60.6797C816.342 60.8065 816.235 60.9566 816.155 61.1301C816.075 61.3036 816.035 61.4872 816.035 61.6807V64.4236H814.934V57.4163H816.035Z" fill="white"/>
<path d="M823.338 60.2592C823.118 60.2592 822.911 60.3026 822.718 60.3894C822.531 60.4694 822.364 60.5829 822.217 60.7297C822.07 60.8765 821.954 61.0467 821.867 61.2402C821.787 61.4271 821.747 61.6306 821.747 61.8509C821.747 62.0711 821.787 62.278 821.867 62.4715C821.954 62.6651 822.07 62.8352 822.217 62.9821C822.364 63.1222 822.531 63.2357 822.718 63.3224C822.911 63.4025 823.118 63.4425 823.338 63.4425C823.565 63.4425 823.776 63.3992 823.969 63.3124C824.169 63.2256 824.343 63.1055 824.49 62.952L825.29 63.7028C825.044 63.9631 824.75 64.17 824.41 64.3235C824.076 64.4703 823.719 64.5437 823.338 64.5437C822.965 64.5437 822.614 64.4736 822.287 64.3335C821.967 64.1933 821.683 64.0031 821.436 63.7629C821.19 63.5159 820.996 63.229 820.856 62.902C820.716 62.575 820.646 62.2246 820.646 61.8509C820.646 61.4838 820.716 61.1368 820.856 60.8098C820.996 60.4828 821.19 60.1958 821.436 59.9489C821.683 59.702 821.967 59.5084 822.287 59.3683C822.614 59.2281 822.965 59.1581 823.338 59.1581C823.545 59.1581 823.756 59.1814 823.969 59.2281C824.183 59.2749 824.39 59.3483 824.59 59.4484C824.79 59.5485 824.98 59.682 825.16 59.8488C825.341 60.009 825.501 60.2092 825.641 60.4494L823.168 62.952L822.357 62.1912L824.089 60.4494C823.822 60.3226 823.572 60.2592 823.338 60.2592Z" fill="white"/>
<path d="M829.912 64.1433C829.478 64.4102 829.004 64.5437 828.49 64.5437C828.117 64.5437 827.766 64.4736 827.439 64.3335C827.119 64.1933 826.835 64.0031 826.588 63.7629C826.341 63.5159 826.148 63.229 826.008 62.902C825.868 62.575 825.797 62.2246 825.797 61.8509C825.797 61.4838 825.868 61.1368 826.008 60.8098C826.148 60.4828 826.341 60.1958 826.588 59.9489C826.835 59.702 827.119 59.5084 827.439 59.3683C827.766 59.2281 828.117 59.1581 828.49 59.1581C828.857 59.1581 829.204 59.2281 829.531 59.3683C829.858 59.5084 830.145 59.702 830.392 59.9489C830.639 60.1958 830.833 60.4828 830.973 60.8098C831.113 61.1368 831.183 61.4838 831.183 61.8509V64.4236H830.082V61.8509C830.082 61.6306 830.039 61.4271 829.952 61.2402C829.872 61.0467 829.758 60.8765 829.611 60.7297C829.465 60.5829 829.294 60.4694 829.101 60.3894C828.914 60.3026 828.711 60.2592 828.49 60.2592C828.27 60.2592 828.063 60.3026 827.87 60.3894C827.683 60.4694 827.516 60.5829 827.369 60.7297C827.222 60.8765 827.105 61.0467 827.019 61.2402C826.939 61.4271 826.899 61.6306 826.899 61.8509C826.899 62.0711 826.939 62.278 827.019 62.4715C827.105 62.6651 827.222 62.8352 827.369 62.9821C827.516 63.1222 827.683 63.2357 827.87 63.3224C828.063 63.4025 828.27 63.4425 828.49 63.4425C828.637 63.4425 828.777 63.4259 828.911 63.3925C829.044 63.3524 829.171 63.2991 829.291 63.2323L829.912 64.1433Z" fill="white"/>
<path d="M832.081 57.4163H833.182V64.4236H832.081V57.4163Z" fill="white"/>
<path d="M834.082 57.4163H835.183V59.2582H836.775V60.3593H835.183V61.8409C835.183 62.0611 835.223 62.268 835.304 62.4615C835.39 62.655 835.507 62.8252 835.654 62.972C835.801 63.1122 835.968 63.2256 836.154 63.3124C836.348 63.3925 836.555 63.4325 836.775 63.4325V64.5337C836.401 64.5337 836.051 64.4636 835.724 64.3235C835.404 64.1833 835.12 63.9931 834.873 63.7529C834.626 63.5059 834.433 63.219 834.292 62.892C834.152 62.565 834.082 62.2146 834.082 61.8409V57.4163Z" fill="white"/>
<path d="M838.48 57.4163V59.6286C838.687 59.4751 838.914 59.3583 839.161 59.2782C839.408 59.1981 839.671 59.1581 839.952 59.1581C840.305 59.1581 840.639 59.2281 840.953 59.3683C841.266 59.5018 841.54 59.6853 841.774 59.9189C842.007 60.1524 842.191 60.4261 842.324 60.7397C842.464 61.0534 842.534 61.3871 842.534 61.7408V64.4236H841.433V61.7408C841.433 61.5406 841.393 61.3504 841.313 61.1702C841.24 60.99 841.133 60.8332 840.993 60.6997C840.859 60.5595 840.703 60.4528 840.522 60.3793C840.342 60.2993 840.152 60.2592 839.952 60.2592C839.752 60.2592 839.561 60.2959 839.381 60.3693C839.208 60.4427 839.054 60.5462 838.921 60.6797C838.787 60.8065 838.68 60.9566 838.6 61.1301C838.52 61.3036 838.48 61.4872 838.48 61.6807V64.4236H837.379V57.4163H838.48Z" fill="white"/>
<path d="M849.258 64.1433C848.824 64.4102 848.35 64.5437 847.837 64.5437C847.463 64.5437 847.113 64.4736 846.786 64.3335C846.465 64.1933 846.182 64.0031 845.935 63.7629C845.688 63.5159 845.494 63.229 845.354 62.902C845.214 62.575 845.144 62.2246 845.144 61.8509C845.144 61.4838 845.214 61.1368 845.354 60.8098C845.494 60.4828 845.688 60.1958 845.935 59.9489C846.182 59.702 846.465 59.5084 846.786 59.3683C847.113 59.2281 847.463 59.1581 847.837 59.1581C848.204 59.1581 848.551 59.2281 848.878 59.3683C849.205 59.5084 849.492 59.702 849.739 59.9489C849.986 60.1958 850.179 60.4828 850.319 60.8098C850.459 61.1368 850.529 61.4838 850.529 61.8509V64.4236H849.428V61.8509C849.428 61.6306 849.385 61.4271 849.298 61.2402C849.218 61.0467 849.105 60.8765 848.958 60.7297C848.811 60.5829 848.641 60.4694 848.447 60.3894C848.26 60.3026 848.057 60.2592 847.837 60.2592C847.616 60.2592 847.409 60.3026 847.216 60.3894C847.029 60.4694 846.862 60.5829 846.715 60.7297C846.569 60.8765 846.452 61.0467 846.365 61.2402C846.285 61.4271 846.245 61.6306 846.245 61.8509C846.245 62.0711 846.285 62.278 846.365 62.4715C846.452 62.6651 846.569 62.8352 846.715 62.9821C846.862 63.1222 847.029 63.2357 847.216 63.3224C847.409 63.4025 847.616 63.4425 847.837 63.4425C847.983 63.4425 848.124 63.4259 848.257 63.3925C848.391 63.3524 848.517 63.2991 848.637 63.2323L849.258 64.1433Z" fill="white"/>
<path d="M853.771 60.2592C853.55 60.2592 853.343 60.3026 853.15 60.3894C852.963 60.4694 852.796 60.5829 852.649 60.7297C852.503 60.8699 852.386 61.0367 852.299 61.2302C852.219 61.4238 852.179 61.6306 852.179 61.8509C852.179 62.0711 852.219 62.278 852.299 62.4715C852.386 62.6651 852.503 62.8352 852.649 62.9821C852.796 63.1222 852.963 63.2357 853.15 63.3224C853.343 63.4025 853.55 63.4425 853.771 63.4425V64.5437C853.397 64.5437 853.046 64.4736 852.719 64.3335C852.399 64.1933 852.115 64.0031 851.869 63.7629C851.622 63.5159 851.428 63.229 851.288 62.902C851.148 62.575 851.078 62.2246 851.078 61.8509C851.078 61.4772 851.148 61.1268 851.288 60.7998C851.428 60.4728 851.622 60.1891 851.869 59.9489C852.115 59.702 852.399 59.5084 852.719 59.3683C853.046 59.2281 853.397 59.1581 853.771 59.1581V60.2592Z" fill="white"/>
<path d="M858.086 64.1433C857.652 64.4102 857.178 64.5437 856.664 64.5437C856.29 64.5437 855.94 64.4736 855.613 64.3335C855.293 64.1933 855.009 64.0031 854.762 63.7629C854.515 63.5159 854.322 63.229 854.182 62.902C854.041 62.575 853.971 62.2246 853.971 61.8509C853.971 61.4838 854.041 61.1368 854.182 60.8098C854.322 60.4828 854.515 60.1958 854.762 59.9489C855.009 59.702 855.293 59.5084 855.613 59.3683C855.94 59.2281 856.29 59.1581 856.664 59.1581C857.031 59.1581 857.378 59.2281 857.705 59.3683C858.032 59.5084 858.319 59.702 858.566 59.9489C858.813 60.1958 859.007 60.4828 859.147 60.8098C859.287 61.1368 859.357 61.4838 859.357 61.8509V64.4236H858.256V61.8509C858.256 61.6306 858.212 61.4271 858.126 61.2402C858.046 61.0467 857.932 60.8765 857.785 60.7297C857.639 60.5829 857.468 60.4694 857.275 60.3894C857.088 60.3026 856.884 60.2592 856.664 60.2592C856.444 60.2592 856.237 60.3026 856.044 60.3894C855.857 60.4694 855.69 60.5829 855.543 60.7297C855.396 60.8765 855.279 61.0467 855.193 61.2402C855.113 61.4271 855.072 61.6306 855.072 61.8509C855.072 62.0711 855.113 62.278 855.193 62.4715C855.279 62.6651 855.396 62.8352 855.543 62.9821C855.69 63.1222 855.857 63.2357 856.044 63.3224C856.237 63.4025 856.444 63.4425 856.664 63.4425C856.811 63.4425 856.951 63.4259 857.085 63.3925C857.218 63.3524 857.345 63.2991 857.465 63.2323L858.086 64.1433Z" fill="white"/>
<path d="M863.599 60.4694C863.479 60.4027 863.352 60.3527 863.219 60.3193C863.085 60.2792 862.945 60.2592 862.798 60.2592C862.578 60.2592 862.371 60.3026 862.178 60.3894C861.991 60.4694 861.824 60.5829 861.677 60.7297C861.53 60.8699 861.414 61.0367 861.327 61.2302C861.247 61.4238 861.207 61.6306 861.207 61.8509C861.207 62.0711 861.247 62.278 861.327 62.4715C861.414 62.6584 861.53 62.8252 861.677 62.972C861.824 63.1189 861.991 63.2357 862.178 63.3224C862.371 63.4025 862.578 63.4425 862.798 63.4425C863.019 63.4425 863.222 63.4025 863.409 63.3224C863.602 63.2357 863.773 63.1189 863.919 62.972C864.066 62.8252 864.18 62.6584 864.26 62.4715C864.347 62.278 864.39 62.0711 864.39 61.8509V57.4163H865.491V61.8509C865.491 62.2246 865.421 62.575 865.281 62.902C865.141 63.2223 864.947 63.5059 864.7 63.7529C864.453 63.9998 864.166 64.1933 863.839 64.3335C863.512 64.4736 863.165 64.5437 862.798 64.5437C862.425 64.5437 862.074 64.4736 861.747 64.3335C861.427 64.1933 861.143 63.9998 860.896 63.7529C860.649 63.5059 860.456 63.2223 860.316 62.902C860.176 62.575 860.105 62.2246 860.105 61.8509C860.105 61.4772 860.176 61.1268 860.316 60.7998C860.456 60.4728 860.649 60.1891 860.896 59.9489C861.143 59.702 861.427 59.5084 861.747 59.3683C862.074 59.2281 862.425 59.1581 862.798 59.1581C863.312 59.1581 863.786 59.2915 864.22 59.5585L863.599 60.4694Z" fill="white"/>
<path d="M868.786 60.2592C868.566 60.2592 868.359 60.3026 868.166 60.3894C867.979 60.4694 867.812 60.5829 867.665 60.7297C867.518 60.8765 867.401 61.0467 867.315 61.2402C867.235 61.4271 867.194 61.6306 867.194 61.8509C867.194 62.0711 867.235 62.278 867.315 62.4715C867.401 62.6651 867.518 62.8352 867.665 62.9821C867.812 63.1222 867.979 63.2357 868.166 63.3224C868.359 63.4025 868.566 63.4425 868.786 63.4425C869.013 63.4425 869.223 63.3992 869.417 63.3124C869.617 63.2256 869.791 63.1055 869.937 62.952L870.738 63.7028C870.491 63.9631 870.198 64.17 869.857 64.3235C869.524 64.4703 869.167 64.5437 868.786 64.5437C868.412 64.5437 868.062 64.4736 867.735 64.3335C867.415 64.1933 867.131 64.0031 866.884 63.7629C866.637 63.5159 866.444 63.229 866.304 62.902C866.163 62.575 866.093 62.2246 866.093 61.8509C866.093 61.4838 866.163 61.1368 866.304 60.8098C866.444 60.4828 866.637 60.1958 866.884 59.9489C867.131 59.702 867.415 59.5084 867.735 59.3683C868.062 59.2281 868.412 59.1581 868.786 59.1581C868.993 59.1581 869.203 59.1814 869.417 59.2281C869.63 59.2749 869.837 59.3483 870.037 59.4484C870.238 59.5485 870.428 59.682 870.608 59.8488C870.788 60.009 870.948 60.2092 871.089 60.4494L868.616 62.952L867.805 62.1912L869.537 60.4494C869.27 60.3226 869.02 60.2592 868.786 60.2592Z" fill="white"/>
<path d="M871.592 64.4236V61.1101C871.592 60.8432 871.642 60.5896 871.742 60.3493C871.842 60.1091 871.979 59.9022 872.153 59.7287C872.333 59.5552 872.54 59.4183 872.773 59.3182C873.007 59.2115 873.26 59.1581 873.534 59.1581C873.814 59.1581 874.071 59.2115 874.305 59.3182C874.545 59.425 874.752 59.5685 874.926 59.7487C875.099 59.5685 875.303 59.425 875.536 59.3182C875.776 59.2115 876.037 59.1581 876.317 59.1581C876.584 59.1581 876.834 59.2115 877.068 59.3182C877.308 59.4183 877.515 59.5552 877.688 59.7287C877.869 59.9022 878.009 60.1091 878.109 60.3493C878.209 60.5896 878.259 60.8432 878.259 61.1101V64.4236H877.158V61.1101C877.158 60.8765 877.074 60.6763 876.908 60.5095C876.747 60.3426 876.551 60.2592 876.317 60.2592C876.083 60.2592 875.883 60.3426 875.716 60.5095C875.556 60.6763 875.476 60.8765 875.476 61.1101V64.4236H874.375V61.0801C874.375 60.8465 874.292 60.653 874.125 60.4995C873.965 60.3393 873.768 60.2592 873.534 60.2592C873.3 60.2592 873.1 60.3426 872.933 60.5095C872.773 60.6763 872.693 60.8765 872.693 61.1101V64.4236H871.592Z" fill="white"/>
<path d="M883.115 66.4056V64.0632C882.901 64.21 882.671 64.3235 882.424 64.4035C882.177 64.4836 881.917 64.5237 881.643 64.5237C881.29 64.5237 880.956 64.4569 880.642 64.3235C880.329 64.1833 880.055 63.9964 879.822 63.7629C879.588 63.5293 879.401 63.2557 879.261 62.942C879.127 62.6284 879.061 62.2947 879.061 61.941V59.2582H880.162V61.941C880.162 62.1412 880.199 62.3314 880.272 62.5116C880.352 62.6918 880.459 62.8519 880.592 62.9921C880.732 63.1255 880.893 63.2323 881.073 63.3124C881.253 63.3858 881.443 63.4225 881.643 63.4225C881.844 63.4225 882.031 63.3858 882.204 63.3124C882.384 63.239 882.541 63.1389 882.675 63.0121C882.808 62.8786 882.915 62.7285 882.995 62.5616C883.075 62.3881 883.115 62.2012 883.115 62.001V59.2582H884.216V66.4056H883.115Z" fill="white"/>
</g>
<defs>
<clipPath id="clip0_1_25039">
<rect width="73.7171" height="73.6887" fill="white" transform="translate(155 13.8571)"/>
</clipPath>
<clipPath id="clip1_1_25039">
<rect width="111.545" height="45.5917" fill="white" transform="translate(243.495 20.8139)"/>
</clipPath>
<clipPath id="clip2_1_25039">
<rect width="73.7171" height="73.6887" fill="white" transform="translate(685 13.8571)"/>
</clipPath>
<clipPath id="clip3_1_25039">
<rect width="111.545" height="45.5917" fill="white" transform="translate(773.495 20.8139)"/>
</clipPath>
</defs>
</svg>
