<svg width="1040" height="101" viewBox="0 0 1040 101" fill="none" xmlns="http://www.w3.org/2000/svg">
<rect width="510" height="100" transform="translate(0 0.701477)" fill="white"/>
<path d="M239.042 51.6782C239.042 52.8365 239.118 57.7215 239.294 59.2072V59.2575C238.664 57.369 237.378 53.4157 236.874 52.1315L234.025 45.3328H232.487C232.209 45.3328 232.083 45.4587 232.083 45.7357V62.959C234.075 62.959 234.1 62.959 234.1 62.5561V56.4373C234.1 55.3797 234 50.5199 233.848 48.8832C234.479 50.8473 235.815 54.9013 236.244 56.0344L239.143 62.959H240.656C240.933 62.959 241.085 62.8079 241.085 62.5561V45.3328C239.093 45.3328 239.042 45.3328 239.042 45.7357V51.6782Z" fill="#2E2E2E"/>
<path d="M247.397 61.2468C245.859 61.2468 245.127 60.5417 245.027 57.8222C246.287 57.8222 248.657 57.7467 250.322 57.4194C250.523 56.5129 250.599 55.279 250.599 54.1459C250.599 51.4516 249.515 50.1171 247.397 50.1171C245.178 50.1171 242.934 51.0235 242.934 57.3186C242.934 62.254 244.623 63.2108 246.968 63.2108C248.859 63.2108 250.448 62.6065 250.448 61.8259C250.448 61.423 250.397 60.8439 250.271 60.441C249.414 60.9446 248.405 61.2468 247.397 61.2468ZM247.17 51.9049C248.279 51.9049 248.607 52.5595 248.632 54.3977C248.632 54.8761 248.607 55.4553 248.506 55.9085C247.624 56.1603 246.01 56.2107 245.027 56.1855C245.203 52.761 246.111 51.9049 247.17 51.9049Z" fill="#2E2E2E"/>
<path d="M261.903 54.4733C261.55 56.4877 261.222 59.1316 261.096 60.6173H260.97C260.97 60.6173 260.617 57.923 260.189 56.0093L259.205 50.7214H257.869C257.339 50.7214 257.264 50.7969 257.213 51.1494L256.406 55.9589C256.129 57.5453 255.826 59.7359 255.7 60.6173H255.549C255.549 60.6173 255.171 57.2935 254.667 54.4733L253.885 50.3689C251.792 50.3689 251.616 50.3689 251.691 50.7969C251.691 50.7969 253.406 58.7791 254.137 61.8763C254.288 62.6065 254.566 63.1101 254.994 63.1101C255.65 63.1101 256.684 63.0346 256.684 63.0346L257.264 60.1137C257.692 58.0237 258.02 55.3546 258.197 53.8186C258.348 55.3546 258.676 57.9985 259.13 60.0885L259.457 61.8007C259.634 62.7072 260.163 63.1101 260.516 63.1101C261.374 63.1101 261.827 63.0346 261.827 63.0346C261.928 63.0346 264.551 50.3689 264.551 50.3689C262.685 50.3689 262.609 50.3689 262.533 50.8221L261.903 54.4733Z" fill="#2E2E2E"/>
<path d="M275.852 53.0632C275.575 53.9948 275.121 55.7826 275.121 55.7826C275.121 55.7826 274.642 53.9948 274.314 52.9876L271.893 45.3328H270.431C270.204 45.3328 270.028 45.358 270.028 45.7357V62.959C271.919 62.959 272.019 62.959 272.019 62.5561V56.6891C271.944 54.0452 271.515 49.3616 271.515 49.3616L271.54 49.3365C272.07 51.2754 272.978 54.4984 273.154 55.0272L274.465 59.1064H275.348C275.449 59.1064 275.575 59.0561 275.625 58.905L276.961 55.0272C277.163 54.4733 278.096 51.1998 278.6 49.2861C278.55 49.9408 278.197 54.3725 278.147 56.7898L278.071 62.959C280.138 62.959 280.138 62.959 280.138 62.5561V45.3328H278.5C278.222 45.3328 278.172 45.5091 278.096 45.7357L275.852 53.0632Z" fill="#2E2E2E"/>
<path d="M286.474 61.2468C284.936 61.2468 284.204 60.5417 284.104 57.8222C285.364 57.8222 287.734 57.7467 289.399 57.4194C289.6 56.5129 289.676 55.279 289.676 54.1459C289.676 51.4516 288.592 50.1171 286.474 50.1171C284.255 50.1171 282.011 51.0235 282.011 57.3186C282.011 62.254 283.7 63.2108 286.045 63.2108C287.936 63.2108 289.525 62.6065 289.525 61.8259C289.525 61.423 289.474 60.8439 289.348 60.441C288.491 60.9446 287.482 61.2468 286.474 61.2468ZM286.247 51.9049C287.356 51.9049 287.684 52.5595 287.709 54.3977C287.709 54.8761 287.684 55.4553 287.583 55.9085C286.701 56.1603 285.087 56.2107 284.104 56.1855C284.28 52.761 285.188 51.9049 286.247 51.9049Z" fill="#2E2E2E"/>
<path d="M296.82 50.6207C296.391 50.2933 295.811 50.1171 295.004 50.1171C292.861 50.1171 291.147 52.1315 291.147 57.1172C291.147 62.5813 293.038 63.2108 295.231 63.2108C296.795 63.2108 298.005 62.8583 298.862 62.4554V44.4515C297.198 44.4515 296.82 44.4515 296.82 45.3831V50.6207ZM296.82 61.0201C296.416 61.2971 295.887 61.3979 295.307 61.3979C294.122 61.3979 293.391 60.6928 293.391 56.8906C293.391 52.761 294.525 51.8797 295.66 51.8797C296.164 51.8797 296.492 51.9552 296.82 52.207V61.0201Z" fill="#2E2E2E"/>
<path d="M301.077 47.0954C301.077 48.2285 301.481 48.6062 302.111 48.6062C302.893 48.6062 303.271 48.0019 303.271 46.9443C303.271 45.9371 303.019 45.5342 302.237 45.5342C301.456 45.5342 301.077 46.1637 301.077 47.0954ZM303.195 50.3689C301.556 50.3689 301.153 50.3689 301.153 51.3005V62.959C303.195 62.959 303.195 62.959 303.195 62.5561V50.3689Z" fill="#2E2E2E"/>
<path d="M312.368 53.1891C312.368 50.9228 311.41 50.1171 309.267 50.1171C307.351 50.1171 305.838 50.5199 305.409 50.7969C305.208 50.9228 305.132 51.225 305.132 51.4768C305.132 51.779 305.182 52.2322 305.409 52.6603C306.141 52.3581 307.477 52.0811 308.763 52.0811C309.771 52.0811 310.326 52.3833 310.326 53.5919V55.5812C309.822 55.3294 309.04 55.2538 308.485 55.2538C306.771 55.2538 305.107 55.8834 305.107 59.3834C305.107 62.7828 306.796 63.2108 308.586 63.2108C310.301 63.2108 311.511 62.7828 312.217 62.3547C312.343 60.441 312.368 57.4194 312.368 54.5236V53.1891ZM310.326 57.0165C310.326 58.3762 310.326 60.2396 310.25 61.0957C310.023 61.2971 309.469 61.4986 308.914 61.4986C307.905 61.4986 307.225 61.1964 307.225 59.3331C307.225 57.1172 308.107 56.7647 309.141 56.7647C309.494 56.7647 309.998 56.8402 310.326 57.0165Z" fill="#2E2E2E"/>
<path d="M322.044 55.2538C323.178 56.5632 323.531 57.3942 323.531 58.5777C323.531 60.1137 322.85 61.146 321.035 61.146C319.825 61.146 318.967 60.7432 318.438 60.2647C318.085 60.718 317.908 61.2971 317.908 61.7252C317.908 62.4051 318.942 63.2108 321.237 63.2108C324.641 63.2108 325.725 61.0453 325.725 58.4769C325.725 56.9157 325.347 55.7826 324.035 54.2215L321.287 51.1243C320.556 50.2178 320.127 49.5631 320.127 48.6314C320.127 47.5235 321.085 46.894 322.598 46.894C323.758 46.894 324.741 47.2213 325.069 47.4983C325.422 47.1206 325.574 46.6925 325.574 46.34C325.574 45.635 324.666 45.081 322.27 45.081C319.472 45.081 317.934 46.5666 317.934 48.6818C317.934 49.8904 318.362 50.9228 319.522 52.3077L322.044 55.2538Z" fill="#2E2E2E"/>
<path d="M331.534 61.2468C329.996 61.2468 329.265 60.5417 329.164 57.8222C330.425 57.8222 332.795 57.7467 334.459 57.4194C334.661 56.5129 334.736 55.279 334.736 54.1459C334.736 51.4516 333.652 50.1171 331.534 50.1171C329.315 50.1171 327.071 51.0235 327.071 57.3186C327.071 62.254 328.761 63.2108 331.105 63.2108C332.997 63.2108 334.585 62.6065 334.585 61.8259C334.585 61.423 334.535 60.8439 334.409 60.441C333.551 60.9446 332.543 61.2468 331.534 61.2468ZM331.307 51.9049C332.417 51.9049 332.744 52.5595 332.77 54.3977C332.77 54.8761 332.744 55.4553 332.644 55.9085C331.761 56.1603 330.147 56.2107 329.164 56.1855C329.34 52.761 330.248 51.9049 331.307 51.9049Z" fill="#2E2E2E"/>
<path d="M336.56 62.959C338.602 62.959 338.628 62.959 338.628 62.5561V52.6351C339.132 52.2322 339.737 52.0559 340.317 52.0559C340.746 52.0559 341.174 52.1567 341.527 52.3581C341.704 51.93 341.754 51.4264 341.754 51.1746C341.754 50.4948 341.275 50.1171 339.989 50.1171C338.754 50.1171 337.569 50.5451 336.56 51.2502V62.959Z" fill="#2E2E2E"/>
<path d="M345.1 61.8763C345.276 62.6065 345.503 63.1101 345.982 63.1101C346.31 63.1101 347.041 63.1101 347.42 63.0346L350.319 50.3689C348.277 50.3689 348.252 50.3689 348.176 50.8221L347.495 54.3977C346.966 57.0416 346.537 60.7935 346.537 60.7935H346.487C346.487 60.7935 346.033 57.0417 345.478 54.4229L344.671 50.3689C342.856 50.3689 342.478 50.3689 342.478 50.7214C342.478 50.7969 342.503 50.8725 342.528 50.9984L345.1 61.8763Z" fill="#2E2E2E"/>
<path d="M351.826 47.0954C351.826 48.2285 352.229 48.6062 352.86 48.6062C353.641 48.6062 354.019 48.0019 354.019 46.9443C354.019 45.9371 353.767 45.5342 352.986 45.5342C352.204 45.5342 351.826 46.1637 351.826 47.0954ZM353.944 50.3689C352.305 50.3689 351.901 50.3689 351.901 51.3005V62.959C353.944 62.959 353.944 62.959 353.944 62.5561V50.3689Z" fill="#2E2E2E"/>
<path d="M362.537 51.2502C362.537 50.5955 361.604 50.1171 360.419 50.1171C358.351 50.1171 355.906 50.8976 355.906 56.9409C355.906 62.254 357.242 63.2108 359.662 63.2108C361.327 63.2108 362.486 62.6065 362.486 61.9266C362.486 61.5993 362.411 61.2719 362.285 60.8187C361.856 61.1209 361.1 61.3979 360.268 61.3979C358.729 61.3979 357.998 60.5165 357.998 56.9661C357.998 52.4588 359.36 51.9049 360.52 51.9049C361.226 51.9049 361.906 52.1567 362.31 52.3833C362.486 51.9552 362.537 51.5272 362.537 51.2502Z" fill="#2E2E2E"/>
<path d="M367.927 61.2468C366.389 61.2468 365.658 60.5417 365.557 57.8222C366.818 57.8222 369.188 57.7467 370.852 57.4194C371.054 56.5129 371.129 55.279 371.129 54.1459C371.129 51.4516 370.045 50.1171 367.927 50.1171C365.708 50.1171 363.464 51.0235 363.464 57.3186C363.464 62.254 365.154 63.2108 367.499 63.2108C369.39 63.2108 370.978 62.6065 370.978 61.8259C370.978 61.423 370.928 60.8439 370.802 60.441C369.944 60.9446 368.936 61.2468 367.927 61.2468ZM367.7 51.9049C368.81 51.9049 369.137 52.5595 369.163 54.3977C369.163 54.8761 369.137 55.4553 369.037 55.9085C368.154 56.1603 366.54 56.2107 365.557 56.1855C365.734 52.761 366.641 51.9049 367.7 51.9049Z" fill="#2E2E2E"/>
<path d="M376.508 57.8474C377.29 58.5273 377.517 59.1316 377.517 59.8367C377.517 60.8439 376.76 61.3727 375.449 61.3727C374.466 61.3727 373.684 61.1964 372.953 60.7683C372.676 61.1964 372.575 61.6245 372.575 61.9518C372.575 62.7828 373.861 63.2108 375.651 63.2108C378.223 63.2108 379.836 61.9518 379.836 59.7108C379.836 58.4517 379.433 57.6208 378.324 56.5632L375.979 54.6747C375.121 53.9696 374.97 53.5668 374.97 53.1135C374.97 52.3329 375.752 51.8797 376.962 51.8797C377.92 51.8797 378.677 52.0811 379.458 52.5595C379.71 52.2574 379.887 51.8293 379.887 51.5272C379.887 51.0235 379.307 50.1171 376.735 50.1171C373.911 50.1171 372.6 51.3257 372.6 53.0883C372.6 53.9193 372.903 54.8258 374.062 55.7575L376.508 57.8474Z" fill="#2E2E2E"/>
<path d="M141.727 30.6925C141.727 30.6925 140.183 31.3542 139.412 34.1041C138.642 36.852 130 62.7649 130 62.7649L140.236 62.9167C140.236 62.9167 143.323 62.3562 144.3 59.4545C145.278 56.5528 147.334 50.3933 147.334 50.3933L141.727 30.6925Z" fill="#B30023"/>
<path d="M174.492 29.8682L172.459 29.936C172.459 29.936 170.225 30.3453 168.529 33.1445C167.512 36.1514 162.567 51.1736 162.567 51.1736L168.325 71.3849L170.967 71.1114C170.967 71.1114 172.118 70.5663 172.728 69.2007C173.338 67.835 179.301 50.7643 179.301 50.7643L174.492 29.8682Z" fill="#B30023"/>
<path fill-rule="evenodd" clip-rule="evenodd" d="M142.681 29.9763C142.122 30.1126 141.585 30.4354 140.986 30.9954C140.408 31.5356 140.254 31.8194 140.653 31.6055C140.839 31.506 140.911 31.5317 141.047 31.7461C141.138 31.8903 141.635 33.374 142.151 35.0431C144.97 44.1592 152.441 67.2183 152.786 67.8704C153.212 68.6751 154.686 70.1412 155.461 70.5318C157.135 71.3756 156.711 71.3314 163.536 71.3729C170.081 71.4127 170.552 71.3813 171.471 70.8444C171.931 70.5758 172.024 70.3123 171.602 70.4726C170.819 70.7704 169.985 70.5146 169.654 69.8751C169.544 69.6634 166.953 61.7075 163.895 52.1953C159.685 39.096 158.228 34.704 157.89 34.0907C156.94 32.3701 155.659 31.126 154.009 30.3228L153.075 29.8682L148.052 29.88C145.289 29.8866 142.872 29.9298 142.681 29.9763Z" fill="#FF4545"/>
<path fill-rule="evenodd" clip-rule="evenodd" d="M203.574 29.9669C202.95 30.0358 201.973 30.5043 201.402 31.0083C200.493 31.8113 199.675 33.1812 199.124 34.8211C198.761 35.9017 187.332 71.4485 187.332 71.4968C187.332 71.5677 198.806 71.5306 199.561 71.4572C201.107 71.3067 202.172 70.7792 203.367 69.5717C204.496 68.4309 204.634 68.1491 205.817 64.5875C210.362 50.8975 214.903 36.9898 215.502 34.9241L215.697 34.2504L215.489 33.8208C215.249 33.3242 213.433 31.4543 212.228 30.4623L211.507 29.8682L207.785 29.8907C205.738 29.9029 203.843 29.9373 203.574 29.9669Z" fill="#B30023"/>
<path fill-rule="evenodd" clip-rule="evenodd" d="M172.126 29.9653C170.749 30.2672 169.481 31.2569 168.77 32.5846C168.483 33.1212 168.51 33.2332 168.818 32.7887C169.113 32.3635 169.809 31.7379 170.055 31.6762C170.332 31.6069 170.672 31.8022 170.821 32.1165C170.889 32.26 171.194 33.177 171.497 34.1544C172.711 38.0652 175.098 45.5257 179.271 58.4462C181.992 66.8702 182.112 67.2005 182.928 68.4902C183.633 69.6057 184.692 70.6334 185.591 71.075C186.565 71.5538 186.551 71.553 193.459 71.5247C199.614 71.4996 199.73 71.4963 200.36 71.3293C200.712 71.2358 201.233 71.0418 201.519 70.8981L202.038 70.6368L201.303 70.5985C200.442 70.5535 199.949 70.354 199.583 69.903C199.401 69.6782 198.801 67.9389 196.565 61.1472C195.03 56.4859 192.497 48.7136 190.936 43.8754C188.296 35.6887 188.064 35.0116 187.596 34.1123C186.956 32.8826 186.38 32.0867 185.588 31.335C184.906 30.688 184.36 30.3302 183.641 30.0594C183.182 29.8865 183.162 29.8858 177.9 29.8714C173.623 29.8596 172.527 29.8775 172.126 29.9653Z" fill="#FF4545"/>
<path fill-rule="evenodd" clip-rule="evenodd" d="M202.852 30.0908C201.812 30.3553 200.462 31.8915 200.386 32.1913C200.612 32.012 200.724 31.9665 200.724 31.9665C201.099 31.8541 201.411 31.9319 201.663 32.4357C201.794 32.699 203.969 39.0566 206.496 46.5641C210.108 57.2968 211.205 60.3654 211.632 60.9233C211.965 61.3595 212.597 61.8514 213.271 62.1999L214.369 62.7668H219.684H225L224.88 62.3752C224.814 62.1597 222.644 55.4038 220.058 47.3619C214.817 31.0624 215.005 31.518 213.06 30.4072L212.116 29.8682L207.777 29.8859C205.215 29.8964 203.576 29.8307 202.852 30.0908Z" fill="#FF4545"/>
<rect width="510" height="100" transform="translate(530 0.701477)" fill="#101010"/>
<path d="M769.042 51.6782C769.042 52.8365 769.118 57.7215 769.294 59.2072V59.2575C768.664 57.369 767.378 53.4157 766.874 52.1315L764.025 45.3328H762.487C762.209 45.3328 762.083 45.4587 762.083 45.7357V62.959C764.075 62.959 764.1 62.959 764.1 62.5561V56.4373C764.1 55.3797 764 50.5199 763.848 48.8832C764.479 50.8473 765.815 54.9013 766.244 56.0344L769.143 62.959H770.656C770.933 62.959 771.085 62.8079 771.085 62.5561V45.3328C769.093 45.3328 769.042 45.3328 769.042 45.7357V51.6782Z" fill="white"/>
<path d="M777.397 61.2468C775.859 61.2468 775.127 60.5417 775.027 57.8222C776.287 57.8222 778.657 57.7467 780.322 57.4194C780.523 56.5129 780.599 55.279 780.599 54.1459C780.599 51.4516 779.515 50.1171 777.397 50.1171C775.178 50.1171 772.934 51.0235 772.934 57.3186C772.934 62.254 774.623 63.2108 776.968 63.2108C778.859 63.2108 780.448 62.6065 780.448 61.8259C780.448 61.423 780.397 60.8439 780.271 60.441C779.414 60.9446 778.405 61.2468 777.397 61.2468ZM777.17 51.9049C778.279 51.9049 778.607 52.5595 778.632 54.3977C778.632 54.8761 778.607 55.4553 778.506 55.9085C777.624 56.1603 776.01 56.2107 775.027 56.1855C775.203 52.761 776.111 51.9049 777.17 51.9049Z" fill="white"/>
<path d="M791.903 54.4733C791.55 56.4877 791.222 59.1316 791.096 60.6173H790.97C790.97 60.6173 790.617 57.923 790.189 56.0093L789.205 50.7214H787.869C787.339 50.7214 787.264 50.7969 787.213 51.1494L786.406 55.9589C786.129 57.5453 785.826 59.7359 785.7 60.6173H785.549C785.549 60.6173 785.171 57.2935 784.667 54.4733L783.885 50.3689C781.792 50.3689 781.616 50.3689 781.691 50.7969C781.691 50.7969 783.406 58.7791 784.137 61.8763C784.288 62.6065 784.566 63.1101 784.994 63.1101C785.65 63.1101 786.684 63.0346 786.684 63.0346L787.264 60.1137C787.692 58.0237 788.02 55.3546 788.197 53.8186C788.348 55.3546 788.676 57.9985 789.13 60.0885L789.457 61.8007C789.634 62.7072 790.163 63.1101 790.516 63.1101C791.374 63.1101 791.827 63.0346 791.827 63.0346C791.928 63.0346 794.551 50.3689 794.551 50.3689C792.685 50.3689 792.609 50.3689 792.533 50.8221L791.903 54.4733Z" fill="white"/>
<path d="M805.852 53.0632C805.575 53.9948 805.121 55.7826 805.121 55.7826C805.121 55.7826 804.642 53.9948 804.314 52.9876L801.893 45.3328H800.431C800.204 45.3328 800.028 45.358 800.028 45.7357V62.959C801.919 62.959 802.019 62.959 802.019 62.5561V56.6891C801.944 54.0452 801.515 49.3616 801.515 49.3616L801.54 49.3365C802.07 51.2754 802.978 54.4984 803.154 55.0272L804.465 59.1064H805.348C805.449 59.1064 805.575 59.0561 805.625 58.905L806.961 55.0272C807.163 54.4733 808.096 51.1998 808.6 49.2861C808.55 49.9408 808.197 54.3725 808.147 56.7898L808.071 62.959C810.138 62.959 810.138 62.959 810.138 62.5561V45.3328H808.5C808.222 45.3328 808.172 45.5091 808.096 45.7357L805.852 53.0632Z" fill="white"/>
<path d="M816.474 61.2468C814.936 61.2468 814.204 60.5417 814.104 57.8222C815.364 57.8222 817.734 57.7467 819.399 57.4194C819.6 56.5129 819.676 55.279 819.676 54.1459C819.676 51.4516 818.592 50.1171 816.474 50.1171C814.255 50.1171 812.011 51.0235 812.011 57.3186C812.011 62.254 813.7 63.2108 816.045 63.2108C817.936 63.2108 819.525 62.6065 819.525 61.8259C819.525 61.423 819.474 60.8439 819.348 60.441C818.491 60.9446 817.482 61.2468 816.474 61.2468ZM816.247 51.9049C817.356 51.9049 817.684 52.5595 817.709 54.3977C817.709 54.8761 817.684 55.4553 817.583 55.9085C816.701 56.1603 815.087 56.2107 814.104 56.1855C814.28 52.761 815.188 51.9049 816.247 51.9049Z" fill="white"/>
<path d="M826.82 50.6207C826.391 50.2933 825.811 50.1171 825.004 50.1171C822.861 50.1171 821.147 52.1315 821.147 57.1172C821.147 62.5813 823.038 63.2108 825.231 63.2108C826.795 63.2108 828.005 62.8583 828.862 62.4554V44.4515C827.198 44.4515 826.82 44.4515 826.82 45.3831V50.6207ZM826.82 61.0201C826.416 61.2971 825.887 61.3979 825.307 61.3979C824.122 61.3979 823.391 60.6928 823.391 56.8906C823.391 52.761 824.525 51.8797 825.66 51.8797C826.164 51.8797 826.492 51.9552 826.82 52.207V61.0201Z" fill="white"/>
<path d="M831.077 47.0954C831.077 48.2285 831.481 48.6062 832.111 48.6062C832.893 48.6062 833.271 48.0019 833.271 46.9443C833.271 45.9371 833.019 45.5342 832.237 45.5342C831.456 45.5342 831.077 46.1637 831.077 47.0954ZM833.195 50.3689C831.556 50.3689 831.153 50.3689 831.153 51.3005V62.959C833.195 62.959 833.195 62.959 833.195 62.5561V50.3689Z" fill="white"/>
<path d="M842.368 53.1891C842.368 50.9228 841.41 50.1171 839.267 50.1171C837.351 50.1171 835.838 50.5199 835.409 50.7969C835.208 50.9228 835.132 51.225 835.132 51.4768C835.132 51.779 835.182 52.2322 835.409 52.6603C836.141 52.3581 837.477 52.0811 838.763 52.0811C839.771 52.0811 840.326 52.3833 840.326 53.5919V55.5812C839.822 55.3294 839.04 55.2538 838.485 55.2538C836.771 55.2538 835.107 55.8834 835.107 59.3834C835.107 62.7828 836.796 63.2108 838.586 63.2108C840.301 63.2108 841.511 62.7828 842.217 62.3547C842.343 60.441 842.368 57.4194 842.368 54.5236V53.1891ZM840.326 57.0165C840.326 58.3762 840.326 60.2396 840.25 61.0957C840.023 61.2971 839.469 61.4986 838.914 61.4986C837.905 61.4986 837.225 61.1964 837.225 59.3331C837.225 57.1172 838.107 56.7647 839.141 56.7647C839.494 56.7647 839.998 56.8402 840.326 57.0165Z" fill="white"/>
<path d="M852.044 55.2538C853.178 56.5632 853.531 57.3942 853.531 58.5777C853.531 60.1137 852.85 61.146 851.035 61.146C849.825 61.146 848.967 60.7432 848.438 60.2647C848.085 60.718 847.908 61.2971 847.908 61.7252C847.908 62.4051 848.942 63.2108 851.237 63.2108C854.641 63.2108 855.725 61.0453 855.725 58.4769C855.725 56.9157 855.347 55.7826 854.035 54.2215L851.287 51.1243C850.556 50.2178 850.127 49.5631 850.127 48.6314C850.127 47.5235 851.085 46.894 852.598 46.894C853.758 46.894 854.741 47.2213 855.069 47.4983C855.422 47.1206 855.574 46.6925 855.574 46.34C855.574 45.635 854.666 45.081 852.27 45.081C849.472 45.081 847.934 46.5666 847.934 48.6818C847.934 49.8904 848.362 50.9228 849.522 52.3077L852.044 55.2538Z" fill="white"/>
<path d="M861.534 61.2468C859.996 61.2468 859.265 60.5417 859.164 57.8222C860.425 57.8222 862.795 57.7467 864.459 57.4194C864.661 56.5129 864.736 55.279 864.736 54.1459C864.736 51.4516 863.652 50.1171 861.534 50.1171C859.315 50.1171 857.071 51.0235 857.071 57.3186C857.071 62.254 858.761 63.2108 861.105 63.2108C862.997 63.2108 864.585 62.6065 864.585 61.8259C864.585 61.423 864.535 60.8439 864.409 60.441C863.551 60.9446 862.543 61.2468 861.534 61.2468ZM861.307 51.9049C862.417 51.9049 862.744 52.5595 862.77 54.3977C862.77 54.8761 862.744 55.4553 862.644 55.9085C861.761 56.1603 860.147 56.2107 859.164 56.1855C859.34 52.761 860.248 51.9049 861.307 51.9049Z" fill="white"/>
<path d="M866.56 62.959C868.602 62.959 868.628 62.959 868.628 62.5561V52.6351C869.132 52.2322 869.737 52.0559 870.317 52.0559C870.746 52.0559 871.174 52.1567 871.527 52.3581C871.704 51.93 871.754 51.4264 871.754 51.1746C871.754 50.4948 871.275 50.1171 869.989 50.1171C868.754 50.1171 867.569 50.5451 866.56 51.2502V62.959Z" fill="white"/>
<path d="M875.1 61.8763C875.276 62.6065 875.503 63.1101 875.982 63.1101C876.31 63.1101 877.041 63.1101 877.42 63.0346L880.319 50.3689C878.277 50.3689 878.252 50.3689 878.176 50.8221L877.495 54.3977C876.966 57.0416 876.537 60.7935 876.537 60.7935H876.487C876.487 60.7935 876.033 57.0417 875.478 54.4229L874.671 50.3689C872.856 50.3689 872.478 50.3689 872.478 50.7214C872.478 50.7969 872.503 50.8725 872.528 50.9984L875.1 61.8763Z" fill="white"/>
<path d="M881.826 47.0954C881.826 48.2285 882.229 48.6062 882.86 48.6062C883.641 48.6062 884.019 48.0019 884.019 46.9443C884.019 45.9371 883.767 45.5342 882.986 45.5342C882.204 45.5342 881.826 46.1637 881.826 47.0954ZM883.944 50.3689C882.305 50.3689 881.901 50.3689 881.901 51.3005V62.959C883.944 62.959 883.944 62.959 883.944 62.5561V50.3689Z" fill="white"/>
<path d="M892.537 51.2502C892.537 50.5955 891.604 50.1171 890.419 50.1171C888.351 50.1171 885.906 50.8976 885.906 56.9409C885.906 62.254 887.242 63.2108 889.662 63.2108C891.327 63.2108 892.486 62.6065 892.486 61.9266C892.486 61.5993 892.411 61.2719 892.285 60.8187C891.856 61.1209 891.1 61.3979 890.268 61.3979C888.729 61.3979 887.998 60.5165 887.998 56.9661C887.998 52.4588 889.36 51.9049 890.52 51.9049C891.226 51.9049 891.906 52.1567 892.31 52.3833C892.486 51.9552 892.537 51.5272 892.537 51.2502Z" fill="white"/>
<path d="M897.927 61.2468C896.389 61.2468 895.658 60.5417 895.557 57.8222C896.818 57.8222 899.188 57.7467 900.852 57.4194C901.054 56.5129 901.129 55.279 901.129 54.1459C901.129 51.4516 900.045 50.1171 897.927 50.1171C895.708 50.1171 893.464 51.0235 893.464 57.3186C893.464 62.254 895.154 63.2108 897.499 63.2108C899.39 63.2108 900.978 62.6065 900.978 61.8259C900.978 61.423 900.928 60.8439 900.802 60.441C899.944 60.9446 898.936 61.2468 897.927 61.2468ZM897.7 51.9049C898.81 51.9049 899.137 52.5595 899.163 54.3977C899.163 54.8761 899.137 55.4553 899.037 55.9085C898.154 56.1603 896.54 56.2107 895.557 56.1855C895.734 52.761 896.641 51.9049 897.7 51.9049Z" fill="white"/>
<path d="M906.508 57.8474C907.29 58.5273 907.517 59.1316 907.517 59.8367C907.517 60.8439 906.76 61.3727 905.449 61.3727C904.466 61.3727 903.684 61.1964 902.953 60.7683C902.676 61.1964 902.575 61.6245 902.575 61.9518C902.575 62.7828 903.861 63.2108 905.651 63.2108C908.223 63.2108 909.836 61.9518 909.836 59.7108C909.836 58.4517 909.433 57.6208 908.324 56.5632L905.979 54.6747C905.121 53.9696 904.97 53.5668 904.97 53.1135C904.97 52.3329 905.752 51.8797 906.962 51.8797C907.92 51.8797 908.677 52.0811 909.458 52.5595C909.71 52.2574 909.887 51.8293 909.887 51.5272C909.887 51.0235 909.307 50.1171 906.735 50.1171C903.911 50.1171 902.6 51.3257 902.6 53.0883C902.6 53.9193 902.903 54.8258 904.062 55.7575L906.508 57.8474Z" fill="white"/>
<path d="M671.727 30.6925C671.727 30.6925 670.183 31.3542 669.412 34.1041C668.642 36.852 660 62.7649 660 62.7649L670.236 62.9167C670.236 62.9167 673.323 62.3562 674.3 59.4545C675.278 56.5528 677.334 50.3933 677.334 50.3933L671.727 30.6925Z" fill="#B30023"/>
<path d="M704.492 29.8682L702.459 29.936C702.459 29.936 700.225 30.3453 698.529 33.1445C697.512 36.1514 692.567 51.1736 692.567 51.1736L698.325 71.3849L700.967 71.1114C700.967 71.1114 702.118 70.5663 702.728 69.2007C703.338 67.835 709.301 50.7643 709.301 50.7643L704.492 29.8682Z" fill="#B30023"/>
<path fill-rule="evenodd" clip-rule="evenodd" d="M672.681 29.9763C672.122 30.1126 671.585 30.4354 670.986 30.9954C670.408 31.5356 670.254 31.8194 670.653 31.6055C670.839 31.506 670.911 31.5317 671.047 31.7461C671.138 31.8903 671.635 33.374 672.151 35.0431C674.97 44.1592 682.441 67.2183 682.786 67.8704C683.212 68.6751 684.686 70.1412 685.461 70.5318C687.135 71.3756 686.711 71.3314 693.536 71.3729C700.081 71.4127 700.552 71.3813 701.471 70.8444C701.931 70.5758 702.024 70.3123 701.602 70.4726C700.819 70.7704 699.985 70.5146 699.654 69.8751C699.544 69.6634 696.953 61.7075 693.895 52.1953C689.685 39.096 688.228 34.704 687.89 34.0907C686.94 32.3701 685.659 31.126 684.009 30.3228L683.075 29.8682L678.052 29.88C675.289 29.8866 672.872 29.9298 672.681 29.9763Z" fill="#FF4545"/>
<path fill-rule="evenodd" clip-rule="evenodd" d="M733.574 29.9669C732.95 30.0358 731.973 30.5043 731.402 31.0083C730.493 31.8113 729.675 33.1812 729.124 34.8211C728.761 35.9017 717.332 71.4485 717.332 71.4968C717.332 71.5677 728.806 71.5306 729.561 71.4572C731.107 71.3067 732.172 70.7792 733.367 69.5717C734.496 68.4309 734.634 68.1491 735.817 64.5875C740.362 50.8975 744.903 36.9898 745.502 34.9241L745.697 34.2504L745.489 33.8208C745.249 33.3242 743.433 31.4543 742.228 30.4623L741.507 29.8682L737.785 29.8907C735.738 29.9029 733.843 29.9373 733.574 29.9669Z" fill="#B30023"/>
<path fill-rule="evenodd" clip-rule="evenodd" d="M702.126 29.9653C700.749 30.2672 699.481 31.2569 698.77 32.5846C698.483 33.1212 698.51 33.2332 698.818 32.7887C699.113 32.3635 699.809 31.7379 700.055 31.6762C700.332 31.6069 700.672 31.8022 700.821 32.1165C700.889 32.26 701.194 33.177 701.497 34.1544C702.711 38.0652 705.098 45.5257 709.271 58.4462C711.992 66.8702 712.112 67.2005 712.928 68.4902C713.633 69.6057 714.692 70.6334 715.591 71.075C716.565 71.5538 716.551 71.553 723.459 71.5247C729.614 71.4996 729.73 71.4963 730.36 71.3293C730.712 71.2358 731.233 71.0418 731.519 70.8981L732.038 70.6368L731.303 70.5985C730.442 70.5535 729.949 70.354 729.583 69.903C729.401 69.6782 728.801 67.9389 726.565 61.1472C725.03 56.4859 722.497 48.7136 720.936 43.8754C718.296 35.6887 718.064 35.0116 717.596 34.1123C716.956 32.8826 716.38 32.0867 715.588 31.335C714.906 30.688 714.36 30.3302 713.641 30.0594C713.182 29.8865 713.162 29.8858 707.9 29.8714C703.623 29.8596 702.527 29.8775 702.126 29.9653Z" fill="#FF4545"/>
<path fill-rule="evenodd" clip-rule="evenodd" d="M732.852 30.0908C731.812 30.3553 730.462 31.8915 730.386 32.1913C730.612 32.012 730.724 31.9665 730.724 31.9665C731.099 31.8541 731.411 31.9319 731.663 32.4357C731.794 32.699 733.969 39.0566 736.496 46.5641C740.108 57.2968 741.205 60.3654 741.632 60.9233C741.965 61.3595 742.597 61.8514 743.271 62.1999L744.369 62.7668H749.684H755L754.88 62.3752C754.814 62.1597 752.644 55.4038 750.058 47.3619C744.817 31.0624 745.005 31.518 743.06 30.4072L742.116 29.8682L737.777 29.8859C735.215 29.8964 733.576 29.8307 732.852 30.0908Z" fill="#FF4545"/>
</svg>
