<svg width="1040" height="100" viewBox="0 0 1040 100" fill="none" xmlns="http://www.w3.org/2000/svg">
<rect y="-0.000671387" width="510" height="100" fill="white"/>
<g clip-path="url(#clip0_1_23506)">
<path d="M269.781 65.5405C269.857 65.5068 269.954 65.473 270.072 65.4393C270.19 65.4055 270.317 65.3886 270.452 65.3886C270.654 65.3886 270.823 65.4224 270.958 65.4899C271.102 65.5574 271.19 65.6545 271.224 65.7811C271.418 66.355 271.595 66.8909 271.756 67.3889C271.916 67.8784 272.068 68.3553 272.212 68.8195C272.355 69.2752 272.499 69.7479 272.642 70.2374H272.705C272.849 69.4862 272.988 68.7646 273.123 68.0725C273.258 67.372 273.389 66.6673 273.516 65.9583C273.651 65.2409 273.773 64.4855 273.883 63.6922C274.035 63.6078 274.216 63.5656 274.427 63.5656C274.613 63.5656 274.765 63.6078 274.883 63.6922C275.009 63.7766 275.073 63.9074 275.073 64.0846C275.073 64.2534 275.047 64.5024 274.997 64.8316C274.955 65.1523 274.896 65.5321 274.82 65.971C274.744 66.4014 274.655 66.8572 274.554 67.3383C274.452 67.8193 274.343 68.2962 274.225 68.7688C274.115 69.2415 274.001 69.6846 273.883 70.0981C273.773 70.5117 273.668 70.862 273.566 71.1489C273.473 71.208 273.351 71.2629 273.199 71.3135C273.047 71.3557 272.883 71.3768 272.705 71.3768C272.477 71.3768 272.283 71.3431 272.123 71.2755C271.971 71.208 271.87 71.1152 271.819 70.997C271.718 70.7101 271.591 70.3471 271.439 69.9082C271.287 69.4609 271.127 68.9756 270.958 68.4523C270.798 67.9206 270.642 67.3889 270.49 66.8572C270.346 67.3805 270.19 67.9164 270.021 68.465C269.861 69.0136 269.701 69.5284 269.54 70.0095C269.388 70.4822 269.253 70.8662 269.135 71.1616C269.059 71.2122 268.945 71.2629 268.793 71.3135C268.65 71.3557 268.485 71.3768 268.3 71.3768C268.08 71.3768 267.89 71.3431 267.73 71.2755C267.57 71.1996 267.464 71.1067 267.413 70.997C267.329 70.786 267.224 70.4737 267.097 70.0602C266.979 69.6466 266.852 69.174 266.717 68.6422C266.591 68.1021 266.464 67.545 266.337 66.9711C266.211 66.3888 266.093 65.8275 265.983 65.2873C265.882 64.7472 265.797 64.2661 265.73 63.8441C265.806 63.7766 265.903 63.7133 266.021 63.6542C266.147 63.5951 266.283 63.5656 266.426 63.5656C266.612 63.5656 266.759 63.6078 266.869 63.6922C266.979 63.7766 267.051 63.9201 267.084 64.1226C267.202 64.7219 267.308 65.2789 267.401 65.7937C267.502 66.3001 267.599 66.7939 267.692 67.275C267.785 67.7476 267.882 68.2287 267.983 68.7182C268.084 69.1993 268.194 69.7057 268.312 70.2374H268.376C268.485 69.866 268.591 69.5158 268.692 69.1866C268.793 68.849 268.895 68.503 268.996 68.1485C269.106 67.794 269.224 67.41 269.35 66.9964C269.477 66.5744 269.621 66.0891 269.781 65.5405ZM276.866 69.0853L276.816 68.1612L280.449 67.6421C280.424 67.237 280.28 66.8994 280.019 66.6293C279.757 66.3592 279.394 66.2242 278.93 66.2242C278.44 66.2242 278.035 66.3972 277.714 66.7432C277.402 67.0808 277.242 67.5704 277.233 68.2118L277.246 68.6549C277.314 69.271 277.529 69.7352 277.892 70.0475C278.263 70.3513 278.753 70.5033 279.36 70.5033C279.715 70.5033 280.04 70.4484 280.335 70.3387C280.631 70.229 280.863 70.1066 281.031 69.9715C281.133 70.0391 281.213 70.1192 281.272 70.2121C281.339 70.3049 281.373 70.4104 281.373 70.5286C281.373 70.7143 281.28 70.8831 281.095 71.035C280.909 71.1785 280.66 71.2924 280.348 71.3768C280.035 71.4612 279.681 71.5034 279.284 71.5034C278.634 71.5034 278.065 71.3853 277.575 71.1489C277.094 70.9042 276.719 70.5455 276.448 70.0728C276.178 69.6002 276.043 69.0178 276.043 68.3257C276.043 67.8278 276.115 67.3889 276.259 67.0091C276.41 66.6293 276.617 66.3086 276.879 66.0469C277.141 65.7853 277.444 65.587 277.79 65.4519C278.145 65.3169 278.525 65.2494 278.93 65.2494C279.462 65.2494 279.93 65.3591 280.335 65.5785C280.74 65.798 281.057 66.106 281.285 66.5027C281.512 66.8994 281.626 67.3509 281.626 67.8573C281.626 68.0683 281.576 68.2202 281.475 68.3131C281.382 68.4059 281.242 68.465 281.057 68.4903L276.866 69.0853ZM283.113 67.9839L284.353 68.1105V71.3009C284.303 71.3177 284.222 71.3388 284.113 71.3642C284.011 71.3895 283.902 71.4021 283.784 71.4021C283.556 71.4021 283.387 71.3599 283.277 71.2755C283.167 71.1827 283.113 71.035 283.113 70.8324V67.9839ZM284.353 68.7182L283.113 68.6043V63.1098C283.163 63.0929 283.239 63.0761 283.34 63.0592C283.45 63.0339 283.564 63.0212 283.682 63.0212C283.91 63.0212 284.079 63.0634 284.189 63.1478C284.298 63.2322 284.353 63.3799 284.353 63.5909V68.7182ZM286.352 67.9839L287.592 68.1105V71.3009C287.542 71.3177 287.462 71.3388 287.352 71.3642C287.251 71.3895 287.141 71.4021 287.023 71.4021C286.795 71.4021 286.626 71.3599 286.516 71.2755C286.407 71.1827 286.352 71.035 286.352 70.8324V67.9839ZM287.592 68.7182L286.352 68.6043V63.1098C286.402 63.0929 286.478 63.0761 286.58 63.0592C286.689 63.0339 286.803 63.0212 286.921 63.0212C287.149 63.0212 287.318 63.0634 287.428 63.1478C287.538 63.2322 287.592 63.3799 287.592 63.5909V68.7182ZM292.238 65.2494C292.769 65.2494 293.246 65.3633 293.668 65.5912C294.099 65.8191 294.436 66.1651 294.681 66.6293C294.926 67.0851 295.048 67.6632 295.048 68.3637C295.048 69.0727 294.917 69.6593 294.656 70.1235C294.402 70.5877 294.048 70.9337 293.592 71.1616C293.145 71.3895 292.617 71.5034 292.01 71.5034C291.571 71.5034 291.178 71.4486 290.832 71.3388C290.486 71.2291 290.203 71.1067 289.984 70.9717C289.807 70.8535 289.68 70.7396 289.604 70.6299C289.528 70.5117 289.49 70.3598 289.49 70.1741V66.009H290.731V70.1361C290.849 70.2205 291.018 70.3007 291.237 70.3767C291.465 70.4526 291.723 70.4906 292.01 70.4906C292.541 70.4906 292.968 70.3176 293.288 69.9715C293.617 69.6255 293.782 69.0896 293.782 68.3637C293.782 67.6294 293.617 67.0935 293.288 66.7559C292.968 66.4183 292.55 66.2495 292.035 66.2495C291.714 66.2495 291.427 66.3128 291.174 66.4394C290.929 66.5576 290.727 66.6968 290.566 66.8572L290.414 65.857C290.6 65.722 290.845 65.587 291.149 65.4519C291.453 65.3169 291.816 65.2494 292.238 65.2494ZM290.731 66.2748H289.49V63.1098C289.549 63.0929 289.63 63.0761 289.731 63.0592C289.841 63.0339 289.954 63.0212 290.073 63.0212C290.301 63.0212 290.465 63.0634 290.566 63.1478C290.676 63.2322 290.731 63.3799 290.731 63.5909V66.2748ZM297.018 69.0853L296.968 68.1612L300.601 67.6421C300.576 67.237 300.432 66.8994 300.171 66.6293C299.909 66.3592 299.546 66.2242 299.082 66.2242C298.593 66.2242 298.187 66.3972 297.867 66.7432C297.554 67.0808 297.394 67.5704 297.386 68.2118L297.398 68.6549C297.466 69.271 297.681 69.7352 298.044 70.0475C298.415 70.3513 298.905 70.5033 299.512 70.5033C299.867 70.5033 300.192 70.4484 300.487 70.3387C300.783 70.229 301.015 70.1066 301.184 69.9715C301.285 70.0391 301.365 70.1192 301.424 70.2121C301.492 70.3049 301.525 70.4104 301.525 70.5286C301.525 70.7143 301.433 70.8831 301.247 71.035C301.061 71.1785 300.812 71.2924 300.5 71.3768C300.188 71.4612 299.833 71.5034 299.437 71.5034C298.787 71.5034 298.217 71.3853 297.727 71.1489C297.246 70.9042 296.871 70.5455 296.601 70.0728C296.331 69.6002 296.196 69.0178 296.196 68.3257C296.196 67.8278 296.267 67.3889 296.411 67.0091C296.563 66.6293 296.769 66.3086 297.031 66.0469C297.293 65.7853 297.597 65.587 297.943 65.4519C298.297 65.3169 298.677 65.2494 299.082 65.2494C299.614 65.2494 300.082 65.3591 300.487 65.5785C300.892 65.798 301.209 66.106 301.437 66.5027C301.665 66.8994 301.779 67.3509 301.779 67.8573C301.779 68.0683 301.728 68.2202 301.627 68.3131C301.534 68.4059 301.395 68.465 301.209 68.4903L297.018 69.0853ZM303.088 63.5909C303.088 63.3883 303.159 63.2153 303.303 63.0718C303.446 62.9284 303.628 62.8566 303.847 62.8566C304.075 62.8566 304.256 62.9284 304.392 63.0718C304.535 63.2153 304.607 63.3883 304.607 63.5909C304.607 63.8019 304.535 63.9791 304.392 64.1226C304.256 64.2577 304.075 64.3252 303.847 64.3252C303.628 64.3252 303.446 64.2577 303.303 64.1226C303.159 63.9791 303.088 63.8019 303.088 63.5909ZM303.227 67.9839H304.467V71.3009C304.417 71.3177 304.341 71.3388 304.24 71.3642C304.138 71.3895 304.024 71.4021 303.898 71.4021C303.678 71.4021 303.51 71.3599 303.391 71.2755C303.282 71.1827 303.227 71.035 303.227 70.8324V67.9839ZM304.467 68.6043H303.227V65.4519C303.277 65.435 303.353 65.4182 303.455 65.4013C303.564 65.376 303.683 65.3633 303.809 65.3633C304.037 65.3633 304.202 65.4055 304.303 65.4899C304.413 65.5743 304.467 65.722 304.467 65.933V68.6043ZM311.583 67.4395V68.7055H310.342V67.5028C310.342 67.0724 310.22 66.7559 309.975 66.5533C309.73 66.3508 309.405 66.2495 309 66.2495C308.696 66.2495 308.422 66.2875 308.177 66.3634C307.941 66.4394 307.734 66.528 307.557 66.6293V68.7055H306.316V66.6166C306.316 66.431 306.354 66.279 306.43 66.1609C306.514 66.0343 306.641 65.9161 306.81 65.8064C307.046 65.6629 307.354 65.5363 307.734 65.4266C308.114 65.3084 308.536 65.2494 309 65.2494C309.81 65.2494 310.443 65.4308 310.899 65.7937C311.355 66.1567 311.583 66.7053 311.583 67.4395ZM306.316 68.0472H307.557V71.3009C307.506 71.3177 307.43 71.3388 307.329 71.3642C307.228 71.3895 307.118 71.4021 307 71.4021C306.772 71.4021 306.599 71.3599 306.481 71.2755C306.371 71.1827 306.316 71.035 306.316 70.8324V68.0472ZM310.342 68.0472H311.583V71.3009C311.532 71.3177 311.452 71.3388 311.342 71.3642C311.241 71.3895 311.131 71.4021 311.013 71.4021C310.785 71.4021 310.616 71.3599 310.507 71.2755C310.397 71.1827 310.342 71.035 310.342 70.8324V68.0472ZM315.819 71.1363C315.33 71.1363 314.874 71.0434 314.452 70.8578C314.038 70.6636 313.705 70.3513 313.452 69.9209C313.199 69.482 313.072 68.9081 313.072 68.1991C313.072 67.5493 313.199 67.0049 313.452 66.566C313.705 66.1271 314.055 65.798 314.503 65.5785C314.95 65.3591 315.469 65.2494 316.06 65.2494C316.465 65.2494 316.836 65.3 317.174 65.4013C317.52 65.5026 317.803 65.6249 318.022 65.7684C318.157 65.8613 318.267 65.9668 318.351 66.0849C318.436 66.1946 318.478 66.3339 318.478 66.5027V70.4273H317.25V66.566C317.115 66.4816 316.95 66.4099 316.756 66.3508C316.57 66.2833 316.343 66.2495 316.072 66.2495C315.549 66.2495 315.123 66.4099 314.794 66.7306C314.473 67.0513 314.313 67.5366 314.313 68.1865C314.313 68.9039 314.473 69.4103 314.794 69.7057C315.123 70.0011 315.524 70.1488 315.997 70.1488C316.343 70.1488 316.621 70.0897 316.832 69.9715C317.052 69.8449 317.229 69.7099 317.364 69.5664L317.414 70.6299C317.279 70.7565 317.077 70.8746 316.807 70.9844C316.537 71.0856 316.208 71.1363 315.819 71.1363ZM317.263 71.4528V70.1614H318.478V71.5161C318.478 72.0731 318.351 72.5247 318.098 72.8707C317.845 73.2252 317.503 73.4784 317.073 73.6303C316.642 73.7907 316.157 73.8708 315.617 73.8708C315.195 73.8708 314.828 73.8244 314.515 73.7316C314.203 73.6472 313.979 73.567 313.844 73.491C313.583 73.3391 313.452 73.1366 313.452 72.8834C313.452 72.7568 313.481 72.6428 313.54 72.5415C313.6 72.4487 313.676 72.377 313.768 72.3263C313.954 72.4614 314.207 72.5837 314.528 72.6935C314.857 72.8032 315.203 72.858 315.566 72.858C316.106 72.858 316.524 72.7441 316.819 72.5162C317.115 72.2883 317.263 71.9339 317.263 71.4528ZM328.723 67.237V68.6929H327.482V67.3636C327.482 66.9753 327.368 66.6926 327.14 66.5154C326.921 66.3381 326.634 66.2495 326.28 66.2495C326.035 66.2495 325.803 66.2875 325.583 66.3634C325.364 66.4394 325.178 66.528 325.026 66.6293V68.6929H323.785V66.6166C323.785 66.431 323.823 66.279 323.899 66.1609C323.984 66.0343 324.11 65.9161 324.279 65.8064C324.524 65.6545 324.828 65.5237 325.191 65.4139C325.554 65.3042 325.925 65.2494 326.305 65.2494C326.727 65.2494 327.107 65.3127 327.444 65.4393C327.782 65.5659 328.043 65.7473 328.229 65.9836C328.28 66.0427 328.326 66.0934 328.368 66.1356C328.411 66.1778 328.449 66.2326 328.482 66.3001C328.55 66.4099 328.605 66.5491 328.647 66.7179C328.698 66.8783 328.723 67.0513 328.723 67.237ZM332.42 67.3003V68.6929H331.179V67.3636C331.179 66.9753 331.069 66.6926 330.85 66.5154C330.63 66.3381 330.343 66.2495 329.989 66.2495C329.719 66.2495 329.457 66.3044 329.204 66.4141C328.959 66.5238 328.74 66.6799 328.546 66.8825L327.989 66.0469C328.225 65.8359 328.52 65.6503 328.875 65.4899C329.229 65.3295 329.643 65.2494 330.116 65.2494C330.563 65.2494 330.96 65.3211 331.306 65.4646C331.652 65.6081 331.922 65.8317 332.116 66.1356C332.318 66.4394 332.42 66.8276 332.42 67.3003ZM323.785 68.0472H325.026V71.3009C324.976 71.3177 324.9 71.3388 324.798 71.3642C324.697 71.3895 324.587 71.4021 324.469 71.4021C324.241 71.4021 324.068 71.3599 323.95 71.2755C323.84 71.1827 323.785 71.035 323.785 70.8324V68.0472ZM327.482 68.0472H328.723V71.3009C328.672 71.3177 328.592 71.3388 328.482 71.3642C328.381 71.3895 328.271 71.4021 328.153 71.4021C327.925 71.4021 327.757 71.3599 327.647 71.2755C327.537 71.1827 327.482 71.035 327.482 70.8324V68.0472ZM331.179 68.0472H332.42V71.3009C332.361 71.3177 332.276 71.3388 332.166 71.3642C332.065 71.3895 331.96 71.4021 331.85 71.4021C331.614 71.4021 331.441 71.3599 331.331 71.2755C331.23 71.1827 331.179 71.035 331.179 70.8324V68.0472ZM336.398 70.5286C336.711 70.5286 336.976 70.4991 337.196 70.44C337.415 70.3725 337.576 70.3049 337.677 70.2374V68.5663L336.234 68.7182C335.837 68.7435 335.537 68.8321 335.335 68.9841C335.141 69.1275 335.044 69.3385 335.044 69.6171C335.044 69.8956 335.153 70.1192 335.373 70.288C335.601 70.4484 335.942 70.5286 336.398 70.5286ZM336.373 65.2494C337.141 65.2494 337.753 65.4182 338.209 65.7558C338.664 66.0934 338.892 66.6251 338.892 67.3509V70.3134C338.892 70.5075 338.85 70.6594 338.766 70.7691C338.681 70.8704 338.567 70.9675 338.424 71.0603C338.204 71.1785 337.922 71.2798 337.576 71.3642C337.23 71.457 336.837 71.5034 336.398 71.5034C335.588 71.5034 334.955 71.3473 334.499 71.035C334.043 70.7143 333.816 70.2501 333.816 69.6424C333.816 69.0853 333.997 68.6591 334.36 68.3637C334.723 68.0683 335.238 67.8869 335.905 67.8193L337.677 67.6421V67.3509C337.677 66.9627 337.55 66.6799 337.297 66.5027C337.052 66.3255 336.719 66.2368 336.297 66.2368C335.959 66.2368 335.63 66.2833 335.309 66.3761C334.997 66.4689 334.719 66.5787 334.474 66.7053C334.398 66.6377 334.33 66.5576 334.271 66.4647C334.212 66.3719 334.183 66.2748 334.183 66.1735C334.183 65.9119 334.326 65.7178 334.613 65.5912C334.841 65.4815 335.107 65.3971 335.411 65.338C335.723 65.2789 336.044 65.2494 336.373 65.2494ZM344.612 70.1994V66.0596L345.84 66.0469V70.288C345.84 70.4569 345.802 70.5961 345.726 70.7058C345.659 70.8156 345.545 70.9168 345.384 71.0097C345.199 71.1278 344.941 71.2376 344.612 71.3388C344.283 71.4486 343.907 71.5034 343.485 71.5034C342.852 71.5034 342.295 71.3937 341.814 71.1743C341.342 70.9548 340.97 70.6172 340.7 70.1614C340.439 69.6972 340.308 69.1107 340.308 68.4017C340.308 67.659 340.439 67.0597 340.7 66.604C340.97 66.1398 341.329 65.798 341.776 65.5785C342.224 65.3591 342.717 65.2494 343.258 65.2494C343.587 65.2494 343.891 65.2916 344.169 65.376C344.448 65.4604 344.667 65.5659 344.827 65.6925V66.7939C344.684 66.642 344.49 66.5154 344.245 66.4141C344.009 66.3044 343.73 66.2495 343.41 66.2495C343.072 66.2495 342.764 66.3212 342.485 66.4647C342.207 66.6082 341.983 66.8403 341.814 67.161C341.654 67.4733 341.574 67.8911 341.574 68.4144C341.574 69.1402 341.747 69.6677 342.093 69.9969C342.439 70.326 342.899 70.4906 343.473 70.4906C343.743 70.4906 343.967 70.4611 344.144 70.402C344.321 70.3429 344.477 70.2754 344.612 70.1994ZM345.84 66.3255L344.6 66.3381V63.1098C344.659 63.0929 344.739 63.0761 344.84 63.0592C344.95 63.0339 345.06 63.0212 345.169 63.0212C345.406 63.0212 345.574 63.0634 345.676 63.1478C345.785 63.2322 345.84 63.3799 345.84 63.5909V66.3255ZM348.153 69.0853L348.102 68.1612L351.736 67.6421C351.711 67.237 351.567 66.8994 351.305 66.6293C351.044 66.3592 350.681 66.2242 350.217 66.2242C349.727 66.2242 349.322 66.3972 349.001 66.7432C348.689 67.0808 348.529 67.5704 348.52 68.2118L348.533 68.6549C348.6 69.271 348.816 69.7352 349.179 70.0475C349.55 70.3513 350.039 70.5033 350.647 70.5033C351.002 70.5033 351.327 70.4484 351.622 70.3387C351.917 70.229 352.149 70.1066 352.318 69.9715C352.42 70.0391 352.5 70.1192 352.559 70.2121C352.626 70.3049 352.66 70.4104 352.66 70.5286C352.66 70.7143 352.567 70.8831 352.382 71.035C352.196 71.1785 351.947 71.2924 351.635 71.3768C351.322 71.4612 350.968 71.5034 350.571 71.5034C349.921 71.5034 349.352 71.3853 348.862 71.1489C348.381 70.9042 348.005 70.5455 347.735 70.0728C347.465 69.6002 347.33 69.0178 347.33 68.3257C347.33 67.8278 347.402 67.3889 347.545 67.0091C347.697 66.6293 347.904 66.3086 348.166 66.0469C348.427 65.7853 348.731 65.587 349.077 65.4519C349.432 65.3169 349.812 65.2494 350.217 65.2494C350.748 65.2494 351.217 65.3591 351.622 65.5785C352.027 65.798 352.344 66.106 352.571 66.5027C352.799 66.8994 352.913 67.3509 352.913 67.8573C352.913 68.0683 352.863 68.2202 352.761 68.3131C352.668 68.4059 352.529 68.465 352.344 68.4903L348.153 69.0853ZM358.353 69.0853L358.302 68.1612L361.936 67.6421C361.91 67.237 361.767 66.8994 361.505 66.6293C361.244 66.3592 360.881 66.2242 360.416 66.2242C359.927 66.2242 359.522 66.3972 359.201 66.7432C358.889 67.0808 358.728 67.5704 358.72 68.2118L358.733 68.6549C358.8 69.271 359.015 69.7352 359.378 70.0475C359.75 70.3513 360.239 70.5033 360.847 70.5033C361.201 70.5033 361.526 70.4484 361.822 70.3387C362.117 70.229 362.349 70.1066 362.518 69.9715C362.619 70.0391 362.699 70.1192 362.758 70.2121C362.826 70.3049 362.86 70.4104 362.86 70.5286C362.86 70.7143 362.767 70.8831 362.581 71.035C362.396 71.1785 362.147 71.2924 361.834 71.3768C361.522 71.4612 361.168 71.5034 360.771 71.5034C360.121 71.5034 359.551 71.3853 359.062 71.1489C358.581 70.9042 358.205 70.5455 357.935 70.0728C357.665 69.6002 357.53 69.0178 357.53 68.3257C357.53 67.8278 357.602 67.3889 357.745 67.0091C357.897 66.6293 358.104 66.3086 358.365 66.0469C358.627 65.7853 358.931 65.587 359.277 65.4519C359.631 65.3169 360.011 65.2494 360.416 65.2494C360.948 65.2494 361.417 65.3591 361.822 65.5785C362.227 65.798 362.543 66.106 362.771 66.5027C362.999 66.8994 363.113 67.3509 363.113 67.8573C363.113 68.0683 363.062 68.2202 362.961 68.3131C362.868 68.4059 362.729 68.465 362.543 68.4903L358.353 69.0853ZM366.701 70.5286C367.013 70.5286 367.279 70.4991 367.498 70.44C367.718 70.3725 367.878 70.3049 367.979 70.2374V68.5663L366.536 68.7182C366.139 68.7435 365.84 68.8321 365.637 68.9841C365.443 69.1275 365.346 69.3385 365.346 69.6171C365.346 69.8956 365.456 70.1192 365.675 70.288C365.903 70.4484 366.245 70.5286 366.701 70.5286ZM366.675 65.2494C367.443 65.2494 368.055 65.4182 368.511 65.7558C368.967 66.0934 369.195 66.6251 369.195 67.3509V70.3134C369.195 70.5075 369.153 70.6594 369.068 70.7691C368.984 70.8704 368.87 70.9675 368.726 71.0603C368.507 71.1785 368.224 71.2798 367.878 71.3642C367.532 71.457 367.14 71.5034 366.701 71.5034C365.89 71.5034 365.257 71.3473 364.802 71.035C364.346 70.7143 364.118 70.2501 364.118 69.6424C364.118 69.0853 364.3 68.6591 364.662 68.3637C365.025 68.0683 365.54 67.8869 366.207 67.8193L367.979 67.6421V67.3509C367.979 66.9627 367.853 66.6799 367.6 66.5027C367.355 66.3255 367.021 66.2368 366.599 66.2368C366.262 66.2368 365.933 66.2833 365.612 66.3761C365.3 66.4689 365.021 66.5787 364.776 66.7053C364.7 66.6377 364.633 66.5576 364.574 66.4647C364.515 66.3719 364.485 66.2748 364.485 66.1735C364.485 65.9119 364.629 65.7178 364.916 65.5912C365.144 65.4815 365.409 65.3971 365.713 65.338C366.026 65.2789 366.346 65.2494 366.675 65.2494ZM375.269 69.7183C375.269 70.2754 375.062 70.7143 374.649 71.035C374.235 71.3473 373.636 71.5034 372.851 71.5034C372.193 71.5034 371.653 71.4021 371.231 71.1996C370.817 70.997 370.61 70.7607 370.61 70.4906C370.61 70.364 370.64 70.2501 370.699 70.1488C370.766 70.0391 370.855 69.9504 370.965 69.8829C371.193 70.0433 371.458 70.1868 371.762 70.3134C372.075 70.44 372.429 70.5033 372.826 70.5033C373.636 70.5033 374.041 70.2416 374.041 69.7183C374.041 69.4989 373.969 69.3217 373.826 69.1866C373.691 69.0431 373.484 68.9419 373.206 68.8828L372.294 68.6422C371.737 68.5072 371.328 68.3046 371.066 68.0346C370.804 67.756 370.674 67.4016 370.674 66.9711C370.674 66.49 370.868 66.0849 371.256 65.7558C371.653 65.4182 372.231 65.2494 372.99 65.2494C373.387 65.2494 373.737 65.2916 374.041 65.376C374.345 65.4519 374.581 65.5616 374.75 65.7051C374.927 65.8402 375.016 65.9921 375.016 66.1609C375.016 66.2875 374.986 66.4014 374.927 66.5027C374.868 66.5955 374.792 66.6673 374.699 66.7179C374.598 66.6504 374.463 66.5787 374.294 66.5027C374.134 66.4267 373.944 66.3634 373.725 66.3128C373.514 66.2622 373.29 66.2368 373.054 66.2368C372.699 66.2368 372.416 66.3001 372.205 66.4267C371.994 66.5533 371.889 66.7348 371.889 66.9711C371.889 67.1399 371.948 67.2876 372.066 67.4142C372.193 67.5324 372.395 67.6252 372.674 67.6927L373.446 67.8826C374.071 68.0261 374.531 68.2498 374.826 68.5536C375.121 68.849 375.269 69.2373 375.269 69.7183ZM377.667 69.9715C377.524 69.693 377.355 69.3343 377.161 68.8954C376.975 68.4481 376.781 67.9459 376.578 67.3889C376.376 66.8234 376.177 66.2326 375.983 65.6165C376.051 65.5237 376.144 65.4477 376.262 65.3886C376.38 65.3295 376.507 65.3 376.642 65.3C376.819 65.3 376.962 65.3422 377.072 65.4266C377.19 65.511 377.279 65.6587 377.338 65.8697C377.574 66.5533 377.819 67.2328 378.072 67.908C378.334 68.5832 378.617 69.2795 378.92 69.9969H378.971C379.14 69.6339 379.313 69.1951 379.49 68.6802C379.676 68.1654 379.849 67.6252 380.009 67.0597C380.178 66.4858 380.317 65.9414 380.427 65.4266C380.503 65.3928 380.583 65.3633 380.667 65.338C380.76 65.3127 380.857 65.3 380.959 65.3C381.127 65.3 381.271 65.3422 381.389 65.4266C381.507 65.511 381.566 65.6418 381.566 65.8191C381.566 65.9794 381.528 66.2242 381.452 66.5533C381.385 66.8741 381.284 67.2412 381.149 67.6548C381.022 68.0683 380.874 68.503 380.705 68.9587C380.537 69.4061 380.355 69.8492 380.161 70.288C379.975 70.7185 379.786 71.111 379.591 71.4654C379.186 72.1997 378.815 72.761 378.477 73.1492C378.14 73.5375 377.819 73.7316 377.515 73.7316C377.296 73.7316 377.118 73.6683 376.983 73.5417C376.857 73.4235 376.781 73.2758 376.756 73.0986C376.933 72.9382 377.131 72.7314 377.351 72.4782C377.578 72.2335 377.794 71.9676 377.996 71.6807C378.207 71.3937 378.38 71.1194 378.515 70.8578C378.372 70.8156 378.233 70.7354 378.097 70.6172C377.971 70.4991 377.827 70.2838 377.667 69.9715ZM381.679 70.6932C381.679 70.4653 381.751 70.2754 381.895 70.1235C382.038 69.9631 382.237 69.8829 382.49 69.8829C382.734 69.8829 382.924 69.9631 383.059 70.1235C383.203 70.2754 383.275 70.4653 383.275 70.6932C383.275 70.9211 383.203 71.1152 383.059 71.2755C382.924 71.4275 382.734 71.5034 382.49 71.5034C382.237 71.5034 382.038 71.4275 381.895 71.2755C381.751 71.1152 381.679 70.9211 381.679 70.6932Z" fill="#7A7A7A"/>
<path d="M112.699 26.1569H129.117C136.14 26.1569 141.17 27.2001 144.207 29.2866C146.927 31.1202 148.636 33.3331 149.331 35.9254C150.091 38.4544 150.47 41.8055 150.47 45.9784V71.6803H142.119V46.0733C142.119 44.9353 142.087 43.9868 142.024 43.2281C141.961 42.4063 141.739 41.3945 141.36 40.1932C140.98 38.9287 140.442 37.9171 139.746 37.1583C139.05 36.3364 138.038 35.6409 136.709 35.0718C135.381 34.4396 133.767 34.1234 131.869 34.1234H121.05V71.6803H112.699V26.1569Z" fill="#728373"/>
<path d="M167.121 32.1365C171.55 27.521 177.086 25.2132 183.729 25.2132C186.956 25.2132 189.961 25.8455 192.745 27.11C195.591 28.3113 198.059 29.9868 200.147 32.1365C202.298 34.2862 203.975 36.8153 205.178 39.7238C206.38 42.569 206.98 45.6354 206.98 48.9233C206.98 52.2111 206.38 55.3093 205.178 58.2177C204.038 61.0628 202.425 63.5602 200.337 65.7099C198.249 67.8596 195.782 69.5668 192.935 70.8314C190.088 72.0327 187.019 72.6333 183.729 72.6333C180.376 72.6333 177.276 72.0327 174.428 70.8314C171.645 69.5668 169.209 67.8596 167.121 65.7099C165.033 63.5602 163.388 61.0628 162.186 58.2177C161.047 55.3093 160.478 52.2111 160.478 48.9233C160.478 42.2213 162.692 36.6256 167.121 32.1365ZM183.729 33.1798C179.3 33.1798 175.725 34.634 173.005 37.5425C170.348 40.4509 169.019 44.2445 169.019 48.9233C169.019 53.602 170.348 57.3956 173.005 60.3041C175.725 63.2125 179.3 64.6668 183.729 64.6668C188.221 64.6668 191.796 63.2125 194.453 60.3041C197.11 57.3324 198.439 53.5389 198.439 48.9233C198.439 44.3077 197.11 40.5457 194.453 37.6373C191.796 34.6656 188.221 33.1798 183.729 33.1798Z" fill="#728373"/>
<path d="M276.768 39.3206C275.661 39.3206 274.634 39.516 273.689 39.907C272.744 40.2654 271.93 40.8194 271.245 41.5687C270.561 42.2855 270.023 43.1977 269.633 44.3057C269.241 45.3808 269.046 46.619 269.046 48.0201C269.046 50.8221 269.746 52.9725 271.147 54.4714C272.549 55.9375 274.422 56.6707 276.768 56.6707C278.137 56.6707 279.278 56.4914 280.19 56.133C281.102 55.7421 281.917 55.3022 282.634 54.8134C282.992 55.0089 283.286 55.2534 283.513 55.5466C283.741 55.8399 283.856 56.1981 283.856 56.6217C283.856 57.0779 283.677 57.5015 283.319 57.8925C282.959 58.2835 282.455 58.6256 281.803 58.9189C281.183 59.2122 280.434 59.4401 279.555 59.6031C278.707 59.7985 277.779 59.8963 276.768 59.8963C275.074 59.8963 273.51 59.6519 272.076 59.1632C270.643 58.6745 269.404 57.9415 268.361 56.964C267.319 55.9865 266.504 54.7647 265.917 53.2984C265.331 51.7996 265.038 50.0401 265.038 48.0201C265.038 46.0325 265.347 44.3057 265.967 42.8395C266.585 41.3407 267.416 40.0862 268.459 39.0762C269.502 38.0662 270.724 37.3167 272.125 36.828C273.559 36.3067 275.074 36.046 276.671 36.046C277.681 36.046 278.61 36.1438 279.456 36.3392C280.337 36.5022 281.086 36.7466 281.706 37.0724C282.325 37.3982 282.798 37.7729 283.123 38.1964C283.481 38.5874 283.66 38.9947 283.66 39.4183C283.66 39.8093 283.547 40.1514 283.319 40.4446C283.089 40.7379 282.798 40.9659 282.438 41.1289C281.72 40.6402 280.939 40.2166 280.093 39.8582C279.246 39.4998 278.137 39.3206 276.768 39.3206Z" fill="#F6BF54"/>
<path d="M310.046 47.9713C310.046 49.7958 309.785 51.4412 309.264 52.9074C308.741 54.3735 307.992 55.6281 307.014 56.6707C306.069 57.7134 304.913 58.5116 303.544 59.0655C302.176 59.6194 300.645 59.8963 298.95 59.8963C297.256 59.8963 295.723 59.6194 294.355 59.0655C292.986 58.5116 291.813 57.7134 290.836 56.6707C289.859 55.6281 289.109 54.3735 288.588 52.9074C288.066 51.4412 287.806 49.7958 287.806 47.9713C287.806 46.1464 288.066 44.5012 288.588 43.035C289.141 41.5687 289.907 40.3143 290.885 39.2717C291.863 38.229 293.036 37.4308 294.405 36.8768C295.774 36.323 297.287 36.046 298.95 36.046C300.612 36.046 302.128 36.323 303.495 36.8768C304.864 37.4308 306.022 38.229 306.967 39.2717C307.943 40.3143 308.694 41.5687 309.214 43.035C309.769 44.5012 310.046 46.1464 310.046 47.9713ZM298.95 39.2717C296.735 39.2717 294.991 40.0374 293.72 41.5687C292.448 43.1002 291.813 45.2342 291.813 47.9713C291.813 50.7407 292.433 52.8912 293.67 54.4225C294.942 55.9212 296.702 56.6707 298.95 56.6707C301.197 56.6707 302.941 55.9051 304.18 54.3735C305.418 52.8422 306.038 50.7082 306.038 47.9713C306.038 45.2342 305.402 43.1002 304.131 41.5687C302.893 40.0374 301.166 39.2717 298.95 39.2717Z" fill="#F6BF54"/>
<path d="M324.256 56.7195C325.625 56.7195 326.748 56.5892 327.629 56.3286C328.541 56.0353 329.192 55.7584 329.584 55.4977V48.411L323.522 49.0464C321.828 49.2093 320.573 49.6003 319.758 50.2194C318.944 50.8058 318.536 51.6856 318.536 52.8585C318.536 54.0966 319.01 55.0579 319.955 55.7421C320.9 56.3938 322.333 56.7195 324.256 56.7195ZM324.206 36.046C327.042 36.046 329.29 36.6814 330.952 37.9521C332.614 39.2228 333.446 41.2266 333.446 43.9636V55.5467C333.446 56.2635 333.299 56.8173 333.006 57.2083C332.744 57.5667 332.337 57.9088 331.783 58.2347C331.002 58.6907 329.957 59.0817 328.655 59.4076C327.385 59.766 325.917 59.9452 324.256 59.9452C321.193 59.9452 318.814 59.3425 317.12 58.1369C315.457 56.9314 314.626 55.1882 314.626 52.9074C314.626 50.7569 315.327 49.1441 316.729 48.0689C318.129 46.9612 320.101 46.277 322.643 46.0162L329.584 45.332V43.9636C329.584 42.3344 329.095 41.1451 328.117 40.3958C327.139 39.6464 325.82 39.2717 324.159 39.2717C322.79 39.2717 321.502 39.4671 320.296 39.8582C319.091 40.2491 318.016 40.689 317.07 41.1778C316.809 40.9497 316.566 40.689 316.338 40.3958C316.142 40.1026 316.044 39.7767 316.044 39.4183C316.044 38.9622 316.158 38.5874 316.386 38.2942C316.615 38.001 316.973 37.724 317.461 37.4634C318.342 37.0072 319.351 36.6651 320.492 36.437C321.632 36.1763 322.871 36.046 324.206 36.046Z" fill="#F6BF54"/>
<path d="M351.041 39.3206C349.932 39.3206 348.905 39.516 347.96 39.907C347.015 40.2654 346.202 40.8194 345.518 41.5687C344.833 42.2855 344.296 43.1977 343.904 44.3057C343.512 45.3808 343.317 46.619 343.317 48.0201C343.317 50.8221 344.019 52.9725 345.418 54.4714C346.821 55.9375 348.694 56.6707 351.041 56.6707C352.408 56.6707 353.55 56.4914 354.461 56.133C355.374 55.7421 356.188 55.3022 356.905 54.8134C357.263 55.0089 357.557 55.2534 357.785 55.5466C358.014 55.8399 358.128 56.1981 358.128 56.6217C358.128 57.0779 357.948 57.5015 357.59 57.8925C357.232 58.2835 356.726 58.6256 356.075 58.9189C355.456 59.2122 354.706 59.4401 353.826 59.6031C352.979 59.7985 352.05 59.8963 351.041 59.8963C349.346 59.8963 347.782 59.6519 346.347 59.1632C344.914 58.6745 343.676 57.9415 342.633 56.964C341.59 55.9865 340.776 54.7647 340.189 53.2984C339.603 51.7996 339.31 50.0401 339.31 48.0201C339.31 46.0325 339.618 44.3057 340.238 42.8395C340.857 41.3407 341.688 40.0862 342.731 39.0762C343.774 38.0662 344.994 37.3167 346.397 36.828C347.83 36.3067 349.346 36.046 350.942 36.046C351.953 36.046 352.881 36.1438 353.729 36.3392C354.608 36.5022 355.359 36.7466 355.977 37.0724C356.596 37.3982 357.069 37.7729 357.394 38.1964C357.753 38.5874 357.931 38.9947 357.931 39.4183C357.931 39.8093 357.818 40.1514 357.59 40.4446C357.363 40.7379 357.069 40.9659 356.709 41.1289C355.994 40.6402 355.212 40.2166 354.364 39.8582C353.516 39.4998 352.408 39.3206 351.041 39.3206Z" fill="#F6BF54"/>
<path d="M367.931 59.1636C367.769 59.2287 367.524 59.2939 367.199 59.3592C366.872 59.4568 366.514 59.5056 366.123 59.5056C364.722 59.5056 364.021 58.9193 364.021 57.7462V27.5913C364.184 27.5261 364.428 27.4609 364.754 27.3958C365.112 27.298 365.487 27.2491 365.879 27.2491C367.247 27.2491 367.931 27.8356 367.931 29.0086V37.8058C368.715 37.3497 369.626 36.9424 370.669 36.584C371.744 36.2256 372.95 36.0464 374.285 36.0464C375.654 36.0464 376.893 36.2256 378.001 36.584C379.141 36.9424 380.119 37.4963 380.934 38.2457C381.748 38.9625 382.384 39.8911 382.84 41.0315C383.296 42.1394 383.525 43.4426 383.525 44.9414V59.1636C383.362 59.2287 383.101 59.2939 382.742 59.3592C382.416 59.4568 382.073 59.5056 381.716 59.5056C380.314 59.5056 379.614 58.9193 379.614 57.7462V45.0391C379.614 43.0842 379.076 41.6343 378.001 40.6894C376.926 39.7445 375.507 39.2721 373.748 39.2721C372.608 39.2721 371.533 39.4838 370.522 39.9074C369.544 40.2984 368.681 40.7871 367.931 41.3736V59.1636Z" fill="#F6BF54"/>
<path d="M261.864 48.5105C261.671 35.6082 251.126 25.2067 238.138 25.2067C225.03 25.2067 214.403 35.7998 214.403 48.8683C214.403 61.9122 224.989 72.4884 238.063 72.5288H238.138H261.864V48.5105ZM238.138 61.2053C238.113 61.2053 238.089 61.2053 238.063 61.2053C235.625 61.1916 233.245 60.4599 231.222 59.102C229.199 57.7442 227.624 55.8208 226.694 53.5737C225.764 51.3263 225.521 48.8553 225.995 46.4707C226.469 44.0861 227.64 41.8944 229.36 40.1706C231.079 38.447 233.272 37.2682 235.661 36.7824C238.05 36.2966 240.53 36.5254 242.789 37.4401C245.049 38.3548 246.987 39.9146 248.36 41.9235C249.733 43.9325 250.48 46.3011 250.507 48.7321C250.507 48.7777 250.513 48.8224 250.513 48.8683C250.513 50.4883 250.194 52.0926 249.572 53.5895C248.95 55.0864 248.038 56.4463 246.889 57.5919C245.74 58.7375 244.376 59.6462 242.874 60.2663C241.373 60.8863 239.763 61.2053 238.138 61.2053Z" fill="#728373"/>
<path d="M261.864 48.5105C261.671 35.6082 251.126 25.2067 238.138 25.2067C225.03 25.2067 214.403 35.7998 214.403 48.8683C214.403 61.9122 224.989 72.4884 238.063 72.5288H238.138H261.864V48.5105ZM238.138 61.2053C238.113 61.2053 238.089 61.2053 238.063 61.2053C235.625 61.1916 233.245 60.4599 231.222 59.102C229.199 57.7442 227.624 55.8208 226.694 53.5737C225.764 51.3263 225.521 48.8553 225.995 46.4707C226.469 44.0861 227.64 41.8944 229.36 40.1706C231.079 38.447 233.272 37.2682 235.661 36.7824C238.05 36.2966 240.53 36.5254 242.789 37.4401C245.049 38.3548 246.987 39.9146 248.36 41.9235C249.733 43.9325 250.48 46.3011 250.507 48.7321C250.507 48.7777 250.513 48.8224 250.513 48.8683C250.513 50.4883 250.194 52.0926 249.572 53.5895C248.95 55.0864 248.038 56.4463 246.889 57.5919C245.74 58.7375 244.376 59.6462 242.874 60.2663C241.373 60.8863 239.763 61.2053 238.138 61.2053Z" fill="#728373"/>
<path d="M226.124 45.8939C226.582 44.037 227.469 42.3124 228.714 40.8567C229.958 39.4011 231.525 38.2546 233.291 37.5082C235.058 36.7618 236.974 36.4361 238.888 36.5569C240.803 36.6776 242.663 37.2416 244.321 38.2041C245.439 36.1141 248.486 31.3829 253.344 30.7196C249.08 27.1517 243.689 25.1994 238.121 25.2069C237.935 25.2069 237.76 25.2055 237.575 25.2097C234.988 26.6438 228.419 31.6214 226.124 45.8939Z" fill="url(#paint0_linear_1_23506)"/>
<path d="M250.142 51.8622C249.683 53.7192 248.81 55.4051 247.566 56.8607C246.322 58.3164 244.818 59.4445 243.051 60.1908C241.285 60.9372 239.385 61.3099 237.471 61.1891C235.556 61.0682 233.672 60.557 232.014 59.5945C230.896 61.6845 227.79 66.3755 222.931 67.0388C227.195 70.6066 232.669 72.557 238.237 72.5496C238.423 72.5496 238.607 72.5399 238.791 72.5357C241.378 71.1016 247.847 66.1348 250.142 51.8622Z" fill="url(#paint1_linear_1_23506)"/>
<path d="M232.182 48.8022L232.844 46.3374C232.326 46.1972 231.775 46.2302 231.278 46.4313C230.78 46.6323 230.362 46.9905 230.088 47.4511C229.814 47.9115 229.699 48.4489 229.76 48.9807C229.822 49.5126 230.056 50.0098 230.429 50.396C230.8 50.7823 231.289 51.0365 231.819 51.1196C232.35 51.2027 232.893 51.1102 233.366 50.8562C233.839 50.6021 234.215 50.2005 234.437 49.7131C234.659 49.2255 234.715 48.679 234.596 48.1569L232.182 48.8022Z" fill="#F6BF54"/>
<path d="M244.035 48.8022L244.698 46.3374C244.179 46.1972 243.63 46.2302 243.132 46.4313C242.634 46.6323 242.216 46.9905 241.942 47.4511C241.668 47.9115 241.553 48.4489 241.614 48.9807C241.676 49.5126 241.91 50.0098 242.282 50.396C242.654 50.7823 243.143 51.0365 243.673 51.1196C244.204 51.2027 244.747 51.1102 245.22 50.8562C245.692 50.6021 246.069 50.2005 246.291 49.7131C246.513 49.2255 246.568 48.679 246.449 48.1569L244.035 48.8022Z" fill="#F6BF54"/>
<path d="M388.702 29.9311L388.669 29.2457H390.733C390.755 29.2784 390.774 29.3246 390.79 29.3844C390.812 29.4388 390.823 29.5014 390.823 29.5721C390.823 29.6809 390.796 29.7679 390.741 29.8332C390.687 29.8985 390.614 29.9311 390.521 29.9311H388.702ZM389.012 29.2457L389.044 29.9311H386.972C386.955 29.893 386.936 29.8468 386.915 29.7924C386.898 29.7326 386.89 29.67 386.89 29.6047C386.89 29.4851 386.915 29.3953 386.964 29.3355C387.018 29.2756 387.094 29.2457 387.192 29.2457H389.012ZM388.44 29.7108H389.256V34.1903C389.224 34.2012 389.172 34.2148 389.101 34.2311C389.031 34.2475 388.957 34.2556 388.881 34.2556C388.729 34.2556 388.617 34.2257 388.547 34.1659C388.476 34.106 388.44 34.0081 388.44 33.8721V29.7108ZM394.525 32.9338C394.481 32.9664 394.421 32.9963 394.345 33.0235C394.274 33.0453 394.193 33.0562 394.1 33.0562C393.991 33.0562 393.896 33.0399 393.815 33.0072C393.739 32.9746 393.687 32.9229 393.66 32.8522C393.399 32.2702 393.17 31.7479 392.974 31.2856C392.784 30.8178 392.632 30.4288 392.517 30.1188H392.485C392.468 30.5104 392.452 30.8749 392.436 31.2121C392.419 31.5494 392.4 31.8758 392.379 32.1913C392.362 32.5013 392.346 32.8196 392.33 33.1459C392.313 33.4723 392.292 33.8232 392.264 34.1985C392.226 34.2148 392.175 34.2284 392.109 34.2393C392.044 34.2502 391.976 34.2556 391.905 34.2556C391.764 34.2556 391.661 34.2284 391.595 34.174C391.53 34.1196 391.497 34.0353 391.497 33.9211C391.497 33.8449 391.503 33.6899 391.514 33.456C391.525 33.2167 391.538 32.9311 391.555 32.5993C391.576 32.262 391.601 31.9057 391.628 31.5304C391.655 31.155 391.682 30.7851 391.71 30.4207C391.737 30.0508 391.764 29.7162 391.791 29.4171C391.835 29.3735 391.903 29.33 391.995 29.2865C392.093 29.243 392.21 29.2212 392.346 29.2212C392.504 29.2212 392.632 29.2512 392.729 29.311C392.833 29.3654 392.912 29.4551 392.966 29.5803C393.091 29.8359 393.219 30.1188 393.35 30.4288C393.48 30.7335 393.605 31.0408 393.725 31.3509C393.85 31.6609 393.97 31.9519 394.084 32.2239H394.117C394.334 31.6691 394.549 31.136 394.761 30.6247C394.979 30.1133 395.164 29.6782 395.316 29.3191C395.37 29.2865 395.441 29.262 395.528 29.2457C395.615 29.2294 395.702 29.2212 395.789 29.2212C395.942 29.2212 396.064 29.2457 396.156 29.2947C396.249 29.3436 396.306 29.4198 396.328 29.5231C396.35 29.621 396.374 29.7815 396.401 30.0045C396.428 30.2276 396.456 30.4887 396.483 30.7879C396.51 31.087 396.534 31.3998 396.556 31.7262C396.583 32.0526 396.608 32.3735 396.63 32.689C396.651 33.0045 396.67 33.2901 396.687 33.5457C396.709 33.8014 396.722 34.0027 396.728 34.1495C396.668 34.1876 396.605 34.2148 396.54 34.2311C396.48 34.2475 396.407 34.2556 396.32 34.2556C396.211 34.2556 396.116 34.2339 396.034 34.1903C395.958 34.1414 395.914 34.0544 395.903 33.9292C395.876 33.4234 395.849 32.9311 395.822 32.4524C395.795 31.9737 395.77 31.5358 395.748 31.1387C395.732 30.7362 395.719 30.4044 395.708 30.1433H395.667C395.564 30.4261 395.417 30.7879 395.226 31.2285C395.041 31.6691 394.807 32.2375 394.525 32.9338Z" fill="#7A7A7A"/>
</g>
<rect x="530" y="-0.000671387" width="510" height="100" fill="#101010"/>
<g clip-path="url(#clip1_1_23506)">
<path d="M799.781 65.5405C799.857 65.5068 799.954 65.473 800.072 65.4393C800.19 65.4055 800.317 65.3886 800.452 65.3886C800.654 65.3886 800.823 65.4224 800.958 65.4899C801.102 65.5574 801.19 65.6545 801.224 65.7811C801.418 66.355 801.595 66.8909 801.756 67.3889C801.916 67.8784 802.068 68.3553 802.212 68.8195C802.355 69.2752 802.499 69.7479 802.642 70.2374H802.705C802.849 69.4862 802.988 68.7646 803.123 68.0725C803.258 67.372 803.389 66.6673 803.516 65.9583C803.651 65.2409 803.773 64.4855 803.883 63.6922C804.035 63.6078 804.216 63.5656 804.427 63.5656C804.613 63.5656 804.765 63.6078 804.883 63.6922C805.009 63.7766 805.073 63.9074 805.073 64.0846C805.073 64.2534 805.047 64.5024 804.997 64.8316C804.955 65.1523 804.896 65.5321 804.82 65.971C804.744 66.4014 804.655 66.8572 804.554 67.3383C804.452 67.8193 804.343 68.2962 804.225 68.7688C804.115 69.2415 804.001 69.6846 803.883 70.0981C803.773 70.5117 803.668 70.862 803.566 71.1489C803.473 71.208 803.351 71.2629 803.199 71.3135C803.047 71.3557 802.883 71.3768 802.705 71.3768C802.477 71.3768 802.283 71.3431 802.123 71.2755C801.971 71.208 801.87 71.1152 801.819 70.997C801.718 70.7101 801.591 70.3471 801.439 69.9082C801.287 69.4609 801.127 68.9756 800.958 68.4523C800.798 67.9206 800.642 67.3889 800.49 66.8572C800.346 67.3805 800.19 67.9164 800.021 68.465C799.861 69.0136 799.701 69.5284 799.54 70.0095C799.388 70.4822 799.253 70.8662 799.135 71.1616C799.059 71.2122 798.945 71.2629 798.793 71.3135C798.65 71.3557 798.485 71.3768 798.3 71.3768C798.08 71.3768 797.89 71.3431 797.73 71.2755C797.57 71.1996 797.464 71.1067 797.413 70.997C797.329 70.786 797.224 70.4737 797.097 70.0602C796.979 69.6466 796.852 69.174 796.717 68.6422C796.591 68.1021 796.464 67.545 796.337 66.9711C796.211 66.3888 796.093 65.8275 795.983 65.2873C795.882 64.7472 795.797 64.2661 795.73 63.8441C795.806 63.7766 795.903 63.7133 796.021 63.6542C796.147 63.5951 796.283 63.5656 796.426 63.5656C796.612 63.5656 796.759 63.6078 796.869 63.6922C796.979 63.7766 797.051 63.9201 797.084 64.1226C797.202 64.7219 797.308 65.2789 797.401 65.7937C797.502 66.3001 797.599 66.7939 797.692 67.275C797.785 67.7476 797.882 68.2287 797.983 68.7182C798.084 69.1993 798.194 69.7057 798.312 70.2374H798.376C798.485 69.866 798.591 69.5158 798.692 69.1866C798.793 68.849 798.895 68.503 798.996 68.1485C799.106 67.794 799.224 67.41 799.35 66.9964C799.477 66.5744 799.621 66.0891 799.781 65.5405ZM806.866 69.0853L806.816 68.1612L810.449 67.6421C810.424 67.237 810.28 66.8994 810.019 66.6293C809.757 66.3592 809.394 66.2242 808.93 66.2242C808.44 66.2242 808.035 66.3972 807.714 66.7432C807.402 67.0808 807.242 67.5704 807.233 68.2118L807.246 68.6549C807.314 69.271 807.529 69.7352 807.892 70.0475C808.263 70.3514 808.753 70.5033 809.36 70.5033C809.715 70.5033 810.04 70.4484 810.335 70.3387C810.631 70.229 810.863 70.1066 811.031 69.9715C811.133 70.0391 811.213 70.1192 811.272 70.2121C811.339 70.3049 811.373 70.4104 811.373 70.5286C811.373 70.7143 811.28 70.8831 811.095 71.035C810.909 71.1785 810.66 71.2924 810.348 71.3768C810.035 71.4612 809.681 71.5034 809.284 71.5034C808.634 71.5034 808.065 71.3853 807.575 71.1489C807.094 70.9042 806.719 70.5455 806.448 70.0728C806.178 69.6002 806.043 69.0178 806.043 68.3257C806.043 67.8278 806.115 67.3889 806.259 67.0091C806.41 66.6293 806.617 66.3086 806.879 66.0469C807.141 65.7853 807.444 65.587 807.79 65.4519C808.145 65.3169 808.525 65.2494 808.93 65.2494C809.462 65.2494 809.93 65.3591 810.335 65.5785C810.74 65.798 811.057 66.106 811.285 66.5027C811.512 66.8994 811.626 67.3509 811.626 67.8573C811.626 68.0683 811.576 68.2202 811.475 68.3131C811.382 68.4059 811.242 68.465 811.057 68.4903L806.866 69.0853ZM813.113 67.9839L814.353 68.1105V71.3009C814.303 71.3177 814.222 71.3388 814.113 71.3642C814.011 71.3895 813.902 71.4021 813.784 71.4021C813.556 71.4021 813.387 71.3599 813.277 71.2755C813.167 71.1827 813.113 71.035 813.113 70.8324V67.9839ZM814.353 68.7182L813.113 68.6043V63.1098C813.163 63.0929 813.239 63.0761 813.34 63.0592C813.45 63.0339 813.564 63.0212 813.682 63.0212C813.91 63.0212 814.079 63.0634 814.189 63.1478C814.298 63.2322 814.353 63.3799 814.353 63.5909V68.7182ZM816.352 67.9839L817.592 68.1105V71.3009C817.542 71.3177 817.462 71.3388 817.352 71.3642C817.251 71.3895 817.141 71.4021 817.023 71.4021C816.795 71.4021 816.626 71.3599 816.516 71.2755C816.407 71.1827 816.352 71.035 816.352 70.8324V67.9839ZM817.592 68.7182L816.352 68.6043V63.1098C816.402 63.0929 816.478 63.0761 816.58 63.0592C816.689 63.0339 816.803 63.0212 816.921 63.0212C817.149 63.0212 817.318 63.0634 817.428 63.1478C817.538 63.2322 817.592 63.3799 817.592 63.5909V68.7182ZM822.237 65.2494C822.769 65.2494 823.246 65.3633 823.668 65.5912C824.099 65.8191 824.436 66.1651 824.681 66.6293C824.926 67.0851 825.048 67.6632 825.048 68.3637C825.048 69.0727 824.917 69.6593 824.656 70.1235C824.402 70.5877 824.048 70.9337 823.592 71.1616C823.145 71.3895 822.617 71.5034 822.01 71.5034C821.571 71.5034 821.178 71.4486 820.832 71.3388C820.486 71.2291 820.203 71.1067 819.984 70.9717C819.807 70.8535 819.68 70.7396 819.604 70.6299C819.528 70.5117 819.49 70.3598 819.49 70.1741V66.009H820.731V70.1361C820.849 70.2205 821.018 70.3007 821.237 70.3767C821.465 70.4526 821.723 70.4906 822.01 70.4906C822.541 70.4906 822.968 70.3176 823.288 69.9715C823.617 69.6255 823.782 69.0896 823.782 68.3637C823.782 67.6294 823.617 67.0935 823.288 66.7559C822.968 66.4183 822.55 66.2495 822.035 66.2495C821.714 66.2495 821.427 66.3128 821.174 66.4394C820.929 66.5576 820.727 66.6968 820.566 66.8572L820.414 65.857C820.6 65.722 820.845 65.587 821.149 65.4519C821.453 65.3169 821.815 65.2494 822.237 65.2494ZM820.731 66.2748H819.49V63.1098C819.549 63.0929 819.63 63.0761 819.731 63.0592C819.841 63.0339 819.954 63.0212 820.073 63.0212C820.301 63.0212 820.465 63.0634 820.566 63.1478C820.676 63.2322 820.731 63.3799 820.731 63.5909V66.2748ZM827.018 69.0853L826.968 68.1612L830.601 67.6421C830.576 67.237 830.432 66.8994 830.171 66.6293C829.909 66.3592 829.546 66.2242 829.082 66.2242C828.593 66.2242 828.187 66.3972 827.867 66.7432C827.554 67.0808 827.394 67.5704 827.386 68.2118L827.398 68.6549C827.466 69.271 827.681 69.7352 828.044 70.0475C828.415 70.3514 828.905 70.5033 829.512 70.5033C829.867 70.5033 830.192 70.4484 830.487 70.3387C830.783 70.229 831.015 70.1066 831.184 69.9715C831.285 70.0391 831.365 70.1192 831.424 70.2121C831.492 70.3049 831.525 70.4104 831.525 70.5286C831.525 70.7143 831.433 70.8831 831.247 71.035C831.061 71.1785 830.812 71.2924 830.5 71.3768C830.188 71.4612 829.833 71.5034 829.437 71.5034C828.787 71.5034 828.217 71.3853 827.727 71.1489C827.246 70.9042 826.871 70.5455 826.601 70.0728C826.331 69.6002 826.196 69.0178 826.196 68.3257C826.196 67.8278 826.267 67.3889 826.411 67.0091C826.563 66.6293 826.769 66.3086 827.031 66.0469C827.293 65.7853 827.597 65.587 827.943 65.4519C828.297 65.3169 828.677 65.2494 829.082 65.2494C829.614 65.2494 830.082 65.3591 830.487 65.5785C830.892 65.798 831.209 66.106 831.437 66.5027C831.665 66.8994 831.779 67.3509 831.779 67.8573C831.779 68.0683 831.728 68.2202 831.627 68.3131C831.534 68.4059 831.395 68.465 831.209 68.4903L827.018 69.0853ZM833.088 63.5909C833.088 63.3883 833.159 63.2153 833.303 63.0718C833.446 62.9284 833.628 62.8566 833.847 62.8566C834.075 62.8566 834.256 62.9284 834.392 63.0718C834.535 63.2153 834.607 63.3883 834.607 63.5909C834.607 63.8019 834.535 63.9791 834.392 64.1226C834.256 64.2577 834.075 64.3252 833.847 64.3252C833.628 64.3252 833.446 64.2577 833.303 64.1226C833.159 63.9791 833.088 63.8019 833.088 63.5909ZM833.227 67.9839H834.467V71.3009C834.417 71.3177 834.341 71.3388 834.24 71.3642C834.138 71.3895 834.024 71.4021 833.898 71.4021C833.678 71.4021 833.51 71.3599 833.391 71.2755C833.282 71.1827 833.227 71.035 833.227 70.8324V67.9839ZM834.467 68.6043H833.227V65.4519C833.277 65.435 833.353 65.4182 833.455 65.4013C833.564 65.376 833.683 65.3633 833.809 65.3633C834.037 65.3633 834.202 65.4055 834.303 65.4899C834.413 65.5743 834.467 65.722 834.467 65.933V68.6043ZM841.583 67.4395V68.7055H840.342V67.5028C840.342 67.0724 840.22 66.7559 839.975 66.5533C839.73 66.3508 839.405 66.2495 839 66.2495C838.696 66.2495 838.422 66.2875 838.177 66.3634C837.941 66.4394 837.734 66.528 837.557 66.6293V68.7055H836.316V66.6166C836.316 66.431 836.354 66.279 836.43 66.1609C836.514 66.0343 836.641 65.9161 836.81 65.8064C837.046 65.6629 837.354 65.5363 837.734 65.4266C838.114 65.3084 838.536 65.2494 839 65.2494C839.81 65.2494 840.443 65.4308 840.899 65.7937C841.355 66.1567 841.583 66.7053 841.583 67.4395ZM836.316 68.0472H837.557V71.3009C837.506 71.3177 837.43 71.3388 837.329 71.3642C837.228 71.3895 837.118 71.4021 837 71.4021C836.772 71.4021 836.599 71.3599 836.481 71.2755C836.371 71.1827 836.316 71.035 836.316 70.8324V68.0472ZM840.342 68.0472H841.583V71.3009C841.532 71.3177 841.452 71.3388 841.342 71.3642C841.241 71.3895 841.131 71.4021 841.013 71.4021C840.785 71.4021 840.616 71.3599 840.507 71.2755C840.397 71.1827 840.342 71.035 840.342 70.8324V68.0472ZM845.819 71.1363C845.33 71.1363 844.874 71.0434 844.452 70.8578C844.038 70.6636 843.705 70.3514 843.452 69.9209C843.199 69.482 843.072 68.9081 843.072 68.1991C843.072 67.5493 843.199 67.0049 843.452 66.566C843.705 66.1271 844.055 65.798 844.503 65.5785C844.95 65.3591 845.469 65.2494 846.06 65.2494C846.465 65.2494 846.836 65.3 847.174 65.4013C847.52 65.5026 847.803 65.6249 848.022 65.7684C848.157 65.8613 848.267 65.9668 848.351 66.0849C848.436 66.1946 848.478 66.3339 848.478 66.5027V70.4273H847.25V66.566C847.115 66.4816 846.95 66.4099 846.756 66.3508C846.57 66.2833 846.343 66.2495 846.072 66.2495C845.549 66.2495 845.123 66.4099 844.794 66.7306C844.473 67.0513 844.313 67.5366 844.313 68.1865C844.313 68.9039 844.473 69.4103 844.794 69.7057C845.123 70.0011 845.524 70.1488 845.997 70.1488C846.343 70.1488 846.621 70.0897 846.832 69.9715C847.052 69.8449 847.229 69.7099 847.364 69.5664L847.414 70.6299C847.279 70.7565 847.077 70.8746 846.807 70.9844C846.537 71.0856 846.208 71.1363 845.819 71.1363ZM847.263 71.4528V70.1614H848.478V71.5161C848.478 72.0731 848.351 72.5247 848.098 72.8707C847.845 73.2252 847.503 73.4784 847.073 73.6303C846.642 73.7907 846.157 73.8708 845.617 73.8708C845.195 73.8708 844.828 73.8244 844.515 73.7316C844.203 73.6472 843.979 73.567 843.844 73.491C843.583 73.3391 843.452 73.1366 843.452 72.8834C843.452 72.7568 843.481 72.6428 843.54 72.5415C843.6 72.4487 843.676 72.377 843.768 72.3263C843.954 72.4614 844.207 72.5837 844.528 72.6935C844.857 72.8032 845.203 72.858 845.566 72.858C846.106 72.858 846.524 72.7441 846.819 72.5162C847.115 72.2883 847.263 71.9339 847.263 71.4528ZM858.723 67.237V68.6929H857.482V67.3636C857.482 66.9753 857.368 66.6926 857.14 66.5154C856.921 66.3381 856.634 66.2495 856.28 66.2495C856.035 66.2495 855.803 66.2875 855.583 66.3634C855.364 66.4394 855.178 66.528 855.026 66.6293V68.6929H853.785V66.6166C853.785 66.431 853.823 66.279 853.899 66.1609C853.984 66.0343 854.11 65.9161 854.279 65.8064C854.524 65.6545 854.828 65.5237 855.191 65.4139C855.554 65.3042 855.925 65.2494 856.305 65.2494C856.727 65.2494 857.107 65.3127 857.444 65.4393C857.782 65.5659 858.043 65.7473 858.229 65.9836C858.28 66.0427 858.326 66.0934 858.368 66.1356C858.411 66.1778 858.449 66.2326 858.482 66.3001C858.55 66.4099 858.605 66.5491 858.647 66.7179C858.698 66.8783 858.723 67.0513 858.723 67.237ZM862.42 67.3003V68.6929H861.179V67.3636C861.179 66.9753 861.069 66.6926 860.85 66.5154C860.63 66.3381 860.343 66.2495 859.989 66.2495C859.719 66.2495 859.457 66.3044 859.204 66.4141C858.959 66.5238 858.74 66.6799 858.546 66.8825L857.989 66.0469C858.225 65.8359 858.52 65.6503 858.875 65.4899C859.229 65.3295 859.643 65.2494 860.115 65.2494C860.563 65.2494 860.959 65.3211 861.306 65.4646C861.652 65.6081 861.922 65.8317 862.116 66.1356C862.318 66.4394 862.42 66.8276 862.42 67.3003ZM853.785 68.0472H855.026V71.3009C854.976 71.3177 854.9 71.3388 854.798 71.3642C854.697 71.3895 854.587 71.4021 854.469 71.4021C854.241 71.4021 854.068 71.3599 853.95 71.2755C853.84 71.1827 853.785 71.035 853.785 70.8324V68.0472ZM857.482 68.0472H858.723V71.3009C858.672 71.3177 858.592 71.3388 858.482 71.3642C858.381 71.3895 858.271 71.4021 858.153 71.4021C857.925 71.4021 857.757 71.3599 857.647 71.2755C857.537 71.1827 857.482 71.035 857.482 70.8324V68.0472ZM861.179 68.0472H862.42V71.3009C862.361 71.3177 862.276 71.3388 862.166 71.3642C862.065 71.3895 861.96 71.4021 861.85 71.4021C861.614 71.4021 861.441 71.3599 861.331 71.2755C861.23 71.1827 861.179 71.035 861.179 70.8324V68.0472ZM866.398 70.5286C866.711 70.5286 866.976 70.4991 867.196 70.44C867.415 70.3725 867.576 70.3049 867.677 70.2374V68.5663L866.234 68.7182C865.837 68.7435 865.537 68.8321 865.335 68.9841C865.141 69.1275 865.044 69.3385 865.044 69.6171C865.044 69.8956 865.153 70.1192 865.373 70.288C865.601 70.4484 865.942 70.5286 866.398 70.5286ZM866.373 65.2494C867.141 65.2494 867.753 65.4182 868.209 65.7558C868.664 66.0934 868.892 66.6251 868.892 67.3509V70.3134C868.892 70.5075 868.85 70.6594 868.766 70.7691C868.681 70.8704 868.567 70.9675 868.424 71.0603C868.204 71.1785 867.922 71.2798 867.576 71.3642C867.23 71.457 866.837 71.5034 866.398 71.5034C865.588 71.5034 864.955 71.3473 864.499 71.035C864.043 70.7143 863.816 70.2501 863.816 69.6424C863.816 69.0853 863.997 68.6591 864.36 68.3637C864.723 68.0683 865.238 67.8869 865.904 67.8193L867.677 67.6421V67.3509C867.677 66.9627 867.55 66.6799 867.297 66.5027C867.052 66.3255 866.719 66.2368 866.297 66.2368C865.959 66.2368 865.63 66.2833 865.309 66.3761C864.997 66.4689 864.719 66.5787 864.474 66.7053C864.398 66.6377 864.33 66.5576 864.271 66.4647C864.212 66.3719 864.183 66.2748 864.183 66.1735C864.183 65.9119 864.326 65.7178 864.613 65.5912C864.841 65.4815 865.107 65.3971 865.411 65.338C865.723 65.2789 866.044 65.2494 866.373 65.2494ZM874.612 70.1994V66.0596L875.84 66.0469V70.288C875.84 70.4569 875.802 70.5961 875.726 70.7058C875.659 70.8156 875.545 70.9168 875.384 71.0097C875.199 71.1278 874.941 71.2376 874.612 71.3388C874.283 71.4486 873.907 71.5034 873.485 71.5034C872.852 71.5034 872.295 71.3937 871.814 71.1743C871.342 70.9548 870.97 70.6172 870.7 70.1614C870.439 69.6972 870.308 69.1107 870.308 68.4017C870.308 67.659 870.439 67.0597 870.7 66.604C870.97 66.1398 871.329 65.798 871.776 65.5785C872.224 65.3591 872.717 65.2494 873.258 65.2494C873.587 65.2494 873.891 65.2916 874.169 65.376C874.448 65.4604 874.667 65.5659 874.827 65.6925V66.7939C874.684 66.642 874.49 66.5154 874.245 66.4141C874.009 66.3044 873.73 66.2495 873.41 66.2495C873.072 66.2495 872.764 66.3212 872.485 66.4647C872.207 66.6082 871.983 66.8403 871.814 67.161C871.654 67.4733 871.574 67.8911 871.574 68.4144C871.574 69.1402 871.747 69.6677 872.093 69.9969C872.439 70.326 872.899 70.4906 873.473 70.4906C873.743 70.4906 873.967 70.4611 874.144 70.402C874.321 70.3429 874.477 70.2754 874.612 70.1994ZM875.84 66.3255L874.6 66.3381V63.1098C874.659 63.0929 874.739 63.0761 874.84 63.0592C874.95 63.0339 875.06 63.0212 875.169 63.0212C875.406 63.0212 875.574 63.0634 875.676 63.1478C875.785 63.2322 875.84 63.3799 875.84 63.5909V66.3255ZM878.153 69.0853L878.102 68.1612L881.736 67.6421C881.711 67.237 881.567 66.8994 881.305 66.6293C881.044 66.3592 880.681 66.2242 880.217 66.2242C879.727 66.2242 879.322 66.3972 879.001 66.7432C878.689 67.0808 878.529 67.5704 878.52 68.2118L878.533 68.6549C878.6 69.271 878.816 69.7352 879.179 70.0475C879.55 70.3514 880.039 70.5033 880.647 70.5033C881.002 70.5033 881.327 70.4484 881.622 70.3387C881.917 70.229 882.149 70.1066 882.318 69.9715C882.419 70.0391 882.5 70.1192 882.559 70.2121C882.626 70.3049 882.66 70.4104 882.66 70.5286C882.66 70.7143 882.567 70.8831 882.382 71.035C882.196 71.1785 881.947 71.2924 881.635 71.3768C881.322 71.4612 880.968 71.5034 880.571 71.5034C879.921 71.5034 879.352 71.3853 878.862 71.1489C878.381 70.9042 878.005 70.5455 877.735 70.0728C877.465 69.6002 877.33 69.0178 877.33 68.3257C877.33 67.8278 877.402 67.3889 877.545 67.0091C877.697 66.6293 877.904 66.3086 878.166 66.0469C878.427 65.7853 878.731 65.587 879.077 65.4519C879.432 65.3169 879.812 65.2494 880.217 65.2494C880.748 65.2494 881.217 65.3591 881.622 65.5785C882.027 65.798 882.344 66.106 882.571 66.5027C882.799 66.8994 882.913 67.3509 882.913 67.8573C882.913 68.0683 882.863 68.2202 882.761 68.3131C882.668 68.4059 882.529 68.465 882.344 68.4903L878.153 69.0853ZM888.353 69.0853L888.302 68.1612L891.936 67.6421C891.91 67.237 891.767 66.8994 891.505 66.6293C891.243 66.3592 890.881 66.2242 890.416 66.2242C889.927 66.2242 889.522 66.3972 889.201 66.7432C888.889 67.0808 888.728 67.5704 888.72 68.2118L888.733 68.6549C888.8 69.271 889.015 69.7352 889.378 70.0475C889.75 70.3514 890.239 70.5033 890.847 70.5033C891.201 70.5033 891.526 70.4484 891.822 70.3387C892.117 70.229 892.349 70.1066 892.518 69.9715C892.619 70.0391 892.699 70.1192 892.758 70.2121C892.826 70.3049 892.86 70.4104 892.86 70.5286C892.86 70.7143 892.767 70.8831 892.581 71.035C892.396 71.1785 892.147 71.2924 891.834 71.3768C891.522 71.4612 891.168 71.5034 890.771 71.5034C890.121 71.5034 889.551 71.3853 889.062 71.1489C888.581 70.9042 888.205 70.5455 887.935 70.0728C887.665 69.6002 887.53 69.0178 887.53 68.3257C887.53 67.8278 887.602 67.3889 887.745 67.0091C887.897 66.6293 888.104 66.3086 888.365 66.0469C888.627 65.7853 888.931 65.587 889.277 65.4519C889.631 65.3169 890.011 65.2494 890.416 65.2494C890.948 65.2494 891.417 65.3591 891.822 65.5785C892.227 65.798 892.543 66.106 892.771 66.5027C892.999 66.8994 893.113 67.3509 893.113 67.8573C893.113 68.0683 893.062 68.2202 892.961 68.3131C892.868 68.4059 892.729 68.465 892.543 68.4903L888.353 69.0853ZM896.701 70.5286C897.013 70.5286 897.279 70.4991 897.498 70.44C897.718 70.3725 897.878 70.3049 897.979 70.2374V68.5663L896.536 68.7182C896.139 68.7435 895.84 68.8321 895.637 68.9841C895.443 69.1275 895.346 69.3385 895.346 69.6171C895.346 69.8956 895.456 70.1192 895.675 70.288C895.903 70.4484 896.245 70.5286 896.701 70.5286ZM896.675 65.2494C897.443 65.2494 898.055 65.4182 898.511 65.7558C898.967 66.0934 899.195 66.6251 899.195 67.3509V70.3134C899.195 70.5075 899.153 70.6594 899.068 70.7691C898.984 70.8704 898.87 70.9675 898.726 71.0603C898.507 71.1785 898.224 71.2798 897.878 71.3642C897.532 71.457 897.14 71.5034 896.701 71.5034C895.89 71.5034 895.257 71.3473 894.802 71.035C894.346 70.7143 894.118 70.2501 894.118 69.6424C894.118 69.0853 894.3 68.6591 894.662 68.3637C895.025 68.0683 895.54 67.8869 896.207 67.8193L897.979 67.6421V67.3509C897.979 66.9627 897.853 66.6799 897.6 66.5027C897.355 66.3255 897.021 66.2368 896.599 66.2368C896.262 66.2368 895.933 66.2833 895.612 66.3761C895.3 66.4689 895.021 66.5787 894.776 66.7053C894.7 66.6377 894.633 66.5576 894.574 66.4647C894.515 66.3719 894.485 66.2748 894.485 66.1735C894.485 65.9119 894.629 65.7178 894.916 65.5912C895.144 65.4815 895.409 65.3971 895.713 65.338C896.025 65.2789 896.346 65.2494 896.675 65.2494ZM905.269 69.7183C905.269 70.2754 905.062 70.7143 904.649 71.035C904.235 71.3473 903.636 71.5034 902.851 71.5034C902.193 71.5034 901.653 71.4021 901.231 71.1996C900.817 70.997 900.61 70.7607 900.61 70.4906C900.61 70.364 900.64 70.2501 900.699 70.1488C900.766 70.0391 900.855 69.9504 900.965 69.8829C901.193 70.0433 901.458 70.1868 901.762 70.3134C902.075 70.44 902.429 70.5033 902.826 70.5033C903.636 70.5033 904.041 70.2416 904.041 69.7183C904.041 69.4989 903.969 69.3217 903.826 69.1866C903.691 69.0431 903.484 68.9419 903.206 68.8828L902.294 68.6422C901.737 68.5072 901.328 68.3046 901.066 68.0346C900.804 67.756 900.674 67.4016 900.674 66.9711C900.674 66.49 900.868 66.0849 901.256 65.7558C901.653 65.4182 902.231 65.2494 902.99 65.2494C903.387 65.2494 903.737 65.2916 904.041 65.376C904.345 65.4519 904.581 65.5616 904.75 65.7051C904.927 65.8402 905.016 65.9921 905.016 66.1609C905.016 66.2875 904.986 66.4014 904.927 66.5027C904.868 66.5955 904.792 66.6673 904.699 66.7179C904.598 66.6504 904.463 66.5787 904.294 66.5027C904.134 66.4267 903.944 66.3634 903.725 66.3128C903.514 66.2622 903.29 66.2368 903.054 66.2368C902.699 66.2368 902.416 66.3001 902.205 66.4267C901.994 66.5533 901.889 66.7348 901.889 66.9711C901.889 67.1399 901.948 67.2876 902.066 67.4142C902.193 67.5324 902.395 67.6252 902.674 67.6927L903.446 67.8826C904.071 68.0261 904.531 68.2498 904.826 68.5536C905.121 68.849 905.269 69.2373 905.269 69.7183ZM907.667 69.9715C907.524 69.693 907.355 69.3343 907.161 68.8954C906.975 68.4481 906.781 67.9459 906.578 67.3889C906.376 66.8234 906.177 66.2326 905.983 65.6165C906.051 65.5237 906.144 65.4477 906.262 65.3886C906.38 65.3295 906.507 65.3 906.642 65.3C906.819 65.3 906.962 65.3422 907.072 65.4266C907.19 65.511 907.279 65.6587 907.338 65.8697C907.574 66.5533 907.819 67.2328 908.072 67.908C908.334 68.5832 908.617 69.2795 908.92 69.9969H908.971C909.14 69.6339 909.313 69.1951 909.49 68.6802C909.676 68.1654 909.849 67.6252 910.009 67.0597C910.178 66.4858 910.317 65.9414 910.427 65.4266C910.503 65.3928 910.583 65.3633 910.667 65.338C910.76 65.3127 910.857 65.3 910.959 65.3C911.127 65.3 911.271 65.3422 911.389 65.4266C911.507 65.511 911.566 65.6418 911.566 65.8191C911.566 65.9794 911.528 66.2242 911.452 66.5533C911.385 66.8741 911.284 67.2412 911.149 67.6548C911.022 68.0683 910.874 68.503 910.705 68.9587C910.537 69.4061 910.355 69.8492 910.161 70.288C909.975 70.7185 909.785 71.111 909.591 71.4654C909.186 72.1997 908.815 72.761 908.477 73.1492C908.14 73.5375 907.819 73.7316 907.515 73.7316C907.296 73.7316 907.118 73.6683 906.983 73.5417C906.857 73.4235 906.781 73.2758 906.756 73.0986C906.933 72.9382 907.131 72.7314 907.351 72.4782C907.578 72.2335 907.794 71.9676 907.996 71.6807C908.207 71.3937 908.38 71.1194 908.515 70.8578C908.372 70.8156 908.233 70.7354 908.097 70.6172C907.971 70.4991 907.827 70.2838 907.667 69.9715ZM911.679 70.6932C911.679 70.4653 911.751 70.2754 911.895 70.1235C912.038 69.9631 912.237 69.8829 912.49 69.8829C912.734 69.8829 912.924 69.9631 913.059 70.1235C913.203 70.2754 913.275 70.4653 913.275 70.6932C913.275 70.9211 913.203 71.1152 913.059 71.2755C912.924 71.4275 912.734 71.5034 912.49 71.5034C912.237 71.5034 912.038 71.4275 911.895 71.2755C911.751 71.1152 911.679 70.9211 911.679 70.6932Z" fill="#7A7A7A"/>
<path d="M642.699 26.1569H659.117C666.14 26.1569 671.17 27.2001 674.207 29.2866C676.927 31.1202 678.636 33.3331 679.331 35.9254C680.091 38.4544 680.47 41.8055 680.47 45.9784V71.6803H672.119V46.0733C672.119 44.9353 672.087 43.9868 672.024 43.2281C671.961 42.4063 671.739 41.3945 671.36 40.1932C670.98 38.9287 670.442 37.9171 669.746 37.1583C669.05 36.3364 668.038 35.6409 666.709 35.0718C665.381 34.4396 663.767 34.1234 661.869 34.1234H651.05V71.6803H642.699V26.1569Z" fill="#728373"/>
<path d="M697.121 32.1365C701.55 27.521 707.086 25.2132 713.729 25.2132C716.956 25.2132 719.961 25.8455 722.745 27.11C725.591 28.3113 728.059 29.9868 730.147 32.1365C732.298 34.2862 733.975 36.8153 735.178 39.7238C736.38 42.569 736.98 45.6354 736.98 48.9233C736.98 52.2111 736.38 55.3093 735.178 58.2177C734.038 61.0628 732.425 63.5602 730.337 65.7099C728.249 67.8596 725.782 69.5668 722.935 70.8314C720.088 72.0327 717.019 72.6333 713.729 72.6333C710.376 72.6333 707.276 72.0327 704.428 70.8314C701.645 69.5668 699.209 67.8596 697.121 65.7099C695.033 63.5602 693.388 61.0628 692.186 58.2177C691.047 55.3093 690.478 52.2111 690.478 48.9233C690.478 42.2213 692.692 36.6256 697.121 32.1365ZM713.729 33.1798C709.3 33.1798 705.725 34.634 703.005 37.5425C700.348 40.4509 699.019 44.2445 699.019 48.9233C699.019 53.602 700.348 57.3956 703.005 60.3041C705.725 63.2125 709.3 64.6668 713.729 64.6668C718.221 64.6668 721.796 63.2125 724.453 60.3041C727.11 57.3324 728.439 53.5389 728.439 48.9233C728.439 44.3077 727.11 40.5457 724.453 37.6373C721.796 34.6656 718.221 33.1798 713.729 33.1798Z" fill="#728373"/>
<path d="M806.768 39.3206C805.661 39.3206 804.634 39.516 803.689 39.907C802.744 40.2654 801.93 40.8194 801.245 41.5687C800.561 42.2855 800.023 43.1977 799.633 44.3057C799.241 45.3808 799.046 46.619 799.046 48.0201C799.046 50.8221 799.746 52.9725 801.147 54.4714C802.549 55.9375 804.422 56.6707 806.768 56.6707C808.137 56.6707 809.278 56.4914 810.19 56.133C811.102 55.742 811.917 55.3022 812.634 54.8134C812.992 55.0089 813.286 55.2534 813.513 55.5466C813.741 55.8399 813.856 56.1981 813.856 56.6217C813.856 57.0779 813.677 57.5015 813.319 57.8925C812.959 58.2835 812.455 58.6256 811.803 58.9189C811.183 59.2122 810.434 59.4401 809.555 59.6031C808.707 59.7985 807.779 59.8963 806.768 59.8963C805.074 59.8963 803.51 59.6519 802.076 59.1632C800.642 58.6745 799.404 57.9415 798.361 56.964C797.319 55.9865 796.504 54.7647 795.917 53.2984C795.331 51.7996 795.038 50.0401 795.038 48.0201C795.038 46.0325 795.347 44.3057 795.967 42.8395C796.585 41.3407 797.416 40.0862 798.459 39.0762C799.502 38.0662 800.724 37.3167 802.125 36.828C803.559 36.3067 805.074 36.046 806.671 36.046C807.681 36.046 808.61 36.1438 809.456 36.3392C810.337 36.5022 811.086 36.7466 811.706 37.0724C812.325 37.3982 812.798 37.7729 813.123 38.1964C813.481 38.5874 813.66 38.9947 813.66 39.4183C813.66 39.8093 813.547 40.1514 813.319 40.4446C813.089 40.7379 812.798 40.9659 812.438 41.1289C811.72 40.6402 810.939 40.2166 810.093 39.8582C809.246 39.4998 808.137 39.3206 806.768 39.3206Z" fill="#F6BF54"/>
<path d="M840.046 47.9713C840.046 49.7958 839.785 51.4412 839.264 52.9074C838.741 54.3735 837.992 55.6281 837.014 56.6707C836.069 57.7134 834.913 58.5116 833.544 59.0655C832.176 59.6194 830.645 59.8963 828.95 59.8963C827.256 59.8963 825.723 59.6194 824.355 59.0655C822.986 58.5116 821.813 57.7134 820.836 56.6707C819.859 55.6281 819.109 54.3735 818.588 52.9074C818.066 51.4412 817.806 49.7958 817.806 47.9713C817.806 46.1464 818.066 44.5011 818.588 43.035C819.141 41.5687 819.907 40.3143 820.885 39.2717C821.863 38.229 823.036 37.4308 824.405 36.8768C825.774 36.323 827.287 36.046 828.95 36.046C830.612 36.046 832.128 36.323 833.495 36.8768C834.864 37.4308 836.022 38.229 836.967 39.2717C837.943 40.3143 838.694 41.5687 839.214 43.035C839.769 44.5011 840.046 46.1464 840.046 47.9713ZM828.95 39.2717C826.735 39.2717 824.991 40.0374 823.72 41.5687C822.448 43.1002 821.813 45.2342 821.813 47.9713C821.813 50.7407 822.433 52.8912 823.67 54.4225C824.942 55.9212 826.702 56.6707 828.95 56.6707C831.197 56.6707 832.941 55.9051 834.18 54.3735C835.418 52.8422 836.038 50.7082 836.038 47.9713C836.038 45.2342 835.402 43.1002 834.131 41.5687C832.893 40.0374 831.166 39.2717 828.95 39.2717Z" fill="#F6BF54"/>
<path d="M854.256 56.7195C855.625 56.7195 856.748 56.5892 857.629 56.3286C858.541 56.0353 859.192 55.7584 859.583 55.4977V48.411L853.522 49.0464C851.828 49.2093 850.573 49.6003 849.758 50.2194C848.944 50.8058 848.536 51.6856 848.536 52.8585C848.536 54.0966 849.01 55.0579 849.955 55.7421C850.9 56.3938 852.333 56.7195 854.256 56.7195ZM854.206 36.046C857.042 36.046 859.29 36.6814 860.952 37.9521C862.614 39.2228 863.446 41.2266 863.446 43.9636V55.5467C863.446 56.2635 863.299 56.8173 863.006 57.2083C862.744 57.5667 862.337 57.9088 861.783 58.2347C861.002 58.6907 859.957 59.0817 858.655 59.4076C857.385 59.766 855.917 59.9452 854.256 59.9452C851.193 59.9452 848.814 59.3425 847.12 58.1369C845.457 56.9314 844.626 55.1882 844.626 52.9074C844.626 50.7569 845.327 49.1441 846.729 48.0689C848.129 46.9612 850.101 46.277 852.643 46.0162L859.583 45.332V43.9636C859.583 42.3344 859.095 41.1451 858.117 40.3958C857.139 39.6464 855.82 39.2717 854.159 39.2717C852.79 39.2717 851.502 39.4671 850.296 39.8582C849.091 40.2491 848.016 40.689 847.07 41.1778C846.809 40.9497 846.566 40.689 846.338 40.3958C846.142 40.1026 846.044 39.7767 846.044 39.4183C846.044 38.9622 846.158 38.5874 846.386 38.2942C846.615 38.001 846.973 37.724 847.461 37.4634C848.342 37.0072 849.351 36.6651 850.492 36.437C851.632 36.1763 852.871 36.046 854.206 36.046Z" fill="#F6BF54"/>
<path d="M881.041 39.3206C879.932 39.3206 878.905 39.516 877.96 39.907C877.015 40.2654 876.202 40.8194 875.518 41.5687C874.833 42.2855 874.296 43.1977 873.904 44.3057C873.512 45.3808 873.317 46.619 873.317 48.0201C873.317 50.8221 874.019 52.9725 875.418 54.4714C876.821 55.9375 878.694 56.6707 881.041 56.6707C882.408 56.6707 883.55 56.4914 884.461 56.133C885.374 55.742 886.188 55.3022 886.905 54.8134C887.263 55.0089 887.557 55.2534 887.785 55.5466C888.014 55.8399 888.128 56.1981 888.128 56.6217C888.128 57.0779 887.948 57.5015 887.59 57.8925C887.232 58.2835 886.726 58.6256 886.075 58.9189C885.456 59.2122 884.706 59.4401 883.826 59.6031C882.979 59.7985 882.05 59.8963 881.041 59.8963C879.346 59.8963 877.782 59.6519 876.347 59.1632C874.914 58.6745 873.676 57.9415 872.633 56.964C871.59 55.9865 870.776 54.7647 870.189 53.2984C869.603 51.7996 869.31 50.0401 869.31 48.0201C869.31 46.0325 869.618 44.3057 870.238 42.8395C870.857 41.3407 871.688 40.0862 872.731 39.0762C873.774 38.0662 874.994 37.3167 876.397 36.828C877.83 36.3067 879.346 36.046 880.942 36.046C881.953 36.046 882.881 36.1438 883.729 36.3392C884.608 36.5022 885.359 36.7466 885.977 37.0724C886.596 37.3982 887.069 37.7729 887.394 38.1964C887.753 38.5874 887.931 38.9947 887.931 39.4183C887.931 39.8093 887.818 40.1514 887.59 40.4446C887.363 40.7379 887.069 40.9659 886.709 41.1289C885.994 40.6402 885.212 40.2166 884.364 39.8582C883.516 39.4998 882.408 39.3206 881.041 39.3206Z" fill="#F6BF54"/>
<path d="M897.931 59.1636C897.769 59.2287 897.524 59.2938 897.199 59.3592C896.872 59.4568 896.514 59.5056 896.123 59.5056C894.722 59.5056 894.021 58.9193 894.021 57.7461V27.5913C894.184 27.5261 894.428 27.4609 894.754 27.3958C895.112 27.298 895.487 27.2491 895.879 27.2491C897.247 27.2491 897.931 27.8356 897.931 29.0086V37.8058C898.715 37.3497 899.626 36.9424 900.669 36.584C901.744 36.2256 902.95 36.0464 904.285 36.0464C905.654 36.0464 906.893 36.2256 908.001 36.584C909.141 36.9424 910.119 37.4963 910.934 38.2457C911.748 38.9625 912.384 39.8911 912.84 41.0315C913.296 42.1394 913.525 43.4426 913.525 44.9414V59.1636C913.362 59.2287 913.101 59.2938 912.742 59.3592C912.416 59.4568 912.073 59.5056 911.716 59.5056C910.314 59.5056 909.614 58.9193 909.614 57.7461V45.0391C909.614 43.0842 909.076 41.6343 908.001 40.6894C906.926 39.7445 905.507 39.2721 903.748 39.2721C902.608 39.2721 901.533 39.4838 900.522 39.9074C899.544 40.2984 898.681 40.7871 897.931 41.3736V59.1636Z" fill="#F6BF54"/>
<path d="M791.864 48.5105C791.671 35.6082 781.126 25.2067 768.138 25.2067C755.03 25.2067 744.403 35.7998 744.403 48.8683C744.403 61.9122 754.989 72.4884 768.063 72.5288H768.138H791.864V48.5105ZM768.138 61.2053C768.113 61.2053 768.089 61.2053 768.063 61.2053C765.625 61.1916 763.245 60.4599 761.222 59.102C759.199 57.7442 757.624 55.8208 756.694 53.5737C755.764 51.3263 755.521 48.8553 755.995 46.4707C756.469 44.0861 757.64 41.8944 759.36 40.1706C761.079 38.447 763.272 37.2682 765.661 36.7824C768.05 36.2966 770.53 36.5254 772.789 37.4401C775.049 38.3548 776.987 39.9146 778.36 41.9235C779.733 43.9325 780.48 46.3011 780.507 48.7321C780.507 48.7777 780.513 48.8224 780.513 48.8683C780.513 50.4883 780.194 52.0926 779.572 53.5895C778.95 55.0864 778.038 56.4463 776.889 57.5919C775.74 58.7375 774.376 59.6462 772.874 60.2662C771.373 60.8863 769.763 61.2053 768.138 61.2053Z" fill="#728373"/>
<path d="M791.864 48.5105C791.671 35.6082 781.126 25.2067 768.138 25.2067C755.03 25.2067 744.403 35.7998 744.403 48.8683C744.403 61.9122 754.989 72.4884 768.063 72.5288H768.138H791.864V48.5105ZM768.138 61.2053C768.113 61.2053 768.089 61.2053 768.063 61.2053C765.625 61.1916 763.245 60.4599 761.222 59.102C759.199 57.7442 757.624 55.8208 756.694 53.5737C755.764 51.3263 755.521 48.8553 755.995 46.4707C756.469 44.0861 757.64 41.8944 759.36 40.1706C761.079 38.447 763.272 37.2682 765.661 36.7824C768.05 36.2966 770.53 36.5254 772.789 37.4401C775.049 38.3548 776.987 39.9146 778.36 41.9235C779.733 43.9325 780.48 46.3011 780.507 48.7321C780.507 48.7777 780.513 48.8224 780.513 48.8683C780.513 50.4883 780.194 52.0926 779.572 53.5895C778.95 55.0864 778.038 56.4463 776.889 57.5919C775.74 58.7375 774.376 59.6462 772.874 60.2662C771.373 60.8863 769.763 61.2053 768.138 61.2053Z" fill="#728373"/>
<path d="M756.124 45.8939C756.582 44.037 757.469 42.3124 758.714 40.8567C759.958 39.4011 761.525 38.2546 763.291 37.5082C765.058 36.7618 766.974 36.4361 768.888 36.5569C770.803 36.6776 772.663 37.2416 774.321 38.2041C775.439 36.1141 778.486 31.3829 783.344 30.7196C779.08 27.1517 773.689 25.1994 768.121 25.2069C767.935 25.2069 767.76 25.2055 767.575 25.2097C764.988 26.6438 758.419 31.6214 756.124 45.8939Z" fill="url(#paint2_linear_1_23506)"/>
<path d="M780.142 51.8622C779.683 53.7192 778.81 55.4051 777.566 56.8607C776.322 58.3164 774.818 59.4445 773.051 60.1908C771.285 60.9372 769.385 61.3098 767.471 61.1891C765.556 61.0682 763.672 60.557 762.014 59.5945C760.896 61.6845 757.79 66.3755 752.931 67.0388C757.195 70.6066 762.669 72.557 768.237 72.5495C768.423 72.5495 768.607 72.5399 768.791 72.5357C771.378 71.1016 777.847 66.1348 780.142 51.8622Z" fill="url(#paint3_linear_1_23506)"/>
<path d="M762.182 48.8022L762.844 46.3374C762.326 46.1972 761.775 46.2302 761.278 46.4313C760.78 46.6323 760.362 46.9905 760.088 47.4511C759.814 47.9115 759.699 48.4489 759.76 48.9807C759.822 49.5126 760.056 50.0098 760.429 50.396C760.8 50.7823 761.289 51.0365 761.819 51.1196C762.35 51.2027 762.893 51.1102 763.366 50.8562C763.839 50.6021 764.215 50.2005 764.437 49.7131C764.659 49.2255 764.715 48.679 764.596 48.1569L762.182 48.8022Z" fill="#F6BF54"/>
<path d="M774.035 48.8022L774.698 46.3374C774.179 46.1972 773.63 46.2302 773.132 46.4313C772.634 46.6323 772.216 46.9905 771.942 47.4511C771.668 47.9115 771.553 48.4489 771.614 48.9807C771.676 49.5126 771.91 50.0098 772.282 50.396C772.654 50.7823 773.143 51.0365 773.673 51.1196C774.204 51.2027 774.747 51.1102 775.22 50.8562C775.692 50.6021 776.069 50.2005 776.291 49.7131C776.513 49.2255 776.568 48.679 776.449 48.1569L774.035 48.8022Z" fill="#F6BF54"/>
<path d="M918.702 29.9311L918.669 29.2457H920.733C920.755 29.2784 920.774 29.3246 920.79 29.3844C920.812 29.4388 920.823 29.5014 920.823 29.5721C920.823 29.6809 920.796 29.7679 920.741 29.8332C920.687 29.8985 920.614 29.9311 920.521 29.9311H918.702ZM919.012 29.2457L919.044 29.9311H916.972C916.955 29.893 916.936 29.8468 916.915 29.7924C916.898 29.7326 916.89 29.67 916.89 29.6047C916.89 29.4851 916.915 29.3953 916.964 29.3355C917.018 29.2756 917.094 29.2457 917.192 29.2457H919.012ZM918.44 29.7108H919.256V34.1903C919.224 34.2012 919.172 34.2148 919.101 34.2311C919.031 34.2475 918.957 34.2556 918.881 34.2556C918.729 34.2556 918.617 34.2257 918.547 34.1659C918.476 34.106 918.44 34.0081 918.44 33.8721V29.7108ZM924.525 32.9338C924.481 32.9664 924.421 32.9963 924.345 33.0235C924.274 33.0453 924.193 33.0562 924.1 33.0562C923.991 33.0562 923.896 33.0399 923.815 33.0072C923.739 32.9746 923.687 32.9229 923.66 32.8522C923.399 32.2702 923.17 31.7479 922.974 31.2856C922.784 30.8178 922.632 30.4288 922.517 30.1188H922.485C922.468 30.5104 922.452 30.8749 922.436 31.2121C922.419 31.5494 922.4 31.8758 922.379 32.1913C922.362 32.5013 922.346 32.8196 922.33 33.1459C922.313 33.4723 922.292 33.8232 922.264 34.1985C922.226 34.2148 922.175 34.2284 922.109 34.2393C922.044 34.2502 921.976 34.2556 921.905 34.2556C921.764 34.2556 921.661 34.2284 921.595 34.174C921.53 34.1196 921.497 34.0353 921.497 33.9211C921.497 33.8449 921.503 33.6899 921.514 33.456C921.525 33.2167 921.538 32.9311 921.555 32.5993C921.576 32.262 921.601 31.9057 921.628 31.5304C921.655 31.155 921.682 30.7851 921.71 30.4207C921.737 30.0508 921.764 29.7162 921.791 29.4171C921.835 29.3735 921.903 29.33 921.995 29.2865C922.093 29.243 922.21 29.2212 922.346 29.2212C922.504 29.2212 922.632 29.2512 922.729 29.311C922.833 29.3654 922.912 29.4551 922.966 29.5803C923.091 29.8359 923.219 30.1188 923.35 30.4288C923.48 30.7335 923.605 31.0408 923.725 31.3509C923.85 31.6609 923.97 31.9519 924.084 32.2239H924.117C924.334 31.6691 924.549 31.136 924.761 30.6247C924.979 30.1133 925.164 29.6782 925.316 29.3191C925.37 29.2865 925.441 29.262 925.528 29.2457C925.615 29.2294 925.702 29.2212 925.789 29.2212C925.942 29.2212 926.064 29.2457 926.156 29.2947C926.249 29.3436 926.306 29.4198 926.328 29.5231C926.35 29.621 926.374 29.7815 926.401 30.0045C926.428 30.2276 926.456 30.4887 926.483 30.7879C926.51 31.087 926.534 31.3998 926.556 31.7262C926.583 32.0526 926.608 32.3735 926.63 32.689C926.651 33.0045 926.67 33.2901 926.687 33.5457C926.709 33.8014 926.722 34.0027 926.728 34.1495C926.668 34.1876 926.605 34.2148 926.54 34.2311C926.48 34.2475 926.407 34.2556 926.32 34.2556C926.211 34.2556 926.116 34.2339 926.034 34.1903C925.958 34.1414 925.914 34.0544 925.903 33.9292C925.876 33.4234 925.849 32.9311 925.822 32.4524C925.795 31.9737 925.77 31.5358 925.748 31.1387C925.732 30.7362 925.719 30.4044 925.708 30.1433H925.667C925.564 30.4261 925.417 30.7879 925.226 31.2285C925.041 31.6691 924.807 32.2375 924.525 32.9338Z" fill="#7A7A7A"/>
</g>
<defs>
<linearGradient id="paint0_linear_1_23506" x1="231.15" y1="31.3744" x2="244.2" y2="41.9764" gradientUnits="userSpaceOnUse">
<stop stop-color="#3C4B3D"/>
<stop offset="0.24" stop-color="#546354"/>
<stop offset="0.53" stop-color="#6B7A6A"/>
<stop offset="0.72" stop-color="#738272"/>
</linearGradient>
<linearGradient id="paint1_linear_1_23506" x1="245.208" y1="66.3819" x2="232.157" y2="55.78" gradientUnits="userSpaceOnUse">
<stop stop-color="#3C4B3D"/>
<stop offset="0.24" stop-color="#546354"/>
<stop offset="0.53" stop-color="#6B7A6A"/>
<stop offset="0.72" stop-color="#738272"/>
</linearGradient>
<linearGradient id="paint2_linear_1_23506" x1="761.15" y1="31.3744" x2="774.2" y2="41.9764" gradientUnits="userSpaceOnUse">
<stop stop-color="#3C4B3D"/>
<stop offset="0.24" stop-color="#546354"/>
<stop offset="0.53" stop-color="#6B7A6A"/>
<stop offset="0.72" stop-color="#738272"/>
</linearGradient>
<linearGradient id="paint3_linear_1_23506" x1="775.208" y1="66.3819" x2="762.157" y2="55.78" gradientUnits="userSpaceOnUse">
<stop stop-color="#3C4B3D"/>
<stop offset="0.24" stop-color="#546354"/>
<stop offset="0.53" stop-color="#6B7A6A"/>
<stop offset="0.72" stop-color="#738272"/>
</linearGradient>
<clipPath id="clip0_1_23506">
<rect width="284.602" height="49.6076" fill="white" transform="translate(112.699 25.1955)"/>
</clipPath>
<clipPath id="clip1_1_23506">
<rect width="284.602" height="49.6076" fill="white" transform="translate(642.699 25.1955)"/>
</clipPath>
</defs>
</svg>
