<svg width="40" height="40" viewBox="0 0 100 100" fill="none" xmlns="http://www.w3.org/2000/svg">
<g clip-path="url(#clip0_893_20364)">
<path d="M76.5625 0H23.4375C10.4933 0 0 10.4933 0 23.4375V76.5625C0 89.5067 10.4933 100 23.4375 100H76.5625C89.5067 100 100 89.5067 100 76.5625V23.4375C100 10.4933 89.5067 0 76.5625 0Z" fill="#242938"/>
<path d="M46.8272 12.1547C48.7487 11.0551 51.251 11.05 53.1706 12.1547C62.8276 17.6118 72.4877 23.0598 82.1432 28.52C83.9596 29.543 85.1741 31.5641 85.1557 33.6567V66.4868C85.1694 68.6661 83.8346 70.7356 81.9186 71.7352C72.2932 77.1622 62.6725 82.5954 53.0487 88.0223C51.0881 89.1434 48.5354 89.0571 46.6354 87.8438C43.7498 86.1711 40.8592 84.5063 37.9733 82.8352C37.3834 82.4836 36.7186 82.2039 36.3022 81.6321C36.6706 81.136 37.3288 81.0743 37.8635 80.8575C39.0678 80.4743 40.1745 79.8594 41.2807 79.2629C41.5608 79.0715 41.9022 79.145 42.1706 79.3161C44.6381 80.7309 47.0842 82.1872 49.56 83.5883C50.0881 83.8934 50.6229 83.4883 51.0745 83.2368C60.5198 77.8981 69.9768 72.5801 79.4209 67.2399C79.7709 67.0715 79.9643 66.7 79.9358 66.3168C79.9424 55.4868 79.9373 44.6551 79.9393 33.8247C79.9791 33.3903 79.7276 32.9903 79.3342 32.8122C69.7424 27.4102 60.1549 22.0004 50.5647 16.5973C50.3986 16.483 50.2018 16.4216 50.0002 16.4213C49.7985 16.4209 49.6015 16.4816 49.435 16.5954C39.8444 22.0004 30.2592 27.4157 20.6686 32.8168C20.2768 32.9954 20.0139 33.3887 20.0604 33.8247C20.0624 44.6551 20.0604 55.4868 20.0604 66.3184C20.0438 66.5055 20.0849 66.6932 20.1782 66.8562C20.2715 67.0192 20.4125 67.1497 20.5823 67.2301C23.1413 68.6813 25.7038 70.1223 28.2647 71.5688C29.7077 72.345 31.4788 72.8067 33.0686 72.2118C34.4709 71.7086 35.4541 70.277 35.4276 68.7879C35.4409 58.0211 35.4209 47.2528 35.4373 36.4872C35.4022 36.0094 35.8557 35.6145 36.3206 35.6598C37.5502 35.6512 38.7815 35.643 40.0112 35.6629C40.5245 35.6512 40.8776 36.1661 40.8143 36.6473C40.8092 47.4825 40.8276 58.3176 40.8061 69.1524C40.8092 72.0403 39.6229 75.1825 36.9518 76.5954C33.6616 78.2997 29.5944 77.9383 26.3436 76.304C23.5295 74.8993 20.8436 73.2415 18.0795 71.7368C16.1584 70.7426 14.8303 68.6649 14.844 66.4872V33.6567C14.8237 31.5208 16.087 29.4629 17.9592 28.4547C27.5831 23.0239 37.2053 17.5883 46.8272 12.1547Z" fill="#81CD39"/>
<path d="M55.2234 34.8961C59.4207 34.6258 63.9141 34.736 67.691 36.804C70.6156 38.3883 72.2367 41.7141 72.2883 44.9629C72.2066 45.4008 71.7484 45.6426 71.3301 45.6126C70.1125 45.611 68.8941 45.6294 67.6766 45.6044C67.1598 45.6243 66.8598 45.1481 66.7949 44.6915C66.4449 43.1368 65.5969 41.5973 64.134 40.8473C61.8879 39.7231 59.284 39.7797 56.8348 39.8032C55.0469 39.8977 53.1242 40.0528 51.6094 41.104C50.4465 41.9004 50.0934 43.5083 50.5082 44.8032C50.8996 45.7329 51.9726 46.0329 52.8512 46.3094C57.9094 47.6325 63.2695 47.5004 68.2312 49.2415C70.2855 49.9512 72.2949 51.3313 72.998 53.4821C73.918 56.3649 73.5148 59.8102 71.4637 62.1243C69.8004 64.0286 67.3781 65.0653 64.9621 65.6282C61.748 66.345 58.4125 66.3633 55.1484 66.045C52.0793 65.695 48.8852 64.8887 46.516 62.7977C44.4898 61.0383 43.5004 58.2969 43.5984 55.6516C43.6219 55.2047 44.0668 54.893 44.4949 54.9297C45.7211 54.92 46.9476 54.9165 48.1738 54.9317C48.6641 54.8965 49.0269 55.32 49.0523 55.7817C49.2781 57.2626 49.8348 58.8172 51.1266 59.695C53.6187 61.3032 56.7465 61.193 59.6004 61.2379C61.9648 61.1333 64.6191 61.1016 66.5484 59.5387C67.5664 58.6473 67.868 57.1559 67.593 55.8731C67.2949 54.7899 66.1617 54.2852 65.1887 53.9551C60.1953 52.3758 54.775 52.9489 49.8301 51.1626C47.8223 50.4532 45.8809 49.1118 45.1098 47.0493C44.0336 44.1301 44.5266 40.5192 46.7926 38.2836C49.0019 36.059 52.191 35.2024 55.2234 34.8961Z" fill="#81CD39"/>
</g>
<defs>
<clipPath id="clip0_893_20364">
<rect width="100" height="100" fill="white"/>
</clipPath>
</defs>
</svg>
