<svg width="41" height="40" viewBox="0 0 41 40" fill="none" xmlns="http://www.w3.org/2000/svg">
<g clip-path="url(#clip0_373_19462)">
<path d="M40.3186 20C40.3186 8.955 31.4453 0 20.5019 0C9.55859 0 0.683594 8.955 0.683594 20C0.683594 31.045 9.55693 40 20.5019 40C23.8586 40 27.0186 39.1533 29.7903 37.6667C30.8236 38.2567 32.0203 38.5967 33.2986 38.5967C37.1753 38.5967 40.3186 35.4883 40.3186 31.655C40.3186 30.0783 39.7869 28.625 38.8903 27.46C39.8103 25.155 40.3186 22.6367 40.3186 20ZM4.64859 20.0083C4.64859 10.9283 11.7636 3.56833 20.5403 3.56833C29.3169 3.56833 36.4319 10.9283 36.4319 20.0083C36.4319 21.7917 36.1553 23.5067 35.6469 25.1133C34.8932 24.8476 34.0995 24.7128 33.3003 24.715C29.4236 24.715 26.2803 27.8233 26.2803 31.6567C26.2803 32.8567 26.5886 33.985 27.1303 34.97C25.0714 35.9468 22.8207 36.4524 20.5419 36.45C11.7636 36.4483 4.64859 29.0867 4.64859 20.0083ZM33.3003 36.4483C30.7769 36.4833 28.5669 34.3367 28.6019 31.8017C28.6019 29.235 30.7053 27.155 33.3003 27.155C35.8119 27.1133 38.0386 29.2717 37.9986 31.8017C37.9986 34.3683 35.8936 36.4483 33.3003 36.4483Z" fill="#A177D4"/>
</g>
<defs>
<clipPath id="clip0_373_19462">
<rect width="40" height="40" fill="white" transform="translate(0.5)"/>
</clipPath>
</defs>
</svg>
