<svg width="124" height="38" viewBox="0 0 124 38" fill="none" xmlns="http://www.w3.org/2000/svg">
<path d="M35.7882 16.704C35.7882 17.3047 35.6466 17.8713 35.3632 18.404C35.0799 18.9367 34.6266 19.373 34.0032 19.713C33.3799 20.0417 32.5809 20.206 31.6062 20.206H29.4642V25H27.5262V13.185H31.6062C32.5129 13.185 33.2779 13.3437 33.9012 13.661C34.5359 13.967 35.0062 14.3863 35.3122 14.919C35.6296 15.4517 35.7882 16.0467 35.7882 16.704ZM31.6062 18.625C32.3429 18.625 32.8926 18.4607 33.2552 18.132C33.6179 17.792 33.7992 17.316 33.7992 16.704C33.7992 15.412 33.0682 14.766 31.6062 14.766L29.4642 14.766V18.625H31.6062ZM41.6996 25.153C40.8156 25.153 40.0166 24.9547 39.3026 24.558C38.5886 24.15 38.0276 23.5833 37.6196 22.858C37.2116 22.1213 37.0076 21.2713 37.0076 20.308C37.0076 19.356 37.2172 18.5117 37.6366 17.775C38.0559 17.0383 38.6282 16.4717 39.3536 16.075C40.0789 15.6783 40.8892 15.48 41.7846 15.48C42.6799 15.48 43.4902 15.6783 44.2156 16.075C44.9409 16.4717 45.5132 17.0383 45.9326 17.775C46.3519 18.5117 46.5616 19.356 46.5616 20.308C46.5616 21.26 46.3462 22.1043 45.9156 22.841C45.4849 23.5777 44.8956 24.15 44.1476 24.558C43.4109 24.9547 42.5949 25.153 41.6996 25.153ZM41.6996 23.47C42.1982 23.47 42.6629 23.351 43.0936 23.113C43.5356 22.875 43.8926 22.518 44.1646 22.042C44.4366 21.566 44.5726 20.988 44.5726 20.308C44.5726 19.628 44.4422 19.0557 44.1816 18.591C43.9209 18.115 43.5752 17.758 43.1446 17.52C42.7139 17.282 42.2492 17.163 41.7506 17.163C41.2519 17.163 40.7872 17.282 40.3566 17.52C39.9372 17.758 39.6029 18.115 39.3536 18.591C39.1042 19.0557 38.9796 19.628 38.9796 20.308C38.9796 21.3167 39.2346 22.0987 39.7446 22.654C40.2659 23.198 40.9176 23.47 41.6996 23.47ZM50.4154 16.993C50.6987 16.517 51.0727 16.1487 51.5374 15.888C52.0134 15.616 52.5744 15.48 53.2204 15.48V17.486H52.7274C51.9681 17.486 51.3901 17.6787 50.9934 18.064C50.6081 18.4493 50.4154 19.118 50.4154 20.07V25H48.4774V15.633H50.4154V16.993ZM57.2628 17.214V22.399C57.2628 22.7503 57.3421 23.0053 57.5008 23.164C57.6708 23.3113 57.9541 23.385 58.3508 23.385H59.5408V25H58.0108C57.1381 25 56.4695 24.796 56.0048 24.388C55.5401 23.98 55.3078 23.317 55.3078 22.399V17.214H54.2028V15.633H55.3078V13.304H57.2628V15.633H59.5408V17.214H57.2628ZM65.254 17.214H63.52V25H61.565V17.214H60.46V15.633H61.565V14.97C61.565 13.8933 61.8483 13.1113 62.415 12.624C62.993 12.1253 63.894 11.876 65.118 11.876V13.491C64.5287 13.491 64.115 13.6043 63.877 13.831C63.639 14.0463 63.52 14.426 63.52 14.97V15.633H65.254V17.214ZM71.0345 25.153C70.1505 25.153 69.3515 24.9547 68.6375 24.558C67.9235 24.15 67.3625 23.5833 66.9545 22.858C66.5465 22.1213 66.3425 21.2713 66.3425 20.308C66.3425 19.356 66.5522 18.5117 66.9715 17.775C67.3909 17.0383 67.9632 16.4717 68.6885 16.075C69.4139 15.6783 70.2242 15.48 71.1195 15.48C72.0149 15.48 72.8252 15.6783 73.5505 16.075C74.2759 16.4717 74.8482 17.0383 75.2675 17.775C75.6869 18.5117 75.8965 19.356 75.8965 20.308C75.8965 21.26 75.6812 22.1043 75.2505 22.841C74.8199 23.5777 74.2305 24.15 73.4825 24.558C72.7459 24.9547 71.9299 25.153 71.0345 25.153ZM71.0345 23.47C71.5332 23.47 71.9979 23.351 72.4285 23.113C72.8705 22.875 73.2275 22.518 73.4995 22.042C73.7715 21.566 73.9075 20.988 73.9075 20.308C73.9075 19.628 73.7772 19.0557 73.5165 18.591C73.2559 18.115 72.9102 17.758 72.4795 17.52C72.0489 17.282 71.5842 17.163 71.0855 17.163C70.5869 17.163 70.1222 17.282 69.6915 17.52C69.2722 17.758 68.9379 18.115 68.6885 18.591C68.4392 19.0557 68.3145 19.628 68.3145 20.308C68.3145 21.3167 68.5695 22.0987 69.0795 22.654C69.6009 23.198 70.2525 23.47 71.0345 23.47ZM79.7504 12.42V25H77.8124V12.42H79.7504ZM83.2808 14.392C82.9294 14.392 82.6348 14.273 82.3968 14.035C82.1588 13.797 82.0398 13.5023 82.0398 13.151C82.0398 12.7997 82.1588 12.505 82.3968 12.267C82.6348 12.029 82.9294 11.91 83.2808 11.91C83.6208 11.91 83.9098 12.029 84.1478 12.267C84.3858 12.505 84.5048 12.7997 84.5048 13.151C84.5048 13.5023 84.3858 13.797 84.1478 14.035C83.9098 14.273 83.6208 14.392 83.2808 14.392ZM84.2328 15.633V25H82.2948V15.633H84.2328ZM90.8402 25.153C89.9562 25.153 89.1572 24.9547 88.4432 24.558C87.7292 24.15 87.1682 23.5833 86.7602 22.858C86.3522 22.1213 86.1482 21.2713 86.1482 20.308C86.1482 19.356 86.3579 18.5117 86.7772 17.775C87.1965 17.0383 87.7689 16.4717 88.4942 16.075C89.2195 15.6783 90.0299 15.48 90.9252 15.48C91.8205 15.48 92.6309 15.6783 93.3562 16.075C94.0815 16.4717 94.6539 17.0383 95.0732 17.775C95.4925 18.5117 95.7022 19.356 95.7022 20.308C95.7022 21.26 95.4869 22.1043 95.0562 22.841C94.6255 23.5777 94.0362 24.15 93.2882 24.558C92.5515 24.9547 91.7355 25.153 90.8402 25.153ZM90.8402 23.47C91.3389 23.47 91.8035 23.351 92.2342 23.113C92.6762 22.875 93.0332 22.518 93.3052 22.042C93.5772 21.566 93.7132 20.988 93.7132 20.308C93.7132 19.628 93.5829 19.0557 93.3222 18.591C93.0615 18.115 92.7159 17.758 92.2852 17.52C91.8545 17.282 91.3899 17.163 90.8912 17.163C90.3925 17.163 89.9279 17.282 89.4972 17.52C89.0779 17.758 88.7435 18.115 88.4942 18.591C88.2449 19.0557 88.1202 19.628 88.1202 20.308C88.1202 21.3167 88.3752 22.0987 88.8852 22.654C89.4065 23.198 90.0582 23.47 90.8402 23.47Z" fill="#FF4883"/>
<path d="M122.648 19C122.648 21.3889 121.088 23.7579 118.046 25.9927C115.015 28.22 110.595 30.2468 105.09 31.9575C94.084 35.3772 78.8494 37.5 61.9999 37.5C45.1503 37.5 29.9157 35.3772 18.9102 31.9575C13.4044 30.2468 8.98523 28.22 5.95337 25.9927C2.91131 23.7579 1.35205 21.3889 1.35205 19C1.35205 16.6111 2.91131 14.2421 5.95337 12.0073C8.98523 9.78 13.4044 7.75322 18.9102 6.04245C29.9157 2.62279 45.1503 0.5 61.9999 0.5C78.8494 0.5 94.084 2.62279 105.09 6.04245C110.595 7.75322 115.015 9.78 118.046 12.0073C121.088 14.2421 122.648 16.6111 122.648 19Z" stroke="#FF4883"/>
</svg>
