<svg width="80" height="80" viewBox="0 0 100 100" fill="none" xmlns="http://www.w3.org/2000/svg">
<path d="M6.25 37.9166C6.25 26.8323 6.25 21.2901 8.40716 17.0564C10.3047 13.3324 13.3324 10.3047 17.0564 8.40716C21.2901 6.25 26.8323 6.25 37.9166 6.25H62.0834C73.1678 6.25 78.71 6.25 82.9434 8.40716C86.6675 10.3047 89.6953 13.3324 91.5928 17.0564C93.75 21.2901 93.75 26.8323 93.75 37.9166V62.0834C93.75 73.1678 93.75 78.71 91.5928 82.9434C89.6953 86.6675 86.6675 89.6953 82.9434 91.5928C78.71 93.75 73.1678 93.75 62.0834 93.75H37.9166C26.8323 93.75 21.2901 93.75 17.0564 91.5928C13.3324 89.6953 10.3047 86.6675 8.40716 82.9434C6.25 78.71 6.25 73.1678 6.25 62.0834V37.9166Z" fill="#001E36"/>
<path d="M25 70.3631V31.8856C25 31.6241 25.1094 31.4744 25.3646 31.4744C29.1322 31.4744 32.8981 31.25 36.6666 31.25C42.7819 31.25 49.4031 33.3409 51.7241 39.7381C52.2709 41.3087 52.5625 42.9166 52.5625 44.5994C52.5625 47.8153 51.8334 50.47 50.375 52.5641C46.3013 58.4134 39.2406 58.3225 32.9116 58.3225V70.3259C32.9609 70.6812 32.6581 70.8494 32.3647 70.8494H25.4375C25.1458 70.8494 25 70.6997 25 70.3631ZM32.9478 38.6912V51.2553C35.4575 51.4391 38.0834 51.4591 40.4947 50.6572C43.1569 49.8891 44.6147 47.585 44.6147 44.8238C44.6884 42.4709 43.4066 40.2134 41.2241 39.3644C38.8419 38.3737 35.5194 38.3144 32.9478 38.6912Z" fill="#31A8FF"/>
<path d="M75.3015 48.7737C74.1983 48.1922 73.0233 47.7668 71.8087 47.5093C70.248 47.1422 64.0924 45.8559 64.0899 49.0747C64.1446 50.8715 66.9971 51.7519 68.2574 52.2653C72.6821 53.7844 77.689 56.4997 77.5905 61.9581C77.7258 68.7531 71.1421 71.4697 65.4987 71.4703C62.5608 71.5006 59.5002 71.0456 56.8115 69.7843C56.5546 69.6484 56.3896 69.3581 56.4005 69.0618V62.56C56.3715 62.2993 56.6515 62.0715 56.8702 62.259C59.5046 63.8522 62.6271 64.6259 65.6749 64.6672C67.0202 64.6672 69.6865 64.5368 69.6665 62.56C69.6665 60.6631 66.4768 59.7909 65.2052 59.309C63.3621 58.6512 61.6146 57.7397 60.0105 56.6C57.7686 55.0009 56.3624 52.4372 56.4005 49.6165C56.3874 43.2184 62.4477 40.3465 67.9055 40.3453C70.4568 40.324 73.1968 40.5131 75.5718 41.5493C75.9133 41.6497 75.984 42.0097 75.9827 42.3318V48.4125C76.0043 48.79 75.5852 48.9184 75.3015 48.7737Z" fill="#31A8FF"/>
</svg>
