<svg width="41" height="40" viewBox="0 0 41 40" fill="none" xmlns="http://www.w3.org/2000/svg">
<g clip-path="url(#clip0_4_3956)">
<path d="M26.6665 29.6667C26.4914 29.798 26.2921 29.8935 26.0801 29.9479C25.8681 30.0022 25.6474 30.0142 25.4308 29.9832C25.2141 29.9523 25.0056 29.879 24.8173 29.7675C24.629 29.6559 24.4644 29.5084 24.3331 29.3333C24.2018 29.1582 24.1063 28.959 24.0519 28.747C23.9976 28.5349 23.9856 28.3143 24.0165 28.0976C24.0475 27.881 24.1208 27.6725 24.2323 27.4842C24.3438 27.2958 24.4914 27.1313 24.6665 27C27.2731 25.045 28.7665 23.1433 29.6215 21.4833C28.4475 21.7855 27.2086 21.7145 26.0769 21.2801C24.9451 20.8457 23.9769 20.0695 23.3066 19.0594C22.6364 18.0493 22.2975 16.8555 22.337 15.6439C22.3766 14.4324 22.7926 13.2632 23.5272 12.299C24.2619 11.3347 25.2787 10.6233 26.4363 10.2636C27.5939 9.90386 28.8348 9.91372 29.9866 10.2918C31.1384 10.6699 32.1437 11.3974 32.8629 12.3732C33.5822 13.349 33.9795 14.5246 33.9998 15.7367C34.2134 17.7835 33.9227 19.8514 33.1531 21.76C32.1581 24.27 30.2131 27.0067 26.6665 29.6667ZM11.6665 29.6667C11.4914 29.798 11.2921 29.8935 11.0801 29.9479C10.8681 30.0022 10.6474 30.0142 10.4307 29.9832C10.2141 29.9523 10.0056 29.879 9.8173 29.7675C9.62897 29.6559 9.46444 29.5084 9.33312 29.3333C9.2018 29.1582 9.10625 28.959 9.05193 28.747C8.99761 28.5349 8.98558 28.3143 9.01654 28.0976C9.04749 27.881 9.12082 27.6725 9.23233 27.4842C9.34384 27.2958 9.49136 27.1313 9.66645 27C12.2731 25.045 13.7665 23.1433 14.6215 21.4833C13.4475 21.7855 12.2086 21.7145 11.0769 21.2801C9.94515 20.8457 8.97688 20.0695 8.30665 19.0594C7.63641 18.0493 7.29751 16.8555 7.33704 15.6439C7.37657 14.4324 7.79257 13.2632 8.52722 12.299C9.26187 11.3347 10.2787 10.6233 11.4363 10.2636C12.5939 9.90386 13.8348 9.91372 14.9866 10.2918C16.1384 10.6699 17.1437 11.3974 17.8629 12.3732C18.5822 13.349 18.9795 14.5246 18.9998 15.7367C19.2134 17.7835 18.9227 19.8514 18.1531 21.76C17.1565 24.27 15.2131 27.0067 11.6665 29.6667Z" fill="#FF4883"/>
</g>
<defs>
<clipPath id="clip0_4_3956">
<rect width="40" height="40" fill="white" transform="matrix(-1 0 0 -1 40.6665 40)"/>
</clipPath>
</defs>
</svg>
