<svg width="51" height="50" viewBox="0 0 51 50" fill="none" xmlns="http://www.w3.org/2000/svg">
<g clip-path="url(#clip0_815_17252)">
<path d="M17.8318 12.9167C18.0507 12.7525 18.2998 12.6331 18.5648 12.5652C18.8298 12.4973 19.1056 12.4822 19.3765 12.5209C19.6473 12.5596 19.9079 12.6513 20.1433 12.7907C20.3787 12.9301 20.5844 13.1145 20.7485 13.3333C20.9127 13.5522 21.0321 13.8013 21.1 14.0663C21.1679 14.3313 21.1829 14.6071 21.1442 14.878C21.1055 15.1488 21.0139 15.4094 20.8745 15.6448C20.7351 15.8802 20.5507 16.0858 20.3318 16.25C17.0735 18.6938 15.2068 21.0708 14.1381 23.1458C15.6055 22.7681 17.1542 22.8569 18.5688 23.3999C19.9835 23.9429 21.1938 24.9132 22.0316 26.1758C22.8694 27.4384 23.293 28.9306 23.2436 30.4451C23.1942 31.9595 22.6742 33.421 21.7559 34.6263C20.8376 35.8316 19.5666 36.7209 18.1195 37.1705C16.6725 37.6202 15.1214 37.6078 13.6817 37.1353C12.242 36.6627 10.9853 35.7533 10.0862 34.5335C9.1872 33.3138 8.69051 31.8442 8.66518 30.3292C8.39823 27.7707 8.76158 25.1857 9.72351 22.8C10.9673 19.6625 13.3985 16.2417 17.8318 12.9167ZM36.5818 12.9167C36.8007 12.7525 37.0498 12.6331 37.3148 12.5652C37.5798 12.4973 37.8556 12.4822 38.1265 12.5209C38.3973 12.5596 38.6579 12.6513 38.8933 12.7907C39.1287 12.9301 39.3344 13.1145 39.4985 13.3333C39.6627 13.5522 39.7821 13.8013 39.85 14.0663C39.9179 14.3313 39.9329 14.6071 39.8942 14.878C39.8556 15.1488 39.7639 15.4094 39.6245 15.6448C39.4851 15.8802 39.3007 16.0858 39.0818 16.25C35.8235 18.6938 33.9568 21.0708 32.8881 23.1458C34.3555 22.7681 35.9042 22.8569 37.3188 23.3999C38.7335 23.9429 39.9438 24.9132 40.7816 26.1758C41.6194 27.4384 42.043 28.9306 41.9936 30.4451C41.9442 31.9595 41.4242 33.421 40.5059 34.6263C39.5876 35.8316 38.3166 36.7209 36.8695 37.1705C35.4225 37.6202 33.8714 37.6078 32.4317 37.1353C30.992 36.6627 29.7353 35.7533 28.8362 34.5335C27.9372 33.3138 27.4405 31.8442 27.4152 30.3292C27.1482 27.7707 27.5116 25.1857 28.4735 22.8C29.7193 19.6625 32.1485 16.2417 36.5818 12.9167Z" fill="#00EAD4"/>
</g>
<defs>
<clipPath id="clip0_815_17252">
<rect width="50" height="50" fill="white" transform="translate(0.332031)"/>
</clipPath>
</defs>
</svg>
