<svg width="45" height="45" viewBox="0 0 45 45" fill="none" xmlns="http://www.w3.org/2000/svg">
<rect width="45" height="45" rx="10" fill="#FF4883" fill-opacity="0.1"/>
<path d="M33.9794 12.5H11.0206C10.4569 12.5 10 12.9569 10 13.5206V31.4794C10 32.0431 10.4569 32.5 11.0206 32.5H33.9794C34.5431 32.5 35 32.0431 35 31.4794V13.5206C35 12.9569 34.5431 12.5 33.9794 12.5Z" stroke="#FF4883" stroke-width="1.5625"/>
<path d="M17.5 19.3418C16.25 17.4993 14.0612 18.7105 14.2181 20.6043C14.375 22.4993 16.875 22.4993 17.0306 24.3943C17.1875 26.288 15 27.4993 13.75 25.6562M23.75 18.7493H21.25V26.8743H23.75M21.25 23.1243H23.75" stroke="#FF4883" stroke-width="1.5625" stroke-linecap="round" stroke-linejoin="round"/>
<path d="M31.25 20.625C31.25 19.5895 30.4105 18.75 29.375 18.75C28.3395 18.75 27.5 19.5895 27.5 20.625V25C27.5 26.0355 28.3395 26.875 29.375 26.875C30.4105 26.875 31.25 26.0355 31.25 25V20.625Z" stroke="#FF4883" stroke-width="1.5625" stroke-linecap="round" stroke-linejoin="round"/>
</svg>
