<svg width="57" height="57" viewBox="0 0 57 57" fill="none" xmlns="http://www.w3.org/2000/svg">
<rect x="1.39045" y="1.70002" width="54.0807" height="54.0807" rx="27.0404" fill="#DAC4FF"/>
<rect x="1.39045" y="1.70002" width="54.0807" height="54.0807" rx="27.0404" stroke="black" stroke-width="2.42152"/>
<path d="M30.5319 10.2375C30.3979 10.5371 30.3407 12.6171 30.3736 14.8401L30.445 18.9292L29.0543 19.2829C28.2637 19.443 27.5351 19.5793 27.4067 19.5219C27.2783 19.4645 27.045 17.4599 26.8173 15.0984C26.5026 11.2087 25.7794 9.0364 24.9123 9.36759C24.7456 9.39576 24.3731 11.9511 24.0615 14.9444L23.5205 20.403L19.9473 21.7322C16.7221 22.8576 16.4361 23.0378 17.2346 23.549C17.6907 23.9071 19.1705 24.1581 20.4938 24.1849C21.8361 24.169 22.9499 24.2049 23.0355 24.2432C23.3351 24.3772 23.2028 30.07 22.8966 30.7547C22.7243 31.1399 21.328 31.8506 19.7751 32.3373C18.1794 32.8048 17.0116 33.4638 17.1062 33.7115C17.2008 33.9592 18.4757 34.324 19.9082 34.4511C21.3835 34.5973 22.6966 34.8765 22.8768 35.1625C23.0762 35.4057 23.3749 37.953 23.5396 40.8C23.9773 47.0557 24.6397 48.7899 26.0145 47.0938C26.3726 46.6376 26.879 43.7828 27.1388 40.5608L27.6472 34.8309L28.9952 34.4579L30.324 34.1278L30.6027 39.1313C30.7844 42.8589 31.0763 44.2733 31.6754 44.5413C32.8309 45.058 33.7406 42.7944 34.5576 37.4079C34.8963 35.0429 35.2531 33.0968 35.3578 33.0923C36.8241 33.0291 41.6979 31.203 41.9658 30.6039C42.4635 29.4912 41.6549 29.2323 38.2032 29.486L35.1896 29.679L35.0068 26.4131C34.9064 24.5707 34.7913 22.8759 34.7823 22.6664C34.7924 22.4142 36.2124 21.7653 37.9083 21.1885C39.6043 20.6118 41.1054 19.8965 41.2202 19.6397C41.7178 18.527 40.2909 18.0429 37.4486 18.3124C35.8393 18.4657 34.373 18.529 34.2019 18.4524C33.9879 18.3567 33.4347 16.7227 32.9109 14.7936C31.9769 11.1405 30.9721 9.25317 30.5319 10.2375ZM30.4457 24.7841C30.5629 25.5555 30.5879 27.1073 30.49 28.2448C30.3618 30.139 30.2233 30.3338 29.3281 30.4983C28.8089 30.6256 28.1805 30.6527 28.0093 30.5762C27.7954 30.4805 27.5992 28.8521 27.5179 26.9669C27.4162 23.6346 27.4117 23.5299 28.4928 23.2944C30.0119 22.998 30.164 23.1174 30.4457 24.7841Z" fill="black"/>
</svg>
