<svg width="112" height="42" viewBox="0 0 112 42" fill="none" xmlns="http://www.w3.org/2000/svg">
<path d="M25.1428 26.619C24.3495 26.619 23.6355 26.483 23.0008 26.211C22.3662 25.9277 21.8675 25.531 21.5048 25.021C21.1422 24.511 20.9608 23.916 20.9608 23.236H23.0348C23.0802 23.746 23.2785 24.1653 23.6298 24.494C23.9925 24.8227 24.4968 24.987 25.1428 24.987C25.8115 24.987 26.3328 24.8283 26.7068 24.511C27.0808 24.1823 27.2678 23.763 27.2678 23.253C27.2678 22.8563 27.1488 22.5333 26.9108 22.284C26.6842 22.0347 26.3952 21.842 26.0438 21.706C25.7038 21.57 25.2278 21.4227 24.6158 21.264C23.8452 21.06 23.2162 20.856 22.7288 20.652C22.2528 20.4367 21.8448 20.108 21.5048 19.666C21.1648 19.224 20.9948 18.6347 20.9948 17.898C20.9948 17.218 21.1648 16.623 21.5048 16.113C21.8448 15.603 22.3208 15.212 22.9328 14.94C23.5448 14.668 24.2532 14.532 25.0578 14.532C26.2025 14.532 27.1375 14.821 27.8628 15.399C28.5995 15.9657 29.0075 16.7477 29.0868 17.745H26.9448C26.9108 17.3143 26.7068 16.946 26.3328 16.64C25.9588 16.334 25.4658 16.181 24.8538 16.181C24.2985 16.181 23.8452 16.3227 23.4938 16.606C23.1425 16.8893 22.9668 17.2973 22.9668 17.83C22.9668 18.1927 23.0745 18.493 23.2898 18.731C23.5165 18.9577 23.7998 19.139 24.1398 19.275C24.4798 19.411 24.9445 19.5583 25.5338 19.717C26.3158 19.9323 26.9505 20.1477 27.4378 20.363C27.9365 20.5783 28.3558 20.9127 28.6958 21.366C29.0472 21.808 29.2228 22.403 29.2228 23.151C29.2228 23.7517 29.0585 24.3183 28.7298 24.851C28.4125 25.3837 27.9422 25.8143 27.3188 26.143C26.7068 26.4603 25.9815 26.619 25.1428 26.619ZM40.0946 21.587C40.0946 21.9383 40.0719 22.2557 40.0266 22.539H32.8696C32.9263 23.287 33.2039 23.8877 33.7026 24.341C34.2013 24.7943 34.8133 25.021 35.5386 25.021C36.5813 25.021 37.3179 24.5847 37.7486 23.712H39.8396C39.5563 24.5733 39.0406 25.2817 38.2926 25.837C37.5559 26.381 36.6379 26.653 35.5386 26.653C34.6433 26.653 33.8386 26.4547 33.1246 26.058C32.4219 25.65 31.8666 25.0833 31.4586 24.358C31.0619 23.6213 30.8636 22.7713 30.8636 21.808C30.8636 20.8447 31.0563 20.0003 31.4416 19.275C31.8383 18.5383 32.3879 17.9717 33.0906 17.575C33.8046 17.1783 34.6206 16.98 35.5386 16.98C36.4226 16.98 37.2103 17.1727 37.9016 17.558C38.5929 17.9433 39.1313 18.4873 39.5166 19.19C39.9019 19.8813 40.0946 20.6803 40.0946 21.587ZM38.0716 20.975C38.0603 20.261 37.8053 19.6887 37.3066 19.258C36.8079 18.8273 36.1903 18.612 35.4536 18.612C34.7849 18.612 34.2126 18.8273 33.7366 19.258C33.2606 19.6773 32.9773 20.2497 32.8866 20.975H38.0716ZM43.9398 18.493C44.2231 18.017 44.5971 17.6487 45.0618 17.388C45.5378 17.116 46.0988 16.98 46.7448 16.98V18.986H46.2518C45.4925 18.986 44.9145 19.1787 44.5178 19.564C44.1325 19.9493 43.9398 20.618 43.9398 21.57V26.5L42.0018 26.5V17.133H43.9398V18.493ZM52.1472 24.766L54.7992 17.133H56.8562L53.2862 26.5H50.9742L47.4212 17.133H49.4952L52.1472 24.766ZM59.3071 15.892C58.9558 15.892 58.6611 15.773 58.4231 15.535C58.1851 15.297 58.0661 15.0023 58.0661 14.651C58.0661 14.2997 58.1851 14.005 58.4231 13.767C58.6611 13.529 58.9558 13.41 59.3071 13.41C59.6471 13.41 59.9361 13.529 60.1741 13.767C60.4121 14.005 60.5311 14.2997 60.5311 14.651C60.5311 15.0023 60.4121 15.297 60.1741 15.535C59.9361 15.773 59.6471 15.892 59.3071 15.892ZM60.2591 17.133V26.5H58.3211V17.133H60.2591ZM62.1575 21.808C62.1575 20.8447 62.3502 20.0003 62.7355 19.275C63.1322 18.5383 63.6762 17.9717 64.3675 17.575C65.0589 17.1783 65.8522 16.98 66.7475 16.98C67.8809 16.98 68.8159 17.252 69.5525 17.796C70.3005 18.3287 70.8049 19.0937 71.0655 20.091H68.9745C68.8045 19.6263 68.5325 19.2637 68.1585 19.003C67.7845 18.7423 67.3142 18.612 66.7475 18.612C65.9542 18.612 65.3195 18.8953 64.8435 19.462C64.3789 20.0173 64.1465 20.7993 64.1465 21.808C64.1465 22.8167 64.3789 23.6043 64.8435 24.171C65.3195 24.7377 65.9542 25.021 66.7475 25.021C67.8695 25.021 68.6119 24.528 68.9745 23.542H71.0655C70.7935 24.494 70.2835 25.2533 69.5355 25.82C68.7875 26.3753 67.8582 26.653 66.7475 26.653C65.8522 26.653 65.0589 26.4547 64.3675 26.058C63.6762 25.65 63.1322 25.0833 62.7355 24.358C62.3502 23.6213 62.1575 22.7713 62.1575 21.808ZM81.5819 21.587C81.5819 21.9383 81.5592 22.2557 81.5139 22.539H74.3569C74.4136 23.287 74.6912 23.8877 75.1899 24.341C75.6886 24.7943 76.3006 25.021 77.0259 25.021C78.0686 25.021 78.8052 24.5847 79.2359 23.712H81.3269C81.0436 24.5733 80.5279 25.2817 79.7799 25.837C79.0432 26.381 78.1252 26.653 77.0259 26.653C76.1306 26.653 75.3259 26.4547 74.6119 26.058C73.9092 25.65 73.3539 25.0833 72.9459 24.358C72.5492 23.6213 72.3509 22.7713 72.3509 21.808C72.3509 20.8447 72.5436 20.0003 72.9289 19.275C73.3256 18.5383 73.8752 17.9717 74.5779 17.575C75.2919 17.1783 76.1079 16.98 77.0259 16.98C77.9099 16.98 78.6976 17.1727 79.3889 17.558C80.0802 17.9433 80.6186 18.4873 81.0039 19.19C81.3892 19.8813 81.5819 20.6803 81.5819 21.587ZM79.5589 20.975C79.5476 20.261 79.2926 19.6887 78.7939 19.258C78.2952 18.8273 77.6776 18.612 76.9409 18.612C76.2722 18.612 75.6999 18.8273 75.2239 19.258C74.7479 19.6773 74.4646 20.2497 74.3739 20.975H79.5589ZM86.8891 26.653C86.1524 26.653 85.4894 26.5227 84.9001 26.262C84.3221 25.99 83.8631 25.6273 83.5231 25.174C83.1831 24.7093 83.0018 24.1937 82.9791 23.627H84.9851C85.0191 24.0237 85.2061 24.358 85.5461 24.63C85.8974 24.8907 86.3338 25.021 86.8551 25.021C87.3991 25.021 87.8184 24.919 88.1131 24.715C88.4191 24.4997 88.5721 24.2277 88.5721 23.899C88.5721 23.5477 88.4021 23.287 88.0621 23.117C87.7334 22.947 87.2064 22.76 86.4811 22.556C85.7784 22.3633 85.2061 22.1763 84.7641 21.995C84.3221 21.8137 83.9368 21.536 83.6081 21.162C83.2908 20.788 83.1321 20.295 83.1321 19.683C83.1321 19.1843 83.2794 18.731 83.5741 18.323C83.8688 17.9037 84.2881 17.575 84.8321 17.337C85.3874 17.099 86.0221 16.98 86.7361 16.98C87.8014 16.98 88.6571 17.252 89.3031 17.796C89.9604 18.3287 90.3118 19.0597 90.3571 19.989H88.4191C88.3851 19.5697 88.2151 19.2353 87.9091 18.986C87.6031 18.7367 87.1894 18.612 86.6681 18.612C86.1581 18.612 85.7671 18.7083 85.4951 18.901C85.2231 19.0937 85.0871 19.3487 85.0871 19.666C85.0871 19.9153 85.1778 20.125 85.3591 20.295C85.5404 20.465 85.7614 20.601 86.0221 20.703C86.2828 20.7937 86.6681 20.9127 87.1781 21.06C87.8581 21.2413 88.4134 21.4283 88.8441 21.621C89.2861 21.8023 89.6658 22.0743 89.9831 22.437C90.3004 22.7997 90.4648 23.2813 90.4761 23.882C90.4761 24.4147 90.3288 24.8907 90.0341 25.31C89.7394 25.7293 89.3201 26.058 88.7761 26.296C88.2434 26.534 87.6144 26.653 86.8891 26.653Z" fill="#FF4883"/>
<path d="M110.77 21C110.77 23.6326 109.323 26.2031 106.569 28.6025C103.816 31.0009 99.8035 33.1835 94.8017 35.0265C84.8022 38.7111 70.9547 41 55.6348 41C40.3149 41 26.4674 38.7111 16.4679 35.0265C11.4662 33.1835 7.45355 31.0009 4.7005 28.6025C1.94629 26.2031 0.5 23.6326 0.5 21C0.5 18.3674 1.94629 15.7969 4.7005 13.3975C7.45355 10.9991 11.4662 8.81648 16.4679 6.97347C26.4674 3.28892 40.3149 1 55.6348 1C70.9547 1 84.8022 3.28892 94.8017 6.97347C99.8035 8.81648 103.816 10.9991 106.569 13.3975C109.323 15.7969 110.77 18.3674 110.77 21Z" stroke="#FF4883"/>
</svg>
