<svg width="112" height="41" viewBox="0 0 112 41" fill="none" xmlns="http://www.w3.org/2000/svg">
<path d="M33.9678 14.185V26H32.0298V17.908L28.4258 26H27.0828L23.4618 17.908V26H21.5238V14.185H23.6148L27.7628 23.45L31.8938 14.185H33.9678ZM44.947 16.633L39.201 30.403H37.195L39.099 25.847L35.41 16.633H37.569L40.204 23.773L42.941 16.633H44.947ZM54.7185 26.119C53.9252 26.119 53.2112 25.983 52.5765 25.711C51.9418 25.4277 51.4432 25.031 51.0805 24.521C50.7178 24.011 50.5365 23.416 50.5365 22.736H52.6105C52.6558 23.246 52.8542 23.6653 53.2055 23.994C53.5682 24.3227 54.0725 24.487 54.7185 24.487C55.3872 24.487 55.9085 24.3283 56.2825 24.011C56.6565 23.6823 56.8435 23.263 56.8435 22.753C56.8435 22.3563 56.7245 22.0333 56.4865 21.784C56.2598 21.5347 55.9708 21.342 55.6195 21.206C55.2795 21.07 54.8035 20.9227 54.1915 20.764C53.4208 20.56 52.7918 20.356 52.3045 20.152C51.8285 19.9367 51.4205 19.608 51.0805 19.166C50.7405 18.724 50.5705 18.1347 50.5705 17.398C50.5705 16.718 50.7405 16.123 51.0805 15.613C51.4205 15.103 51.8965 14.712 52.5085 14.44C53.1205 14.168 53.8288 14.032 54.6335 14.032C55.7782 14.032 56.7132 14.321 57.4385 14.899C58.1752 15.4657 58.5832 16.2477 58.6625 17.245H56.5205C56.4865 16.8143 56.2825 16.446 55.9085 16.14C55.5345 15.834 55.0415 15.681 54.4295 15.681C53.8742 15.681 53.4208 15.8227 53.0695 16.106C52.7182 16.3893 52.5425 16.7973 52.5425 17.33C52.5425 17.6927 52.6502 17.993 52.8655 18.231C53.0922 18.4577 53.3755 18.639 53.7155 18.775C54.0555 18.911 54.5202 19.0583 55.1095 19.217C55.8915 19.4323 56.5262 19.6477 57.0135 19.863C57.5122 20.0783 57.9315 20.4127 58.2715 20.866C58.6228 21.308 58.7985 21.903 58.7985 22.651C58.7985 23.2517 58.6342 23.8183 58.3055 24.351C57.9882 24.8837 57.5178 25.3143 56.8945 25.643C56.2825 25.9603 55.5572 26.119 54.7185 26.119ZM64.7913 21.325L69.1093 26H66.4913L63.0233 21.971V26H61.0853V13.42H63.0233V20.73L66.4233 16.633H69.1093L64.7913 21.325ZM71.4844 15.392C71.133 15.392 70.8384 15.273 70.6004 15.035C70.3624 14.797 70.2434 14.5023 70.2434 14.151C70.2434 13.7997 70.3624 13.505 70.6004 13.267C70.8384 13.029 71.133 12.91 71.4844 12.91C71.8244 12.91 72.1134 13.029 72.3514 13.267C72.5894 13.505 72.7084 13.7997 72.7084 14.151C72.7084 14.5023 72.5894 14.797 72.3514 15.035C72.1134 15.273 71.8244 15.392 71.4844 15.392ZM72.4364 16.633V26H70.4984V16.633H72.4364ZM76.9188 13.42V26H74.9808V13.42H76.9188ZM81.4012 13.42V26H79.4632V13.42H81.4012ZM87.3456 26.153C86.609 26.153 85.946 26.0227 85.3566 25.762C84.7786 25.49 84.3196 25.1273 83.9796 24.674C83.6396 24.2093 83.4583 23.6937 83.4356 23.127H85.4416C85.4756 23.5237 85.6626 23.858 86.0026 24.13C86.354 24.3907 86.7903 24.521 87.3116 24.521C87.8556 24.521 88.275 24.419 88.5696 24.215C88.8756 23.9997 89.0286 23.7277 89.0286 23.399C89.0286 23.0477 88.8586 22.787 88.5186 22.617C88.19 22.447 87.663 22.26 86.9376 22.056C86.235 21.8633 85.6626 21.6763 85.2206 21.495C84.7786 21.3137 84.3933 21.036 84.0646 20.662C83.7473 20.288 83.5886 19.795 83.5886 19.183C83.5886 18.6843 83.736 18.231 84.0306 17.823C84.3253 17.4037 84.7446 17.075 85.2886 16.837C85.844 16.599 86.4786 16.48 87.1926 16.48C88.258 16.48 89.1136 16.752 89.7596 17.296C90.417 17.8287 90.7683 18.5597 90.8136 19.489H88.8756C88.8416 19.0697 88.6716 18.7353 88.3656 18.486C88.0596 18.2367 87.646 18.112 87.1246 18.112C86.6146 18.112 86.2236 18.2083 85.9516 18.401C85.6796 18.5937 85.5436 18.8487 85.5436 19.166C85.5436 19.4153 85.6343 19.625 85.8156 19.795C85.997 19.965 86.218 20.101 86.4786 20.203C86.7393 20.2937 87.1246 20.4127 87.6346 20.56C88.3146 20.7413 88.87 20.9283 89.3006 21.121C89.7426 21.3023 90.1223 21.5743 90.4396 21.937C90.757 22.2997 90.9213 22.7813 90.9326 23.382C90.9326 23.9147 90.7853 24.3907 90.4906 24.81C90.196 25.2293 89.7766 25.558 89.2326 25.796C88.7 26.034 88.071 26.153 87.3456 26.153Z" fill="#FF4883"/>
<path d="M111.135 20.5C111.135 23.1326 109.689 25.7031 106.934 28.1025C104.181 30.5009 100.169 32.6835 95.167 34.5265C85.1675 38.2111 71.32 40.5 56.0001 40.5C40.6802 40.5 26.8327 38.2111 16.8332 34.5265C11.8315 32.6835 7.81878 30.5009 5.06573 28.1025C2.31152 25.7031 0.865234 23.1326 0.865234 20.5C0.865234 17.8674 2.31152 15.2969 5.06573 12.8975C7.81878 10.4991 11.8315 8.31648 16.8332 6.47347C26.8327 2.78892 40.6802 0.5 56.0001 0.5C71.32 0.5 85.1675 2.78892 95.167 6.47347C100.169 8.31648 104.181 10.4991 106.934 12.8975C109.689 15.2969 111.135 17.8674 111.135 20.5Z" stroke="#FF4883"/>
</svg>
