<svg width="1040" height="101" viewBox="0 0 1040 101" fill="none" xmlns="http://www.w3.org/2000/svg">
<rect y="0.701477" width="510" height="100" fill="white"/>
<g clip-path="url(#clip0_1_24082)">
<path d="M229.719 54.8266V54.1488L231.01 53.8905C231.914 53.6969 232.366 53.1697 232.366 52.3089V43.4971C232.366 41.9908 232.366 40.4845 232.366 38.9782C232.366 37.4719 232.355 35.9656 232.334 34.4593H229.784C229.095 34.4593 228.589 34.6422 228.267 35.0081C227.944 35.3739 227.621 35.8903 227.298 36.5574L226.168 38.9459H225.265L225.426 33.491H243.954L244.115 38.9459H243.211L242.081 36.5574C241.759 35.8903 241.436 35.3739 241.113 35.0081C240.79 34.6422 240.285 34.4593 239.596 34.4593H237.014V52.3089C237.014 53.1912 237.466 53.7184 238.369 53.8905L239.693 54.1488V54.8266H229.719ZM243.567 54.8266V54.1488L244.245 53.9551C244.675 53.826 244.944 53.6431 245.052 53.4064C245.181 53.1482 245.245 52.7931 245.245 52.3412C245.267 51.0931 245.278 49.8451 245.278 48.597C245.278 47.3489 245.278 46.0901 245.278 44.8205V43.4971C245.278 42.249 245.278 41.001 245.278 39.7529C245.278 38.5048 245.267 37.2567 245.245 36.0087C245.245 35.5568 245.192 35.2125 245.084 34.9758C244.976 34.7176 244.707 34.5239 244.277 34.3948L243.567 34.1688V33.491H252.605C255.122 33.491 257.059 33.9752 258.415 34.9435C259.792 35.8903 260.48 37.2245 260.48 38.9459C260.48 39.8928 260.104 40.8503 259.351 41.8187C258.619 42.787 257.489 43.5294 255.962 44.0458L260.351 52.5994C260.717 53.3095 261.287 53.7937 262.062 54.0519L262.675 54.181V54.8266H256.962L252.153 44.7559H249.829C249.829 46.2838 249.829 47.6609 249.829 48.8875C249.829 50.114 249.84 51.2653 249.861 52.3412C249.861 52.7716 249.926 53.1159 250.055 53.3741C250.205 53.6323 250.485 53.8152 250.894 53.9228L251.669 54.1488V54.8266H243.567ZM249.829 43.8199H251.572C253.1 43.8199 254.219 43.4326 254.929 42.6579C255.639 41.8832 255.994 40.6997 255.994 39.1073C255.994 37.515 255.65 36.3422 254.961 35.5891C254.294 34.8144 253.207 34.4271 251.701 34.4271H249.861C249.861 35.2663 249.85 36.127 249.829 37.0093C249.829 37.87 249.829 38.8491 249.829 39.9466C249.829 41.0225 249.829 42.3136 249.829 43.8199ZM261.603 54.8266V54.1488L262.474 53.8905C262.926 53.7614 263.27 53.5678 263.507 53.3095C263.765 53.0513 263.97 52.6963 264.12 52.2444L270.64 33.3942H273.319L279.807 52.3735C279.979 52.8469 280.173 53.2127 280.388 53.4709C280.603 53.7076 280.948 53.9013 281.421 54.0519L281.905 54.181V54.8266H273.707V54.181L274.256 54.0197C274.729 53.869 275.009 53.6323 275.095 53.3095C275.202 52.9868 275.181 52.5887 275.03 52.1153L273.675 47.9514H266.541L265.153 52.0507C265.003 52.5241 264.96 52.9115 265.024 53.2127C265.089 53.514 265.358 53.7507 265.831 53.9228L266.541 54.1488V54.8266H261.603ZM266.864 47.0154H273.384L270.221 37.2998L266.864 47.0154ZM281.374 54.8266V54.1488L282.31 53.8905C282.719 53.783 282.998 53.5785 283.149 53.2773C283.321 52.976 283.407 52.6102 283.407 52.1798V36.5574C283.214 36.1485 283.041 35.8473 282.891 35.6536C282.762 35.4384 282.622 35.2555 282.471 35.1049C282.321 34.9543 282.116 34.7821 281.858 34.5884L281.277 34.1688V33.491H286.796L297.513 48.1451V36.1701C297.513 35.7397 297.437 35.3631 297.287 35.0403C297.158 34.7176 296.878 34.5024 296.447 34.3948L295.479 34.1688V33.491H300.289V34.1688L299.482 34.3948C299.073 34.5239 298.815 34.7498 298.707 35.0726C298.621 35.3739 298.578 35.7397 298.578 36.1701V54.9557H296.77L284.472 38.0422V52.1475C284.472 52.5994 284.537 52.976 284.666 53.2773C284.795 53.5785 285.064 53.783 285.473 53.8905L286.345 54.1488V54.8266H281.374ZM310.608 55.3753C308.413 55.3753 306.488 54.9127 304.831 53.9874C303.174 53.0621 301.872 51.7602 300.925 50.0818C300 48.3818 299.537 46.3913 299.537 44.1104C299.537 41.8725 299.989 39.9143 300.893 38.2358C301.818 36.5574 303.152 35.2555 304.895 34.3302C306.638 33.3834 308.725 32.91 311.157 32.91C312.319 32.91 313.395 33.0391 314.385 33.2973C315.396 33.5556 316.343 33.9321 317.225 34.4271L317.354 39.0428H316.483L314.869 35.7827C314.611 35.2663 314.363 34.8897 314.127 34.653C313.89 34.4163 313.578 34.2442 313.191 34.1366C312.911 34.029 312.642 33.9644 312.384 33.9429C312.125 33.8999 311.792 33.8783 311.383 33.8783C310.027 33.8783 308.833 34.2334 307.8 34.9435C306.767 35.6321 305.96 36.7295 305.379 38.2358C304.82 39.7421 304.54 41.7003 304.54 44.1104C304.54 47.747 305.132 50.383 306.315 52.0184C307.52 53.6323 309.124 54.4393 311.125 54.4393C311.598 54.4393 312.007 54.3747 312.351 54.2456C312.76 54.181 313.04 54.0197 313.191 53.7614C313.341 53.4817 313.416 53.1374 313.416 52.7285C313.416 51.8463 313.406 50.8887 313.384 49.8558C313.384 48.8014 313.384 47.8438 313.384 46.9831C313.384 46.1439 312.943 45.6274 312.061 45.4338L310.608 45.111V44.4332H319.517V45.111L319.13 45.2078C318.721 45.3369 318.409 45.5306 318.194 45.7888C317.978 46.0255 317.871 46.3591 317.871 46.7894C317.871 47.6502 317.86 48.5324 317.839 49.4362C317.839 50.3185 317.839 51.2115 317.839 52.1153V53.5032C316.72 54.1057 315.579 54.5684 314.417 54.8912C313.277 55.2139 312.007 55.3753 310.608 55.3753ZM318.5 54.8266V54.1488L319.146 53.9228C319.533 53.8152 319.802 53.6323 319.953 53.3741C320.104 53.0944 320.19 52.7178 320.211 52.2444V36.0087C320.19 35.5568 320.114 35.2125 319.985 34.9758C319.856 34.7176 319.587 34.5239 319.178 34.3948L318.5 34.1688V33.491H333.865L334.091 38.6554H333.187L331.896 35.7504C331.724 35.3416 331.53 35.0296 331.315 34.8144C331.1 34.5777 330.777 34.4593 330.346 34.4593H324.859C324.838 35.7935 324.827 37.1707 324.827 38.5909C324.827 39.9896 324.827 41.5712 324.827 43.3357H328.022C328.453 43.3357 328.776 43.2281 328.991 43.0129C329.227 42.7762 329.443 42.4642 329.636 42.0769L330.185 40.8503H330.895V46.8217H330.185L329.604 45.5952C329.432 45.2078 329.238 44.8958 329.023 44.6591C328.808 44.4224 328.485 44.3041 328.055 44.3041H324.827C324.827 45.8534 324.827 47.1875 324.827 48.3065C324.827 49.4255 324.827 50.4261 324.827 51.3083C324.848 52.1691 324.859 53.019 324.859 53.8583H331.057C331.487 53.8583 331.82 53.7507 332.057 53.5355C332.294 53.2988 332.488 52.976 332.638 52.5672L333.832 49.6622H334.736L334.51 54.8266H318.5Z" fill="#F01A22"/>
<path d="M213.557 65.8794C211.74 65.8794 209.891 65.6452 208.009 65.1766C206.159 64.7416 204.607 64.1559 203.353 63.4197L203.65 56.4421H205.086L206.622 59.9058C207.084 60.8763 207.563 61.6795 208.058 62.3153C208.554 62.9512 209.214 63.4364 210.04 63.7711C210.601 64.0053 211.129 64.1727 211.625 64.2731C212.153 64.34 212.731 64.3735 213.358 64.3735C215.373 64.3735 216.958 63.8547 218.114 62.8173C219.303 61.7464 219.897 60.3408 219.897 58.6006C219.897 57.0277 219.484 55.7895 218.659 54.8859C217.866 53.9823 216.578 53.1122 214.795 52.2756L212.764 51.372C209.99 50.1338 207.794 48.6947 206.176 47.0549C204.591 45.4151 203.798 43.2398 203.798 40.5291C203.798 38.5212 204.294 36.8144 205.284 35.4088C206.308 33.9698 207.712 32.8654 209.495 32.0957C211.278 31.326 213.358 30.9412 215.736 30.9412C217.486 30.9412 219.121 31.1754 220.64 31.6439C222.192 32.1125 223.546 32.7483 224.702 33.5515L224.355 39.7761H222.919L221.086 36.0112C220.557 34.9069 220.046 34.1204 219.55 33.6519C219.088 33.1499 218.51 32.832 217.817 32.6981C217.42 32.6312 217.074 32.581 216.776 32.5475C216.512 32.5141 216.149 32.4973 215.687 32.4973C214.068 32.4973 212.665 32.9826 211.476 33.9531C210.32 34.8901 209.742 36.1953 209.742 37.8686C209.742 39.4749 210.188 40.7801 211.08 41.7841C211.972 42.788 213.259 43.6749 214.944 44.4446L217.173 45.3984C220.376 46.8039 222.671 48.3099 224.058 49.9163C225.445 51.4891 226.138 53.5138 226.138 55.9903C226.138 58.9353 225.032 61.3281 222.82 63.1687C220.64 64.9758 217.552 65.8794 213.557 65.8794Z" fill="#F01A22"/>
<path d="M268.448 70.1582C266.907 70.1582 265.54 69.9991 264.348 69.6811C263.177 69.363 262.252 68.8624 261.574 68.1791C260.916 67.4841 260.587 66.5712 260.587 65.4403V63.5319C260.587 62.8722 260.587 62.2067 260.587 61.5352C260.587 60.8638 260.577 60.1864 260.557 59.5032C260.557 59.0437 260.176 58.7551 259.416 58.6373L258.738 58.549V58.1779H267.061V58.549L266.198 58.655C265.417 58.761 265.026 59.0555 265.026 59.5385C265.006 60.1982 264.995 60.8638 264.995 61.5352C264.995 62.1949 264.995 62.8605 264.995 63.5319V65.776C264.995 66.9187 265.396 67.7433 266.198 68.2498C267.02 68.7563 268.181 69.0096 269.681 69.0096C271.263 69.0096 272.496 68.7387 273.38 68.1968C274.284 67.6431 274.736 66.8244 274.736 65.7407V59.5915C274.736 59.3559 274.654 59.1498 274.49 58.9731C274.325 58.7964 274.038 58.6845 273.627 58.6373L272.887 58.549V58.1779H277.634V58.549L276.771 58.655C276.38 58.7021 276.113 58.8081 275.969 58.9731C275.826 59.138 275.754 59.3382 275.754 59.5738V65.6346C275.754 67.0954 275.086 68.2145 273.75 68.9919C272.414 69.7694 270.647 70.1582 268.448 70.1582Z" fill="#252525"/>
<path d="M295.588 70.1582C294.458 70.1582 293.307 70.0757 292.135 69.9108C290.985 69.7576 290.019 69.5515 289.238 69.2923L289.423 66.8362H290.317L291.272 68.0554C291.56 68.3971 291.858 68.6798 292.166 68.9036C292.474 69.1274 292.885 69.2982 293.399 69.416C293.749 69.4985 294.077 69.5574 294.386 69.5927C294.714 69.6163 295.074 69.6281 295.465 69.6281C296.718 69.6281 297.705 69.4455 298.424 69.0803C299.164 68.7033 299.534 68.2086 299.534 67.596C299.534 67.0424 299.277 66.6065 298.763 66.2884C298.27 65.9704 297.468 65.6641 296.359 65.3696L295.095 65.0515C293.368 64.6157 292.002 64.1091 290.995 63.5319C290.008 62.9547 289.515 62.189 289.515 61.2348C289.515 60.528 289.823 59.9272 290.44 59.4325C291.077 58.926 291.95 58.5372 293.06 58.2663C294.17 57.9953 295.465 57.8599 296.944 57.8599C298.033 57.8599 299.051 57.9423 299.996 58.1072C300.962 58.2722 301.804 58.496 302.524 58.7787L302.308 60.9698H301.414L300.273 59.6445C299.945 59.2558 299.626 58.979 299.318 58.814C299.03 58.6373 298.67 58.5254 298.239 58.4783C297.992 58.4548 297.777 58.4371 297.592 58.4253C297.427 58.4135 297.201 58.4076 296.913 58.4076C295.906 58.4076 295.033 58.5784 294.293 58.9201C293.574 59.2499 293.214 59.7093 293.214 60.2983C293.214 60.8638 293.492 61.3232 294.047 61.6766C294.601 62.03 295.403 62.3421 296.451 62.6131L297.838 62.9488C299.832 63.4436 301.26 63.9737 302.123 64.5391C302.986 65.0928 303.418 65.8055 303.418 66.6772C303.418 67.7138 302.729 68.5561 301.352 69.204C299.996 69.8401 298.074 70.1582 295.588 70.1582Z" fill="#252525"/>
<path d="M318.782 69.8578V69.4867L320.015 69.3453C320.878 69.2393 321.31 68.9507 321.31 68.4795V63.6556C321.31 62.831 321.31 62.0064 321.31 61.1818C321.31 60.3572 321.3 59.5326 321.279 58.708H318.844C318.186 58.708 317.703 58.8081 317.395 59.0084C317.087 59.2087 316.779 59.4914 316.47 59.8566L315.391 61.1641H314.528L314.682 58.1779H332.376L332.531 61.1641H331.667L330.588 59.8566C330.28 59.4914 329.972 59.2087 329.664 59.0084C329.355 58.8081 328.873 58.708 328.215 58.708H325.749V68.4795C325.749 68.9625 326.18 69.2511 327.044 69.3453L328.307 69.4867V69.8578H318.782Z" fill="#252525"/>
<path d="M232.006 69.8578V69.4867L232.622 69.3807C233.054 69.2982 233.331 69.1922 233.455 69.0626C233.578 68.9213 233.64 68.7269 233.64 68.4795V59.5385C233.64 59.3029 233.578 59.1203 233.455 58.9907C233.331 58.8494 233.064 58.7375 232.653 58.655L232.006 58.549V58.1779H239.651V58.549L239.065 58.655C238.674 58.7375 238.407 58.8494 238.263 58.9907C238.14 59.1321 238.079 59.3265 238.079 59.5738V69.3277H242.61C243.309 69.3277 243.833 69.2275 244.182 69.0273C244.531 68.827 244.86 68.5384 245.168 68.1615L246.309 66.6948H247.172L246.864 69.8578H232.006Z" fill="#252525"/>
<path d="M335.387 64.3603V63.2986L336.448 62.9953C337.123 62.793 337.544 62.5065 337.712 62.1358C337.915 61.7313 338.016 61.1751 338.016 60.4673C338.049 58.5124 338.066 56.5575 338.066 54.6025C338.066 52.6476 338.066 50.6758 338.066 48.6872V46.6143C338.066 44.6594 338.066 42.7044 338.066 40.7495C338.066 38.7946 338.049 36.8397 338.016 34.8847C338.016 34.1769 337.931 33.6376 337.763 33.2669C337.594 32.8624 337.173 32.559 336.499 32.3568L335.387 32.0029V30.9412H349.543C353.487 30.9412 356.52 31.6995 358.644 33.2163C360.801 34.6993 361.879 36.7891 361.879 39.4856C361.879 40.9686 361.29 42.4685 360.11 43.9853C358.964 45.502 357.194 46.6649 354.801 47.4738L361.677 60.8718C362.25 61.9841 363.143 62.7425 364.357 63.1469L365.317 63.3492V64.3603H356.368L348.835 48.5861H345.195C345.195 50.9792 345.195 53.1363 345.195 55.0576C345.195 56.9788 345.212 58.782 345.246 60.4673C345.246 61.1414 345.347 61.6807 345.549 62.0852C345.785 62.4897 346.223 62.7762 346.863 62.9447L348.077 63.2986V64.3603H335.387ZM345.195 47.1199H347.925C350.318 47.1199 352.071 46.5132 353.183 45.2998C354.296 44.0864 354.852 42.2326 354.852 39.7383C354.852 37.2441 354.312 35.4072 353.234 34.2275C352.189 33.0141 350.487 32.4074 348.127 32.4074H345.246C345.246 33.7219 345.229 35.0701 345.195 36.452C345.195 37.8003 345.195 39.3339 345.195 41.0529C345.195 42.7381 345.195 44.7605 345.195 47.1199Z" fill="#F01A22"/>
<path d="M145.514 38.2797C142.509 32.7833 145.644 28.8413 147.854 27.3484C147.945 27.287 148.052 27.3885 148.006 27.4878C146.165 31.4211 148.146 34.5892 149.452 35.7569C149.486 35.7869 149.497 35.8343 149.481 35.8765C148.601 38.2256 146.557 38.4982 145.589 38.3343C145.557 38.3289 145.53 38.3081 145.514 38.2797Z" fill="#F01A22"/>
<path d="M194.479 29.571C197.484 24.0746 194.349 20.1326 192.139 18.6398C192.048 18.5784 191.941 18.6798 191.988 18.7792C193.829 22.7124 191.847 25.8805 190.541 27.0482C190.507 27.0783 190.496 27.1256 190.512 27.1678C191.392 29.5169 193.436 29.7895 194.404 29.6256C194.436 29.6202 194.464 29.5994 194.479 29.571Z" fill="#FA7C6C"/>
<path d="M168.555 48.5267C157.733 36.9671 151.069 44.0727 149.09 49.0705C142.311 28.1694 162.791 27.2367 171.707 37.0747C172.988 41.4557 174.151 49.8794 168.555 48.5267Z" fill="url(#paint0_linear_1_24082)"/>
<path d="M195.926 50.7876C202.347 32.2005 192.687 25.3712 187.055 24.28C191.948 26.2865 195.187 35.8969 185.26 47.9362C172.977 62.8327 179.064 77.1897 184.203 82.9981C181.352 67.6849 192.109 61.8384 195.926 50.7876Z" fill="url(#paint1_linear_1_24082)"/>
<path d="M183.701 24.163C190.629 23.1492 191.939 29.2322 191.727 32.4004C182.751 28.8097 176.942 47.08 175.569 50.4594C174.197 53.8389 170.606 52.1492 166.17 46.2351C164.586 35.7799 175.041 25.4303 183.701 24.163Z" fill="url(#paint2_linear_1_24082)"/>
<path d="M169.295 58.338C150.141 62.7905 140.417 38.2809 154.804 31.4552C141.076 36.4386 140.378 50.9045 145.247 59.4931C151.255 70.0883 166.985 70.5192 169.295 58.338Z" fill="url(#paint3_linear_1_24082)"/>
<path d="M365.048 72.2302C364.943 73.1296 363.903 73.5777 363.177 73.0367L355.053 66.9846C354.327 66.4436 354.459 65.3192 355.29 64.9608L364.594 60.9511C365.425 60.5927 366.333 61.269 366.228 62.1685L365.048 72.2302Z" fill="#F01A22"/>
</g>
<rect x="530" y="0.701477" width="510" height="100" fill="#101010"/>
<g clip-path="url(#clip1_1_24082)">
<path d="M759.719 54.8266V54.1488L761.01 53.8905C761.914 53.6969 762.366 53.1697 762.366 52.3089V43.4971C762.366 41.9908 762.366 40.4845 762.366 38.9782C762.366 37.4719 762.355 35.9656 762.334 34.4593H759.784C759.095 34.4593 758.589 34.6422 758.267 35.0081C757.944 35.3739 757.621 35.8903 757.298 36.5574L756.168 38.9459H755.265L755.426 33.491H773.954L774.115 38.9459H773.211L772.081 36.5574C771.759 35.8903 771.436 35.3739 771.113 35.0081C770.79 34.6422 770.285 34.4593 769.596 34.4593H767.014V52.3089C767.014 53.1912 767.466 53.7184 768.369 53.8905L769.693 54.1488V54.8266H759.719ZM773.567 54.8266V54.1488L774.245 53.9551C774.675 53.826 774.944 53.6431 775.052 53.4064C775.181 53.1482 775.245 52.7931 775.245 52.3412C775.267 51.0931 775.278 49.8451 775.278 48.597C775.278 47.3489 775.278 46.0901 775.278 44.8205V43.4971C775.278 42.249 775.278 41.001 775.278 39.7529C775.278 38.5048 775.267 37.2567 775.245 36.0087C775.245 35.5568 775.192 35.2125 775.084 34.9758C774.976 34.7176 774.707 34.5239 774.277 34.3948L773.567 34.1688V33.491H782.605C785.122 33.491 787.059 33.9752 788.415 34.9435C789.792 35.8903 790.48 37.2245 790.48 38.9459C790.48 39.8928 790.104 40.8503 789.351 41.8187C788.619 42.787 787.489 43.5294 785.962 44.0458L790.351 52.5994C790.717 53.3095 791.287 53.7937 792.062 54.0519L792.675 54.181V54.8266H786.962L782.153 44.7559H779.829C779.829 46.2838 779.829 47.6609 779.829 48.8875C779.829 50.114 779.84 51.2653 779.861 52.3412C779.861 52.7716 779.926 53.1159 780.055 53.3741C780.205 53.6323 780.485 53.8152 780.894 53.9228L781.669 54.1488V54.8266H773.567ZM779.829 43.8199H781.572C783.1 43.8199 784.219 43.4326 784.929 42.6579C785.639 41.8832 785.994 40.6997 785.994 39.1073C785.994 37.515 785.65 36.3422 784.961 35.5891C784.294 34.8144 783.207 34.4271 781.701 34.4271H779.861C779.861 35.2663 779.85 36.127 779.829 37.0093C779.829 37.87 779.829 38.8491 779.829 39.9466C779.829 41.0225 779.829 42.3136 779.829 43.8199ZM791.603 54.8266V54.1488L792.474 53.8905C792.926 53.7614 793.27 53.5678 793.507 53.3095C793.765 53.0513 793.97 52.6963 794.12 52.2444L800.64 33.3942H803.319L809.807 52.3735C809.979 52.8469 810.173 53.2127 810.388 53.4709C810.603 53.7076 810.948 53.9013 811.421 54.0519L811.905 54.181V54.8266H803.707V54.181L804.256 54.0197C804.729 53.869 805.009 53.6323 805.095 53.3095C805.202 52.9868 805.181 52.5887 805.03 52.1153L803.675 47.9514H796.541L795.153 52.0507C795.003 52.5241 794.96 52.9115 795.024 53.2127C795.089 53.514 795.358 53.7507 795.831 53.9228L796.541 54.1488V54.8266H791.603ZM796.864 47.0154H803.384L800.221 37.2998L796.864 47.0154ZM811.374 54.8266V54.1488L812.31 53.8905C812.719 53.783 812.998 53.5785 813.149 53.2773C813.321 52.976 813.407 52.6102 813.407 52.1798V36.5574C813.214 36.1485 813.041 35.8473 812.891 35.6536C812.762 35.4384 812.622 35.2555 812.471 35.1049C812.321 34.9543 812.116 34.7821 811.858 34.5884L811.277 34.1688V33.491H816.796L827.513 48.1451V36.1701C827.513 35.7397 827.437 35.3631 827.287 35.0403C827.158 34.7176 826.878 34.5024 826.447 34.3948L825.479 34.1688V33.491H830.289V34.1688L829.482 34.3948C829.073 34.5239 828.815 34.7498 828.707 35.0726C828.621 35.3739 828.578 35.7397 828.578 36.1701V54.9557H826.77L814.472 38.0422V52.1475C814.472 52.5994 814.537 52.976 814.666 53.2773C814.795 53.5785 815.064 53.783 815.473 53.8905L816.345 54.1488V54.8266H811.374ZM840.608 55.3753C838.413 55.3753 836.488 54.9127 834.831 53.9874C833.174 53.0621 831.872 51.7602 830.925 50.0818C830 48.3818 829.537 46.3913 829.537 44.1104C829.537 41.8725 829.989 39.9143 830.893 38.2358C831.818 36.5574 833.152 35.2555 834.895 34.3302C836.638 33.3834 838.725 32.91 841.157 32.91C842.319 32.91 843.395 33.0391 844.385 33.2973C845.396 33.5556 846.343 33.9321 847.225 34.4271L847.354 39.0428H846.483L844.869 35.7827C844.611 35.2663 844.363 34.8897 844.127 34.653C843.89 34.4163 843.578 34.2442 843.191 34.1366C842.911 34.029 842.642 33.9644 842.384 33.9429C842.125 33.8999 841.792 33.8783 841.383 33.8783C840.027 33.8783 838.833 34.2334 837.8 34.9435C836.767 35.6321 835.96 36.7295 835.379 38.2358C834.82 39.7421 834.54 41.7003 834.54 44.1104C834.54 47.747 835.132 50.383 836.315 52.0184C837.52 53.6323 839.124 54.4393 841.125 54.4393C841.598 54.4393 842.007 54.3747 842.351 54.2456C842.76 54.181 843.04 54.0197 843.191 53.7614C843.341 53.4817 843.416 53.1374 843.416 52.7285C843.416 51.8463 843.406 50.8887 843.384 49.8558C843.384 48.8014 843.384 47.8438 843.384 46.9831C843.384 46.1439 842.943 45.6274 842.061 45.4338L840.608 45.111V44.4332H849.517V45.111L849.13 45.2078C848.721 45.3369 848.409 45.5306 848.194 45.7888C847.978 46.0255 847.871 46.3591 847.871 46.7894C847.871 47.6502 847.86 48.5324 847.839 49.4362C847.839 50.3185 847.839 51.2115 847.839 52.1153V53.5032C846.72 54.1057 845.579 54.5684 844.417 54.8912C843.277 55.2139 842.007 55.3753 840.608 55.3753ZM848.5 54.8266V54.1488L849.146 53.9228C849.533 53.8152 849.802 53.6323 849.953 53.3741C850.104 53.0944 850.19 52.7178 850.211 52.2444V36.0087C850.19 35.5568 850.114 35.2125 849.985 34.9758C849.856 34.7176 849.587 34.5239 849.178 34.3948L848.5 34.1688V33.491H863.865L864.091 38.6554H863.187L861.896 35.7504C861.724 35.3416 861.53 35.0296 861.315 34.8144C861.1 34.5777 860.777 34.4593 860.346 34.4593H854.859C854.838 35.7935 854.827 37.1707 854.827 38.5909C854.827 39.9896 854.827 41.5712 854.827 43.3357H858.022C858.453 43.3357 858.776 43.2281 858.991 43.0129C859.227 42.7762 859.443 42.4642 859.636 42.0769L860.185 40.8503H860.895V46.8217H860.185L859.604 45.5952C859.432 45.2078 859.238 44.8958 859.023 44.6591C858.808 44.4224 858.485 44.3041 858.055 44.3041H854.827C854.827 45.8534 854.827 47.1875 854.827 48.3065C854.827 49.4255 854.827 50.4261 854.827 51.3083C854.848 52.1691 854.859 53.019 854.859 53.8583H861.057C861.487 53.8583 861.82 53.7507 862.057 53.5355C862.294 53.2988 862.488 52.976 862.638 52.5672L863.832 49.6622H864.736L864.51 54.8266H848.5Z" fill="#F01A22"/>
<path d="M743.557 65.8794C741.74 65.8794 739.891 65.6452 738.009 65.1766C736.159 64.7416 734.607 64.1559 733.353 63.4197L733.65 56.4421H735.086L736.622 59.9058C737.084 60.8763 737.563 61.6795 738.058 62.3153C738.554 62.9512 739.214 63.4364 740.04 63.7711C740.601 64.0053 741.129 64.1727 741.625 64.2731C742.153 64.34 742.731 64.3735 743.358 64.3735C745.373 64.3735 746.958 63.8547 748.114 62.8173C749.303 61.7464 749.897 60.3408 749.897 58.6006C749.897 57.0277 749.484 55.7895 748.659 54.8859C747.866 53.9823 746.578 53.1122 744.795 52.2756L742.764 51.372C739.99 50.1338 737.794 48.6947 736.176 47.0549C734.591 45.4151 733.798 43.2398 733.798 40.5291C733.798 38.5212 734.294 36.8144 735.284 35.4088C736.308 33.9698 737.712 32.8654 739.495 32.0957C741.278 31.326 743.358 30.9412 745.736 30.9412C747.486 30.9412 749.121 31.1754 750.64 31.6439C752.192 32.1125 753.546 32.7483 754.702 33.5515L754.355 39.7761H752.919L751.086 36.0112C750.557 34.9069 750.046 34.1204 749.55 33.6519C749.088 33.1499 748.51 32.832 747.817 32.6981C747.42 32.6312 747.074 32.581 746.776 32.5475C746.512 32.5141 746.149 32.4973 745.687 32.4973C744.068 32.4973 742.665 32.9826 741.476 33.9531C740.32 34.8901 739.742 36.1953 739.742 37.8686C739.742 39.4749 740.188 40.7801 741.08 41.7841C741.972 42.788 743.259 43.6749 744.944 44.4446L747.173 45.3984C750.376 46.8039 752.671 48.3099 754.058 49.9163C755.445 51.4891 756.138 53.5138 756.138 55.9903C756.138 58.9353 755.032 61.3281 752.82 63.1687C750.64 64.9758 747.552 65.8794 743.557 65.8794Z" fill="#F01A22"/>
<path d="M798.448 70.1582C796.907 70.1582 795.54 69.9991 794.348 69.6811C793.177 69.363 792.252 68.8624 791.574 68.1791C790.916 67.4841 790.587 66.5712 790.587 65.4403V63.5319C790.587 62.8722 790.587 62.2067 790.587 61.5352C790.587 60.8638 790.577 60.1864 790.557 59.5032C790.557 59.0437 790.176 58.7551 789.416 58.6373L788.738 58.549V58.1779H797.061V58.549L796.198 58.655C795.417 58.761 795.026 59.0555 795.026 59.5385C795.006 60.1982 794.995 60.8638 794.995 61.5352C794.995 62.1949 794.995 62.8605 794.995 63.5319V65.776C794.995 66.9187 795.396 67.7433 796.198 68.2498C797.02 68.7563 798.181 69.0096 799.681 69.0096C801.263 69.0096 802.496 68.7387 803.38 68.1968C804.284 67.6431 804.736 66.8244 804.736 65.7407V59.5915C804.736 59.3559 804.654 59.1498 804.49 58.9731C804.325 58.7964 804.038 58.6845 803.627 58.6373L802.887 58.549V58.1779H807.634V58.549L806.771 58.655C806.38 58.7021 806.113 58.8081 805.969 58.9731C805.826 59.138 805.754 59.3382 805.754 59.5738V65.6346C805.754 67.0954 805.086 68.2145 803.75 68.9919C802.414 69.7694 800.647 70.1582 798.448 70.1582Z" fill="white"/>
<path d="M825.588 70.1582C824.458 70.1582 823.307 70.0757 822.135 69.9108C820.985 69.7576 820.019 69.5515 819.238 69.2923L819.423 66.8362H820.317L821.272 68.0554C821.56 68.3971 821.858 68.6798 822.166 68.9036C822.474 69.1274 822.885 69.2982 823.399 69.416C823.749 69.4985 824.077 69.5574 824.386 69.5927C824.714 69.6163 825.074 69.6281 825.465 69.6281C826.718 69.6281 827.705 69.4455 828.424 69.0803C829.164 68.7033 829.534 68.2086 829.534 67.596C829.534 67.0424 829.277 66.6065 828.763 66.2884C828.27 65.9704 827.468 65.6641 826.359 65.3696L825.095 65.0515C823.368 64.6157 822.002 64.1091 820.995 63.5319C820.008 62.9547 819.515 62.189 819.515 61.2348C819.515 60.528 819.823 59.9272 820.44 59.4325C821.077 58.926 821.95 58.5372 823.06 58.2663C824.17 57.9953 825.465 57.8599 826.944 57.8599C828.033 57.8599 829.051 57.9423 829.996 58.1072C830.962 58.2722 831.804 58.496 832.524 58.7787L832.308 60.9698H831.414L830.273 59.6445C829.945 59.2558 829.626 58.979 829.318 58.814C829.03 58.6373 828.67 58.5254 828.239 58.4783C827.992 58.4548 827.777 58.4371 827.592 58.4253C827.427 58.4135 827.201 58.4076 826.913 58.4076C825.906 58.4076 825.033 58.5784 824.293 58.9201C823.574 59.2499 823.214 59.7093 823.214 60.2983C823.214 60.8638 823.492 61.3232 824.047 61.6766C824.601 62.03 825.403 62.3421 826.451 62.6131L827.838 62.9488C829.832 63.4436 831.26 63.9737 832.123 64.5391C832.986 65.0928 833.418 65.8055 833.418 66.6772C833.418 67.7138 832.729 68.5561 831.352 69.204C829.996 69.8401 828.074 70.1582 825.588 70.1582Z" fill="white"/>
<path d="M848.782 69.8578V69.4867L850.015 69.3453C850.878 69.2393 851.31 68.9507 851.31 68.4795V63.6556C851.31 62.831 851.31 62.0064 851.31 61.1818C851.31 60.3572 851.3 59.5326 851.279 58.708H848.844C848.186 58.708 847.703 58.8081 847.395 59.0084C847.087 59.2087 846.779 59.4914 846.47 59.8566L845.391 61.1641H844.528L844.682 58.1779H862.376L862.531 61.1641H861.667L860.588 59.8566C860.28 59.4914 859.972 59.2087 859.664 59.0084C859.355 58.8081 858.873 58.708 858.215 58.708H855.749V68.4795C855.749 68.9625 856.18 69.2511 857.044 69.3453L858.307 69.4867V69.8578H848.782Z" fill="white"/>
<path d="M762.006 69.8578V69.4867L762.622 69.3807C763.054 69.2982 763.331 69.1922 763.455 69.0626C763.578 68.9213 763.64 68.7269 763.64 68.4795V59.5385C763.64 59.3029 763.578 59.1203 763.455 58.9907C763.331 58.8494 763.064 58.7375 762.653 58.655L762.006 58.549V58.1779H769.651V58.549L769.065 58.655C768.674 58.7375 768.407 58.8494 768.263 58.9907C768.14 59.1321 768.079 59.3265 768.079 59.5738V69.3277H772.61C773.309 69.3277 773.833 69.2275 774.182 69.0273C774.531 68.827 774.86 68.5384 775.168 68.1615L776.309 66.6948H777.172L776.864 69.8578H762.006Z" fill="white"/>
<path d="M865.387 64.3603V63.2986L866.448 62.9953C867.123 62.793 867.544 62.5065 867.712 62.1358C867.915 61.7313 868.016 61.1751 868.016 60.4673C868.049 58.5124 868.066 56.5575 868.066 54.6025C868.066 52.6476 868.066 50.6758 868.066 48.6872V46.6143C868.066 44.6594 868.066 42.7044 868.066 40.7495C868.066 38.7946 868.049 36.8397 868.016 34.8847C868.016 34.1769 867.931 33.6376 867.763 33.2669C867.594 32.8624 867.173 32.559 866.499 32.3568L865.387 32.0029V30.9412H879.543C883.487 30.9412 886.52 31.6995 888.644 33.2163C890.801 34.6993 891.879 36.7891 891.879 39.4856C891.879 40.9686 891.29 42.4685 890.11 43.9853C888.964 45.502 887.194 46.6649 884.801 47.4738L891.677 60.8718C892.25 61.9841 893.143 62.7425 894.357 63.1469L895.317 63.3492V64.3603H886.368L878.835 48.5861H875.195C875.195 50.9792 875.195 53.1363 875.195 55.0576C875.195 56.9788 875.212 58.782 875.246 60.4673C875.246 61.1414 875.347 61.6807 875.549 62.0852C875.785 62.4897 876.223 62.7762 876.863 62.9447L878.077 63.2986V64.3603H865.387ZM875.195 47.1199H877.925C880.318 47.1199 882.071 46.5132 883.183 45.2998C884.296 44.0864 884.852 42.2326 884.852 39.7383C884.852 37.2441 884.312 35.4072 883.234 34.2275C882.189 33.0141 880.487 32.4074 878.127 32.4074H875.246C875.246 33.7219 875.229 35.0701 875.195 36.452C875.195 37.8003 875.195 39.3339 875.195 41.0529C875.195 42.7381 875.195 44.7605 875.195 47.1199Z" fill="#F01A22"/>
<path d="M675.514 38.2797C672.509 32.7833 675.644 28.8413 677.854 27.3484C677.945 27.287 678.052 27.3885 678.006 27.4878C676.165 31.4211 678.146 34.5892 679.452 35.7569C679.486 35.7869 679.497 35.8343 679.481 35.8765C678.601 38.2256 676.557 38.4982 675.589 38.3343C675.557 38.3289 675.53 38.3081 675.514 38.2797Z" fill="#F01A22"/>
<path d="M724.479 29.571C727.484 24.0746 724.349 20.1326 722.139 18.6398C722.048 18.5784 721.941 18.6798 721.988 18.7792C723.829 22.7124 721.847 25.8805 720.541 27.0482C720.507 27.0783 720.496 27.1256 720.512 27.1678C721.392 29.5169 723.436 29.7895 724.404 29.6256C724.436 29.6202 724.464 29.5994 724.479 29.571Z" fill="#FA7C6C"/>
<path d="M698.555 48.5267C687.733 36.9671 681.069 44.0727 679.09 49.0705C672.311 28.1694 692.791 27.2367 701.707 37.0747C702.988 41.4557 704.151 49.8794 698.555 48.5267Z" fill="url(#paint4_linear_1_24082)"/>
<path d="M725.926 50.7876C732.347 32.2005 722.687 25.3712 717.055 24.28C721.948 26.2865 725.187 35.8969 715.26 47.9362C702.977 62.8327 709.064 77.1897 714.203 82.9981C711.352 67.6849 722.109 61.8384 725.926 50.7876Z" fill="url(#paint5_linear_1_24082)"/>
<path d="M713.701 24.163C720.629 23.1492 721.939 29.2322 721.727 32.4004C712.751 28.8097 706.942 47.08 705.569 50.4594C704.197 53.8389 700.606 52.1492 696.17 46.2351C694.586 35.7799 705.041 25.4303 713.701 24.163Z" fill="url(#paint6_linear_1_24082)"/>
<path d="M699.295 58.338C680.141 62.7905 670.417 38.2809 684.804 31.4552C671.076 36.4386 670.378 50.9045 675.247 59.4931C681.255 70.0883 696.985 70.5192 699.295 58.338Z" fill="url(#paint7_linear_1_24082)"/>
<path d="M895.048 72.2302C894.943 73.1296 893.903 73.5777 893.177 73.0367L885.053 66.9846C884.327 66.4436 884.459 65.3192 885.29 64.9608L894.594 60.9511C895.425 60.5927 896.333 61.269 896.228 62.1685L895.048 72.2302Z" fill="#F01A22"/>
</g>
<defs>
<linearGradient id="paint0_linear_1_24082" x1="147.739" y1="41.1329" x2="172.766" y2="43.6292" gradientUnits="userSpaceOnUse">
<stop stop-color="#CE132A"/>
<stop offset="1" stop-color="#730430"/>
</linearGradient>
<linearGradient id="paint1_linear_1_24082" x1="188.059" y1="24.28" x2="188.059" y2="82.9981" gradientUnits="userSpaceOnUse">
<stop stop-color="#FA8774"/>
<stop offset="0.52" stop-color="#F01A22"/>
<stop offset="1" stop-color="#FA8774"/>
</linearGradient>
<linearGradient id="paint2_linear_1_24082" x1="190.631" y1="31.9807" x2="165.054" y2="45.472" gradientUnits="userSpaceOnUse">
<stop stop-color="#730430"/>
<stop offset="0.34" stop-color="#CE132A"/>
<stop offset="1" stop-color="#F01A22"/>
</linearGradient>
<linearGradient id="paint3_linear_1_24082" x1="142.5" y1="53.6639" x2="169.295" y2="57.7932" gradientUnits="userSpaceOnUse">
<stop stop-color="#F01A22"/>
<stop offset="1" stop-color="#F65951"/>
</linearGradient>
<linearGradient id="paint4_linear_1_24082" x1="677.739" y1="41.1329" x2="702.766" y2="43.6292" gradientUnits="userSpaceOnUse">
<stop stop-color="#CE132A"/>
<stop offset="1" stop-color="#730430"/>
</linearGradient>
<linearGradient id="paint5_linear_1_24082" x1="718.059" y1="24.28" x2="718.059" y2="82.9981" gradientUnits="userSpaceOnUse">
<stop stop-color="#FA8774"/>
<stop offset="0.52" stop-color="#F01A22"/>
<stop offset="1" stop-color="#FA8774"/>
</linearGradient>
<linearGradient id="paint6_linear_1_24082" x1="720.631" y1="31.9807" x2="695.054" y2="45.472" gradientUnits="userSpaceOnUse">
<stop stop-color="#730430"/>
<stop offset="0.34" stop-color="#CE132A"/>
<stop offset="1" stop-color="#F01A22"/>
</linearGradient>
<linearGradient id="paint7_linear_1_24082" x1="672.5" y1="53.6639" x2="699.295" y2="57.7932" gradientUnits="userSpaceOnUse">
<stop stop-color="#F01A22"/>
<stop offset="1" stop-color="#F65951"/>
</linearGradient>
<clipPath id="clip0_1_24082">
<rect width="225" height="64.5312" fill="white" transform="translate(142.5 18.4359)"/>
</clipPath>
<clipPath id="clip1_1_24082">
<rect width="225" height="64.5312" fill="white" transform="translate(672.5 18.4359)"/>
</clipPath>
</defs>
</svg>
