<svg width="1040" height="101" viewBox="0 0 1040 101" fill="none" xmlns="http://www.w3.org/2000/svg">
<rect width="510" height="100" transform="translate(0 0.701477)" fill="white"/>
<path d="M173.566 58.0265C173.793 58.2132 174.079 58.4665 174.426 58.7865C174.786 59.0932 175.193 59.3998 175.646 59.7065C176.326 60.1598 176.999 60.5132 177.666 60.7665C178.333 61.0198 179.033 61.1465 179.766 61.1465C180.446 61.1465 181.013 61.0732 181.466 60.9265C181.933 60.7665 182.299 60.5598 182.566 60.3065C182.833 60.0532 183.019 59.7598 183.126 59.4265C183.246 59.0932 183.306 58.7398 183.306 58.3665C183.306 57.9532 183.146 57.5865 182.826 57.2665C182.519 56.9332 182.139 56.6398 181.686 56.3865C181.233 56.1332 180.759 55.9198 180.266 55.7465C179.773 55.5598 179.346 55.4065 178.986 55.2865C177.386 54.7265 175.986 54.1265 174.786 53.4865C173.586 52.8332 172.586 52.1132 171.786 51.3265C170.986 50.5265 170.386 49.6532 169.986 48.7065C169.586 47.7465 169.386 46.6798 169.386 45.5065C169.386 44.2665 169.633 43.1398 170.126 42.1265C170.633 41.1132 171.346 40.2465 172.266 39.5265C173.199 38.8065 174.319 38.2532 175.626 37.8665C176.933 37.4665 178.393 37.2665 180.006 37.2665C181.219 37.2665 182.379 37.4065 183.486 37.6865C184.606 37.9532 185.706 38.3865 186.786 38.9865C187.239 39.2532 187.666 39.5332 188.066 39.8265C188.479 40.1065 188.839 40.3798 189.146 40.6465C189.453 40.9132 189.693 41.1665 189.866 41.4065C190.053 41.6465 190.146 41.8532 190.146 42.0265C190.146 42.1998 190.099 42.3598 190.006 42.5065C189.926 42.6532 189.799 42.8198 189.626 43.0065L186.566 46.2665C186.339 46.4932 186.113 46.6065 185.886 46.6065C185.699 46.6065 185.526 46.5532 185.366 46.4465C185.219 46.3398 185.053 46.2065 184.866 46.0465L184.686 45.8865C184.419 45.6598 184.119 45.4265 183.786 45.1865C183.466 44.9465 183.119 44.7332 182.746 44.5465C182.373 44.3465 181.979 44.1865 181.566 44.0665C181.153 43.9332 180.733 43.8665 180.306 43.8665C179.866 43.8665 179.453 43.9065 179.066 43.9865C178.679 44.0532 178.339 44.1665 178.046 44.3265C177.753 44.4865 177.519 44.6998 177.346 44.9665C177.173 45.2198 177.086 45.5332 177.086 45.9065C177.086 46.2798 177.179 46.6065 177.366 46.8865C177.553 47.1532 177.833 47.4065 178.206 47.6465C178.579 47.8732 179.039 48.0932 179.586 48.3065C180.146 48.5065 180.793 48.7265 181.526 48.9665C182.939 49.4332 184.239 49.9265 185.426 50.4465C186.626 50.9532 187.659 51.5598 188.526 52.2665C189.393 52.9598 190.066 53.7932 190.546 54.7665C191.039 55.7398 191.286 56.9198 191.286 58.3065C191.286 59.7732 190.986 61.1065 190.386 62.3065C189.786 63.4932 188.959 64.5065 187.906 65.3465C186.866 66.1865 185.639 66.8398 184.226 67.3065C182.813 67.7598 181.293 67.9865 179.666 67.9865C178.133 67.9865 176.626 67.7132 175.146 67.1665C173.666 66.6198 172.286 65.8865 171.006 64.9665C170.473 64.5798 170.019 64.1998 169.646 63.8265C169.286 63.4532 168.999 63.1532 168.786 62.9265L168.726 62.8665C168.713 62.8398 168.699 62.8265 168.686 62.8265C168.673 62.8132 168.659 62.7998 168.646 62.7865C168.633 62.7598 168.619 62.7465 168.606 62.7465C168.593 62.7332 168.579 62.7198 168.566 62.7065C168.259 62.3732 168.106 62.1065 168.106 61.9065C168.106 61.6798 168.259 61.4265 168.566 61.1465L172.026 57.8465C172.306 57.6465 172.533 57.5465 172.706 57.5465C172.826 57.5465 172.953 57.5865 173.086 57.6665C173.219 57.7465 173.379 57.8665 173.566 58.0265ZM218.836 67.2665C218.663 67.4132 218.476 67.5065 218.276 67.5465C218.089 67.5865 217.909 67.6065 217.736 67.6065H214.716C214.476 67.6065 214.269 67.5665 214.096 67.4865C213.923 67.3932 213.776 67.2732 213.656 67.1265C213.536 66.9798 213.436 66.8132 213.356 66.6265C213.276 66.4398 213.209 66.2465 213.156 66.0465L212.736 64.0865C212.536 64.4998 212.203 64.9398 211.736 65.4065C211.269 65.8598 210.689 66.2798 209.996 66.6665C209.316 67.0532 208.529 67.3732 207.636 67.6265C206.743 67.8798 205.769 68.0065 204.716 68.0065C203.196 68.0065 201.849 67.7132 200.676 67.1265C199.503 66.5398 198.509 65.7398 197.696 64.7265C196.896 63.7132 196.289 62.5332 195.876 61.1865C195.463 59.8265 195.256 58.3798 195.256 56.8465V43.7465C195.256 43.2398 195.363 42.8598 195.576 42.6065C195.803 42.3398 196.156 42.2065 196.636 42.2065H201.256C201.829 42.2065 202.223 42.3065 202.436 42.5065C202.649 42.6932 202.756 43.0665 202.756 43.6265V56.6465C202.756 57.2198 202.863 57.7665 203.076 58.2865C203.303 58.7932 203.603 59.2465 203.976 59.6465C204.349 60.0332 204.783 60.3398 205.276 60.5665C205.783 60.7932 206.316 60.9065 206.876 60.9065C207.356 60.9065 207.876 60.8265 208.436 60.6665C208.996 60.5065 209.516 60.2598 209.996 59.9265C210.476 59.5798 210.876 59.1398 211.196 58.6065C211.516 58.0732 211.676 57.4332 211.676 56.6865V43.6865C211.676 43.4598 211.716 43.2332 211.796 43.0065C211.889 42.7798 212.023 42.6065 212.196 42.4865C212.369 42.3798 212.529 42.3065 212.676 42.2665C212.836 42.2265 213.016 42.2065 213.216 42.2065H217.736C218.309 42.2065 218.723 42.3465 218.976 42.6265C219.229 42.9065 219.356 43.2798 219.356 43.7465V66.1265C219.356 66.3798 219.296 66.6132 219.176 66.8265C219.069 67.0398 218.916 67.2065 218.716 67.3265L218.836 67.2665ZM224.682 42.4465C224.856 42.2998 225.036 42.2065 225.222 42.1665C225.409 42.1265 225.589 42.1065 225.762 42.1065H228.782C229.036 42.1065 229.242 42.1465 229.402 42.2265C229.576 42.3065 229.716 42.4198 229.822 42.5665C229.929 42.6998 230.016 42.8598 230.082 43.0465C230.162 43.2198 230.236 43.4132 230.302 43.6265L231.142 46.0465C231.516 45.5665 231.889 45.0798 232.262 44.5865C232.649 44.0798 233.102 43.6265 233.622 43.2265C234.142 42.8132 234.762 42.4732 235.482 42.2065C236.202 41.9398 237.082 41.8065 238.122 41.8065C239.949 41.8065 241.629 42.1465 243.162 42.8265C244.709 43.4932 246.036 44.4198 247.142 45.6065C248.262 46.7798 249.136 48.1665 249.762 49.7665C250.389 51.3532 250.702 53.0732 250.702 54.9265C250.702 56.7665 250.389 58.4865 249.762 60.0865C249.136 61.6865 248.262 63.0798 247.142 64.2665C246.036 65.4398 244.709 66.3665 243.162 67.0465C241.629 67.7265 239.949 68.0665 238.122 68.0665C237.256 68.0665 236.509 67.9598 235.882 67.7465C235.256 67.5465 234.696 67.2798 234.202 66.9465C233.722 66.6132 233.296 66.2465 232.922 65.8465C232.549 65.4465 232.182 65.0465 231.822 64.6465V73.9665C231.822 74.3665 231.702 74.7065 231.462 74.9865C231.222 75.2665 230.849 75.4065 230.342 75.4065H225.762C225.602 75.4065 225.429 75.3732 225.242 75.3065C225.056 75.2398 224.882 75.1465 224.722 75.0265C224.562 74.9065 224.429 74.7532 224.322 74.5665C224.216 74.3932 224.162 74.1932 224.162 73.9665V43.5865C224.162 43.3198 224.209 43.0998 224.302 42.9265C224.409 42.7532 224.536 42.5932 224.682 42.4465ZM243.362 54.9265C243.362 54.0732 243.222 53.2665 242.942 52.5065C242.662 51.7332 242.269 51.0598 241.762 50.4865C241.256 49.9132 240.649 49.4598 239.942 49.1265C239.236 48.7932 238.456 48.6265 237.602 48.6265C236.762 48.6265 235.962 48.7865 235.202 49.1065C234.456 49.4132 233.796 49.8398 233.222 50.3865C232.662 50.9198 232.202 51.5532 231.842 52.2865C231.496 53.0198 231.302 53.7998 231.262 54.6265V54.9265C231.262 55.8065 231.429 56.6332 231.762 57.4065C232.096 58.1798 232.549 58.8532 233.122 59.4265C233.696 59.9865 234.369 60.4332 235.142 60.7665C235.916 61.0998 236.736 61.2665 237.602 61.2665C238.456 61.2665 239.236 61.0998 239.942 60.7665C240.649 60.4332 241.256 59.9865 241.762 59.4265C242.269 58.8532 242.662 58.1798 242.942 57.4065C243.222 56.6332 243.362 55.8065 243.362 54.9265ZM255.229 42.4465C255.402 42.2998 255.582 42.2065 255.769 42.1665C255.956 42.1265 256.136 42.1065 256.309 42.1065H259.329C259.582 42.1065 259.789 42.1465 259.949 42.2265C260.122 42.3065 260.262 42.4198 260.369 42.5665C260.476 42.6998 260.562 42.8598 260.629 43.0465C260.709 43.2198 260.782 43.4132 260.849 43.6265L261.689 46.0465C262.062 45.5665 262.436 45.0798 262.809 44.5865C263.196 44.0798 263.649 43.6265 264.169 43.2265C264.689 42.8132 265.309 42.4732 266.029 42.2065C266.749 41.9398 267.629 41.8065 268.669 41.8065C270.496 41.8065 272.176 42.1465 273.709 42.8265C275.256 43.4932 276.582 44.4198 277.689 45.6065C278.809 46.7798 279.682 48.1665 280.309 49.7665C280.936 51.3532 281.249 53.0732 281.249 54.9265C281.249 56.7665 280.936 58.4865 280.309 60.0865C279.682 61.6865 278.809 63.0798 277.689 64.2665C276.582 65.4398 275.256 66.3665 273.709 67.0465C272.176 67.7265 270.496 68.0665 268.669 68.0665C267.802 68.0665 267.056 67.9598 266.429 67.7465C265.802 67.5465 265.242 67.2798 264.749 66.9465C264.269 66.6132 263.842 66.2465 263.469 65.8465C263.096 65.4465 262.729 65.0465 262.369 64.6465V73.9665C262.369 74.3665 262.249 74.7065 262.009 74.9865C261.769 75.2665 261.396 75.4065 260.889 75.4065H256.309C256.149 75.4065 255.976 75.3732 255.789 75.3065C255.602 75.2398 255.429 75.1465 255.269 75.0265C255.109 74.9065 254.976 74.7532 254.869 74.5665C254.762 74.3932 254.709 74.1932 254.709 73.9665V43.5865C254.709 43.3198 254.756 43.0998 254.849 42.9265C254.956 42.7532 255.082 42.5932 255.229 42.4465ZM273.909 54.9265C273.909 54.0732 273.769 53.2665 273.489 52.5065C273.209 51.7332 272.816 51.0598 272.309 50.4865C271.802 49.9132 271.196 49.4598 270.489 49.1265C269.782 48.7932 269.002 48.6265 268.149 48.6265C267.309 48.6265 266.509 48.7865 265.749 49.1065C265.002 49.4132 264.342 49.8398 263.769 50.3865C263.209 50.9198 262.749 51.5532 262.389 52.2865C262.042 53.0198 261.849 53.7998 261.809 54.6265V54.9265C261.809 55.8065 261.976 56.6332 262.309 57.4065C262.642 58.1798 263.096 58.8532 263.669 59.4265C264.242 59.9865 264.916 60.4332 265.689 60.7665C266.462 61.0998 267.282 61.2665 268.149 61.2665C269.002 61.2665 269.782 61.0998 270.489 60.7665C271.196 60.4332 271.802 59.9865 272.309 59.4265C272.816 58.8532 273.209 58.1798 273.489 57.4065C273.769 56.6332 273.909 55.8065 273.909 54.9265ZM284.476 54.9265C284.476 53.6998 284.629 52.5198 284.936 51.3865C285.256 50.2532 285.696 49.2065 286.256 48.2465C286.829 47.2732 287.509 46.3932 288.296 45.6065C289.096 44.8065 289.983 44.1265 290.956 43.5665C291.929 43.0065 292.976 42.5732 294.096 42.2665C295.229 41.9598 296.409 41.8065 297.636 41.8065C299.449 41.8065 301.149 42.1465 302.736 42.8265C304.336 43.4932 305.723 44.4198 306.896 45.6065C308.083 46.7798 309.016 48.1665 309.696 49.7665C310.389 51.3532 310.736 53.0732 310.736 54.9265C310.736 56.1532 310.576 57.3332 310.256 58.4665C309.949 59.5865 309.509 60.6332 308.936 61.6065C308.376 62.5798 307.696 63.4665 306.896 64.2665C306.109 65.0532 305.229 65.7332 304.256 66.3065C303.283 66.8665 302.236 67.2998 301.116 67.6065C300.009 67.9132 298.849 68.0665 297.636 68.0665C296.409 68.0665 295.229 67.9132 294.096 67.6065C292.976 67.2998 291.929 66.8665 290.956 66.3065C289.983 65.7332 289.096 65.0532 288.296 64.2665C287.509 63.4665 286.829 62.5798 286.256 61.6065C285.696 60.6332 285.256 59.5865 284.936 58.4665C284.629 57.3332 284.476 56.1532 284.476 54.9265ZM291.776 54.9265C291.776 55.8065 291.909 56.6332 292.176 57.4065C292.456 58.1665 292.843 58.8265 293.336 59.3865C293.843 59.9465 294.449 60.3932 295.156 60.7265C295.876 61.0465 296.683 61.2065 297.576 61.2065C298.443 61.2065 299.223 61.0465 299.916 60.7265C300.623 60.3932 301.216 59.9465 301.696 59.3865C302.189 58.8265 302.563 58.1665 302.816 57.4065C303.083 56.6332 303.216 55.8065 303.216 54.9265C303.216 54.0732 303.083 53.2598 302.816 52.4865C302.563 51.7132 302.189 51.0332 301.696 50.4465C301.216 49.8598 300.623 49.3998 299.916 49.0665C299.223 48.7198 298.443 48.5465 297.576 48.5465C296.683 48.5465 295.876 48.7198 295.156 49.0665C294.449 49.3998 293.843 49.8598 293.336 50.4465C292.843 51.0332 292.456 51.7132 292.176 52.4865C291.909 53.2598 291.776 54.0732 291.776 54.9265ZM314.709 43.6865C314.709 43.4332 314.756 43.2132 314.849 43.0265C314.942 42.8398 315.062 42.6865 315.209 42.5665C315.369 42.4465 315.542 42.3598 315.729 42.3065C315.929 42.2398 316.122 42.2065 316.309 42.2065H319.329C319.662 42.2065 319.929 42.3065 320.129 42.5065C320.329 42.7065 320.496 42.9598 320.629 43.2665C320.776 43.5732 320.902 43.9132 321.009 44.2865C321.116 44.6598 321.242 45.0198 321.389 45.3665C321.789 44.9265 322.182 44.4932 322.569 44.0665C322.969 43.6398 323.396 43.2598 323.849 42.9265C324.302 42.5932 324.796 42.3265 325.329 42.1265C325.876 41.9132 326.496 41.8065 327.189 41.8065C327.909 41.8065 328.549 41.8598 329.109 41.9665C329.682 42.0732 330.222 42.2332 330.729 42.4465C331.236 42.6465 331.736 42.9065 332.229 43.2265C332.736 43.5465 333.282 43.9198 333.869 44.3465C334.442 44.6798 334.729 45.0732 334.729 45.5265C334.729 45.8198 334.616 46.1598 334.389 46.5465L332.569 49.6465C332.209 50.1665 331.762 50.4265 331.229 50.4265C330.962 50.4265 330.662 50.3532 330.329 50.2065C329.756 49.6465 329.169 49.2332 328.569 48.9665C327.982 48.6865 327.309 48.5465 326.549 48.5465C326.029 48.5465 325.569 48.6198 325.169 48.7665C324.782 48.9132 324.429 49.1198 324.109 49.3865C323.789 49.6532 323.489 49.9732 323.209 50.3465C322.929 50.7198 322.649 51.1332 322.369 51.5865V66.0665C322.369 66.5732 322.242 66.9598 321.989 67.2265C321.749 67.4798 321.342 67.6065 320.769 67.6065H316.269C315.229 67.6065 314.709 67.0932 314.709 66.0665V43.6865ZM339.257 38.2465C339.257 37.8332 339.39 37.5265 339.657 37.3265C339.937 37.1132 340.33 36.9132 340.837 36.7265L345.377 35.1465C345.444 35.1332 345.504 35.1265 345.557 35.1265C345.624 35.1265 345.684 35.1265 345.737 35.1265C346.23 35.1265 346.557 35.2732 346.717 35.5665C346.89 35.8465 346.977 36.2198 346.977 36.6865L346.957 42.1865H349.697C350.124 42.1865 350.47 42.3132 350.737 42.5665C351.004 42.8198 351.137 43.1998 351.137 43.7065V47.5665C351.137 48.1265 351.004 48.5398 350.737 48.8065C350.47 49.0598 350.124 49.1865 349.697 49.1865H346.957L346.977 66.0665C346.977 66.5732 346.83 66.9598 346.537 67.2265C346.244 67.4798 345.837 67.6065 345.317 67.6065H340.797C339.77 67.6065 339.257 67.0932 339.257 66.0665L339.237 49.1865H337.177C336.15 49.1865 335.637 48.6465 335.637 47.5665V43.7065C335.637 42.6932 336.15 42.1865 337.177 42.1865H339.237L339.257 38.2465Z" fill="black"/>
<path d="M354.6 38.7865C354.6 38.5198 354.687 38.3065 354.86 38.1465C355.047 37.9865 355.273 37.9065 355.54 37.9065H377.08C377.32 37.9065 377.533 37.9798 377.72 38.1265C377.907 38.2732 378.013 38.4932 378.04 38.7865V43.7665C378.04 44.0065 377.953 44.2398 377.78 44.4665C377.62 44.6798 377.387 44.7865 377.08 44.7865H370.18V66.6665C370.18 66.9065 370.093 67.1265 369.92 67.3265C369.747 67.5132 369.52 67.6065 369.24 67.6065H363.36C363.133 67.6065 362.92 67.5198 362.72 67.3465C362.52 67.1598 362.42 66.9332 362.42 66.6665V44.7865H355.54C355.273 44.7865 355.047 44.6998 354.86 44.5265C354.687 44.3532 354.6 44.0998 354.6 43.7665V38.7865ZM379.961 67.0865C380.067 66.8865 380.174 66.6865 380.281 66.4865C380.401 66.2732 380.534 66.0598 380.681 65.8465L389.681 52.4065C388.147 50.0998 386.627 47.8198 385.121 45.5665C383.627 43.3132 382.114 41.0332 380.581 38.7265C380.501 38.6198 380.434 38.5198 380.381 38.4265C380.341 38.3332 380.314 38.2332 380.301 38.1265C380.327 38.0198 380.401 37.9732 380.521 37.9865C380.654 37.9865 380.787 37.9532 380.921 37.8865H387.881C388.374 37.8865 388.761 38.1398 389.041 38.6465L393.941 46.0065L398.901 38.6465C399.181 38.1398 399.567 37.8865 400.061 37.8865H406.341C406.447 37.8865 406.574 37.8865 406.721 37.8865C406.867 37.8865 407.001 37.8932 407.121 37.9065C407.254 37.9065 407.367 37.9265 407.461 37.9665C407.554 38.0065 407.601 38.0665 407.601 38.1465C407.601 38.3065 407.527 38.4798 407.381 38.6665L398.181 52.4065L407.561 66.4065C407.694 66.5932 407.794 66.7665 407.861 66.9265C407.941 67.0732 407.974 67.1998 407.961 67.3065C407.961 67.5065 407.841 67.6065 407.601 67.6065H400.441C400.214 67.6065 400.007 67.5398 399.821 67.4065C399.634 67.2732 399.487 67.0932 399.381 66.8665L393.941 58.8065L388.561 66.8665C388.454 67.0932 388.307 67.2732 388.121 67.4065C387.934 67.5398 387.727 67.6065 387.501 67.6065H380.681H380.321C380.214 67.6065 380.121 67.5798 380.041 67.5265C379.961 67.4598 379.921 67.3732 379.921 67.2665C379.921 67.1998 379.934 67.1398 379.961 67.0865ZM410.303 38.7865C410.303 38.5198 410.39 38.3065 410.563 38.1465C410.75 37.9865 410.976 37.9065 411.243 37.9065H432.783C433.023 37.9065 433.236 37.9798 433.423 38.1265C433.61 38.2732 433.716 38.4932 433.743 38.7865V43.7665C433.743 44.0065 433.656 44.2398 433.483 44.4665C433.323 44.6798 433.09 44.7865 432.783 44.7865H425.883V66.6665C425.883 66.9065 425.796 67.1265 425.623 67.3265C425.45 67.5132 425.223 67.6065 424.943 67.6065H419.063C418.836 67.6065 418.623 67.5198 418.423 67.3465C418.223 67.1598 418.123 66.9332 418.123 66.6665V44.7865H411.243C410.976 44.7865 410.75 44.6998 410.563 44.5265C410.39 44.3532 410.303 44.0998 410.303 43.7665V38.7865Z" fill="black"/>
<path d="M104.406 49.4582C109.283 49.4582 113.237 45.5088 113.237 40.6369C113.237 35.765 109.283 31.8155 104.406 31.8155C99.5284 31.8155 95.5745 35.765 95.5745 40.6369C95.5745 45.5088 99.5284 49.4582 104.406 49.4582Z" fill="#FB7207"/>
<path d="M124.913 52.1223C129.791 52.1223 133.745 48.1729 133.745 43.301C133.745 38.4291 129.791 34.4796 124.913 34.4796C120.036 34.4796 116.082 38.4291 116.082 43.301C116.082 48.1729 120.036 52.1223 124.913 52.1223Z" fill="#FB7207"/>
<path d="M134.456 55.2602V73.9094C134.456 75.7447 134.574 77.2248 134.811 78.3497C135.7 82.4939 141.212 82.6716 141.331 82.6716C141.331 82.6716 138.367 83.7964 135.285 83.7964C132.263 83.7964 130.662 82.9084 129.299 81.1915C127.936 79.4153 127.225 76.9288 127.225 73.5542V55.201H123.965V54.2537H127.165L127.225 52.892C133.507 51.4712 134.396 45.0179 134.396 45.0179V54.3129H142.101V55.3786H134.456V55.2602Z" fill="#FB7207"/>
<path d="M143.88 80.3033C143.88 80.3033 143.998 80.1849 144.176 79.9481C144.058 80.0665 143.998 80.1849 143.88 80.3033Z" fill="black"/>
<path d="M148.384 72.9028C150.696 67.9297 152 62.4238 152 56.5626C152 35.0716 134.515 17.6065 113 17.6065C91.4848 17.6065 74 35.0716 74 56.5626C74 58.4571 74.1185 60.2924 74.4149 62.0686C74.4742 62.3646 74.4742 62.6606 74.5334 62.8974C76.0745 72.8436 81.6459 77.876 83.6611 79.4153C83.6611 79.4153 87.2173 82.7899 95.2189 83.4411C96.1079 83.5003 98.3009 83.6187 100.553 83.2043C102.687 82.7899 104.643 81.961 106.362 80.7769C108.733 79.1784 110.451 76.9879 111.518 74.2645C113.178 70.1203 112.881 66.0944 110.748 62.3054C110.214 61.4173 109.681 60.5885 109.088 59.8188C108.495 59.0492 107.725 58.1611 106.717 57.0954C105.71 56.0298 104.465 54.7865 102.924 53.3656C100.731 51.2343 99.1307 49.6358 98.1824 48.5109C97.1748 47.4452 96.2857 46.2611 95.5152 45.0771C94.2113 42.9457 94.152 40.2816 94.7447 37.9726C96.4043 32.1114 102.035 31.401 102.035 31.401C100.968 31.2826 99.9012 31.2826 98.8344 31.401C96.2857 31.6378 94.0927 32.4667 92.1368 33.8875C90.1809 35.3084 88.7584 37.1438 87.8693 39.3935C87.2766 40.8736 86.9802 42.3537 87.0395 43.8338C87.0395 45.3139 87.3951 46.8532 88.0471 48.3925C88.6991 49.9318 89.7067 51.4711 91.0106 53.1288C91.7219 53.9576 93.7371 56.0298 97.0562 59.4044C99.3678 61.7133 101.146 63.7263 102.272 65.5024C103.457 67.2785 104.109 68.9362 104.347 70.4755C104.584 72.0148 104.347 73.6133 103.695 75.1526C102.983 76.9287 101.916 78.3496 100.435 79.3561C98.9529 80.3625 97.2933 80.9546 95.3374 81.1322C93.7964 81.1322 92.3146 81.0138 90.9514 80.7177C86.2097 80.0073 83.4833 77.2247 82.535 76.0998C80.5198 73.7317 78.8009 70.6531 77.9711 68.3442C76.7265 64.6143 76.0152 60.6477 76.0152 56.4442C76.0152 36.0781 92.611 19.501 113 19.501C133.389 19.501 149.985 36.0781 149.985 56.4442C149.985 62.2462 148.622 67.7521 146.251 72.6068C146.191 72.7252 146.132 72.7844 146.132 72.9028C146.014 72.8436 145.836 72.7844 145.658 72.7252C144.769 72.37 143.702 71.778 142.457 70.7123C142.457 70.7123 143.287 73.4357 143.287 76.7511C143.287 78.468 143.109 80.3033 142.517 82.0202C142.635 81.9018 142.754 81.7834 142.872 81.6058C143.347 81.0138 144.176 79.8297 145.125 78.468C145.421 78.0536 145.658 77.6391 145.954 77.2247C146.073 76.9879 146.251 76.7511 146.369 76.5735C146.488 76.3959 146.547 76.2183 146.666 76.0406C146.725 75.9222 146.843 75.8038 146.903 75.6854C147.436 74.7974 147.91 73.9093 148.266 73.1397C148.325 73.0805 148.325 73.0212 148.384 72.962C148.325 73.0804 148.384 72.962 148.384 72.9028Z" fill="#FB7207"/>
<path d="M151.822 75.6262L147.91 73.9685L142.517 82.1978L151.822 75.6262Z" fill="#FB7207"/>
<path d="M142.457 70.8307L146.132 73.0804L142.517 82.1978L142.457 70.8307Z" fill="#FB7207"/>
<rect width="510" height="100" transform="translate(530 0.701477)" fill="#101010"/>
<path d="M703.566 58.0265C703.793 58.2132 704.079 58.4665 704.426 58.7865C704.786 59.0932 705.193 59.3998 705.646 59.7065C706.326 60.1598 706.999 60.5132 707.666 60.7665C708.333 61.0198 709.033 61.1465 709.766 61.1465C710.446 61.1465 711.013 61.0732 711.466 60.9265C711.933 60.7665 712.299 60.5598 712.566 60.3065C712.833 60.0532 713.019 59.7598 713.126 59.4265C713.246 59.0932 713.306 58.7398 713.306 58.3665C713.306 57.9532 713.146 57.5865 712.826 57.2665C712.519 56.9332 712.139 56.6398 711.686 56.3865C711.233 56.1332 710.759 55.9198 710.266 55.7465C709.773 55.5598 709.346 55.4065 708.986 55.2865C707.386 54.7265 705.986 54.1265 704.786 53.4865C703.586 52.8332 702.586 52.1132 701.786 51.3265C700.986 50.5265 700.386 49.6532 699.986 48.7065C699.586 47.7465 699.386 46.6798 699.386 45.5065C699.386 44.2665 699.633 43.1398 700.126 42.1265C700.633 41.1132 701.346 40.2465 702.266 39.5265C703.199 38.8065 704.319 38.2532 705.626 37.8665C706.933 37.4665 708.393 37.2665 710.006 37.2665C711.219 37.2665 712.379 37.4065 713.486 37.6865C714.606 37.9532 715.706 38.3865 716.786 38.9865C717.239 39.2532 717.666 39.5332 718.066 39.8265C718.479 40.1065 718.839 40.3798 719.146 40.6465C719.453 40.9132 719.693 41.1665 719.866 41.4065C720.053 41.6465 720.146 41.8532 720.146 42.0265C720.146 42.1998 720.099 42.3598 720.006 42.5065C719.926 42.6532 719.799 42.8198 719.626 43.0065L716.566 46.2665C716.339 46.4932 716.113 46.6065 715.886 46.6065C715.699 46.6065 715.526 46.5532 715.366 46.4465C715.219 46.3398 715.053 46.2065 714.866 46.0465L714.686 45.8865C714.419 45.6598 714.119 45.4265 713.786 45.1865C713.466 44.9465 713.119 44.7332 712.746 44.5465C712.373 44.3465 711.979 44.1865 711.566 44.0665C711.153 43.9332 710.733 43.8665 710.306 43.8665C709.866 43.8665 709.453 43.9065 709.066 43.9865C708.679 44.0532 708.339 44.1665 708.046 44.3265C707.753 44.4865 707.519 44.6998 707.346 44.9665C707.173 45.2198 707.086 45.5332 707.086 45.9065C707.086 46.2798 707.179 46.6065 707.366 46.8865C707.553 47.1532 707.833 47.4065 708.206 47.6465C708.579 47.8732 709.039 48.0932 709.586 48.3065C710.146 48.5065 710.793 48.7265 711.526 48.9665C712.939 49.4332 714.239 49.9265 715.426 50.4465C716.626 50.9532 717.659 51.5598 718.526 52.2665C719.393 52.9598 720.066 53.7932 720.546 54.7665C721.039 55.7398 721.286 56.9198 721.286 58.3065C721.286 59.7732 720.986 61.1065 720.386 62.3065C719.786 63.4932 718.959 64.5065 717.906 65.3465C716.866 66.1865 715.639 66.8398 714.226 67.3065C712.813 67.7598 711.293 67.9865 709.666 67.9865C708.133 67.9865 706.626 67.7132 705.146 67.1665C703.666 66.6198 702.286 65.8865 701.006 64.9665C700.473 64.5798 700.019 64.1998 699.646 63.8265C699.286 63.4532 698.999 63.1532 698.786 62.9265L698.726 62.8665C698.713 62.8398 698.699 62.8265 698.686 62.8265C698.673 62.8132 698.659 62.7998 698.646 62.7865C698.633 62.7598 698.619 62.7465 698.606 62.7465C698.593 62.7332 698.579 62.7198 698.566 62.7065C698.259 62.3732 698.106 62.1065 698.106 61.9065C698.106 61.6798 698.259 61.4265 698.566 61.1465L702.026 57.8465C702.306 57.6465 702.533 57.5465 702.706 57.5465C702.826 57.5465 702.953 57.5865 703.086 57.6665C703.219 57.7465 703.379 57.8665 703.566 58.0265ZM748.836 67.2665C748.663 67.4132 748.476 67.5065 748.276 67.5465C748.089 67.5865 747.909 67.6065 747.736 67.6065H744.716C744.476 67.6065 744.269 67.5665 744.096 67.4865C743.923 67.3932 743.776 67.2732 743.656 67.1265C743.536 66.9798 743.436 66.8132 743.356 66.6265C743.276 66.4398 743.209 66.2465 743.156 66.0465L742.736 64.0865C742.536 64.4998 742.203 64.9398 741.736 65.4065C741.269 65.8598 740.689 66.2798 739.996 66.6665C739.316 67.0532 738.529 67.3732 737.636 67.6265C736.743 67.8798 735.769 68.0065 734.716 68.0065C733.196 68.0065 731.849 67.7132 730.676 67.1265C729.503 66.5398 728.509 65.7398 727.696 64.7265C726.896 63.7132 726.289 62.5332 725.876 61.1865C725.463 59.8265 725.256 58.3798 725.256 56.8465V43.7465C725.256 43.2398 725.363 42.8598 725.576 42.6065C725.803 42.3398 726.156 42.2065 726.636 42.2065H731.256C731.829 42.2065 732.223 42.3065 732.436 42.5065C732.649 42.6932 732.756 43.0665 732.756 43.6265V56.6465C732.756 57.2198 732.863 57.7665 733.076 58.2865C733.303 58.7932 733.603 59.2465 733.976 59.6465C734.349 60.0332 734.783 60.3398 735.276 60.5665C735.783 60.7932 736.316 60.9065 736.876 60.9065C737.356 60.9065 737.876 60.8265 738.436 60.6665C738.996 60.5065 739.516 60.2598 739.996 59.9265C740.476 59.5798 740.876 59.1398 741.196 58.6065C741.516 58.0732 741.676 57.4332 741.676 56.6865V43.6865C741.676 43.4598 741.716 43.2332 741.796 43.0065C741.889 42.7798 742.023 42.6065 742.196 42.4865C742.369 42.3798 742.529 42.3065 742.676 42.2665C742.836 42.2265 743.016 42.2065 743.216 42.2065H747.736C748.309 42.2065 748.723 42.3465 748.976 42.6265C749.229 42.9065 749.356 43.2798 749.356 43.7465V66.1265C749.356 66.3798 749.296 66.6132 749.176 66.8265C749.069 67.0398 748.916 67.2065 748.716 67.3265L748.836 67.2665ZM754.682 42.4465C754.856 42.2998 755.036 42.2065 755.222 42.1665C755.409 42.1265 755.589 42.1065 755.762 42.1065H758.782C759.036 42.1065 759.242 42.1465 759.402 42.2265C759.576 42.3065 759.716 42.4198 759.822 42.5665C759.929 42.6998 760.016 42.8598 760.082 43.0465C760.162 43.2198 760.236 43.4132 760.302 43.6265L761.142 46.0465C761.516 45.5665 761.889 45.0798 762.262 44.5865C762.649 44.0798 763.102 43.6265 763.622 43.2265C764.142 42.8132 764.762 42.4732 765.482 42.2065C766.202 41.9398 767.082 41.8065 768.122 41.8065C769.949 41.8065 771.629 42.1465 773.162 42.8265C774.709 43.4932 776.036 44.4198 777.142 45.6065C778.262 46.7798 779.136 48.1665 779.762 49.7665C780.389 51.3532 780.702 53.0732 780.702 54.9265C780.702 56.7665 780.389 58.4865 779.762 60.0865C779.136 61.6865 778.262 63.0798 777.142 64.2665C776.036 65.4398 774.709 66.3665 773.162 67.0465C771.629 67.7265 769.949 68.0665 768.122 68.0665C767.256 68.0665 766.509 67.9598 765.882 67.7465C765.256 67.5465 764.696 67.2798 764.202 66.9465C763.722 66.6132 763.296 66.2465 762.922 65.8465C762.549 65.4465 762.182 65.0465 761.822 64.6465V73.9665C761.822 74.3665 761.702 74.7065 761.462 74.9865C761.222 75.2665 760.849 75.4065 760.342 75.4065H755.762C755.602 75.4065 755.429 75.3732 755.242 75.3065C755.056 75.2398 754.882 75.1465 754.722 75.0265C754.562 74.9065 754.429 74.7532 754.322 74.5665C754.216 74.3932 754.162 74.1932 754.162 73.9665V43.5865C754.162 43.3198 754.209 43.0998 754.302 42.9265C754.409 42.7532 754.536 42.5932 754.682 42.4465ZM773.362 54.9265C773.362 54.0732 773.222 53.2665 772.942 52.5065C772.662 51.7332 772.269 51.0598 771.762 50.4865C771.256 49.9132 770.649 49.4598 769.942 49.1265C769.236 48.7932 768.456 48.6265 767.602 48.6265C766.762 48.6265 765.962 48.7865 765.202 49.1065C764.456 49.4132 763.796 49.8398 763.222 50.3865C762.662 50.9198 762.202 51.5532 761.842 52.2865C761.496 53.0198 761.302 53.7998 761.262 54.6265V54.9265C761.262 55.8065 761.429 56.6332 761.762 57.4065C762.096 58.1798 762.549 58.8532 763.122 59.4265C763.696 59.9865 764.369 60.4332 765.142 60.7665C765.916 61.0998 766.736 61.2665 767.602 61.2665C768.456 61.2665 769.236 61.0998 769.942 60.7665C770.649 60.4332 771.256 59.9865 771.762 59.4265C772.269 58.8532 772.662 58.1798 772.942 57.4065C773.222 56.6332 773.362 55.8065 773.362 54.9265ZM785.229 42.4465C785.402 42.2998 785.582 42.2065 785.769 42.1665C785.956 42.1265 786.136 42.1065 786.309 42.1065H789.329C789.582 42.1065 789.789 42.1465 789.949 42.2265C790.122 42.3065 790.262 42.4198 790.369 42.5665C790.476 42.6998 790.562 42.8598 790.629 43.0465C790.709 43.2198 790.782 43.4132 790.849 43.6265L791.689 46.0465C792.062 45.5665 792.436 45.0798 792.809 44.5865C793.196 44.0798 793.649 43.6265 794.169 43.2265C794.689 42.8132 795.309 42.4732 796.029 42.2065C796.749 41.9398 797.629 41.8065 798.669 41.8065C800.496 41.8065 802.176 42.1465 803.709 42.8265C805.256 43.4932 806.582 44.4198 807.689 45.6065C808.809 46.7798 809.682 48.1665 810.309 49.7665C810.936 51.3532 811.249 53.0732 811.249 54.9265C811.249 56.7665 810.936 58.4865 810.309 60.0865C809.682 61.6865 808.809 63.0798 807.689 64.2665C806.582 65.4398 805.256 66.3665 803.709 67.0465C802.176 67.7265 800.496 68.0665 798.669 68.0665C797.802 68.0665 797.056 67.9598 796.429 67.7465C795.802 67.5465 795.242 67.2798 794.749 66.9465C794.269 66.6132 793.842 66.2465 793.469 65.8465C793.096 65.4465 792.729 65.0465 792.369 64.6465V73.9665C792.369 74.3665 792.249 74.7065 792.009 74.9865C791.769 75.2665 791.396 75.4065 790.889 75.4065H786.309C786.149 75.4065 785.976 75.3732 785.789 75.3065C785.602 75.2398 785.429 75.1465 785.269 75.0265C785.109 74.9065 784.976 74.7532 784.869 74.5665C784.762 74.3932 784.709 74.1932 784.709 73.9665V43.5865C784.709 43.3198 784.756 43.0998 784.849 42.9265C784.956 42.7532 785.082 42.5932 785.229 42.4465ZM803.909 54.9265C803.909 54.0732 803.769 53.2665 803.489 52.5065C803.209 51.7332 802.816 51.0598 802.309 50.4865C801.802 49.9132 801.196 49.4598 800.489 49.1265C799.782 48.7932 799.002 48.6265 798.149 48.6265C797.309 48.6265 796.509 48.7865 795.749 49.1065C795.002 49.4132 794.342 49.8398 793.769 50.3865C793.209 50.9198 792.749 51.5532 792.389 52.2865C792.042 53.0198 791.849 53.7998 791.809 54.6265V54.9265C791.809 55.8065 791.976 56.6332 792.309 57.4065C792.642 58.1798 793.096 58.8532 793.669 59.4265C794.242 59.9865 794.916 60.4332 795.689 60.7665C796.462 61.0998 797.282 61.2665 798.149 61.2665C799.002 61.2665 799.782 61.0998 800.489 60.7665C801.196 60.4332 801.802 59.9865 802.309 59.4265C802.816 58.8532 803.209 58.1798 803.489 57.4065C803.769 56.6332 803.909 55.8065 803.909 54.9265ZM814.476 54.9265C814.476 53.6998 814.629 52.5198 814.936 51.3865C815.256 50.2532 815.696 49.2065 816.256 48.2465C816.829 47.2732 817.509 46.3932 818.296 45.6065C819.096 44.8065 819.983 44.1265 820.956 43.5665C821.929 43.0065 822.976 42.5732 824.096 42.2665C825.229 41.9598 826.409 41.8065 827.636 41.8065C829.449 41.8065 831.149 42.1465 832.736 42.8265C834.336 43.4932 835.723 44.4198 836.896 45.6065C838.083 46.7798 839.016 48.1665 839.696 49.7665C840.389 51.3532 840.736 53.0732 840.736 54.9265C840.736 56.1532 840.576 57.3332 840.256 58.4665C839.949 59.5865 839.509 60.6332 838.936 61.6065C838.376 62.5798 837.696 63.4665 836.896 64.2665C836.109 65.0532 835.229 65.7332 834.256 66.3065C833.283 66.8665 832.236 67.2998 831.116 67.6065C830.009 67.9132 828.849 68.0665 827.636 68.0665C826.409 68.0665 825.229 67.9132 824.096 67.6065C822.976 67.2998 821.929 66.8665 820.956 66.3065C819.983 65.7332 819.096 65.0532 818.296 64.2665C817.509 63.4665 816.829 62.5798 816.256 61.6065C815.696 60.6332 815.256 59.5865 814.936 58.4665C814.629 57.3332 814.476 56.1532 814.476 54.9265ZM821.776 54.9265C821.776 55.8065 821.909 56.6332 822.176 57.4065C822.456 58.1665 822.843 58.8265 823.336 59.3865C823.843 59.9465 824.449 60.3932 825.156 60.7265C825.876 61.0465 826.683 61.2065 827.576 61.2065C828.443 61.2065 829.223 61.0465 829.916 60.7265C830.623 60.3932 831.216 59.9465 831.696 59.3865C832.189 58.8265 832.563 58.1665 832.816 57.4065C833.083 56.6332 833.216 55.8065 833.216 54.9265C833.216 54.0732 833.083 53.2598 832.816 52.4865C832.563 51.7132 832.189 51.0332 831.696 50.4465C831.216 49.8598 830.623 49.3998 829.916 49.0665C829.223 48.7198 828.443 48.5465 827.576 48.5465C826.683 48.5465 825.876 48.7198 825.156 49.0665C824.449 49.3998 823.843 49.8598 823.336 50.4465C822.843 51.0332 822.456 51.7132 822.176 52.4865C821.909 53.2598 821.776 54.0732 821.776 54.9265ZM844.709 43.6865C844.709 43.4332 844.756 43.2132 844.849 43.0265C844.942 42.8398 845.062 42.6865 845.209 42.5665C845.369 42.4465 845.542 42.3598 845.729 42.3065C845.929 42.2398 846.122 42.2065 846.309 42.2065H849.329C849.662 42.2065 849.929 42.3065 850.129 42.5065C850.329 42.7065 850.496 42.9598 850.629 43.2665C850.776 43.5732 850.902 43.9132 851.009 44.2865C851.116 44.6598 851.242 45.0198 851.389 45.3665C851.789 44.9265 852.182 44.4932 852.569 44.0665C852.969 43.6398 853.396 43.2598 853.849 42.9265C854.302 42.5932 854.796 42.3265 855.329 42.1265C855.876 41.9132 856.496 41.8065 857.189 41.8065C857.909 41.8065 858.549 41.8598 859.109 41.9665C859.682 42.0732 860.222 42.2332 860.729 42.4465C861.236 42.6465 861.736 42.9065 862.229 43.2265C862.736 43.5465 863.282 43.9198 863.869 44.3465C864.442 44.6798 864.729 45.0732 864.729 45.5265C864.729 45.8198 864.616 46.1598 864.389 46.5465L862.569 49.6465C862.209 50.1665 861.762 50.4265 861.229 50.4265C860.962 50.4265 860.662 50.3532 860.329 50.2065C859.756 49.6465 859.169 49.2332 858.569 48.9665C857.982 48.6865 857.309 48.5465 856.549 48.5465C856.029 48.5465 855.569 48.6198 855.169 48.7665C854.782 48.9132 854.429 49.1198 854.109 49.3865C853.789 49.6532 853.489 49.9732 853.209 50.3465C852.929 50.7198 852.649 51.1332 852.369 51.5865V66.0665C852.369 66.5732 852.242 66.9598 851.989 67.2265C851.749 67.4798 851.342 67.6065 850.769 67.6065H846.269C845.229 67.6065 844.709 67.0932 844.709 66.0665V43.6865ZM869.257 38.2465C869.257 37.8332 869.39 37.5265 869.657 37.3265C869.937 37.1132 870.33 36.9132 870.837 36.7265L875.377 35.1465C875.444 35.1332 875.504 35.1265 875.557 35.1265C875.624 35.1265 875.684 35.1265 875.737 35.1265C876.23 35.1265 876.557 35.2732 876.717 35.5665C876.89 35.8465 876.977 36.2198 876.977 36.6865L876.957 42.1865H879.697C880.124 42.1865 880.47 42.3132 880.737 42.5665C881.004 42.8198 881.137 43.1998 881.137 43.7065V47.5665C881.137 48.1265 881.004 48.5398 880.737 48.8065C880.47 49.0598 880.124 49.1865 879.697 49.1865H876.957L876.977 66.0665C876.977 66.5732 876.83 66.9598 876.537 67.2265C876.244 67.4798 875.837 67.6065 875.317 67.6065H870.797C869.77 67.6065 869.257 67.0932 869.257 66.0665L869.237 49.1865H867.177C866.15 49.1865 865.637 48.6465 865.637 47.5665V43.7065C865.637 42.6932 866.15 42.1865 867.177 42.1865H869.237L869.257 38.2465Z" fill="white"/>
<path d="M884.6 38.7865C884.6 38.5198 884.687 38.3065 884.86 38.1465C885.047 37.9865 885.273 37.9065 885.54 37.9065H907.08C907.32 37.9065 907.533 37.9798 907.72 38.1265C907.907 38.2732 908.013 38.4932 908.04 38.7865V43.7665C908.04 44.0065 907.953 44.2398 907.78 44.4665C907.62 44.6798 907.387 44.7865 907.08 44.7865H900.18V66.6665C900.18 66.9065 900.093 67.1265 899.92 67.3265C899.747 67.5132 899.52 67.6065 899.24 67.6065H893.36C893.133 67.6065 892.92 67.5198 892.72 67.3465C892.52 67.1598 892.42 66.9332 892.42 66.6665V44.7865H885.54C885.273 44.7865 885.047 44.6998 884.86 44.5265C884.687 44.3532 884.6 44.0998 884.6 43.7665V38.7865ZM909.961 67.0865C910.067 66.8865 910.174 66.6865 910.281 66.4865C910.401 66.2732 910.534 66.0598 910.681 65.8465L919.681 52.4065C918.147 50.0998 916.627 47.8198 915.121 45.5665C913.627 43.3132 912.114 41.0332 910.581 38.7265C910.501 38.6198 910.434 38.5198 910.381 38.4265C910.341 38.3332 910.314 38.2332 910.301 38.1265C910.327 38.0198 910.401 37.9732 910.521 37.9865C910.654 37.9865 910.787 37.9532 910.921 37.8865H917.881C918.374 37.8865 918.761 38.1398 919.041 38.6465L923.941 46.0065L928.901 38.6465C929.181 38.1398 929.567 37.8865 930.061 37.8865H936.341C936.447 37.8865 936.574 37.8865 936.721 37.8865C936.867 37.8865 937.001 37.8932 937.121 37.9065C937.254 37.9065 937.367 37.9265 937.461 37.9665C937.554 38.0065 937.601 38.0665 937.601 38.1465C937.601 38.3065 937.527 38.4798 937.381 38.6665L928.181 52.4065L937.561 66.4065C937.694 66.5932 937.794 66.7665 937.861 66.9265C937.941 67.0732 937.974 67.1998 937.961 67.3065C937.961 67.5065 937.841 67.6065 937.601 67.6065H930.441C930.214 67.6065 930.007 67.5398 929.821 67.4065C929.634 67.2732 929.487 67.0932 929.381 66.8665L923.941 58.8065L918.561 66.8665C918.454 67.0932 918.307 67.2732 918.121 67.4065C917.934 67.5398 917.727 67.6065 917.501 67.6065H910.681H910.321C910.214 67.6065 910.121 67.5798 910.041 67.5265C909.961 67.4598 909.921 67.3732 909.921 67.2665C909.921 67.1998 909.934 67.1398 909.961 67.0865ZM940.303 38.7865C940.303 38.5198 940.39 38.3065 940.563 38.1465C940.75 37.9865 940.976 37.9065 941.243 37.9065H962.783C963.023 37.9065 963.236 37.9798 963.423 38.1265C963.61 38.2732 963.716 38.4932 963.743 38.7865V43.7665C963.743 44.0065 963.656 44.2398 963.483 44.4665C963.323 44.6798 963.09 44.7865 962.783 44.7865H955.883V66.6665C955.883 66.9065 955.796 67.1265 955.623 67.3265C955.45 67.5132 955.223 67.6065 954.943 67.6065H949.063C948.836 67.6065 948.623 67.5198 948.423 67.3465C948.223 67.1598 948.123 66.9332 948.123 66.6665V44.7865H941.243C940.976 44.7865 940.75 44.6998 940.563 44.5265C940.39 44.3532 940.303 44.0998 940.303 43.7665V38.7865Z" fill="white"/>
<path d="M634.406 49.4582C639.283 49.4582 643.237 45.5088 643.237 40.6369C643.237 35.765 639.283 31.8155 634.406 31.8155C629.528 31.8155 625.574 35.765 625.574 40.6369C625.574 45.5088 629.528 49.4582 634.406 49.4582Z" fill="#FB7207"/>
<path d="M654.913 52.1223C659.791 52.1223 663.745 48.1729 663.745 43.301C663.745 38.4291 659.791 34.4796 654.913 34.4796C650.036 34.4796 646.082 38.4291 646.082 43.301C646.082 48.1729 650.036 52.1223 654.913 52.1223Z" fill="#FB7207"/>
<path d="M664.456 55.2602V73.9094C664.456 75.7447 664.574 77.2248 664.811 78.3497C665.7 82.4939 671.212 82.6716 671.331 82.6716C671.331 82.6716 668.368 83.7964 665.285 83.7964C662.263 83.7964 660.662 82.9084 659.299 81.1915C657.936 79.4153 657.225 76.9288 657.225 73.5542V55.201H653.965V54.2537H657.165L657.225 52.892C663.507 51.4712 664.396 45.0179 664.396 45.0179V54.3129H672.102V55.3786H664.456V55.2602Z" fill="#FB7207"/>
<path d="M673.88 80.3033C673.88 80.3033 673.998 80.1849 674.176 79.9481C674.058 80.0665 673.998 80.1849 673.88 80.3033Z" fill="white"/>
<path d="M678.384 72.9028C680.696 67.9297 682 62.4238 682 56.5626C682 35.0716 664.515 17.6065 643 17.6065C621.485 17.6065 604 35.0716 604 56.5626C604 58.4571 604.119 60.2924 604.415 62.0686C604.474 62.3646 604.474 62.6606 604.533 62.8974C606.074 72.8436 611.646 77.876 613.661 79.4153C613.661 79.4153 617.217 82.7899 625.219 83.4411C626.108 83.5003 628.301 83.6187 630.553 83.2043C632.687 82.7899 634.643 81.961 636.362 80.7769C638.733 79.1784 640.451 76.9879 641.518 74.2645C643.178 70.1203 642.881 66.0944 640.748 62.3054C640.214 61.4173 639.681 60.5885 639.088 59.8188C638.495 59.0492 637.725 58.1611 636.717 57.0954C635.71 56.0298 634.465 54.7865 632.924 53.3656C630.731 51.2343 629.131 49.6358 628.182 48.5109C627.175 47.4452 626.286 46.2611 625.515 45.0771C624.211 42.9457 624.152 40.2816 624.745 37.9726C626.404 32.1114 632.035 31.401 632.035 31.401C630.968 31.2826 629.901 31.2826 628.834 31.401C626.286 31.6378 624.093 32.4667 622.137 33.8875C620.181 35.3084 618.758 37.1438 617.869 39.3935C617.277 40.8736 616.98 42.3537 617.04 43.8338C617.04 45.3139 617.395 46.8532 618.047 48.3925C618.699 49.9318 619.707 51.4711 621.011 53.1288C621.722 53.9576 623.737 56.0298 627.056 59.4044C629.368 61.7133 631.146 63.7263 632.272 65.5024C633.457 67.2785 634.109 68.9362 634.347 70.4755C634.584 72.0148 634.347 73.6133 633.695 75.1526C632.983 76.9287 631.916 78.3496 630.435 79.3561C628.953 80.3625 627.293 80.9546 625.337 81.1322C623.796 81.1322 622.315 81.0138 620.951 80.7177C616.21 80.0073 613.483 77.2247 612.535 76.0998C610.52 73.7317 608.801 70.6531 607.971 68.3442C606.726 64.6143 606.015 60.6477 606.015 56.4442C606.015 36.0781 622.611 19.501 643 19.501C663.389 19.501 679.985 36.0781 679.985 56.4442C679.985 62.2462 678.622 67.7521 676.251 72.6068C676.191 72.7252 676.132 72.7844 676.132 72.9028C676.014 72.8436 675.836 72.7844 675.658 72.7252C674.769 72.37 673.702 71.778 672.457 70.7123C672.457 70.7123 673.287 73.4357 673.287 76.7511C673.287 78.468 673.109 80.3033 672.517 82.0202C672.635 81.9018 672.754 81.7834 672.872 81.6058C673.347 81.0138 674.176 79.8297 675.125 78.468C675.421 78.0536 675.658 77.6391 675.954 77.2247C676.073 76.9879 676.251 76.7511 676.369 76.5735C676.488 76.3959 676.547 76.2183 676.666 76.0406C676.725 75.9222 676.843 75.8038 676.903 75.6854C677.436 74.7974 677.91 73.9093 678.266 73.1397C678.325 73.0805 678.325 73.0212 678.384 72.962C678.325 73.0804 678.384 72.962 678.384 72.9028Z" fill="#FB7207"/>
<path d="M681.822 75.6262L677.91 73.9685L672.517 82.1978L681.822 75.6262Z" fill="#FB7207"/>
<path d="M672.457 70.8307L676.132 73.0804L672.516 82.1978L672.457 70.8307Z" fill="#FB7207"/>
</svg>
