<svg width="124" height="38" viewBox="0 0 124 38" fill="none" xmlns="http://www.w3.org/2000/svg">
<path d="M20.2012 13.185V14.766H17.0562V25H15.1182L15.1182 14.766H11.9562V13.185H20.2012ZM30.7489 20.087C30.7489 20.4383 30.7263 20.7557 30.6809 21.039H23.5239C23.5806 21.787 23.8582 22.3877 24.3569 22.841C24.8556 23.2943 25.4676 23.521 26.1929 23.521C27.2356 23.521 27.9722 23.0847 28.4029 22.212H30.4939C30.2106 23.0733 29.6949 23.7817 28.9469 24.337C28.2102 24.881 27.2922 25.153 26.1929 25.153C25.2976 25.153 24.4929 24.9547 23.7789 24.558C23.0762 24.15 22.5209 23.5833 22.1129 22.858C21.7162 22.1213 21.5179 21.2713 21.5179 20.308C21.5179 19.3447 21.7106 18.5003 22.0959 17.775C22.4926 17.0383 23.0422 16.4717 23.7449 16.075C24.4589 15.6783 25.2749 15.48 26.1929 15.48C27.0769 15.48 27.8646 15.6727 28.5559 16.058C29.2472 16.4433 29.7856 16.9873 30.1709 17.69C30.5562 18.3813 30.7489 19.1803 30.7489 20.087ZM28.7259 19.475C28.7146 18.761 28.4596 18.1887 27.9609 17.758C27.4622 17.3273 26.8446 17.112 26.1079 17.112C25.4392 17.112 24.8669 17.3273 24.3909 17.758C23.9149 18.1773 23.6316 18.7497 23.5409 19.475H28.7259ZM36.0561 25.153C35.3194 25.153 34.6564 25.0227 34.0671 24.762C33.4891 24.49 33.0301 24.1273 32.6901 23.674C32.3501 23.2093 32.1688 22.6937 32.1461 22.127H34.1521C34.1861 22.5237 34.3731 22.858 34.7131 23.13C35.0644 23.3907 35.5008 23.521 36.0221 23.521C36.5661 23.521 36.9854 23.419 37.2801 23.215C37.5861 22.9997 37.7391 22.7277 37.7391 22.399C37.7391 22.0477 37.5691 21.787 37.2291 21.617C36.9004 21.447 36.3734 21.26 35.6481 21.056C34.9454 20.8633 34.3731 20.6763 33.9311 20.495C33.4891 20.3137 33.1038 20.036 32.7751 19.662C32.4578 19.288 32.2991 18.795 32.2991 18.183C32.2991 17.6843 32.4464 17.231 32.7411 16.823C33.0358 16.4037 33.4551 16.075 33.9991 15.837C34.5544 15.599 35.1891 15.48 35.9031 15.48C36.9684 15.48 37.8241 15.752 38.4701 16.296C39.1274 16.8287 39.4788 17.5597 39.5241 18.489H37.5861C37.5521 18.0697 37.3821 17.7353 37.0761 17.486C36.7701 17.2367 36.3564 17.112 35.8351 17.112C35.3251 17.112 34.9341 17.2083 34.6621 17.401C34.3901 17.5937 34.2541 17.8487 34.2541 18.166C34.2541 18.4153 34.3448 18.625 34.5261 18.795C34.7074 18.965 34.9284 19.101 35.1891 19.203C35.4498 19.2937 35.8351 19.4127 36.3451 19.56C37.0251 19.7413 37.5804 19.9283 38.0111 20.121C38.4531 20.3023 38.8328 20.5743 39.1501 20.937C39.4674 21.2997 39.6318 21.7813 39.6431 22.382C39.6431 22.9147 39.4958 23.3907 39.2011 23.81C38.9064 24.2293 38.4871 24.558 37.9431 24.796C37.4104 25.034 36.7814 25.153 36.0561 25.153ZM43.9982 17.214V22.399C43.9982 22.7503 44.0775 23.0053 44.2362 23.164C44.4062 23.3113 44.6895 23.385 45.0862 23.385H46.2762V25H44.7462C43.8735 25 43.2048 24.796 42.7402 24.388C42.2755 23.98 42.0432 23.317 42.0432 22.399V17.214H40.9382V15.633H42.0432V13.304H43.9982V15.633H46.2762V17.214H43.9982ZM49.0484 14.392C48.697 14.392 48.4024 14.273 48.1644 14.035C47.9264 13.797 47.8074 13.5023 47.8074 13.151C47.8074 12.7997 47.9264 12.505 48.1644 12.267C48.4024 12.029 48.697 11.91 49.0484 11.91C49.3884 11.91 49.6774 12.029 49.9154 12.267C50.1534 12.505 50.2724 12.7997 50.2724 13.151C50.2724 13.5023 50.1534 13.797 49.9154 14.035C49.6774 14.273 49.3884 14.392 49.0484 14.392ZM50.0004 15.633V25H48.0624V15.633H50.0004ZM63.8838 15.48C64.6204 15.48 65.2778 15.633 65.8558 15.939C66.4451 16.245 66.9041 16.6983 67.2328 17.299C67.5728 17.8997 67.7428 18.625 67.7428 19.475V25H65.8218V19.764C65.8218 18.9253 65.6121 18.285 65.1928 17.843C64.7734 17.3897 64.2011 17.163 63.4758 17.163C62.7504 17.163 62.1724 17.3897 61.7418 17.843C61.3224 18.285 61.1128 18.9253 61.1128 19.764V25H59.1918V19.764C59.1918 18.9253 58.9821 18.285 58.5628 17.843C58.1434 17.3897 57.5711 17.163 56.8458 17.163C56.1204 17.163 55.5424 17.3897 55.1118 17.843C54.6924 18.285 54.4828 18.9253 54.4828 19.764V25L52.5448 25V15.633H54.4828V16.704C54.8001 16.3187 55.2024 16.0183 55.6898 15.803C56.1771 15.5877 56.6984 15.48 57.2538 15.48C58.0018 15.48 58.6704 15.6387 59.2598 15.956C59.8491 16.2733 60.3024 16.7323 60.6198 17.333C60.9031 16.7663 61.3451 16.3187 61.9458 15.99C62.5464 15.65 63.1924 15.48 63.8838 15.48ZM74.2718 25.153C73.3878 25.153 72.5888 24.9547 71.8748 24.558C71.1608 24.15 70.5998 23.5833 70.1918 22.858C69.7838 22.1213 69.5798 21.2713 69.5798 20.308C69.5798 19.356 69.7895 18.5117 70.2088 17.775C70.6282 17.0383 71.2005 16.4717 71.9258 16.075C72.6512 15.6783 73.4615 15.48 74.3568 15.48C75.2522 15.48 76.0625 15.6783 76.7878 16.075C77.5132 16.4717 78.0855 17.0383 78.5048 17.775C78.9242 18.5117 79.1338 19.356 79.1338 20.308C79.1338 21.26 78.9185 22.1043 78.4878 22.841C78.0572 23.5777 77.4678 24.15 76.7198 24.558C75.9832 24.9547 75.1672 25.153 74.2718 25.153ZM74.2718 23.47C74.7705 23.47 75.2352 23.351 75.6658 23.113C76.1078 22.875 76.4648 22.518 76.7368 22.042C77.0088 21.566 77.1448 20.988 77.1448 20.308C77.1448 19.628 77.0145 19.0557 76.7538 18.591C76.4932 18.115 76.1475 17.758 75.7168 17.52C75.2862 17.282 74.8215 17.163 74.3228 17.163C73.8242 17.163 73.3595 17.282 72.9288 17.52C72.5095 17.758 72.1752 18.115 71.9258 18.591C71.6765 19.0557 71.5518 19.628 71.5518 20.308C71.5518 21.3167 71.8068 22.0987 72.3168 22.654C72.8382 23.198 73.4898 23.47 74.2718 23.47ZM85.7757 15.48C86.5123 15.48 87.1697 15.633 87.7477 15.939C88.337 16.245 88.796 16.6983 89.1247 17.299C89.4533 17.8997 89.6177 18.625 89.6177 19.475V25H87.6967V19.764C87.6967 18.9253 87.487 18.285 87.0677 17.843C86.6483 17.3897 86.076 17.163 85.3507 17.163C84.6253 17.163 84.0473 17.3897 83.6167 17.843C83.1973 18.285 82.9877 18.9253 82.9877 19.764V25H81.0497V15.633H82.9877V16.704C83.305 16.3187 83.7073 16.0183 84.1947 15.803C84.6933 15.5877 85.2203 15.48 85.7757 15.48ZM93.0757 14.392C92.7244 14.392 92.4297 14.273 92.1917 14.035C91.9537 13.797 91.8347 13.5023 91.8347 13.151C91.8347 12.7997 91.9537 12.505 92.1917 12.267C92.4297 12.029 92.7244 11.91 93.0757 11.91C93.4157 11.91 93.7047 12.029 93.9427 12.267C94.1807 12.505 94.2997 12.7997 94.2997 13.151C94.2997 13.5023 94.1807 13.797 93.9427 14.035C93.7047 14.273 93.4157 14.392 93.0757 14.392ZM94.0277 15.633V25H92.0897V15.633H94.0277ZM95.9261 20.274C95.9261 19.3333 96.1188 18.5003 96.5041 17.775C96.9008 17.0497 97.4335 16.4887 98.1021 16.092C98.7821 15.684 99.5301 15.48 100.346 15.48C101.083 15.48 101.723 15.6273 102.267 15.922C102.822 16.2053 103.264 16.5623 103.593 16.993V15.633H105.548V25H103.593V23.606C103.264 24.048 102.817 24.4163 102.25 24.711C101.683 25.0057 101.037 25.153 100.312 25.153C99.5075 25.153 98.7708 24.949 98.1021 24.541C97.4335 24.1217 96.9008 23.5437 96.5041 22.807C96.1188 22.059 95.9261 21.2147 95.9261 20.274ZM103.593 20.308C103.593 19.662 103.457 19.101 103.185 18.625C102.924 18.149 102.579 17.7863 102.148 17.537C101.717 17.2877 101.253 17.163 100.754 17.163C100.255 17.163 99.7908 17.2877 99.3601 17.537C98.9295 17.775 98.5781 18.132 98.3061 18.608C98.0455 19.0727 97.9151 19.628 97.9151 20.274C97.9151 20.92 98.0455 21.4867 98.3061 21.974C98.5781 22.4613 98.9295 22.8353 99.3601 23.096C99.8021 23.3453 100.267 23.47 100.754 23.47C101.253 23.47 101.717 23.3453 102.148 23.096C102.579 22.8467 102.924 22.484 103.185 22.008C103.457 21.5207 103.593 20.954 103.593 20.308ZM110.032 12.42V25H108.094V12.42H110.032Z" fill="#FF4883"/>
<path d="M122.648 19C122.648 21.3889 121.088 23.7579 118.046 25.9927C115.015 28.22 110.595 30.2468 105.09 31.9575C94.084 35.3772 78.8494 37.5 61.9999 37.5C45.1503 37.5 29.9157 35.3772 18.9102 31.9575C13.4044 30.2468 8.98523 28.22 5.95337 25.9927C2.91131 23.7579 1.35205 21.3889 1.35205 19C1.35205 16.6111 2.91131 14.2421 5.95337 12.0073C8.98523 9.78 13.4044 7.75322 18.9102 6.04245C29.9157 2.62279 45.1503 0.5 61.9999 0.5C78.8494 0.5 94.084 2.62279 105.09 6.04245C110.595 7.75322 115.015 9.78 118.046 12.0073C121.088 14.2421 122.648 16.6111 122.648 19Z" stroke="#FF4883"/>
</svg>
