<svg width="45" height="45" viewBox="0 0 45 45" fill="none" xmlns="http://www.w3.org/2000/svg">
<rect width="45" height="45" rx="10" fill="#FF4883" fill-opacity="0.1"/>
<path d="M28.4853 16.693C29.042 16.1393 29.042 15.237 28.4853 14.6833L26.4375 12.6354L26.4404 12.6383C25.8984 12.0963 24.9668 11.1647 23.6484 9.84928C23.0273 9.24283 22.0224 9.24869 21.4072 9.86392L9.87009 21.3922C9.72248 21.5389 9.60534 21.7132 9.52539 21.9053C9.44545 22.0974 9.4043 22.3033 9.4043 22.5114C9.4043 22.7194 9.44545 22.9254 9.52539 23.1175C9.60534 23.3096 9.72248 23.4839 9.87009 23.6305L21.4043 35.1559C21.7017 35.4528 22.1047 35.6195 22.5249 35.6195C22.9451 35.6195 23.3481 35.4528 23.6455 35.1559L28.4824 30.3219C29.039 29.7682 29.039 28.8659 28.4824 28.3122C28.215 28.0461 27.8532 27.8968 27.4761 27.8968C27.0989 27.8968 26.7371 28.0461 26.4697 28.3122L22.8076 31.9801C22.6552 32.1325 22.4179 32.1325 22.2656 31.9801L13.0517 22.7751C12.8994 22.6227 12.8994 22.3854 13.0517 22.2331L22.2627 13.028C22.2744 13.0163 22.289 13.0075 22.3008 12.9958C22.4531 12.8756 22.664 12.8874 22.8047 13.028L26.4726 16.693C27.0293 17.2497 27.9316 17.2497 28.4853 16.693ZM19.4707 22.57C19.4707 23.3952 19.7988 24.1865 20.3828 24.77C20.9669 25.3535 21.759 25.6813 22.5849 25.6813C23.4109 25.6813 24.203 25.3535 24.787 24.77C25.3711 24.1865 25.6992 23.3952 25.6992 22.57C25.6992 21.7448 25.3711 20.9534 24.787 20.3699C24.203 19.7864 23.4109 19.4587 22.5849 19.4587C21.759 19.4587 20.9669 19.7864 20.3828 20.3699C19.7988 20.9534 19.4707 21.7448 19.4707 22.57ZM35.1797 21.4391L31.5791 17.8561C31.0224 17.3024 30.1201 17.3024 29.5664 17.859C29.434 17.9908 29.329 18.1474 29.2574 18.3198C29.1857 18.4923 29.1488 18.6772 29.1488 18.8639C29.1488 19.0507 29.1857 19.2356 29.2574 19.408C29.329 19.5805 29.434 19.7371 29.5664 19.8688L31.998 22.2975C32.1504 22.4499 32.1504 22.6872 31.998 22.8395L29.6015 25.2331C29.4692 25.3648 29.3642 25.5214 29.2925 25.6939C29.2209 25.8663 29.184 26.0512 29.184 26.2379C29.184 26.4247 29.2209 26.6096 29.2925 26.782C29.3642 26.9545 29.4692 27.1111 29.6015 27.2428C29.8689 27.5089 30.2307 27.6582 30.6079 27.6582C30.9851 27.6582 31.3469 27.5089 31.6142 27.2428L35.1826 23.6774C35.3297 23.5304 35.4463 23.3559 35.5258 23.1637C35.6053 22.9715 35.6461 22.7656 35.6458 22.5577C35.6456 22.3497 35.6042 22.1439 35.5242 21.9519C35.4442 21.76 35.3271 21.5857 35.1797 21.4391Z" fill="#FF4883"/>
</svg>
