<svg width="58" height="58" viewBox="0 0 58 58" fill="none" xmlns="http://www.w3.org/2000/svg">
<rect x="1.81232" y="2.0633" width="54.0807" height="54.0807" rx="27.0404" fill="#FFC9F0"/>
<rect x="1.81232" y="2.0633" width="54.0807" height="54.0807" rx="27.0404" stroke="black" stroke-width="2.42152"/>
<path d="M31.1909 12.0071C28.9071 13.0384 26.4023 16.4641 25.1867 20.2213L24.7447 21.6211L22.6082 21.5842C19.8088 21.5474 18.2985 22.3209 17.3776 24.31C14.9097 29.7985 19.9929 41.1438 27.1021 46.0429C29.6438 47.811 29.9753 47.6636 32.4433 43.9801C36.7898 37.4971 38.8526 33.1873 40.2155 27.8831C42.8676 17.3113 38.1159 8.87606 31.1909 12.0071ZM35.4269 14.4382C36.9372 15.2117 38.0422 17.7534 38.3001 20.958C38.6684 26.2255 36.2373 33.0768 31.1909 41.0333C29.8648 43.1329 28.6492 44.8273 28.465 44.8273C27.6915 44.8273 23.6765 39.8545 22.3135 37.2392C18.0038 28.9881 18.5564 22.6893 23.4554 24.5679C24.1185 24.8257 24.45 25.2678 24.5973 26.2991C25.334 30.6825 27.5442 34.1451 29.6069 34.1451C30.933 34.1451 31.7802 32.9295 31.7802 31.0141C31.7434 29.0618 30.712 26.8148 28.8334 24.7889L27.2863 23.0945L27.6915 21.4001C28.7229 17.3482 31.4487 13.9593 33.7325 13.8857C34.1008 13.8857 34.8744 14.1435 35.4269 14.4382Z" fill="black"/>
</svg>
