<svg width="45" height="45" viewBox="0 0 45 45" fill="none" xmlns="http://www.w3.org/2000/svg">
<rect width="45" height="45" rx="10" fill="#FF4883" fill-opacity="0.1"/>
<path d="M28.3527 14.8158L28.3531 14.8162C28.836 15.2966 28.836 16.0797 28.3531 16.5601L28.3524 16.5608C27.8722 17.0435 27.0888 17.0441 26.6052 16.5604L26.6052 16.5604L22.9372 12.8954C22.9372 12.8954 22.9372 12.8954 22.9372 12.8954C22.73 12.6882 22.4123 12.6691 22.1847 12.8485L22.176 12.8554L22.1707 12.8606L22.1666 12.8639L22.1661 12.8642C22.1631 12.8666 22.1578 12.8707 22.1523 12.8753C22.1462 12.8803 22.1385 12.887 22.1301 12.8954C22.1301 12.8954 22.1301 12.8954 22.1301 12.8954L12.9192 22.1004L12.9192 22.1005C12.6936 22.326 12.6936 22.6821 12.9192 22.9076L12.9192 22.9077L22.133 32.1127C22.133 32.1127 22.1331 32.1128 22.1331 32.1128C22.3587 32.3383 22.7146 32.3383 22.9402 32.1127L22.9403 32.1126L26.602 28.4451C26.6021 28.445 26.6022 28.4448 26.6023 28.4447C26.8345 28.2139 27.1486 28.0843 27.476 28.0843C27.8036 28.0843 28.1179 28.214 28.3501 28.4451L28.3502 28.4451C28.8331 28.9255 28.8331 29.7086 28.3502 30.189L28.3499 30.1893L23.513 35.0232C23.2508 35.285 22.8954 35.432 22.5249 35.432C22.1544 35.432 21.799 35.285 21.5367 35.0232L10.0026 23.4979L10.0022 23.4975C9.87216 23.3683 9.76894 23.2147 9.6985 23.0454C9.62806 22.8762 9.5918 22.6947 9.5918 22.5114C9.5918 22.3281 9.62806 22.1466 9.6985 21.9773C9.76894 21.8081 9.87216 21.6545 10.0022 21.5253L10.0026 21.5249L21.5397 9.99656L21.5398 9.99651C22.0823 9.45402 22.9691 9.44881 23.5167 9.98274C24.8346 11.2977 25.7659 12.229 26.3078 12.7709L28.3527 14.8158ZM35.0474 21.572L35.0475 21.5721C35.1775 21.7013 35.2807 21.8549 35.3512 22.024C35.4217 22.1932 35.4581 22.3746 35.4583 22.5579C35.4586 22.7412 35.4226 22.9227 35.3526 23.092C35.2825 23.2614 35.1797 23.4152 35.0501 23.5448L31.482 27.1099C31.2498 27.341 30.9355 27.4707 30.6079 27.4707C30.2803 27.4707 29.966 27.341 29.7338 27.1099C29.619 26.9956 29.5279 26.8597 29.4657 26.7101C29.4035 26.5604 29.3715 26.4 29.3715 26.2379C29.3715 26.0759 29.4035 25.9154 29.4657 25.7658C29.5279 25.6162 29.619 25.4803 29.7338 25.3659L29.734 25.3657L32.1305 22.9722L32.1306 22.9721C32.3562 22.7465 32.3562 22.3905 32.1306 22.1649L32.1305 22.1649L29.6989 19.7361L29.6987 19.7359C29.5838 19.6216 29.4927 19.4857 29.4305 19.3361C29.3683 19.1864 29.3363 19.026 29.3363 18.8639C29.3363 18.7019 29.3683 18.5414 29.4305 18.3918C29.4927 18.2421 29.5838 18.1062 29.6987 17.9919L29.6993 17.9913C30.1796 17.5085 30.9632 17.508 31.4468 17.989L35.0474 21.572ZM20.5153 24.6374C19.9665 24.089 19.6582 23.3454 19.6582 22.57C19.6582 21.7946 19.9665 21.0509 20.5153 20.5026C21.0642 19.9542 21.8087 19.6461 22.5849 19.6461C23.3612 19.6461 24.1057 19.9542 24.6545 20.5026C25.2034 21.0509 25.5117 21.7946 25.5117 22.57C25.5117 23.3454 25.2034 24.089 24.6545 24.6374C24.1057 25.1857 23.3612 25.4938 22.5849 25.4938C21.8087 25.4938 21.0642 25.1857 20.5153 24.6374Z" fill="#FF4883" stroke="#FFEDF3" stroke-width="0.375"/>
</svg>
