<svg width="133" height="119" viewBox="0 0 133 119" fill="none" xmlns="http://www.w3.org/2000/svg">
<g filter="url(#filter0_d_318_18157)">
<path d="M56.6752 19.8815V39.6365L46.3682 34.483C40.6994 31.7345 35.3741 29.3295 34.3434 29.3295C30.3924 29.3295 33.141 34.6548 40.5276 41.1825C45.8529 45.8206 47.7425 48.3974 46.1964 48.9127C44.8222 49.4281 34.687 52.1766 23.3494 54.9251C2.22009 60.0786 -2.07447 62.3118 1.1894 65.5756C2.39188 66.7781 10.6374 66.2628 29.0182 63.5142C43.4479 61.4529 55.6445 60.2504 56.1598 60.7657C56.6752 61.4529 53.7549 67.4652 49.8039 74.3366C45.6811 81.2079 42.2454 87.392 41.9019 87.9074C41.5583 88.5945 42.4172 89.9688 43.6197 90.9995C45.6811 92.7173 47.3989 91.8584 52.896 87.0485C56.6752 83.6128 60.4544 80.8643 61.3133 80.8643C62.1722 80.8643 63.89 86.0178 65.2643 92.3737C68.1846 107.147 70.246 111.785 74.0252 111.785C78.6634 111.785 79.5223 106.46 78.148 86.7049C77.4609 76.7415 77.4609 68.8395 78.3198 68.8395C79.1787 68.8395 86.05 71.588 93.6084 74.8519C108.554 81.3796 113.363 82.2386 113.363 78.4593C113.363 75.0237 110.615 72.6187 97.3876 63.5142C91.0317 59.3915 85.8782 55.4405 85.8782 54.9251C85.8782 54.4098 94.6391 51.4895 105.29 48.3974C124.358 42.9003 132.26 39.2929 132.26 36.2008C132.26 33.6241 121.437 34.1394 104.259 37.2315C96.0134 38.7775 88.6267 39.6365 88.1114 38.9493C87.596 38.434 88.7985 33.9676 90.8599 29.1577C98.5901 10.4334 93.7802 8.7156 81.7554 26.0656C77.2891 32.7652 72.8227 37.5751 72.1356 36.7162C71.4485 36.029 69.5589 29.1577 67.841 21.5993C64.4054 5.45173 62.1722 0.126465 58.9084 0.126465C57.1905 0.126465 56.6752 4.59281 56.6752 19.8815Z" fill="#F3ABCB"/>
<path d="M57.5497 39.6365V41.0514L56.2841 40.4186L45.9867 35.2699C45.985 35.2691 45.9833 35.2682 45.9817 35.2674C43.1536 33.8963 40.4191 32.6147 38.2673 31.6773C37.1895 31.2077 36.2682 30.8291 35.5592 30.5694C35.204 30.4393 34.9132 30.3431 34.6889 30.2806C34.5769 30.2494 34.4894 30.2289 34.4241 30.2165C34.3682 30.206 34.3428 30.2043 34.3407 30.204C34.3401 30.204 34.3411 30.204 34.3434 30.204C33.9366 30.204 33.7082 30.2743 33.5926 30.3377C33.5015 30.3877 33.4649 30.4388 33.4409 30.5176C33.3654 30.7663 33.4171 31.3611 33.9598 32.4047C35.0015 34.408 37.4385 37.2852 41.104 40.5249C43.7703 42.8472 45.6376 44.7042 46.644 46.0765C47.1301 46.7394 47.511 47.4133 47.5809 48.0431C47.6192 48.3871 47.5696 48.7677 47.3428 49.1079C47.1231 49.4375 46.8035 49.6292 46.4894 49.7368C45.7282 50.0189 42.8075 50.8446 38.7337 51.9267C34.6052 53.0233 29.2313 54.399 23.5566 55.7747C12.9687 58.3571 6.71091 60.1838 3.50485 61.7452C2.71196 62.1313 2.14185 62.4846 1.75045 62.8061C1.35648 63.1296 1.18937 63.3834 1.12497 63.5595C1.03547 63.8043 1.0526 64.2021 1.80776 64.9573C1.80611 64.9556 1.80526 64.9548 1.80534 64.9547C1.80618 64.9536 1.89522 65.0221 2.1918 65.0975C2.4954 65.1746 2.92864 65.2375 3.51541 65.2746C4.68667 65.3488 6.35908 65.3143 8.59964 65.1543C13.0741 64.8347 19.7036 64.0229 28.8888 62.6494L28.8945 62.6485C36.1185 61.6165 42.7875 60.799 47.7195 60.3036C50.1838 60.0561 52.2242 59.888 53.6868 59.8145C54.4155 59.7779 55.0179 59.7637 55.4639 59.7772C55.6842 59.7839 55.8903 59.7978 56.0641 59.8251C56.1501 59.8386 56.2512 59.8588 56.3522 59.8921C56.4317 59.9185 56.6162 59.9853 56.7782 60.1474L56.8221 60.1913L56.8594 60.241C57.0359 60.4764 57.0776 60.7337 57.0891 60.8936C57.1015 61.0674 57.0854 61.2422 57.0606 61.4C57.0109 61.7169 56.9051 62.0902 56.767 62.4932C56.4882 63.3068 56.0318 64.3719 55.447 65.6064C54.2741 68.0826 52.5441 71.3252 50.562 74.7725L50.5579 74.7795L50.5537 74.7865C48.4965 78.2152 46.61 81.4736 45.1941 83.9407C44.7496 84.7153 44.3478 85.4185 44.0003 86.0265C43.3546 87.1565 42.8966 87.9581 42.7006 88.2795C42.7017 88.2961 42.7047 88.3207 42.7119 88.3548C42.7379 88.4781 42.8065 88.6587 42.9385 88.8876C43.201 89.3425 43.6445 89.8681 44.1841 90.3315C44.6266 90.6994 44.9772 90.8674 45.3039 90.9197C45.6278 90.9715 46.0345 90.9264 46.6189 90.6707C47.8456 90.134 49.5451 88.8182 52.3139 86.3958C54.2205 84.6629 56.1315 83.0988 57.683 81.9625C58.458 81.3949 59.1562 80.9245 59.7268 80.5919C60.0112 80.4262 60.279 80.2857 60.5184 80.1841C60.7306 80.094 61.0202 79.9898 61.3133 79.9898C61.8348 79.9898 62.1825 80.3491 62.3364 80.528C62.5317 80.7551 62.7107 81.0488 62.8754 81.3649C63.2089 82.0054 63.5638 82.8967 63.9234 83.9539C64.6461 86.0781 65.4274 88.9899 66.119 92.1889L66.1207 92.1965L66.1222 92.2041C67.5837 99.5974 68.8137 104.357 70.1201 107.261C70.7712 108.707 71.4101 109.62 72.0444 110.168C72.6519 110.693 73.2851 110.911 74.0252 110.911C74.9969 110.911 75.6554 110.643 76.163 110.067C76.7129 109.442 77.1765 108.353 77.4783 106.512C78.0817 102.829 77.964 96.6617 77.2756 86.7656L77.2756 86.7651C76.9312 81.7713 76.758 77.2811 76.7796 74.0301C76.7905 72.4097 76.8497 71.0706 76.966 70.1233C77.0231 69.6577 77.0996 69.2377 77.2105 68.9146C77.2644 68.7575 77.346 68.5637 77.4791 68.393C77.6129 68.2213 77.8901 67.965 78.3198 67.965C78.5693 67.965 78.8868 68.0468 79.1539 68.1232C79.4619 68.2114 79.848 68.3376 80.2966 68.4944C81.1958 68.8087 82.3838 69.2592 83.7733 69.8085C86.5543 70.908 90.1706 72.4148 93.9551 74.049L93.9585 74.0505C101.445 77.3205 106.292 79.1232 109.247 79.6603C110.748 79.9333 111.568 79.8394 111.981 79.6289C112.27 79.4815 112.489 79.2088 112.489 78.4593C112.489 77.735 112.348 77.0864 111.96 76.374C111.559 75.6402 110.878 74.8071 109.741 73.7541C107.458 71.6381 103.524 68.7999 96.9016 64.2413C93.7129 62.1727 90.8226 60.1453 88.7236 58.5656C87.6747 57.7763 86.8133 57.0911 86.2084 56.5643C85.9083 56.3029 85.6552 56.0665 85.4707 55.8675C85.3801 55.7697 85.2878 55.6616 85.2127 55.5503C85.175 55.4944 85.1301 55.4209 85.0921 55.3341C85.0579 55.256 85.0037 55.1103 85.0037 54.9251C85.0037 54.6104 85.1611 54.3967 85.2259 54.3173C85.3049 54.2204 85.3911 54.1492 85.452 54.1032C85.577 54.0087 85.7271 53.9229 85.8724 53.8474C86.1717 53.692 86.5874 53.5109 87.0891 53.3105C88.0998 52.9068 89.546 52.3906 91.3119 51.7984C94.8482 50.6125 99.7131 49.1058 105.046 47.5576L105.047 47.5571C114.576 44.8102 121.267 42.5484 125.564 40.6007C127.717 39.6249 129.219 38.75 130.17 37.964C131.136 37.1653 131.383 36.5849 131.385 36.2058C131.377 36.1932 131.346 36.1546 131.266 36.0991C131.075 35.9684 130.717 35.8193 130.123 35.6963C128.947 35.4527 127.143 35.3683 124.736 35.4641C119.943 35.655 112.99 36.5485 104.416 38.0918C100.28 38.8671 96.3508 39.4721 93.3815 39.7972C91.8998 39.9594 90.637 40.0542 89.7002 40.0627C89.2355 40.0669 88.8208 40.0503 88.488 40.0014C88.3228 39.9772 88.1477 39.9408 87.985 39.8809C87.853 39.8323 87.6293 39.7331 87.4517 39.524C87.3099 39.3655 87.2376 39.1913 87.1983 39.0628C87.1537 38.9165 87.1336 38.7692 87.1245 38.6378C87.1066 38.376 87.1265 38.0769 87.1661 37.7674C87.2462 37.142 87.4246 36.34 87.6766 35.4305C88.1824 33.6054 89.0116 31.2512 90.0538 28.8187C91.9761 24.1619 93.0967 20.6131 93.5285 18.1825C93.7459 16.9585 93.7762 16.0839 93.6838 15.5169C93.6382 15.2374 93.5696 15.0772 93.5159 14.9939C93.4712 14.9245 93.4426 14.9146 93.4306 14.9105L93.4301 14.9103C93.3673 14.8886 93.0704 14.8557 92.3914 15.2424C91.7518 15.6065 90.9366 16.2513 89.951 17.2198C87.9869 19.15 85.4691 22.2432 82.4788 26.5571C80.2291 29.931 77.971 32.8428 76.1747 34.8143C75.2817 35.7945 74.4748 36.5733 73.8221 37.0584C73.5048 37.2942 73.1636 37.5068 72.8276 37.6134C72.5188 37.7114 71.9118 37.7963 71.4828 37.2987C71.2868 37.0863 71.1375 36.7841 71.0268 36.5382C70.8914 36.2373 70.7451 35.8567 70.5909 35.4161C70.2816 34.5323 69.9216 33.353 69.533 31.9712C68.7549 29.2045 67.8494 25.582 66.9883 21.7931L66.9882 21.7931L66.9857 21.7813C65.2673 13.7047 63.8639 8.40989 62.5031 5.14388C61.822 3.50941 61.1797 2.45419 60.5673 1.81669C59.9797 1.20508 59.4457 1.00096 58.9084 1.00096C58.9077 1.00096 58.9073 1.00068 58.9069 1.0004C58.9056 0.999374 58.9044 0.998505 58.8861 1.01405C58.8435 1.05035 58.7494 1.1562 58.6349 1.41595C58.4012 1.9461 58.1865 2.87145 58.0165 4.36932C57.6794 7.34026 57.5497 12.2306 57.5497 19.8815V39.6365Z" stroke="black" stroke-width="1.74899"/>
</g>
<defs>
<filter id="filter0_d_318_18157" x="0.210938" y="0.126953" width="132.047" height="118.448" filterUnits="userSpaceOnUse" color-interpolation-filters="sRGB">
<feFlood flood-opacity="0" result="BackgroundImageFix"/>
<feColorMatrix in="SourceAlpha" type="matrix" values="0 0 0 0 0 0 0 0 0 0 0 0 0 0 0 0 0 0 127 0" result="hardAlpha"/>
<feOffset dy="6.79007"/>
<feComposite in2="hardAlpha" operator="out"/>
<feColorMatrix type="matrix" values="0 0 0 0 0.745098 0 0 0 0 0.74902 0 0 0 0 0.705882 0 0 0 1 0"/>
<feBlend mode="normal" in2="BackgroundImageFix" result="effect1_dropShadow_318_18157"/>
<feBlend mode="normal" in="SourceGraphic" in2="effect1_dropShadow_318_18157" result="shape"/>
</filter>
</defs>
</svg>
