<svg width="40" height="40" viewBox="0 0 100 100" fill="none" xmlns="http://www.w3.org/2000/svg">
<path d="M90.6562 15.7191L72.6374 7.04413C71.6198 6.5535 70.4748 6.39159 69.3611 6.58085C68.2474 6.77011 67.2202 7.30116 66.4218 8.10038L7.43741 61.8754C6.72175 62.5248 6.29337 63.4318 6.24648 64.397C6.1996 65.3623 6.53806 66.3066 7.18741 67.0223C7.26553 67.1066 7.34366 67.1879 7.42803 67.2629L12.2437 71.6379C12.8729 72.2106 13.6829 72.5448 14.5329 72.5825C15.3829 72.6202 16.2193 72.3589 16.8968 71.8441L87.9437 17.9691C88.4803 17.5619 89.1199 17.3126 89.7906 17.2492C90.4613 17.1858 91.1363 17.3109 91.7397 17.6103C92.3432 17.9097 92.851 18.3717 93.2062 18.9441C93.5613 19.5165 93.7496 20.1767 93.7499 20.8504V20.641C93.7498 19.6126 93.4595 18.605 92.9122 17.7343C92.3649 16.8636 91.5829 16.1651 90.6562 15.7191Z" fill="#0065A9"/>
<path d="M90.6562 84.281L72.6374 92.9591C71.6195 93.4483 70.4749 93.6095 69.3615 93.4203C68.2481 93.2311 67.2209 92.7009 66.4218 91.9028L7.43741 38.1247C6.72175 37.4753 6.29337 36.5683 6.24648 35.6031C6.1996 34.6378 6.53806 33.6935 7.18741 32.9778C7.26553 32.8935 7.34366 32.8122 7.42803 32.7372L12.2437 28.3622C12.8736 27.7871 13.6854 27.4514 14.5375 27.4137C15.3896 27.376 16.2279 27.6387 16.9062 28.156L87.9437 82.031C88.4803 82.4382 89.1199 82.6875 89.7906 82.7509C90.4613 82.8143 91.1363 82.6893 91.7397 82.3898C92.3432 82.0904 92.851 81.6284 93.2062 81.056C93.5613 80.4836 93.7496 79.8234 93.7499 79.1497V79.3747C93.7465 80.4004 93.4546 81.4045 92.9075 82.2721C92.3604 83.1397 91.5802 83.8359 90.6562 84.281Z" fill="#007ACC"/>
<path d="M72.6383 92.9586C71.6204 93.4479 70.4757 93.609 69.3624 93.4198C68.249 93.2306 67.2218 92.7004 66.4227 91.9024C66.8714 92.3453 67.4409 92.6459 68.0598 92.7665C68.6787 92.8872 69.3194 92.8225 69.9017 92.5806C70.4839 92.3386 70.9818 91.9303 71.333 91.4066C71.6842 90.8829 71.873 90.2672 71.8758 89.6367V10.3617C71.8763 9.72826 71.6888 9.10888 71.337 8.58206C70.9852 8.05524 70.485 7.64469 69.8997 7.4024C69.3144 7.16011 68.6703 7.09699 68.0491 7.22104C67.4279 7.34509 66.8575 7.65073 66.4102 8.09923C67.2087 7.3003 68.2357 6.76922 69.3492 6.57943C70.4627 6.38965 71.6077 6.55054 72.6258 7.03986L90.6414 15.7024C91.571 16.1461 92.3562 16.8437 92.9064 17.7145C93.4566 18.5854 93.7493 19.5941 93.7508 20.6242V79.3742C93.751 80.4035 93.4605 81.412 92.9125 82.2833C92.3646 83.1547 91.5817 83.8535 90.6539 84.2992L72.6383 92.9586Z" fill="#1F9CF0"/>
</svg>
