<svg width="40" height="40" viewBox="0 0 100 100" fill="none" xmlns="http://www.w3.org/2000/svg">
<g clip-path="url(#clip0_815_17124)">
<path d="M76.5625 0H23.4375C10.4933 0 0 10.4933 0 23.4375V76.5625C0 89.5067 10.4933 100 23.4375 100H76.5625C89.5067 100 100 89.5067 100 76.5625V23.4375C100 10.4933 89.5067 0 76.5625 0Z" fill="#0073AA"/>
<path d="M16.4902 49.998C16.4902 63.2617 24.1984 74.7242 35.3758 80.1562L19.3914 36.3609C17.4753 40.6518 16.4867 45.2988 16.4902 49.998ZM72.6207 48.307C72.6207 44.166 71.1332 41.298 69.8574 39.0656C68.1586 36.3055 66.5664 33.968 66.5664 31.2078C66.5664 28.1273 68.9027 25.2602 72.1934 25.2602C72.3422 25.2602 72.4828 25.2785 72.6277 25.2867C66.666 19.825 58.7234 16.4902 49.9992 16.4902C38.293 16.4902 27.9934 22.4965 22.002 31.5941C22.7879 31.6176 23.5289 31.6344 24.1582 31.6344C27.6633 31.6344 33.0887 31.2086 33.0887 31.2086C34.8949 31.1023 35.1082 33.7555 33.3035 33.9691C33.3035 33.9691 31.4883 34.1828 29.4684 34.2887L41.6707 70.5848L49.0039 48.5914L43.7832 34.2875C41.9789 34.1816 40.2695 33.968 40.2695 33.968C38.4637 33.8621 38.6754 31.1012 40.4813 31.2078C40.4813 31.2078 46.0149 31.6328 49.3074 31.6328C52.8121 31.6328 58.2379 31.2078 58.2379 31.2078C60.0457 31.1012 60.2578 33.7543 58.4527 33.968C58.4527 33.968 56.6336 34.1816 54.6176 34.2875L66.7274 70.3086L70.0695 59.1398C71.5184 54.5047 72.6207 51.1758 72.6207 48.307Z" fill="white"/>
<path d="M50.5871 52.9297L40.5332 82.1445C43.607 83.0499 46.7948 83.5097 49.9992 83.5098C53.7891 83.5111 57.5517 82.8688 61.1266 81.6102C61.0336 81.4636 60.9538 81.3091 60.8883 81.1484L50.5871 52.9297ZM79.402 33.9219C79.5543 35.064 79.6298 36.215 79.6277 37.3672C79.6277 40.7676 78.9926 44.5902 77.0797 49.3699L66.8441 78.9633C76.8063 73.1539 83.507 62.3613 83.507 49.9992C83.5074 44.173 82.0195 38.6945 79.402 33.9219Z" fill="white"/>
<path d="M49.9992 10.9375C28.4609 10.9375 10.9375 28.4598 10.9375 49.9977C10.9375 71.5383 28.4609 89.0598 49.9992 89.0598C71.5363 89.0598 89.0625 71.5383 89.0625 49.9977C89.0617 28.4598 71.5363 10.9375 49.9992 10.9375ZM49.9992 87.2695C29.4484 87.2695 12.7285 70.5492 12.7285 49.9977C12.7285 29.4473 29.448 12.7285 49.9992 12.7285C70.5488 12.7285 87.2676 29.4473 87.2676 49.9977C87.2676 70.5492 70.5488 87.2695 49.9992 87.2695Z" fill="white"/>
</g>
<defs>
<clipPath id="clip0_815_17124">
<rect width="100" height="100" fill="white"/>
</clipPath>
</defs>
</svg>
