<svg width="34" height="34" viewBox="0 0 34 34" fill="none" xmlns="http://www.w3.org/2000/svg">
<g clip-path="url(#clip0_333_24795)">
<path d="M23.1068 11.2449C23.0945 10.98 22.9774 10.7309 22.7814 10.5523C22.5854 10.3737 22.3265 10.2803 22.0616 10.2926L14.07 10.6642C13.9373 10.668 13.8067 10.6983 13.6858 10.7532C13.5649 10.8081 13.4561 10.8865 13.3658 10.9838C13.2755 11.0812 13.2056 11.1956 13.16 11.3203C13.1144 11.445 13.094 11.5775 13.1002 11.7102C13.1064 11.8428 13.1389 11.9729 13.1959 12.0929C13.2529 12.2128 13.3332 12.3202 13.4321 12.4088C13.531 12.4973 13.6466 12.5653 13.7721 12.6087C13.8975 12.6522 14.0304 12.6702 14.1629 12.6617L19.743 12.4022L10.8239 22.1913C10.6453 22.3873 10.5518 22.6463 10.5642 22.9112C10.5765 23.1762 10.6935 23.4254 10.8896 23.604C11.0856 23.7826 11.3446 23.876 11.6095 23.8637C11.8745 23.8514 12.1236 23.7343 12.3023 23.5383L21.2214 13.7492L21.4809 19.3294C21.4976 19.591 21.6164 19.8357 21.8118 20.0106C22.0071 20.1855 22.2634 20.2767 22.5253 20.2645C22.7872 20.2523 23.0339 20.1377 23.2122 19.9455C23.3904 19.7532 23.4861 19.4986 23.4784 19.2365L23.1068 11.2449Z" fill="#767674"/>
</g>
<defs>
<clipPath id="clip0_333_24795">
<rect width="24" height="24" fill="white" transform="translate(16.1641) rotate(42.3378)"/>
</clipPath>
</defs>
</svg>
