<svg width="34" height="34" viewBox="0 0 34 34" fill="none" xmlns="http://www.w3.org/2000/svg">
<path d="M16.9982 18.9835L10.0565 25.9251C9.79679 26.1849 9.46623 26.3147 9.06484 26.3147C8.66345 26.3147 8.3329 26.1849 8.07318 25.9251C7.81345 25.6654 7.68359 25.3349 7.68359 24.9335C7.68359 24.5321 7.81345 24.2015 8.07318 23.9418L15.0148 17.0001L8.07318 10.0585C7.81345 9.79874 7.68359 9.46819 7.68359 9.0668C7.68359 8.66541 7.81345 8.33485 8.07318 8.07513C8.3329 7.81541 8.66345 7.68555 9.06484 7.68555C9.46623 7.68555 9.79679 7.81541 10.0565 8.07513L16.9982 15.0168L23.9398 8.07513C24.1996 7.81541 24.5301 7.68555 24.9315 7.68555C25.3329 7.68555 25.6635 7.81541 25.9232 8.07513C26.1829 8.33485 26.3128 8.66541 26.3128 9.0668C26.3128 9.46819 26.1829 9.79874 25.9232 10.0585L18.9815 17.0001L25.9232 23.9418C26.1829 24.2015 26.3128 24.5321 26.3128 24.9335C26.3128 25.3349 26.1829 25.6654 25.9232 25.9251C25.6635 26.1849 25.3329 26.3147 24.9315 26.3147C24.5301 26.3147 24.1996 26.1849 23.9398 25.9251L16.9982 18.9835Z" fill="black"/>
</svg>
