<svg width="223" height="61" viewBox="0 0 223 61" fill="none" xmlns="http://www.w3.org/2000/svg">
<rect width="60" height="60" rx="30" fill="#F3ABCB"/>
<path d="M38.2034 30.3277L38.2035 30.3276C39.6667 29.0953 40.4163 27.3063 40.4163 24.9076C40.4163 22.5697 39.6685 20.8327 38.2075 19.6419C36.7339 18.4413 34.6049 17.8185 31.7759 17.8185H19.1381L29.0051 32.2127H31.7759C34.6027 32.2127 36.73 31.5695 38.2034 30.3277ZM31.2726 35.5203L37.9398 45.2475L38.2818 45.7465H37.6769H34.2307H34.061L33.9663 45.6057L18.7202 22.9583V32.5314V35.2015V44.9357V45.2545H18.4015H15.4297H15.1109V44.9357V17.4997V14.8291V14.5103H15.4297H18.4015H31.7759C35.5834 14.5103 38.5741 15.3897 40.7038 17.1919L40.7038 17.1919C42.8415 19.0016 43.8966 21.56 43.8966 24.8218C43.8966 27.3722 43.2798 29.5236 42.0268 31.2541L42.0268 31.2541C41.0165 32.6492 39.6526 33.6947 37.9589 34.4044L37.959 34.4044L37.952 34.4072C37.7936 34.4692 37.6403 34.5271 37.4917 34.5815L44.8351 45.247L45.179 45.7465H44.5725H41.1269H40.955L40.8606 45.6029L34.1593 35.4191C34.1021 35.4241 34.0537 35.4275 34.0142 35.4297C33.9748 35.432 33.9443 35.4332 33.923 35.4338L33.898 35.4344C32.9806 35.4923 32.2726 35.5203 31.7759 35.5203H31.2726Z" fill="black" stroke="black" stroke-width="0.6375"/>
<mask id="path-3-outside-1_318_17870" maskUnits="userSpaceOnUse" x="72" y="19" width="123" height="38" fill="black">
<rect fill="white" x="72" y="19" width="123" height="38"/>
<path d="M76.048 30.476C76.624 29.348 77.44 28.472 78.496 27.848C79.576 27.224 80.884 26.912 82.42 26.912V30.296H81.556C77.884 30.296 76.048 32.288 76.048 36.272V47H72.772V27.272H76.048V30.476ZM95.9937 26.912C97.4817 26.912 98.8257 27.236 100.026 27.884C101.226 28.508 102.162 29.456 102.834 30.728C103.53 32 103.878 33.548 103.878 35.372V47H100.638V35.84C100.638 33.872 100.146 32.372 99.1617 31.34C98.1777 30.284 96.8337 29.756 95.1297 29.756C93.4017 29.756 92.0217 30.296 90.9897 31.376C89.9817 32.456 89.4777 34.028 89.4777 36.092V47H86.2017V20.36H89.4777V30.08C90.1257 29.072 91.0137 28.292 92.1417 27.74C93.2937 27.188 94.5777 26.912 95.9937 26.912ZM127.229 36.38C127.229 37.004 127.193 37.664 127.121 38.36H111.353C111.473 40.304 112.133 41.828 113.333 42.932C114.557 44.012 116.033 44.552 117.761 44.552C119.177 44.552 120.353 44.228 121.289 43.58C122.249 42.908 122.921 42.02 123.305 40.916H126.833C126.305 42.812 125.249 44.36 123.665 45.56C122.081 46.736 120.113 47.324 117.761 47.324C115.889 47.324 114.209 46.904 112.721 46.064C111.257 45.224 110.105 44.036 109.265 42.5C108.425 40.94 108.005 39.14 108.005 37.1C108.005 35.06 108.413 33.272 109.229 31.736C110.045 30.2 111.185 29.024 112.649 28.208C114.137 27.368 115.841 26.948 117.761 26.948C119.633 26.948 121.289 27.356 122.729 28.172C124.169 28.988 125.273 30.116 126.041 31.556C126.833 32.972 127.229 34.58 127.229 36.38ZM123.845 35.696C123.845 34.448 123.569 33.38 123.017 32.492C122.465 31.58 121.709 30.896 120.749 30.44C119.813 29.96 118.769 29.72 117.617 29.72C115.961 29.72 114.545 30.248 113.369 31.304C112.217 32.36 111.557 33.824 111.389 35.696H123.845ZM148.545 27.272L136.665 56.288H133.281L137.169 46.784L129.213 27.272H132.849L139.041 43.256L145.161 27.272H148.545ZM161.45 26.912C163.85 26.912 165.794 27.644 167.282 29.108C168.77 30.548 169.514 32.636 169.514 35.372V47H166.274V35.84C166.274 33.872 165.782 32.372 164.798 31.34C163.814 30.284 162.47 29.756 160.766 29.756C159.038 29.756 157.658 30.296 156.626 31.376C155.618 32.456 155.114 34.028 155.114 36.092V47H151.838V27.272H155.114V30.08C155.762 29.072 156.638 28.292 157.742 27.74C158.87 27.188 160.106 26.912 161.45 26.912ZM173.642 37.064C173.642 35.048 174.05 33.284 174.866 31.772C175.682 30.236 176.798 29.048 178.214 28.208C179.654 27.368 181.25 26.948 183.002 26.948C184.73 26.948 186.23 27.32 187.502 28.064C188.774 28.808 189.722 29.744 190.346 30.872V27.272H193.658V47H190.346V43.328C189.698 44.48 188.726 45.44 187.43 46.208C186.158 46.952 184.67 47.324 182.966 47.324C181.214 47.324 179.63 46.892 178.214 46.028C176.798 45.164 175.682 43.952 174.866 42.392C174.05 40.832 173.642 39.056 173.642 37.064ZM190.346 37.1C190.346 35.612 190.046 34.316 189.446 33.212C188.846 32.108 188.03 31.268 186.998 30.692C185.99 30.092 184.874 29.792 183.65 29.792C182.426 29.792 181.31 30.08 180.302 30.656C179.294 31.232 178.49 32.072 177.89 33.176C177.29 34.28 176.99 35.576 176.99 37.064C176.99 38.576 177.29 39.896 177.89 41.024C178.49 42.128 179.294 42.98 180.302 43.58C181.31 44.156 182.426 44.444 183.65 44.444C184.874 44.444 185.99 44.156 186.998 43.58C188.03 42.98 188.846 42.128 189.446 41.024C190.046 39.896 190.346 38.588 190.346 37.1Z"/>
</mask>
<path d="M76.048 30.476C76.624 29.348 77.44 28.472 78.496 27.848C79.576 27.224 80.884 26.912 82.42 26.912V30.296H81.556C77.884 30.296 76.048 32.288 76.048 36.272V47H72.772V27.272H76.048V30.476ZM95.9937 26.912C97.4817 26.912 98.8257 27.236 100.026 27.884C101.226 28.508 102.162 29.456 102.834 30.728C103.53 32 103.878 33.548 103.878 35.372V47H100.638V35.84C100.638 33.872 100.146 32.372 99.1617 31.34C98.1777 30.284 96.8337 29.756 95.1297 29.756C93.4017 29.756 92.0217 30.296 90.9897 31.376C89.9817 32.456 89.4777 34.028 89.4777 36.092V47H86.2017V20.36H89.4777V30.08C90.1257 29.072 91.0137 28.292 92.1417 27.74C93.2937 27.188 94.5777 26.912 95.9937 26.912ZM127.229 36.38C127.229 37.004 127.193 37.664 127.121 38.36H111.353C111.473 40.304 112.133 41.828 113.333 42.932C114.557 44.012 116.033 44.552 117.761 44.552C119.177 44.552 120.353 44.228 121.289 43.58C122.249 42.908 122.921 42.02 123.305 40.916H126.833C126.305 42.812 125.249 44.36 123.665 45.56C122.081 46.736 120.113 47.324 117.761 47.324C115.889 47.324 114.209 46.904 112.721 46.064C111.257 45.224 110.105 44.036 109.265 42.5C108.425 40.94 108.005 39.14 108.005 37.1C108.005 35.06 108.413 33.272 109.229 31.736C110.045 30.2 111.185 29.024 112.649 28.208C114.137 27.368 115.841 26.948 117.761 26.948C119.633 26.948 121.289 27.356 122.729 28.172C124.169 28.988 125.273 30.116 126.041 31.556C126.833 32.972 127.229 34.58 127.229 36.38ZM123.845 35.696C123.845 34.448 123.569 33.38 123.017 32.492C122.465 31.58 121.709 30.896 120.749 30.44C119.813 29.96 118.769 29.72 117.617 29.72C115.961 29.72 114.545 30.248 113.369 31.304C112.217 32.36 111.557 33.824 111.389 35.696H123.845ZM148.545 27.272L136.665 56.288H133.281L137.169 46.784L129.213 27.272H132.849L139.041 43.256L145.161 27.272H148.545ZM161.45 26.912C163.85 26.912 165.794 27.644 167.282 29.108C168.77 30.548 169.514 32.636 169.514 35.372V47H166.274V35.84C166.274 33.872 165.782 32.372 164.798 31.34C163.814 30.284 162.47 29.756 160.766 29.756C159.038 29.756 157.658 30.296 156.626 31.376C155.618 32.456 155.114 34.028 155.114 36.092V47H151.838V27.272H155.114V30.08C155.762 29.072 156.638 28.292 157.742 27.74C158.87 27.188 160.106 26.912 161.45 26.912ZM173.642 37.064C173.642 35.048 174.05 33.284 174.866 31.772C175.682 30.236 176.798 29.048 178.214 28.208C179.654 27.368 181.25 26.948 183.002 26.948C184.73 26.948 186.23 27.32 187.502 28.064C188.774 28.808 189.722 29.744 190.346 30.872V27.272H193.658V47H190.346V43.328C189.698 44.48 188.726 45.44 187.43 46.208C186.158 46.952 184.67 47.324 182.966 47.324C181.214 47.324 179.63 46.892 178.214 46.028C176.798 45.164 175.682 43.952 174.866 42.392C174.05 40.832 173.642 39.056 173.642 37.064ZM190.346 37.1C190.346 35.612 190.046 34.316 189.446 33.212C188.846 32.108 188.03 31.268 186.998 30.692C185.99 30.092 184.874 29.792 183.65 29.792C182.426 29.792 181.31 30.08 180.302 30.656C179.294 31.232 178.49 32.072 177.89 33.176C177.29 34.28 176.99 35.576 176.99 37.064C176.99 38.576 177.29 39.896 177.89 41.024C178.49 42.128 179.294 42.98 180.302 43.58C181.31 44.156 182.426 44.444 183.65 44.444C184.874 44.444 185.99 44.156 186.998 43.58C188.03 42.98 188.846 42.128 189.446 41.024C190.046 39.896 190.346 38.588 190.346 37.1Z" fill="#0C0C0C"/>
<path d="M76.048 30.476H75.548L76.4933 30.7034L76.048 30.476ZM78.496 27.848L78.2458 27.415L78.2416 27.4175L78.496 27.848ZM82.42 26.912H82.92V26.412H82.42V26.912ZM82.42 30.296V30.796H82.92V30.296H82.42ZM76.048 47V47.5H76.548V47H76.048ZM72.772 47H72.272V47.5H72.772V47ZM72.772 27.272V26.772H72.272V27.272H72.772ZM76.048 27.272H76.548V26.772H76.048V27.272ZM76.4933 30.7034C77.0277 29.6569 77.7787 28.8526 78.7504 28.2785L78.2416 27.4175C77.1013 28.0914 76.2203 29.0391 75.6027 30.2486L76.4933 30.7034ZM78.7461 28.2809C79.7343 27.71 80.9516 27.412 82.42 27.412V26.412C80.8164 26.412 79.4177 26.738 78.2459 27.4151L78.7461 28.2809ZM81.92 26.912V30.296H82.92V26.912H81.92ZM82.42 29.796H81.556V30.796H82.42V29.796ZM81.556 29.796C79.632 29.796 78.1001 30.3198 77.0573 31.4511C76.0217 32.5748 75.548 34.2126 75.548 36.272H76.548C76.548 34.3474 76.9923 32.9972 77.7927 32.1289C78.5859 31.2682 79.808 30.796 81.556 30.796V29.796ZM75.548 36.272V47H76.548V36.272H75.548ZM76.048 46.5H72.772V47.5H76.048V46.5ZM73.272 47V27.272H72.272V47H73.272ZM72.772 27.772H76.048V26.772H72.772V27.772ZM75.548 27.272V30.476H76.548V27.272H75.548ZM100.026 27.884L99.7881 28.324L99.795 28.3276L100.026 27.884ZM102.834 30.728L102.392 30.9616L102.395 30.968L102.834 30.728ZM103.878 47V47.5H104.378V47H103.878ZM100.638 47H100.138V47.5H100.638V47ZM99.1617 31.34L98.7959 31.6809L98.7998 31.685L99.1617 31.34ZM90.9897 31.376L90.6282 31.0305L90.6242 31.0348L90.9897 31.376ZM89.4777 47V47.5H89.9777V47H89.4777ZM86.2017 47H85.7017V47.5H86.2017V47ZM86.2017 20.36V19.86H85.7017V20.36H86.2017ZM89.4777 20.36H89.9777V19.86H89.4777V20.36ZM89.4777 30.08H88.9777V31.7824L89.8983 30.3504L89.4777 30.08ZM92.1417 27.74L91.9256 27.2891L91.9219 27.2909L92.1417 27.74ZM95.9937 27.412C97.4065 27.412 98.6676 27.7189 99.7881 28.324L100.263 27.444C98.9838 26.7531 97.5569 26.412 95.9937 26.412V27.412ZM99.795 28.3276C100.899 28.9017 101.764 29.7734 102.392 30.9616L103.276 30.4944C102.559 29.1386 101.552 28.1143 100.256 27.4404L99.795 28.3276ZM102.395 30.968C103.042 32.1498 103.378 33.6106 103.378 35.372H104.378C104.378 33.4854 104.018 31.8502 103.272 30.488L102.395 30.968ZM103.378 35.372V47H104.378V35.372H103.378ZM103.878 46.5H100.638V47.5H103.878V46.5ZM101.138 47V35.84H100.138V47H101.138ZM101.138 35.84C101.138 33.793 100.625 32.1505 99.5236 30.995L98.7998 31.685C99.6661 32.5935 100.138 33.951 100.138 35.84H101.138ZM99.5275 30.9991C98.4318 29.8233 96.9452 29.256 95.1297 29.256V30.256C96.7222 30.256 97.9236 30.7447 98.7959 31.6809L99.5275 30.9991ZM95.1297 29.256C93.2885 29.256 91.7695 29.8362 90.6282 31.0306L91.3512 31.7214C92.2739 30.7558 93.5149 30.256 95.1297 30.256V29.256ZM90.6242 31.0348C89.5005 32.2387 88.9777 33.9519 88.9777 36.092H89.9777C89.9777 34.1041 90.4629 32.6733 91.3552 31.7172L90.6242 31.0348ZM88.9777 36.092V47H89.9777V36.092H88.9777ZM89.4777 46.5H86.2017V47.5H89.4777V46.5ZM86.7017 47V20.36H85.7017V47H86.7017ZM86.2017 20.86H89.4777V19.86H86.2017V20.86ZM88.9777 20.36V30.08H89.9777V20.36H88.9777ZM89.8983 30.3504C90.4945 29.4229 91.3113 28.703 92.3615 28.1891L91.9219 27.2909C90.716 27.881 89.7569 28.7211 89.0571 29.8096L89.8983 30.3504ZM92.3577 28.1909C93.4353 27.6746 94.6443 27.412 95.9937 27.412V26.412C94.5111 26.412 93.1521 26.7014 91.9256 27.2891L92.3577 28.1909ZM127.121 38.36V38.86H127.572L127.618 38.4114L127.121 38.36ZM111.353 38.36V37.86H110.821L110.854 38.3908L111.353 38.36ZM113.333 42.932L112.994 43.3L113.002 43.3069L113.333 42.932ZM121.289 43.58L121.574 43.9911L121.576 43.9896L121.289 43.58ZM123.305 40.916V40.416H122.95L122.833 40.7517L123.305 40.916ZM126.833 40.916L127.315 41.0501L127.491 40.416H126.833V40.916ZM123.665 45.56L123.963 45.9615L123.967 45.9585L123.665 45.56ZM112.721 46.064L112.472 46.4977L112.475 46.4994L112.721 46.064ZM109.265 42.5L108.825 42.7371L108.826 42.7399L109.265 42.5ZM109.229 31.736L109.671 31.9706L109.671 31.9706L109.229 31.736ZM112.649 28.208L112.892 28.6447L112.895 28.6434L112.649 28.208ZM122.729 28.172L122.483 28.607L122.483 28.607L122.729 28.172ZM126.041 31.556L125.6 31.7913L125.605 31.8001L126.041 31.556ZM123.845 35.696V36.196H124.345V35.696H123.845ZM123.017 32.492L122.589 32.7509L122.592 32.756L123.017 32.492ZM120.749 30.44L120.521 30.8849L120.528 30.8884L120.535 30.8916L120.749 30.44ZM113.369 31.304L113.035 30.932L113.031 30.9354L113.369 31.304ZM111.389 35.696L110.891 35.6513L110.842 36.196H111.389V35.696ZM126.729 36.38C126.729 36.9849 126.694 37.6276 126.624 38.3085L127.618 38.4114C127.692 37.7004 127.729 37.0231 127.729 36.38H126.729ZM127.121 37.86H111.353V38.86H127.121V37.86ZM110.854 38.3908C110.98 40.437 111.681 42.0919 112.995 43.3L113.672 42.564C112.585 41.5641 111.966 40.171 111.852 38.3292L110.854 38.3908ZM113.002 43.3069C114.323 44.4725 115.919 45.052 117.761 45.052V44.052C116.147 44.052 114.791 43.5515 113.664 42.5571L113.002 43.3069ZM117.761 45.052C119.254 45.052 120.536 44.7097 121.574 43.9911L121.004 43.1689C120.17 43.7463 119.1 44.052 117.761 44.052V45.052ZM121.576 43.9896C122.622 43.2575 123.359 42.2838 123.777 41.0803L122.833 40.7517C122.483 41.7562 121.876 42.5585 121.002 43.1704L121.576 43.9896ZM123.305 41.416H126.833V40.416H123.305V41.416ZM126.351 40.7819C125.853 42.5713 124.861 44.0268 123.363 45.1615L123.967 45.9585C125.637 44.6931 126.757 43.0527 127.315 41.0501L126.351 40.7819ZM123.367 45.1585C121.885 46.259 120.027 46.824 117.761 46.824V47.824C120.199 47.824 122.277 47.213 123.963 45.9615L123.367 45.1585ZM117.761 46.824C115.967 46.824 114.373 46.4223 112.967 45.6286L112.475 46.4994C114.045 47.3857 115.811 47.824 117.761 47.824V46.824ZM112.97 45.6303C111.589 44.8379 110.501 43.7184 109.704 42.2601L108.826 42.7399C109.709 44.3536 110.925 45.6101 112.472 46.4977L112.97 45.6303ZM109.705 42.263C108.91 40.7862 108.505 39.0699 108.505 37.1H107.505C107.505 39.2101 107.94 41.0938 108.825 42.737L109.705 42.263ZM108.505 37.1C108.505 35.1276 108.899 33.4228 109.671 31.9706L108.787 31.5014C107.927 33.1212 107.505 34.9924 107.505 37.1H108.505ZM109.671 31.9706C110.443 30.5163 111.516 29.412 112.892 28.6447L112.406 27.7713C110.854 28.636 109.647 29.8837 108.787 31.5014L109.671 31.9706ZM112.895 28.6434C114.299 27.8508 115.916 27.448 117.761 27.448V26.448C115.766 26.448 113.975 26.8852 112.403 27.7726L112.895 28.6434ZM117.761 27.448C119.558 27.448 121.127 27.8389 122.483 28.607L122.976 27.737C121.451 26.873 119.708 26.448 117.761 26.448V27.448ZM122.483 28.607C123.841 29.377 124.877 30.4362 125.6 31.7913L126.482 31.3207C125.669 29.7958 124.497 28.599 122.976 27.737L122.483 28.607ZM125.605 31.8001C126.351 33.1336 126.729 34.6559 126.729 36.38H127.729C127.729 34.5041 127.316 32.8104 126.477 31.3119L125.605 31.8001ZM124.345 35.696C124.345 34.3729 124.052 33.2094 123.442 32.228L122.592 32.756C123.086 33.5506 123.345 34.5231 123.345 35.696H124.345ZM123.445 32.2331C122.842 31.2376 122.012 30.4865 120.964 29.9884L120.535 30.8916C121.406 31.3055 122.088 31.9224 122.589 32.7509L123.445 32.2331ZM120.977 29.9951C119.964 29.4755 118.841 29.22 117.617 29.22V30.22C118.697 30.22 119.662 30.4445 120.521 30.8849L120.977 29.9951ZM117.617 29.22C115.844 29.22 114.307 29.7894 113.035 30.932L113.703 31.676C114.783 30.7066 116.078 30.22 117.617 30.22V29.22ZM113.031 30.9354C111.769 32.0921 111.068 33.6817 110.891 35.6513L111.887 35.7407C112.046 33.9663 112.665 32.6279 113.707 31.6726L113.031 30.9354ZM111.389 36.196H123.845V35.196H111.389V36.196ZM148.545 27.272L149.008 27.4614L149.29 26.772H148.545V27.272ZM136.665 56.288V56.788H137.001L137.128 56.4775L136.665 56.288ZM133.281 56.288L132.818 56.0987L132.536 56.788H133.281V56.288ZM137.169 46.784L137.632 46.9733L137.709 46.7843L137.632 46.5952L137.169 46.784ZM129.213 27.272V26.772H128.469L128.75 27.4608L129.213 27.272ZM132.849 27.272L133.315 27.0914L133.192 26.772H132.849V27.272ZM139.041 43.256L138.575 43.4366L139.044 44.6472L139.508 43.4348L139.041 43.256ZM145.161 27.272V26.772H144.817L144.694 27.0932L145.161 27.272ZM148.083 27.0825L136.203 56.0986L137.128 56.4775L149.008 27.4614L148.083 27.0825ZM136.665 55.788H133.281V56.788H136.665V55.788ZM133.744 56.4773L137.632 46.9733L136.706 46.5947L132.818 56.0987L133.744 56.4773ZM137.632 46.5952L129.676 27.0832L128.75 27.4608L136.706 46.9728L137.632 46.5952ZM129.213 27.772H132.849V26.772H129.213V27.772ZM132.383 27.4526L138.575 43.4366L139.507 43.0754L133.315 27.0914L132.383 27.4526ZM139.508 43.4348L145.628 27.4508L144.694 27.0932L138.574 43.0772L139.508 43.4348ZM145.161 27.772H148.545V26.772H145.161V27.772ZM167.282 29.108L166.932 29.4644L166.935 29.4673L167.282 29.108ZM169.514 47V47.5H170.014V47H169.514ZM166.274 47H165.774V47.5H166.274V47ZM164.798 31.34L164.433 31.6809L164.437 31.685L164.798 31.34ZM156.626 31.376L156.265 31.0305L156.261 31.0348L156.626 31.376ZM155.114 47V47.5H155.614V47H155.114ZM151.838 47H151.338V47.5H151.838V47ZM151.838 27.272V26.772H151.338V27.272H151.838ZM155.114 27.272H155.614V26.772H155.114V27.272ZM155.114 30.08H154.614V31.7824L155.535 30.3504L155.114 30.08ZM157.742 27.74L157.523 27.2909L157.519 27.2928L157.742 27.74ZM161.45 27.412C163.74 27.412 165.551 28.1063 166.932 29.4644L167.633 28.7516C166.037 27.1817 163.96 26.412 161.45 26.412V27.412ZM166.935 29.4673C168.297 30.7857 169.014 32.7261 169.014 35.372H170.014C170.014 32.5459 169.244 30.3103 167.63 28.7487L166.935 29.4673ZM169.014 35.372V47H170.014V35.372H169.014ZM169.514 46.5H166.274V47.5H169.514V46.5ZM166.774 47V35.84H165.774V47H166.774ZM166.774 35.84C166.774 33.793 166.262 32.1505 165.16 30.995L164.437 31.685C165.303 32.5935 165.774 33.951 165.774 35.84H166.774ZM165.164 30.9991C164.069 29.8233 162.582 29.256 160.766 29.256V30.256C162.359 30.256 163.56 30.7447 164.433 31.6809L165.164 30.9991ZM160.766 29.256C158.925 29.256 157.406 29.8362 156.265 31.0306L156.988 31.7214C157.911 30.7558 159.152 30.256 160.766 30.256V29.256ZM156.261 31.0348C155.137 32.2387 154.614 33.9519 154.614 36.092H155.614C155.614 34.1041 156.1 32.6733 156.992 31.7172L156.261 31.0348ZM154.614 36.092V47H155.614V36.092H154.614ZM155.114 46.5H151.838V47.5H155.114V46.5ZM152.338 47V27.272H151.338V47H152.338ZM151.838 27.772H155.114V26.772H151.838V27.772ZM154.614 27.272V30.08H155.614V27.272H154.614ZM155.535 30.3504C156.133 29.4203 156.94 28.7003 157.966 28.1872L157.519 27.2928C156.337 27.8837 155.392 28.7237 154.694 29.8096L155.535 30.3504ZM157.962 28.1891C159.017 27.6729 160.177 27.412 161.45 27.412V26.412C160.036 26.412 158.724 26.7031 157.523 27.2909L157.962 28.1891ZM174.866 31.772L175.306 32.0095L175.307 32.0066L174.866 31.772ZM178.214 28.208L177.962 27.7761L177.959 27.778L178.214 28.208ZM187.502 28.064L187.249 28.4956L187.249 28.4956L187.502 28.064ZM190.346 30.872L189.908 31.114L190.846 30.872H190.346ZM190.346 27.272V26.772H189.846V27.272H190.346ZM193.658 27.272H194.158V26.772H193.658V27.272ZM193.658 47V47.5H194.158V47H193.658ZM190.346 47H189.846V47.5H190.346V47ZM190.346 43.328H190.846V41.4192L189.91 43.0829L190.346 43.328ZM187.43 46.208L187.682 46.6396L187.685 46.6381L187.43 46.208ZM178.214 46.028L177.953 46.4548L177.953 46.4548L178.214 46.028ZM174.866 42.392L175.309 42.1603L175.309 42.1603L174.866 42.392ZM186.998 30.692L186.742 31.1218L186.754 31.1286L186.998 30.692ZM180.302 30.656L180.054 30.2219L180.054 30.2219L180.302 30.656ZM177.89 33.176L178.329 33.4148L178.329 33.4148L177.89 33.176ZM177.89 41.024L177.448 41.2588L177.45 41.2628L177.89 41.024ZM180.302 43.58L180.046 44.0097L180.054 44.0141L180.302 43.58ZM186.998 43.58L187.246 44.0141L187.249 44.0123L186.998 43.58ZM189.446 41.024L189.885 41.2628L189.887 41.2588L189.446 41.024ZM174.142 37.064C174.142 35.1165 174.535 33.4368 175.306 32.0095L174.426 31.5345C173.564 33.1312 173.142 34.9795 173.142 37.064H174.142ZM175.307 32.0066C176.083 30.5468 177.136 29.4285 178.469 28.638L177.959 27.778C176.459 28.6675 175.281 29.9252 174.424 31.5374L175.307 32.0066ZM178.466 28.6399C179.825 27.8468 181.334 27.448 183.002 27.448V26.448C181.166 26.448 179.482 26.8892 177.962 27.7761L178.466 28.6399ZM183.002 27.448C184.656 27.448 186.066 27.8036 187.249 28.4956L187.754 27.6324C186.393 26.8364 184.803 26.448 183.002 26.448V27.448ZM187.249 28.4956C188.455 29.2008 189.334 30.0754 189.908 31.114L190.783 30.63C190.11 29.4126 189.092 28.4152 187.754 27.6324L187.249 28.4956ZM190.846 30.872V27.272H189.846V30.872H190.846ZM190.346 27.772H193.658V26.772H190.346V27.772ZM193.158 27.272V47H194.158V27.272H193.158ZM193.658 46.5H190.346V47.5H193.658V46.5ZM190.846 47V43.328H189.846V47H190.846ZM189.91 43.0829C189.311 44.1482 188.406 45.0482 187.175 45.7779L187.685 46.6381C189.045 45.8318 190.085 44.8118 190.782 43.5731L189.91 43.0829ZM187.177 45.7764C185.993 46.469 184.595 46.824 182.966 46.824V47.824C184.744 47.824 186.322 47.435 187.682 46.6396L187.177 45.7764ZM182.966 46.824C181.3 46.824 179.807 46.4146 178.474 45.6012L177.953 46.4548C179.452 47.3694 181.127 47.824 182.966 47.824V46.824ZM178.474 45.6012C177.14 44.7874 176.085 43.645 175.309 42.1603L174.423 42.6237C175.278 44.259 176.455 45.5406 177.953 46.4548L178.474 45.6012ZM175.309 42.1603C174.535 40.6807 174.142 38.986 174.142 37.064H173.142C173.142 39.126 173.565 40.9833 174.423 42.6237L175.309 42.1603ZM190.846 37.1C190.846 35.544 190.532 34.1629 189.885 32.9732L189.006 33.4508C189.56 34.4691 189.846 35.68 189.846 37.1H190.846ZM189.885 32.9732C189.243 31.7916 188.361 30.8805 187.241 30.2554L186.754 31.1286C187.698 31.6555 188.449 32.4244 189.006 33.4508L189.885 32.9732ZM187.253 30.2624C186.165 29.6143 184.96 29.292 183.65 29.292V30.292C184.788 30.292 185.815 30.5697 186.742 31.1216L187.253 30.2624ZM183.65 29.292C182.344 29.292 181.141 29.6003 180.054 30.2219L180.55 31.0901C181.478 30.5597 182.508 30.292 183.65 30.292V29.292ZM180.054 30.2219C178.958 30.8478 178.091 31.7586 177.45 32.9372L178.329 33.4148C178.888 32.3854 179.629 31.6162 180.55 31.0901L180.054 30.2219ZM177.45 32.9372C176.804 34.1269 176.49 35.508 176.49 37.064H177.49C177.49 35.644 177.776 34.4331 178.329 33.4148L177.45 32.9372ZM176.49 37.064C176.49 38.6429 176.803 40.0463 177.448 41.2588L178.331 40.7892C177.776 39.7457 177.49 38.5091 177.49 37.064H176.49ZM177.45 41.2628C178.09 42.4399 178.955 43.3604 180.046 44.0096L180.557 43.1504C179.632 42.5996 178.889 41.8161 178.329 40.7852L177.45 41.2628ZM180.054 44.0141C181.141 44.6357 182.344 44.944 183.65 44.944V43.944C182.508 43.944 181.478 43.6763 180.55 43.1459L180.054 44.0141ZM183.65 44.944C184.956 44.944 186.158 44.6357 187.246 44.0141L186.75 43.1459C185.821 43.6763 184.792 43.944 183.65 43.944V44.944ZM187.249 44.0123C188.365 43.3637 189.244 42.4428 189.885 41.2628L189.006 40.7852C188.448 41.8132 187.695 42.5963 186.746 43.1477L187.249 44.0123ZM189.887 41.2588C190.532 40.0474 190.846 38.6564 190.846 37.1H189.846C189.846 38.5196 189.56 39.7446 189.004 40.7892L189.887 41.2588Z" fill="#0C0C0C" mask="url(#path-3-outside-1_318_17870)"/>
<g filter="url(#filter0_d_318_17870)">
<path d="M203.073 54.4636L199.255 36.5774L217.365 45.5344L208.392 47.7621L203.073 54.4636Z" fill="#F3ABCB"/>
<path d="M203.073 54.4636L199.255 36.5774L217.365 45.5344L208.392 47.7621L203.073 54.4636Z" stroke="#0F0F0F" stroke-width="2"/>
</g>
<defs>
<filter id="filter0_d_318_17870" x="195.571" y="33.6878" width="26.7761" height="26.5026" filterUnits="userSpaceOnUse" color-interpolation-filters="sRGB">
<feFlood flood-opacity="0" result="BackgroundImageFix"/>
<feColorMatrix in="SourceAlpha" type="matrix" values="0 0 0 0 0 0 0 0 0 0 0 0 0 0 0 0 0 0 127 0" result="hardAlpha"/>
<feOffset dy="1.11882"/>
<feGaussianBlur stdDeviation="1.11882"/>
<feComposite in2="hardAlpha" operator="out"/>
<feColorMatrix type="matrix" values="0 0 0 0 0 0 0 0 0 0 0 0 0 0 0 0 0 0 0.25 0"/>
<feBlend mode="normal" in2="BackgroundImageFix" result="effect1_dropShadow_318_17870"/>
<feBlend mode="normal" in="SourceGraphic" in2="effect1_dropShadow_318_17870" result="shape"/>
</filter>
</defs>
</svg>
