<svg width="33" height="33" viewBox="0 0 33 33" fill="none" xmlns="http://www.w3.org/2000/svg">
<rect y="0.617188" width="32.2797" height="32.2797" rx="16.1398" fill="black"/>
<path d="M9.97043 10.0315H17.095C18.6396 10.0315 19.8292 10.3714 20.6634 11.051C21.4977 11.731 21.9149 12.7192 21.9149 14.0169C21.9149 15.3459 21.4977 16.3614 20.6634 17.064C19.8292 17.7672 18.6396 18.1185 17.095 18.1185H15.5139L9.97043 10.0315ZM18.2303 19.5088C18.2303 19.5088 18.3098 19.5088 18.4632 19.4908L22.1257 25.0566H23.9795L19.902 19.1346C20.0445 19.0855 20.1948 19.0308 20.3551 18.968C21.2401 18.5971 21.9476 18.0534 22.471 17.3307C23.1197 16.4348 23.4443 15.3146 23.4443 13.9708C23.4443 12.2561 22.8917 10.9317 21.7873 9.99682C20.6829 9.0622 19.1188 8.59474 17.095 8.59474H9.8996H8.30078V10.0315V24.7919H9.8996V19.555V18.1185V12.4064L18.4156 25.0566H20.2697L16.4988 19.555H17.095C17.3577 19.555 17.7359 19.5401 18.2303 19.5088Z" fill="white"/>
</svg>
