<svg width="40" height="40" viewBox="0 0 40 40" fill="none" xmlns="http://www.w3.org/2000/svg">
<rect width="40" height="40" rx="5" fill="#FF4883"/>
<path d="M11.0054 10.0957H21.3919C23.6437 10.0957 25.3779 10.5911 26.5941 11.582C27.8103 12.5732 28.4186 14.014 28.4186 15.9058C28.4186 17.8432 27.8103 19.3237 26.5941 20.348C25.3779 21.3731 23.6437 21.8853 21.3919 21.8853H19.087L11.0054 10.0957ZM23.0471 23.9121C23.0471 23.9121 23.1629 23.9121 23.3866 23.8858L28.7259 32H31.4284L25.4841 23.3665C25.6919 23.2951 25.911 23.2152 26.1447 23.1236C27.4349 22.583 28.4663 21.7904 29.2293 20.7368C30.175 19.4307 30.6483 17.7976 30.6483 15.8385C30.6483 13.3388 29.8426 11.408 28.2326 10.0451C26.6225 8.68255 24.3423 8.00107 21.3919 8.00107H10.9021H8.57129V10.0957V31.6141H10.9021V23.9795V21.8853V13.5578L23.3172 32H26.0201L20.5227 23.9795H21.3919C21.7749 23.9795 22.3263 23.9577 23.0471 23.9121Z" fill="white"/>
</svg>
