<svg width="842" height="155" viewBox="0 0 842 155" fill="none" xmlns="http://www.w3.org/2000/svg">
<path d="M80.3951 155L44.7629 93.0891H25.3879V155H0V0.222698H53.4483C65.3257 0.222698 75.3472 2.30124 83.5129 6.45833C91.8271 10.6154 97.9885 16.1829 101.997 23.1609C106.154 30.1389 108.233 37.9334 108.233 46.5445C108.233 56.6403 105.263 65.8453 99.3247 74.1595C93.5345 82.3252 84.5522 87.8927 72.3779 90.8621L110.682 155H80.3951ZM25.3879 72.8233H53.4483C62.9502 72.8233 70.0766 70.4478 74.8276 65.6968C79.727 60.9459 82.1767 54.5618 82.1767 46.5445C82.1767 38.5273 79.8012 32.2917 75.0503 27.8376C70.2993 23.2351 63.0987 20.9339 53.4483 20.9339H25.3879V72.8233Z" fill="#0A0C09"/>
<path d="M264.31 0.222698V155H238.922V87.2988H166.098V155H140.711V0.222698H166.098V66.5876H238.922V0.222698H264.31Z" fill="#0A0C09"/>
<path d="M323.12 20.7112V66.1422H376.568V86.8534H323.12V134.289H383.249V155H297.732V0H383.249V20.7112H323.12Z" fill="#0A0C09"/>
<path d="M529.211 0.222698L477.99 98.8793V155H452.602V98.8793L401.158 0.222698H429.441L465.296 76.1638L501.151 0.222698H529.211Z" fill="#0A0C09"/>
<path d="M676.521 155H651.133L574.746 39.4181V155H549.358V0H574.746L651.133 115.359V0H676.521V155Z" fill="#0A0C09"/>
<path d="M803.172 123.376H738.365L727.23 155H700.729L756.182 0H785.578L841.031 155H814.307L803.172 123.376ZM796.045 102.665L770.88 30.7328L745.492 102.665H796.045Z" fill="#0A0C09"/>
</svg>
