<svg width="40" height="40" viewBox="0 0 40 40" fill="none" xmlns="http://www.w3.org/2000/svg">
<rect width="40" height="40" rx="5" fill="#FF4883"/>
<path d="M11.0054 10.0952H21.3919C23.6437 10.0952 25.3779 10.5906 26.5941 11.5815C27.8103 12.5728 28.4186 14.0135 28.4186 15.9053C28.4186 17.8427 27.8103 19.3232 26.5941 20.3475C25.3779 21.3726 23.6437 21.8848 21.3919 21.8848H19.087L11.0054 10.0952ZM23.0471 23.9116C23.0471 23.9116 23.1629 23.9117 23.3866 23.8853L28.7259 31.9995H31.4284L25.4841 23.3661C25.6919 23.2946 25.911 23.2147 26.1447 23.1231C27.4349 22.5826 28.4663 21.7899 29.2293 20.7363C30.175 19.4302 30.6483 17.7972 30.6483 15.838C30.6483 13.3383 29.8426 11.4076 28.2326 10.0446C26.6225 8.68206 24.3423 8.00058 21.3919 8.00058H10.9021H8.57129V10.0952V31.6136H10.9021V23.979V21.8848V13.5574L23.3172 31.9995H26.0201L20.5227 23.979H21.3919C21.7749 23.979 22.3263 23.9572 23.0471 23.9116Z" fill="white"/>
</svg>
