<svg width="54" height="54" viewBox="0 0 54 54" fill="none" xmlns="http://www.w3.org/2000/svg">
<path d="M31.3797 53.4501H25.0726C24.7655 53.4501 24.4854 53.2727 24.3539 52.9944L16.4138 36.1569C16.1652 35.6305 16.5501 35.0245 17.1311 35.0245H23.4387C23.7458 35.0245 24.0263 35.2019 24.1569 35.4802L32.0984 52.3168C32.3456 52.8441 31.9616 53.4501 31.3797 53.4501Z" fill="url(#paint0_linear_202_2347)"/>
<path d="M42.2928 53.4501H35.9857C35.6786 53.4501 35.3985 53.2727 35.267 52.9944L27.3269 36.1569C27.0783 35.6305 27.4632 35.0245 28.0442 35.0245H34.3518C34.6589 35.0245 34.9394 35.2019 35.07 35.4802L43.0115 52.3168C43.2587 52.8441 42.8747 53.4501 42.2928 53.4501Z" fill="url(#paint1_linear_202_2347)"/>
<path d="M53.2049 53.4501H46.8978C46.5907 53.4501 46.3106 53.2727 46.1791 52.9944L38.239 36.1569C37.9904 35.6305 38.3753 35.0245 38.9563 35.0245H45.2639C45.571 35.0245 45.8515 35.2019 45.9821 35.4802L53.9236 52.3168C54.1708 52.8441 53.7868 53.4501 53.2049 53.4501Z" fill="url(#paint2_linear_202_2347)"/>
<path d="M34.4688 17.366C34.2373 26.304 26.6654 33.3127 17.7244 33.3127C17.7244 33.3127 13.6038 33.3088 11.5125 33.3018C10.8545 33.2992 10.3246 32.7667 10.3246 32.1087L10.3255 26.3691C10.3264 25.7138 10.851 25.1812 11.5064 25.1769C13.3701 25.1642 16.7829 25.1533 16.7829 25.1533C21.156 25.1533 24.9507 21.8422 25.2329 17.4787C25.3941 14.9934 24.4487 12.7251 22.8419 11.1196C21.3539 9.63119 19.2993 8.70982 17.0297 8.70982H0.0301417L0 8.68099V0.579182L0.0301417 0.549915H18.0935C27.284 0.549915 34.7087 8.12092 34.4688 17.366Z" fill="url(#paint3_linear_202_2347)"/>
<defs>
<linearGradient id="paint0_linear_202_2347" x1="31.9371" y1="44.2373" x2="18.475" y2="44.2373" gradientUnits="userSpaceOnUse">
<stop stop-color="#C33764"/>
<stop offset="1" stop-color="#1D2671"/>
</linearGradient>
<linearGradient id="paint1_linear_202_2347" x1="42.8502" y1="44.2373" x2="29.3881" y2="44.2373" gradientUnits="userSpaceOnUse">
<stop stop-color="#C33764"/>
<stop offset="1" stop-color="#1D2671"/>
</linearGradient>
<linearGradient id="paint2_linear_202_2347" x1="53.7623" y1="44.2373" x2="40.3002" y2="44.2373" gradientUnits="userSpaceOnUse">
<stop stop-color="#C33764"/>
<stop offset="1" stop-color="#1D2671"/>
</linearGradient>
<linearGradient id="paint3_linear_202_2347" x1="33.9574" y1="16.9314" x2="4.65405" y2="16.9314" gradientUnits="userSpaceOnUse">
<stop stop-color="#C33764"/>
<stop offset="1" stop-color="#1D2671"/>
</linearGradient>
</defs>
</svg>
