<svg width="172" height="48" viewBox="0 0 172 48" fill="none" xmlns="http://www.w3.org/2000/svg">
<rect y="4" width="40" height="40" rx="5" fill="#FF4883"/>
<path d="M11.0055 14.0952H21.392C23.6438 14.0952 25.378 14.5906 26.5942 15.5815C27.8104 16.5728 28.4188 18.0135 28.4188 19.9053C28.4188 21.8427 27.8104 23.3232 26.5942 24.3475C25.378 25.3726 23.6438 25.8848 21.392 25.8848H19.0871L11.0055 14.0952ZM23.0472 27.9116C23.0472 27.9116 23.163 27.9117 23.3867 27.8853L28.7261 35.9995H31.4286L25.4842 27.3661C25.692 27.2946 25.9111 27.2147 26.1448 27.1231C27.435 26.5826 28.4664 25.7899 29.2294 24.7363C30.1751 23.4302 30.6484 21.7972 30.6484 19.838C30.6484 17.3383 29.8428 15.4076 28.2327 14.0446C26.6227 12.6821 24.3424 12.0006 21.392 12.0006H10.9022H8.57141V14.0952V35.6136H10.9022V27.979V25.8848V17.5574L23.3173 35.9995H26.0202L20.5228 27.979H21.392C21.775 27.979 22.3264 27.9572 23.0472 27.9116Z" fill="white"/>
<path d="M56.048 19.928C56.5813 19.032 57.2853 18.3387 58.16 17.848C59.056 17.336 60.112 17.08 61.328 17.08V20.856H60.4C58.9707 20.856 57.8827 21.2187 57.136 21.944C56.4107 22.6693 56.048 23.928 56.048 25.72V35H52.4V17.368H56.048V19.928ZM73.8013 17.08C75.1453 17.08 76.3399 17.368 77.3853 17.944C78.4519 18.52 79.2839 19.3733 79.8813 20.504C80.4999 21.6347 80.8093 23 80.8093 24.6V35H77.1933V25.144C77.1933 23.5653 76.7986 22.36 76.0093 21.528C75.2199 20.6747 74.1426 20.248 72.7773 20.248C71.4119 20.248 70.3239 20.6747 69.5133 21.528C68.7239 22.36 68.3293 23.5653 68.3293 25.144V35H64.6813V11.32H68.3293V19.416C68.9479 18.6693 69.7266 18.0933 70.6653 17.688C71.6253 17.2827 72.6706 17.08 73.8013 17.08ZM101.623 25.752C101.623 26.4133 101.58 27.0107 101.495 27.544H88.0225C88.1292 28.952 88.6518 30.0827 89.5905 30.936C90.5292 31.7893 91.6812 32.216 93.0465 32.216C95.0092 32.216 96.3958 31.3947 97.2065 29.752H101.142C100.609 31.3733 99.6385 32.7067 98.2305 33.752C96.8438 34.776 95.1158 35.288 93.0465 35.288C91.3612 35.288 89.8465 34.9147 88.5025 34.168C87.1798 33.4 86.1345 32.3333 85.3665 30.968C84.6198 29.5813 84.2465 27.9813 84.2465 26.168C84.2465 24.3547 84.6092 22.7653 85.3345 21.4C86.0812 20.0133 87.1158 18.9467 88.4385 18.2C89.7825 17.4533 91.3185 17.08 93.0465 17.08C94.7105 17.08 96.1932 17.4427 97.4945 18.168C98.7958 18.8933 99.8092 19.9173 100.535 21.24C101.26 22.5413 101.623 24.0453 101.623 25.752ZM97.8145 24.6C97.7932 23.256 97.3132 22.1787 96.3745 21.368C95.4358 20.5573 94.2732 20.152 92.8865 20.152C91.6278 20.152 90.5505 20.5573 89.6545 21.368C88.7585 22.1573 88.2252 23.2347 88.0545 24.6H97.8145ZM121.085 17.368L110.269 43.288H106.493L110.077 34.712L103.133 17.368H107.197L112.157 30.808L117.309 17.368H121.085ZM132.734 17.08C134.12 17.08 135.358 17.368 136.446 17.944C137.555 18.52 138.419 19.3733 139.038 20.504C139.656 21.6347 139.966 23 139.966 24.6V35H136.35V25.144C136.35 23.5653 135.955 22.36 135.166 21.528C134.376 20.6747 133.299 20.248 131.934 20.248C130.568 20.248 129.48 20.6747 128.67 21.528C127.88 22.36 127.486 23.5653 127.486 25.144V35H123.838V17.368H127.486V19.384C128.083 18.6587 128.84 18.0933 129.758 17.688C130.696 17.2827 131.688 17.08 132.734 17.08ZM143.403 26.104C143.403 24.3333 143.765 22.7653 144.491 21.4C145.237 20.0347 146.24 18.9787 147.499 18.232C148.779 17.464 150.187 17.08 151.723 17.08C153.109 17.08 154.315 17.3573 155.339 17.912C156.384 18.4453 157.216 19.1173 157.835 19.928V17.368H161.515V35H157.835V32.376C157.216 33.208 156.373 33.9013 155.307 34.456C154.24 35.0107 153.024 35.288 151.659 35.288C150.144 35.288 148.757 34.904 147.499 34.136C146.24 33.3467 145.237 32.2587 144.491 30.872C143.765 29.464 143.403 27.8747 143.403 26.104ZM157.835 26.168C157.835 24.952 157.579 23.896 157.067 23C156.576 22.104 155.925 21.4213 155.115 20.952C154.304 20.4827 153.429 20.248 152.491 20.248C151.552 20.248 150.677 20.4827 149.867 20.952C149.056 21.4 148.395 22.072 147.883 22.968C147.392 23.8427 147.147 24.888 147.147 26.104C147.147 27.32 147.392 28.3867 147.883 29.304C148.395 30.2213 149.056 30.9253 149.867 31.416C150.699 31.8853 151.573 32.12 152.491 32.12C153.429 32.12 154.304 31.8853 155.115 31.416C155.925 30.9467 156.576 30.264 157.067 29.368C157.579 28.4507 157.835 27.384 157.835 26.168ZM167.778 35.224C167.117 35.224 166.562 35 166.114 34.552C165.666 34.104 165.442 33.5493 165.442 32.888C165.442 32.2267 165.666 31.672 166.114 31.224C166.562 30.776 167.117 30.552 167.778 30.552C168.418 30.552 168.962 30.776 169.41 31.224C169.858 31.672 170.082 32.2267 170.082 32.888C170.082 33.5493 169.858 34.104 169.41 34.552C168.962 35 168.418 35.224 167.778 35.224Z" fill="#101010"/>
</svg>
