<svg width="60" height="60" viewBox="0 0 60 60" fill="none" xmlns="http://www.w3.org/2000/svg">
<rect width="60" height="60" rx="30" fill="#F3ABCB"/>
<path d="M38.2034 30.3277L38.2035 30.3276C39.6667 29.0953 40.4163 27.3063 40.4163 24.9076C40.4163 22.5697 39.6685 20.8327 38.2075 19.6419C36.7339 18.4413 34.6049 17.8185 31.7759 17.8185H19.1381L29.0051 32.2127H31.7759C34.6027 32.2127 36.73 31.5695 38.2034 30.3277ZM31.2726 35.5203L37.9398 45.2475L38.2818 45.7465H37.6769H34.2307H34.061L33.9663 45.6057L18.7202 22.9583V32.5314V35.2015V44.9357V45.2545H18.4015H15.4297H15.1109V44.9357V17.4997V14.8291V14.5103H15.4297H18.4015H31.7759C35.5834 14.5103 38.5741 15.3897 40.7038 17.1919L40.7038 17.1919C42.8415 19.0016 43.8966 21.56 43.8966 24.8218C43.8966 27.3722 43.2798 29.5236 42.0268 31.2541L42.0268 31.2541C41.0165 32.6492 39.6526 33.6947 37.9589 34.4044L37.959 34.4044L37.952 34.4072C37.7936 34.4692 37.6403 34.5271 37.4917 34.5815L44.8351 45.247L45.179 45.7465H44.5725H41.1269H40.955L40.8606 45.6029L34.1593 35.4191C34.1021 35.4241 34.0537 35.4275 34.0142 35.4297C33.9748 35.432 33.9443 35.4332 33.923 35.4338L33.898 35.4344C32.9806 35.4923 32.2726 35.5203 31.7759 35.5203H31.2726Z" fill="black" stroke="black" stroke-width="0.6375"/>
</svg>
